G04 #@! TF.GenerationSoftware,KiCad,Pcbnew,10.0.6*
G04 #@! TF.CreationDate,2026-10-07T21:06:22-07:00*
G04 #@! TF.ProjectId,Multiple,4d756c74-6970-46c6-952e-6b696361645f,1.1*
G04 #@! TF.SameCoordinates,Original*
G04 #@! TF.FileFunction,Legend,Bot*
G04 #@! TF.FilePolarity,Positive*
%FSLAX46Y46*%
G04 Gerber Fmt 4.6, Leading zero omitted, Abs format (unit mm)*
G04 Created by KiCad (PCBNEW 10.0.6) date 2026-10-07 21:06:22*
%MOMM*%
%LPD*%
G01*
G04 APERTURE LIST*
%ADD10C,0.150000*%
%ADD11C,0.020000*%
G04 APERTURE END LIST*
D10*
X164238095Y-54157200D02*
X164142857Y-54204819D01*
X164142857Y-54204819D02*
X163952381Y-54204819D01*
X163952381Y-54204819D02*
X163857143Y-54157200D01*
X163857143Y-54157200D02*
X163809524Y-54061961D01*
X163809524Y-54061961D02*
X163809524Y-54014342D01*
X163809524Y-54014342D02*
X163857143Y-53919104D01*
X163857143Y-53919104D02*
X163952381Y-53871485D01*
X163952381Y-53871485D02*
X164095238Y-53871485D01*
X164095238Y-53871485D02*
X164190476Y-53823866D01*
X164190476Y-53823866D02*
X164238095Y-53728628D01*
X164238095Y-53728628D02*
X164238095Y-53681009D01*
X164238095Y-53681009D02*
X164190476Y-53585771D01*
X164190476Y-53585771D02*
X164095238Y-53538152D01*
X164095238Y-53538152D02*
X163952381Y-53538152D01*
X163952381Y-53538152D02*
X163857143Y-53585771D01*
X162952381Y-54157200D02*
X163047619Y-54204819D01*
X163047619Y-54204819D02*
X163238095Y-54204819D01*
X163238095Y-54204819D02*
X163333333Y-54157200D01*
X163333333Y-54157200D02*
X163380952Y-54109580D01*
X163380952Y-54109580D02*
X163428571Y-54014342D01*
X163428571Y-54014342D02*
X163428571Y-53728628D01*
X163428571Y-53728628D02*
X163380952Y-53633390D01*
X163380952Y-53633390D02*
X163333333Y-53585771D01*
X163333333Y-53585771D02*
X163238095Y-53538152D01*
X163238095Y-53538152D02*
X163047619Y-53538152D01*
X163047619Y-53538152D02*
X162952381Y-53585771D01*
X162523809Y-54204819D02*
X162523809Y-53204819D01*
X162095238Y-54204819D02*
X162095238Y-53681009D01*
X162095238Y-53681009D02*
X162142857Y-53585771D01*
X162142857Y-53585771D02*
X162238095Y-53538152D01*
X162238095Y-53538152D02*
X162380952Y-53538152D01*
X162380952Y-53538152D02*
X162476190Y-53585771D01*
X162476190Y-53585771D02*
X162523809Y-53633390D01*
X161238095Y-54157200D02*
X161333333Y-54204819D01*
X161333333Y-54204819D02*
X161523809Y-54204819D01*
X161523809Y-54204819D02*
X161619047Y-54157200D01*
X161619047Y-54157200D02*
X161666666Y-54061961D01*
X161666666Y-54061961D02*
X161666666Y-53681009D01*
X161666666Y-53681009D02*
X161619047Y-53585771D01*
X161619047Y-53585771D02*
X161523809Y-53538152D01*
X161523809Y-53538152D02*
X161333333Y-53538152D01*
X161333333Y-53538152D02*
X161238095Y-53585771D01*
X161238095Y-53585771D02*
X161190476Y-53681009D01*
X161190476Y-53681009D02*
X161190476Y-53776247D01*
X161190476Y-53776247D02*
X161666666Y-53871485D01*
X160761904Y-53538152D02*
X160761904Y-54204819D01*
X160761904Y-53633390D02*
X160714285Y-53585771D01*
X160714285Y-53585771D02*
X160619047Y-53538152D01*
X160619047Y-53538152D02*
X160476190Y-53538152D01*
X160476190Y-53538152D02*
X160380952Y-53585771D01*
X160380952Y-53585771D02*
X160333333Y-53681009D01*
X160333333Y-53681009D02*
X160333333Y-54204819D01*
X159857142Y-54204819D02*
X159857142Y-53204819D01*
X159761904Y-53823866D02*
X159476190Y-54204819D01*
X159476190Y-53538152D02*
X159857142Y-53919104D01*
X159190475Y-53538152D02*
X158809523Y-53538152D01*
X159047618Y-53204819D02*
X159047618Y-54061961D01*
X159047618Y-54061961D02*
X158999999Y-54157200D01*
X158999999Y-54157200D02*
X158904761Y-54204819D01*
X158904761Y-54204819D02*
X158809523Y-54204819D01*
X158476189Y-54204819D02*
X158476189Y-53538152D01*
X158476189Y-53728628D02*
X158428570Y-53633390D01*
X158428570Y-53633390D02*
X158380951Y-53585771D01*
X158380951Y-53585771D02*
X158285713Y-53538152D01*
X158285713Y-53538152D02*
X158190475Y-53538152D01*
X157714284Y-54204819D02*
X157809522Y-54157200D01*
X157809522Y-54157200D02*
X157857141Y-54109580D01*
X157857141Y-54109580D02*
X157904760Y-54014342D01*
X157904760Y-54014342D02*
X157904760Y-53728628D01*
X157904760Y-53728628D02*
X157857141Y-53633390D01*
X157857141Y-53633390D02*
X157809522Y-53585771D01*
X157809522Y-53585771D02*
X157714284Y-53538152D01*
X157714284Y-53538152D02*
X157571427Y-53538152D01*
X157571427Y-53538152D02*
X157476189Y-53585771D01*
X157476189Y-53585771D02*
X157428570Y-53633390D01*
X157428570Y-53633390D02*
X157380951Y-53728628D01*
X157380951Y-53728628D02*
X157380951Y-54014342D01*
X157380951Y-54014342D02*
X157428570Y-54109580D01*
X157428570Y-54109580D02*
X157476189Y-54157200D01*
X157476189Y-54157200D02*
X157571427Y-54204819D01*
X157571427Y-54204819D02*
X157714284Y-54204819D01*
X156952379Y-53538152D02*
X156952379Y-54204819D01*
X156952379Y-53633390D02*
X156904760Y-53585771D01*
X156904760Y-53585771D02*
X156809522Y-53538152D01*
X156809522Y-53538152D02*
X156666665Y-53538152D01*
X156666665Y-53538152D02*
X156571427Y-53585771D01*
X156571427Y-53585771D02*
X156523808Y-53681009D01*
X156523808Y-53681009D02*
X156523808Y-54204819D01*
X156047617Y-54204819D02*
X156047617Y-53538152D01*
X156047617Y-53204819D02*
X156095236Y-53252438D01*
X156095236Y-53252438D02*
X156047617Y-53300057D01*
X156047617Y-53300057D02*
X155999998Y-53252438D01*
X155999998Y-53252438D02*
X156047617Y-53204819D01*
X156047617Y-53204819D02*
X156047617Y-53300057D01*
X155142856Y-54157200D02*
X155238094Y-54204819D01*
X155238094Y-54204819D02*
X155428570Y-54204819D01*
X155428570Y-54204819D02*
X155523808Y-54157200D01*
X155523808Y-54157200D02*
X155571427Y-54109580D01*
X155571427Y-54109580D02*
X155619046Y-54014342D01*
X155619046Y-54014342D02*
X155619046Y-53728628D01*
X155619046Y-53728628D02*
X155571427Y-53633390D01*
X155571427Y-53633390D02*
X155523808Y-53585771D01*
X155523808Y-53585771D02*
X155428570Y-53538152D01*
X155428570Y-53538152D02*
X155238094Y-53538152D01*
X155238094Y-53538152D02*
X155142856Y-53585771D01*
X154761903Y-54157200D02*
X154666665Y-54204819D01*
X154666665Y-54204819D02*
X154476189Y-54204819D01*
X154476189Y-54204819D02*
X154380951Y-54157200D01*
X154380951Y-54157200D02*
X154333332Y-54061961D01*
X154333332Y-54061961D02*
X154333332Y-54014342D01*
X154333332Y-54014342D02*
X154380951Y-53919104D01*
X154380951Y-53919104D02*
X154476189Y-53871485D01*
X154476189Y-53871485D02*
X154619046Y-53871485D01*
X154619046Y-53871485D02*
X154714284Y-53823866D01*
X154714284Y-53823866D02*
X154761903Y-53728628D01*
X154761903Y-53728628D02*
X154761903Y-53681009D01*
X154761903Y-53681009D02*
X154714284Y-53585771D01*
X154714284Y-53585771D02*
X154619046Y-53538152D01*
X154619046Y-53538152D02*
X154476189Y-53538152D01*
X154476189Y-53538152D02*
X154380951Y-53585771D01*
X153904760Y-54109580D02*
X153857141Y-54157200D01*
X153857141Y-54157200D02*
X153904760Y-54204819D01*
X153904760Y-54204819D02*
X153952379Y-54157200D01*
X153952379Y-54157200D02*
X153904760Y-54109580D01*
X153904760Y-54109580D02*
X153904760Y-54204819D01*
X152999999Y-54157200D02*
X153095237Y-54204819D01*
X153095237Y-54204819D02*
X153285713Y-54204819D01*
X153285713Y-54204819D02*
X153380951Y-54157200D01*
X153380951Y-54157200D02*
X153428570Y-54109580D01*
X153428570Y-54109580D02*
X153476189Y-54014342D01*
X153476189Y-54014342D02*
X153476189Y-53728628D01*
X153476189Y-53728628D02*
X153428570Y-53633390D01*
X153428570Y-53633390D02*
X153380951Y-53585771D01*
X153380951Y-53585771D02*
X153285713Y-53538152D01*
X153285713Y-53538152D02*
X153095237Y-53538152D01*
X153095237Y-53538152D02*
X152999999Y-53585771D01*
X152428570Y-54204819D02*
X152523808Y-54157200D01*
X152523808Y-54157200D02*
X152571427Y-54109580D01*
X152571427Y-54109580D02*
X152619046Y-54014342D01*
X152619046Y-54014342D02*
X152619046Y-53728628D01*
X152619046Y-53728628D02*
X152571427Y-53633390D01*
X152571427Y-53633390D02*
X152523808Y-53585771D01*
X152523808Y-53585771D02*
X152428570Y-53538152D01*
X152428570Y-53538152D02*
X152285713Y-53538152D01*
X152285713Y-53538152D02*
X152190475Y-53585771D01*
X152190475Y-53585771D02*
X152142856Y-53633390D01*
X152142856Y-53633390D02*
X152095237Y-53728628D01*
X152095237Y-53728628D02*
X152095237Y-54014342D01*
X152095237Y-54014342D02*
X152142856Y-54109580D01*
X152142856Y-54109580D02*
X152190475Y-54157200D01*
X152190475Y-54157200D02*
X152285713Y-54204819D01*
X152285713Y-54204819D02*
X152428570Y-54204819D01*
X151666665Y-54204819D02*
X151666665Y-53538152D01*
X151666665Y-53633390D02*
X151619046Y-53585771D01*
X151619046Y-53585771D02*
X151523808Y-53538152D01*
X151523808Y-53538152D02*
X151380951Y-53538152D01*
X151380951Y-53538152D02*
X151285713Y-53585771D01*
X151285713Y-53585771D02*
X151238094Y-53681009D01*
X151238094Y-53681009D02*
X151238094Y-54204819D01*
X151238094Y-53681009D02*
X151190475Y-53585771D01*
X151190475Y-53585771D02*
X151095237Y-53538152D01*
X151095237Y-53538152D02*
X150952380Y-53538152D01*
X150952380Y-53538152D02*
X150857141Y-53585771D01*
X150857141Y-53585771D02*
X150809522Y-53681009D01*
X150809522Y-53681009D02*
X150809522Y-54204819D01*
X161690475Y-62002228D02*
X161547618Y-62049847D01*
X161547618Y-62049847D02*
X161309523Y-62049847D01*
X161309523Y-62049847D02*
X161214285Y-62002228D01*
X161214285Y-62002228D02*
X161166666Y-61954608D01*
X161166666Y-61954608D02*
X161119047Y-61859370D01*
X161119047Y-61859370D02*
X161119047Y-61764132D01*
X161119047Y-61764132D02*
X161166666Y-61668894D01*
X161166666Y-61668894D02*
X161214285Y-61621275D01*
X161214285Y-61621275D02*
X161309523Y-61573656D01*
X161309523Y-61573656D02*
X161499999Y-61526037D01*
X161499999Y-61526037D02*
X161595237Y-61478418D01*
X161595237Y-61478418D02*
X161642856Y-61430799D01*
X161642856Y-61430799D02*
X161690475Y-61335561D01*
X161690475Y-61335561D02*
X161690475Y-61240323D01*
X161690475Y-61240323D02*
X161642856Y-61145085D01*
X161642856Y-61145085D02*
X161595237Y-61097466D01*
X161595237Y-61097466D02*
X161499999Y-61049847D01*
X161499999Y-61049847D02*
X161261904Y-61049847D01*
X161261904Y-61049847D02*
X161119047Y-61097466D01*
X160833332Y-61049847D02*
X160261904Y-61049847D01*
X160547618Y-62049847D02*
X160547618Y-61049847D01*
X159928570Y-61668894D02*
X159166666Y-61668894D01*
X158499999Y-61049847D02*
X158404761Y-61049847D01*
X158404761Y-61049847D02*
X158309523Y-61097466D01*
X158309523Y-61097466D02*
X158261904Y-61145085D01*
X158261904Y-61145085D02*
X158214285Y-61240323D01*
X158214285Y-61240323D02*
X158166666Y-61430799D01*
X158166666Y-61430799D02*
X158166666Y-61668894D01*
X158166666Y-61668894D02*
X158214285Y-61859370D01*
X158214285Y-61859370D02*
X158261904Y-61954608D01*
X158261904Y-61954608D02*
X158309523Y-62002228D01*
X158309523Y-62002228D02*
X158404761Y-62049847D01*
X158404761Y-62049847D02*
X158499999Y-62049847D01*
X158499999Y-62049847D02*
X158595237Y-62002228D01*
X158595237Y-62002228D02*
X158642856Y-61954608D01*
X158642856Y-61954608D02*
X158690475Y-61859370D01*
X158690475Y-61859370D02*
X158738094Y-61668894D01*
X158738094Y-61668894D02*
X158738094Y-61430799D01*
X158738094Y-61430799D02*
X158690475Y-61240323D01*
X158690475Y-61240323D02*
X158642856Y-61145085D01*
X158642856Y-61145085D02*
X158595237Y-61097466D01*
X158595237Y-61097466D02*
X158499999Y-61049847D01*
X157214285Y-62049847D02*
X157785713Y-62049847D01*
X157499999Y-62049847D02*
X157499999Y-61049847D01*
X157499999Y-61049847D02*
X157595237Y-61192704D01*
X157595237Y-61192704D02*
X157690475Y-61287942D01*
X157690475Y-61287942D02*
X157785713Y-61335561D01*
X156119046Y-61383180D02*
X155880951Y-62049847D01*
X155880951Y-62049847D02*
X155642856Y-61383180D01*
X154738094Y-62049847D02*
X155309522Y-62049847D01*
X155023808Y-62049847D02*
X155023808Y-61049847D01*
X155023808Y-61049847D02*
X155119046Y-61192704D01*
X155119046Y-61192704D02*
X155214284Y-61287942D01*
X155214284Y-61287942D02*
X155309522Y-61335561D01*
X154309522Y-61954608D02*
X154261903Y-62002228D01*
X154261903Y-62002228D02*
X154309522Y-62049847D01*
X154309522Y-62049847D02*
X154357141Y-62002228D01*
X154357141Y-62002228D02*
X154309522Y-61954608D01*
X154309522Y-61954608D02*
X154309522Y-62049847D01*
X153309523Y-62049847D02*
X153880951Y-62049847D01*
X153595237Y-62049847D02*
X153595237Y-61049847D01*
X153595237Y-61049847D02*
X153690475Y-61192704D01*
X153690475Y-61192704D02*
X153785713Y-61287942D01*
X153785713Y-61287942D02*
X153880951Y-61335561D01*
X163404762Y-63659791D02*
X163404762Y-62659791D01*
X163404762Y-62659791D02*
X163023810Y-62659791D01*
X163023810Y-62659791D02*
X162928572Y-62707410D01*
X162928572Y-62707410D02*
X162880953Y-62755029D01*
X162880953Y-62755029D02*
X162833334Y-62850267D01*
X162833334Y-62850267D02*
X162833334Y-62993124D01*
X162833334Y-62993124D02*
X162880953Y-63088362D01*
X162880953Y-63088362D02*
X162928572Y-63135981D01*
X162928572Y-63135981D02*
X163023810Y-63183600D01*
X163023810Y-63183600D02*
X163404762Y-63183600D01*
X161976191Y-63659791D02*
X161976191Y-63135981D01*
X161976191Y-63135981D02*
X162023810Y-63040743D01*
X162023810Y-63040743D02*
X162119048Y-62993124D01*
X162119048Y-62993124D02*
X162309524Y-62993124D01*
X162309524Y-62993124D02*
X162404762Y-63040743D01*
X161976191Y-63612172D02*
X162071429Y-63659791D01*
X162071429Y-63659791D02*
X162309524Y-63659791D01*
X162309524Y-63659791D02*
X162404762Y-63612172D01*
X162404762Y-63612172D02*
X162452381Y-63516933D01*
X162452381Y-63516933D02*
X162452381Y-63421695D01*
X162452381Y-63421695D02*
X162404762Y-63326457D01*
X162404762Y-63326457D02*
X162309524Y-63278838D01*
X162309524Y-63278838D02*
X162071429Y-63278838D01*
X162071429Y-63278838D02*
X161976191Y-63231219D01*
X161547619Y-63612172D02*
X161452381Y-63659791D01*
X161452381Y-63659791D02*
X161261905Y-63659791D01*
X161261905Y-63659791D02*
X161166667Y-63612172D01*
X161166667Y-63612172D02*
X161119048Y-63516933D01*
X161119048Y-63516933D02*
X161119048Y-63469314D01*
X161119048Y-63469314D02*
X161166667Y-63374076D01*
X161166667Y-63374076D02*
X161261905Y-63326457D01*
X161261905Y-63326457D02*
X161404762Y-63326457D01*
X161404762Y-63326457D02*
X161500000Y-63278838D01*
X161500000Y-63278838D02*
X161547619Y-63183600D01*
X161547619Y-63183600D02*
X161547619Y-63135981D01*
X161547619Y-63135981D02*
X161500000Y-63040743D01*
X161500000Y-63040743D02*
X161404762Y-62993124D01*
X161404762Y-62993124D02*
X161261905Y-62993124D01*
X161261905Y-62993124D02*
X161166667Y-63040743D01*
X160738095Y-63612172D02*
X160642857Y-63659791D01*
X160642857Y-63659791D02*
X160452381Y-63659791D01*
X160452381Y-63659791D02*
X160357143Y-63612172D01*
X160357143Y-63612172D02*
X160309524Y-63516933D01*
X160309524Y-63516933D02*
X160309524Y-63469314D01*
X160309524Y-63469314D02*
X160357143Y-63374076D01*
X160357143Y-63374076D02*
X160452381Y-63326457D01*
X160452381Y-63326457D02*
X160595238Y-63326457D01*
X160595238Y-63326457D02*
X160690476Y-63278838D01*
X160690476Y-63278838D02*
X160738095Y-63183600D01*
X160738095Y-63183600D02*
X160738095Y-63135981D01*
X160738095Y-63135981D02*
X160690476Y-63040743D01*
X160690476Y-63040743D02*
X160595238Y-62993124D01*
X160595238Y-62993124D02*
X160452381Y-62993124D01*
X160452381Y-62993124D02*
X160357143Y-63040743D01*
X159880952Y-63659791D02*
X159880952Y-62993124D01*
X159880952Y-62659791D02*
X159928571Y-62707410D01*
X159928571Y-62707410D02*
X159880952Y-62755029D01*
X159880952Y-62755029D02*
X159833333Y-62707410D01*
X159833333Y-62707410D02*
X159880952Y-62659791D01*
X159880952Y-62659791D02*
X159880952Y-62755029D01*
X159500000Y-62993124D02*
X159261905Y-63659791D01*
X159261905Y-63659791D02*
X159023810Y-62993124D01*
X158261905Y-63612172D02*
X158357143Y-63659791D01*
X158357143Y-63659791D02*
X158547619Y-63659791D01*
X158547619Y-63659791D02*
X158642857Y-63612172D01*
X158642857Y-63612172D02*
X158690476Y-63516933D01*
X158690476Y-63516933D02*
X158690476Y-63135981D01*
X158690476Y-63135981D02*
X158642857Y-63040743D01*
X158642857Y-63040743D02*
X158547619Y-62993124D01*
X158547619Y-62993124D02*
X158357143Y-62993124D01*
X158357143Y-62993124D02*
X158261905Y-63040743D01*
X158261905Y-63040743D02*
X158214286Y-63135981D01*
X158214286Y-63135981D02*
X158214286Y-63231219D01*
X158214286Y-63231219D02*
X158690476Y-63326457D01*
X157023809Y-63659791D02*
X157023809Y-62659791D01*
X157023809Y-62659791D02*
X156690476Y-63374076D01*
X156690476Y-63374076D02*
X156357143Y-62659791D01*
X156357143Y-62659791D02*
X156357143Y-63659791D01*
X155452381Y-62993124D02*
X155452381Y-63659791D01*
X155880952Y-62993124D02*
X155880952Y-63516933D01*
X155880952Y-63516933D02*
X155833333Y-63612172D01*
X155833333Y-63612172D02*
X155738095Y-63659791D01*
X155738095Y-63659791D02*
X155595238Y-63659791D01*
X155595238Y-63659791D02*
X155500000Y-63612172D01*
X155500000Y-63612172D02*
X155452381Y-63564552D01*
X154833333Y-63659791D02*
X154928571Y-63612172D01*
X154928571Y-63612172D02*
X154976190Y-63516933D01*
X154976190Y-63516933D02*
X154976190Y-62659791D01*
X154595237Y-62993124D02*
X154214285Y-62993124D01*
X154452380Y-62659791D02*
X154452380Y-63516933D01*
X154452380Y-63516933D02*
X154404761Y-63612172D01*
X154404761Y-63612172D02*
X154309523Y-63659791D01*
X154309523Y-63659791D02*
X154214285Y-63659791D01*
X153880951Y-63659791D02*
X153880951Y-62993124D01*
X153880951Y-62659791D02*
X153928570Y-62707410D01*
X153928570Y-62707410D02*
X153880951Y-62755029D01*
X153880951Y-62755029D02*
X153833332Y-62707410D01*
X153833332Y-62707410D02*
X153880951Y-62659791D01*
X153880951Y-62659791D02*
X153880951Y-62755029D01*
X153404761Y-62993124D02*
X153404761Y-63993124D01*
X153404761Y-63040743D02*
X153309523Y-62993124D01*
X153309523Y-62993124D02*
X153119047Y-62993124D01*
X153119047Y-62993124D02*
X153023809Y-63040743D01*
X153023809Y-63040743D02*
X152976190Y-63088362D01*
X152976190Y-63088362D02*
X152928571Y-63183600D01*
X152928571Y-63183600D02*
X152928571Y-63469314D01*
X152928571Y-63469314D02*
X152976190Y-63564552D01*
X152976190Y-63564552D02*
X153023809Y-63612172D01*
X153023809Y-63612172D02*
X153119047Y-63659791D01*
X153119047Y-63659791D02*
X153309523Y-63659791D01*
X153309523Y-63659791D02*
X153404761Y-63612172D01*
X152357142Y-63659791D02*
X152452380Y-63612172D01*
X152452380Y-63612172D02*
X152499999Y-63516933D01*
X152499999Y-63516933D02*
X152499999Y-62659791D01*
X151595237Y-63612172D02*
X151690475Y-63659791D01*
X151690475Y-63659791D02*
X151880951Y-63659791D01*
X151880951Y-63659791D02*
X151976189Y-63612172D01*
X151976189Y-63612172D02*
X152023808Y-63516933D01*
X152023808Y-63516933D02*
X152023808Y-63135981D01*
X152023808Y-63135981D02*
X151976189Y-63040743D01*
X151976189Y-63040743D02*
X151880951Y-62993124D01*
X151880951Y-62993124D02*
X151690475Y-62993124D01*
X151690475Y-62993124D02*
X151595237Y-63040743D01*
X151595237Y-63040743D02*
X151547618Y-63135981D01*
X151547618Y-63135981D02*
X151547618Y-63231219D01*
X151547618Y-63231219D02*
X152023808Y-63326457D01*
X163738095Y-65959580D02*
X163785714Y-66007200D01*
X163785714Y-66007200D02*
X163928571Y-66054819D01*
X163928571Y-66054819D02*
X164023809Y-66054819D01*
X164023809Y-66054819D02*
X164166666Y-66007200D01*
X164166666Y-66007200D02*
X164261904Y-65911961D01*
X164261904Y-65911961D02*
X164309523Y-65816723D01*
X164309523Y-65816723D02*
X164357142Y-65626247D01*
X164357142Y-65626247D02*
X164357142Y-65483390D01*
X164357142Y-65483390D02*
X164309523Y-65292914D01*
X164309523Y-65292914D02*
X164261904Y-65197676D01*
X164261904Y-65197676D02*
X164166666Y-65102438D01*
X164166666Y-65102438D02*
X164023809Y-65054819D01*
X164023809Y-65054819D02*
X163928571Y-65054819D01*
X163928571Y-65054819D02*
X163785714Y-65102438D01*
X163785714Y-65102438D02*
X163738095Y-65150057D01*
X162738095Y-65959580D02*
X162785714Y-66007200D01*
X162785714Y-66007200D02*
X162928571Y-66054819D01*
X162928571Y-66054819D02*
X163023809Y-66054819D01*
X163023809Y-66054819D02*
X163166666Y-66007200D01*
X163166666Y-66007200D02*
X163261904Y-65911961D01*
X163261904Y-65911961D02*
X163309523Y-65816723D01*
X163309523Y-65816723D02*
X163357142Y-65626247D01*
X163357142Y-65626247D02*
X163357142Y-65483390D01*
X163357142Y-65483390D02*
X163309523Y-65292914D01*
X163309523Y-65292914D02*
X163261904Y-65197676D01*
X163261904Y-65197676D02*
X163166666Y-65102438D01*
X163166666Y-65102438D02*
X163023809Y-65054819D01*
X163023809Y-65054819D02*
X162928571Y-65054819D01*
X162928571Y-65054819D02*
X162785714Y-65102438D01*
X162785714Y-65102438D02*
X162738095Y-65150057D01*
X161214285Y-65531009D02*
X161071428Y-65578628D01*
X161071428Y-65578628D02*
X161023809Y-65626247D01*
X161023809Y-65626247D02*
X160976190Y-65721485D01*
X160976190Y-65721485D02*
X160976190Y-65864342D01*
X160976190Y-65864342D02*
X161023809Y-65959580D01*
X161023809Y-65959580D02*
X161071428Y-66007200D01*
X161071428Y-66007200D02*
X161166666Y-66054819D01*
X161166666Y-66054819D02*
X161547618Y-66054819D01*
X161547618Y-66054819D02*
X161547618Y-65054819D01*
X161547618Y-65054819D02*
X161214285Y-65054819D01*
X161214285Y-65054819D02*
X161119047Y-65102438D01*
X161119047Y-65102438D02*
X161071428Y-65150057D01*
X161071428Y-65150057D02*
X161023809Y-65245295D01*
X161023809Y-65245295D02*
X161023809Y-65340533D01*
X161023809Y-65340533D02*
X161071428Y-65435771D01*
X161071428Y-65435771D02*
X161119047Y-65483390D01*
X161119047Y-65483390D02*
X161214285Y-65531009D01*
X161214285Y-65531009D02*
X161547618Y-65531009D01*
X160357142Y-65578628D02*
X160357142Y-66054819D01*
X160690475Y-65054819D02*
X160357142Y-65578628D01*
X160357142Y-65578628D02*
X160023809Y-65054819D01*
X159690475Y-65673866D02*
X158928571Y-65673866D01*
X158452380Y-66054819D02*
X158452380Y-65054819D01*
X158452380Y-65054819D02*
X157880952Y-66054819D01*
X157880952Y-66054819D02*
X157880952Y-65054819D01*
X156833333Y-65959580D02*
X156880952Y-66007200D01*
X156880952Y-66007200D02*
X157023809Y-66054819D01*
X157023809Y-66054819D02*
X157119047Y-66054819D01*
X157119047Y-66054819D02*
X157261904Y-66007200D01*
X157261904Y-66007200D02*
X157357142Y-65911961D01*
X157357142Y-65911961D02*
X157404761Y-65816723D01*
X157404761Y-65816723D02*
X157452380Y-65626247D01*
X157452380Y-65626247D02*
X157452380Y-65483390D01*
X157452380Y-65483390D02*
X157404761Y-65292914D01*
X157404761Y-65292914D02*
X157357142Y-65197676D01*
X157357142Y-65197676D02*
X157261904Y-65102438D01*
X157261904Y-65102438D02*
X157119047Y-65054819D01*
X157119047Y-65054819D02*
X157023809Y-65054819D01*
X157023809Y-65054819D02*
X156880952Y-65102438D01*
X156880952Y-65102438D02*
X156833333Y-65150057D01*
X156404761Y-65673866D02*
X155642857Y-65673866D01*
X155214285Y-66007200D02*
X155071428Y-66054819D01*
X155071428Y-66054819D02*
X154833333Y-66054819D01*
X154833333Y-66054819D02*
X154738095Y-66007200D01*
X154738095Y-66007200D02*
X154690476Y-65959580D01*
X154690476Y-65959580D02*
X154642857Y-65864342D01*
X154642857Y-65864342D02*
X154642857Y-65769104D01*
X154642857Y-65769104D02*
X154690476Y-65673866D01*
X154690476Y-65673866D02*
X154738095Y-65626247D01*
X154738095Y-65626247D02*
X154833333Y-65578628D01*
X154833333Y-65578628D02*
X155023809Y-65531009D01*
X155023809Y-65531009D02*
X155119047Y-65483390D01*
X155119047Y-65483390D02*
X155166666Y-65435771D01*
X155166666Y-65435771D02*
X155214285Y-65340533D01*
X155214285Y-65340533D02*
X155214285Y-65245295D01*
X155214285Y-65245295D02*
X155166666Y-65150057D01*
X155166666Y-65150057D02*
X155119047Y-65102438D01*
X155119047Y-65102438D02*
X155023809Y-65054819D01*
X155023809Y-65054819D02*
X154785714Y-65054819D01*
X154785714Y-65054819D02*
X154642857Y-65102438D01*
X154261904Y-65769104D02*
X153785714Y-65769104D01*
X154357142Y-66054819D02*
X154023809Y-65054819D01*
X154023809Y-65054819D02*
X153690476Y-66054819D01*
X152166666Y-65388152D02*
X152166666Y-66054819D01*
X152404761Y-65007200D02*
X152642856Y-65721485D01*
X152642856Y-65721485D02*
X152023809Y-65721485D01*
X151642856Y-65959580D02*
X151595237Y-66007200D01*
X151595237Y-66007200D02*
X151642856Y-66054819D01*
X151642856Y-66054819D02*
X151690475Y-66007200D01*
X151690475Y-66007200D02*
X151642856Y-65959580D01*
X151642856Y-65959580D02*
X151642856Y-66054819D01*
X150976190Y-65054819D02*
X150880952Y-65054819D01*
X150880952Y-65054819D02*
X150785714Y-65102438D01*
X150785714Y-65102438D02*
X150738095Y-65150057D01*
X150738095Y-65150057D02*
X150690476Y-65245295D01*
X150690476Y-65245295D02*
X150642857Y-65435771D01*
X150642857Y-65435771D02*
X150642857Y-65673866D01*
X150642857Y-65673866D02*
X150690476Y-65864342D01*
X150690476Y-65864342D02*
X150738095Y-65959580D01*
X150738095Y-65959580D02*
X150785714Y-66007200D01*
X150785714Y-66007200D02*
X150880952Y-66054819D01*
X150880952Y-66054819D02*
X150976190Y-66054819D01*
X150976190Y-66054819D02*
X151071428Y-66007200D01*
X151071428Y-66007200D02*
X151119047Y-65959580D01*
X151119047Y-65959580D02*
X151166666Y-65864342D01*
X151166666Y-65864342D02*
X151214285Y-65673866D01*
X151214285Y-65673866D02*
X151214285Y-65435771D01*
X151214285Y-65435771D02*
X151166666Y-65245295D01*
X151166666Y-65245295D02*
X151119047Y-65150057D01*
X151119047Y-65150057D02*
X151071428Y-65102438D01*
X151071428Y-65102438D02*
X150976190Y-65054819D01*
D11*
X155731722Y-47218570D02*
X155603132Y-47278714D01*
X155460218Y-47407752D01*
X155458256Y-47409770D01*
X155330830Y-47559782D01*
X155271800Y-47695746D01*
X155257984Y-47859444D01*
X155273260Y-48030170D01*
X155334872Y-48163288D01*
X155457422Y-48302340D01*
X155604370Y-48430178D01*
X155739024Y-48488686D01*
X155894866Y-48501566D01*
X156122348Y-48468398D01*
X156317682Y-48388678D01*
X156392300Y-48348806D01*
X156478086Y-48319554D01*
X156592894Y-48299306D01*
X156754578Y-48286446D01*
X156980988Y-48279360D01*
X157289982Y-48276436D01*
X157563732Y-48276000D01*
X157934734Y-48276480D01*
X158209672Y-48279162D01*
X158405376Y-48285900D01*
X158538670Y-48298550D01*
X158626382Y-48318970D01*
X158685334Y-48349018D01*
X158732356Y-48390546D01*
X158747700Y-48406638D01*
X158848618Y-48583334D01*
X158879430Y-48795614D01*
X158841520Y-49002446D01*
X158736280Y-49162798D01*
X158721706Y-49175014D01*
X158663986Y-49215152D01*
X158596246Y-49244914D01*
X158501792Y-49265838D01*
X158363926Y-49279468D01*
X158165950Y-49287342D01*
X157891166Y-49291002D01*
X157522878Y-49291986D01*
X157453822Y-49292000D01*
X157058588Y-49293174D01*
X156756942Y-49297736D01*
X156529596Y-49307252D01*
X156357262Y-49323280D01*
X156220656Y-49347382D01*
X156100488Y-49381124D01*
X156025506Y-49407670D01*
X155690926Y-49588040D01*
X155437500Y-49843156D01*
X155272520Y-50162400D01*
X155203274Y-50535146D01*
X155201540Y-50608208D01*
X155244798Y-51010738D01*
X155376602Y-51344860D01*
X155600000Y-51615880D01*
X155896484Y-51817972D01*
X155996636Y-51868812D01*
X156088910Y-51907282D01*
X156190926Y-51935422D01*
X156320314Y-51955270D01*
X156494696Y-51968868D01*
X156731700Y-51978252D01*
X157048948Y-51985464D01*
X157395518Y-51991420D01*
X157802796Y-51999066D01*
X158113380Y-52007870D01*
X158343462Y-52019324D01*
X158509232Y-52034926D01*
X158626886Y-52056166D01*
X158712616Y-52084538D01*
X158778406Y-52118948D01*
X159041264Y-52219342D01*
X159309824Y-52214754D01*
X159559414Y-52107126D01*
X159630464Y-52051930D01*
X159752924Y-51930924D01*
X159811672Y-51817510D01*
X159829322Y-51659778D01*
X159829908Y-51601432D01*
X159474270Y-51601432D01*
X159466940Y-51650550D01*
X159374180Y-51782030D01*
X159223952Y-51841146D01*
X159050980Y-51820680D01*
X158940984Y-51759882D01*
X158873952Y-51650900D01*
X158890050Y-51522216D01*
X158972034Y-51405786D01*
X159102658Y-51333574D01*
X159176156Y-51324000D01*
X159320106Y-51366822D01*
X159430160Y-51471296D01*
X159474270Y-51601432D01*
X159829908Y-51601432D01*
X159829984Y-51593876D01*
X159820208Y-51411130D01*
X159774986Y-51286510D01*
X159670484Y-51165858D01*
X159621398Y-51119946D01*
X159393456Y-50972918D01*
X159150480Y-50922256D01*
X158916934Y-50970282D01*
X158798582Y-51041778D01*
X158743448Y-51079516D01*
X158676520Y-51107792D01*
X158581810Y-51127962D01*
X158443334Y-51141376D01*
X158245110Y-51149386D01*
X157971154Y-51153348D01*
X157605480Y-51154610D01*
X157464526Y-51154666D01*
X157066550Y-51154028D01*
X156765906Y-51151230D01*
X156547038Y-51144936D01*
X156394394Y-51133816D01*
X156292416Y-51116540D01*
X156225550Y-51091776D01*
X156178244Y-51058192D01*
X156162530Y-51043212D01*
X156032610Y-50840274D01*
X156001308Y-50606892D01*
X156069916Y-50369812D01*
X156125736Y-50279778D01*
X156159276Y-50242892D01*
X156208946Y-50214356D01*
X156289420Y-50192582D01*
X156415370Y-50175984D01*
X156601470Y-50162980D01*
X156862394Y-50151984D01*
X157212818Y-50141408D01*
X157468742Y-50134694D01*
X157924302Y-50121410D01*
X158283016Y-50105288D01*
X158560924Y-50082900D01*
X158774072Y-50050812D01*
X158938498Y-50005598D01*
X159070244Y-49943824D01*
X159185354Y-49862060D01*
X159299868Y-49756880D01*
X159317476Y-49739380D01*
X159503318Y-49526226D01*
X159617058Y-49314894D01*
X159673562Y-49067036D01*
X159687752Y-48784000D01*
X159681794Y-48542222D01*
X159655712Y-48368290D01*
X159599502Y-48217614D01*
X159533434Y-48096244D01*
X159431830Y-47943966D01*
X156199554Y-47943966D01*
X156119046Y-48055488D01*
X155949570Y-48104946D01*
X155901260Y-48106666D01*
X155762658Y-48089868D01*
X155695214Y-48023656D01*
X155677296Y-47969628D01*
X155665114Y-47811406D01*
X155681016Y-47712508D01*
X155728730Y-47632032D01*
X155825198Y-47605740D01*
X155924972Y-47609656D01*
X156076076Y-47640438D01*
X156157420Y-47717398D01*
X156183888Y-47778738D01*
X156199554Y-47943966D01*
X159431830Y-47943966D01*
X159399920Y-47896144D01*
X159251946Y-47739222D01*
X159074526Y-47620576D01*
X158852674Y-47535308D01*
X158571408Y-47478518D01*
X158215740Y-47445304D01*
X157770686Y-47430768D01*
X157492680Y-47428960D01*
X157123858Y-47427802D01*
X156849874Y-47423496D01*
X156652682Y-47414336D01*
X156514240Y-47398618D01*
X156416508Y-47374638D01*
X156341438Y-47340688D01*
X156302206Y-47316444D01*
X156099938Y-47231344D01*
X155895702Y-47203926D01*
X155731722Y-47218570D01*
G36*
X159533434Y-48096244D02*
G01*
X159599502Y-48217614D01*
X159655712Y-48368290D01*
X159681794Y-48542222D01*
X159687752Y-48784000D01*
X159673562Y-49067036D01*
X159617058Y-49314894D01*
X159503318Y-49526226D01*
X159317476Y-49739380D01*
X159299868Y-49756880D01*
X159185354Y-49862060D01*
X159070244Y-49943824D01*
X158938498Y-50005598D01*
X158774072Y-50050812D01*
X158560924Y-50082900D01*
X158283016Y-50105288D01*
X157924302Y-50121410D01*
X157468742Y-50134694D01*
X157212818Y-50141408D01*
X156862394Y-50151984D01*
X156601470Y-50162980D01*
X156415370Y-50175984D01*
X156289420Y-50192582D01*
X156208946Y-50214356D01*
X156159276Y-50242892D01*
X156125736Y-50279778D01*
X156069916Y-50369812D01*
X156001308Y-50606892D01*
X156032610Y-50840274D01*
X156162530Y-51043212D01*
X156178244Y-51058192D01*
X156225550Y-51091776D01*
X156292416Y-51116540D01*
X156394394Y-51133816D01*
X156547038Y-51144936D01*
X156765906Y-51151230D01*
X157066550Y-51154028D01*
X157464526Y-51154666D01*
X157605480Y-51154610D01*
X157971154Y-51153348D01*
X158245110Y-51149386D01*
X158443334Y-51141376D01*
X158581810Y-51127962D01*
X158676520Y-51107792D01*
X158743448Y-51079516D01*
X158798582Y-51041778D01*
X158916934Y-50970282D01*
X159150480Y-50922256D01*
X159393456Y-50972918D01*
X159621398Y-51119946D01*
X159670484Y-51165858D01*
X159774986Y-51286510D01*
X159820208Y-51411130D01*
X159829984Y-51593876D01*
X159829908Y-51601432D01*
X159829322Y-51659778D01*
X159811672Y-51817510D01*
X159752924Y-51930924D01*
X159630464Y-52051930D01*
X159559414Y-52107126D01*
X159309824Y-52214754D01*
X159041264Y-52219342D01*
X158778406Y-52118948D01*
X158712616Y-52084538D01*
X158626886Y-52056166D01*
X158509232Y-52034926D01*
X158343462Y-52019324D01*
X158113380Y-52007870D01*
X157802796Y-51999066D01*
X157395518Y-51991420D01*
X157048948Y-51985464D01*
X156731700Y-51978252D01*
X156494696Y-51968868D01*
X156320314Y-51955270D01*
X156190926Y-51935422D01*
X156088910Y-51907282D01*
X155996636Y-51868812D01*
X155896484Y-51817972D01*
X155651377Y-51650900D01*
X158873952Y-51650900D01*
X158940984Y-51759882D01*
X159050980Y-51820680D01*
X159223952Y-51841146D01*
X159374180Y-51782030D01*
X159466940Y-51650550D01*
X159474270Y-51601432D01*
X159430160Y-51471296D01*
X159320106Y-51366822D01*
X159176156Y-51324000D01*
X159102658Y-51333574D01*
X158972034Y-51405786D01*
X158890050Y-51522216D01*
X158873952Y-51650900D01*
X155651377Y-51650900D01*
X155600000Y-51615880D01*
X155376602Y-51344860D01*
X155244798Y-51010738D01*
X155201540Y-50608208D01*
X155203274Y-50535146D01*
X155272520Y-50162400D01*
X155437500Y-49843156D01*
X155690926Y-49588040D01*
X156025506Y-49407670D01*
X156100488Y-49381124D01*
X156220656Y-49347382D01*
X156357262Y-49323280D01*
X156529596Y-49307252D01*
X156756942Y-49297736D01*
X157058588Y-49293174D01*
X157453822Y-49292000D01*
X157522878Y-49291986D01*
X157891166Y-49291002D01*
X158165950Y-49287342D01*
X158363926Y-49279468D01*
X158501792Y-49265838D01*
X158596246Y-49244914D01*
X158663986Y-49215152D01*
X158721706Y-49175014D01*
X158736280Y-49162798D01*
X158841520Y-49002446D01*
X158879430Y-48795614D01*
X158848618Y-48583334D01*
X158747700Y-48406638D01*
X158732356Y-48390546D01*
X158685334Y-48349018D01*
X158626382Y-48318970D01*
X158538670Y-48298550D01*
X158405376Y-48285900D01*
X158209672Y-48279162D01*
X157934734Y-48276480D01*
X157563732Y-48276000D01*
X157289982Y-48276436D01*
X156980988Y-48279360D01*
X156754578Y-48286446D01*
X156592894Y-48299306D01*
X156478086Y-48319554D01*
X156392300Y-48348806D01*
X156317682Y-48388678D01*
X156122348Y-48468398D01*
X155894866Y-48501566D01*
X155739024Y-48488686D01*
X155604370Y-48430178D01*
X155457422Y-48302340D01*
X155334872Y-48163288D01*
X155273260Y-48030170D01*
X155257984Y-47859444D01*
X155262038Y-47811406D01*
X155665114Y-47811406D01*
X155677296Y-47969628D01*
X155695214Y-48023656D01*
X155762658Y-48089868D01*
X155901260Y-48106666D01*
X155949570Y-48104946D01*
X156119046Y-48055488D01*
X156199554Y-47943966D01*
X156183888Y-47778738D01*
X156157420Y-47717398D01*
X156076076Y-47640438D01*
X155924972Y-47609656D01*
X155825198Y-47605740D01*
X155728730Y-47632032D01*
X155681016Y-47712508D01*
X155665114Y-47811406D01*
X155262038Y-47811406D01*
X155271800Y-47695746D01*
X155330830Y-47559782D01*
X155458256Y-47409770D01*
X155460218Y-47407752D01*
X155603132Y-47278714D01*
X155731722Y-47218570D01*
X155895702Y-47203926D01*
X156099938Y-47231344D01*
X156302206Y-47316444D01*
X156341438Y-47340688D01*
X156416508Y-47374638D01*
X156514240Y-47398618D01*
X156652682Y-47414336D01*
X156849874Y-47423496D01*
X157123858Y-47427802D01*
X157492680Y-47428960D01*
X157770686Y-47430768D01*
X158215740Y-47445304D01*
X158571408Y-47478518D01*
X158852674Y-47535308D01*
X159074526Y-47620576D01*
X159251946Y-47739222D01*
X159399920Y-47896144D01*
X159431830Y-47943966D01*
X159533434Y-48096244D01*
G37*
M02*
