G04 #@! TF.GenerationSoftware,KiCad,Pcbnew,10.0.6*
G04 #@! TF.CreationDate,2026-10-07T21:06:22-07:00*
G04 #@! TF.ProjectId,Multiple,4d756c74-6970-46c6-952e-6b696361645f,1.1*
G04 #@! TF.SameCoordinates,Original*
G04 #@! TF.FileFunction,Soldermask,Bot*
G04 #@! TF.FilePolarity,Negative*
%FSLAX46Y46*%
G04 Gerber Fmt 4.6, Leading zero omitted, Abs format (unit mm)*
G04 Created by KiCad (PCBNEW 10.0.6) date 2026-10-07 21:06:22*
%MOMM*%
%LPD*%
G01*
G04 APERTURE LIST*
G04 APERTURE END LIST*
G36*
X154032518Y-133333491D02*
G01*
X154177589Y-133393581D01*
X154308149Y-133480819D01*
X154419181Y-133591851D01*
X154506419Y-133722411D01*
X154566509Y-133867482D01*
X154597143Y-134021488D01*
X154601000Y-134100000D01*
X154601000Y-135900000D01*
X154597143Y-135978512D01*
X154566509Y-136132518D01*
X154506419Y-136277589D01*
X154419181Y-136408149D01*
X154308149Y-136519181D01*
X154177589Y-136606419D01*
X154032518Y-136666509D01*
X153878512Y-136697143D01*
X153721488Y-136697143D01*
X153567482Y-136666509D01*
X153422411Y-136606419D01*
X153291851Y-136519181D01*
X153180819Y-136408149D01*
X153093581Y-136277589D01*
X153033491Y-136132518D01*
X153002857Y-135978512D01*
X152999000Y-135900000D01*
X152999000Y-134100000D01*
X153002857Y-134021488D01*
X153033491Y-133867482D01*
X153093581Y-133722411D01*
X153180819Y-133591851D01*
X153291851Y-133480819D01*
X153422411Y-133393581D01*
X153567482Y-133333491D01*
X153721488Y-133302857D01*
X153878512Y-133302857D01*
X154032518Y-133333491D01*
G37*
G36*
X162332518Y-133333491D02*
G01*
X162477589Y-133393581D01*
X162608149Y-133480819D01*
X162719181Y-133591851D01*
X162806419Y-133722411D01*
X162866509Y-133867482D01*
X162897143Y-134021488D01*
X162901000Y-134100000D01*
X162901000Y-135900000D01*
X162897143Y-135978512D01*
X162866509Y-136132518D01*
X162806419Y-136277589D01*
X162719181Y-136408149D01*
X162608149Y-136519181D01*
X162477589Y-136606419D01*
X162332518Y-136666509D01*
X162178512Y-136697143D01*
X162021488Y-136697143D01*
X161867482Y-136666509D01*
X161722411Y-136606419D01*
X161591851Y-136519181D01*
X161480819Y-136408149D01*
X161393581Y-136277589D01*
X161333491Y-136132518D01*
X161302857Y-135978512D01*
X161299000Y-135900000D01*
X161299000Y-134100000D01*
X161302857Y-134021488D01*
X161333491Y-133867482D01*
X161393581Y-133722411D01*
X161480819Y-133591851D01*
X161591851Y-133480819D01*
X161722411Y-133393581D01*
X161867482Y-133333491D01*
X162021488Y-133302857D01*
X162178512Y-133302857D01*
X162332518Y-133333491D01*
G37*
G36*
X157287482Y-133453781D02*
G01*
X157298690Y-133453781D01*
X157353888Y-133462523D01*
X157479534Y-133479065D01*
X157510189Y-133487279D01*
X157539074Y-133491854D01*
X157594620Y-133509902D01*
X157675467Y-133531565D01*
X157727050Y-133552931D01*
X157770542Y-133567063D01*
X157811286Y-133587823D01*
X157862870Y-133609190D01*
X157935353Y-133651038D01*
X157987395Y-133677555D01*
X158011055Y-133694745D01*
X158038539Y-133710613D01*
X158139074Y-133787756D01*
X158184294Y-133820610D01*
X158192219Y-133828535D01*
X158199466Y-133834096D01*
X158342903Y-133977533D01*
X158348463Y-133984779D01*
X158356390Y-133992706D01*
X158389247Y-134037930D01*
X158466386Y-134138460D01*
X158482252Y-134165941D01*
X158499445Y-134189605D01*
X158525964Y-134241652D01*
X158567809Y-134314129D01*
X158589173Y-134365706D01*
X158609937Y-134406458D01*
X158624070Y-134449955D01*
X158645434Y-134501532D01*
X158667093Y-134582366D01*
X158685146Y-134637926D01*
X158689721Y-134666816D01*
X158697934Y-134697465D01*
X158714474Y-134823099D01*
X158723219Y-134878310D01*
X158723219Y-134889518D01*
X158724412Y-134898580D01*
X158724412Y-135101419D01*
X158723219Y-135110480D01*
X158723219Y-135121690D01*
X158714473Y-135176905D01*
X158697934Y-135302534D01*
X158689722Y-135333180D01*
X158685146Y-135362074D01*
X158667091Y-135417638D01*
X158645434Y-135498467D01*
X158624071Y-135550039D01*
X158609937Y-135593542D01*
X158589171Y-135634297D01*
X158567809Y-135685870D01*
X158525968Y-135758338D01*
X158499445Y-135810395D01*
X158482249Y-135834062D01*
X158466386Y-135861539D01*
X158389261Y-135962050D01*
X158356390Y-136007294D01*
X158348459Y-136015224D01*
X158342903Y-136022466D01*
X158199466Y-136165903D01*
X158192224Y-136171459D01*
X158184294Y-136179390D01*
X158139050Y-136212261D01*
X158038539Y-136289386D01*
X158011062Y-136305249D01*
X157987395Y-136322445D01*
X157935338Y-136348968D01*
X157862870Y-136390809D01*
X157811297Y-136412171D01*
X157770542Y-136432937D01*
X157727039Y-136447071D01*
X157675467Y-136468434D01*
X157594638Y-136490091D01*
X157539074Y-136508146D01*
X157510180Y-136512722D01*
X157479534Y-136520934D01*
X157353902Y-136537474D01*
X157298690Y-136546219D01*
X157287481Y-136546219D01*
X157278420Y-136547412D01*
X157075580Y-136547412D01*
X157066519Y-136546219D01*
X157055310Y-136546219D01*
X157000099Y-136537474D01*
X156874465Y-136520934D01*
X156843816Y-136512721D01*
X156814926Y-136508146D01*
X156759366Y-136490093D01*
X156678532Y-136468434D01*
X156626955Y-136447070D01*
X156583458Y-136432937D01*
X156542706Y-136412173D01*
X156491129Y-136390809D01*
X156418652Y-136348964D01*
X156366605Y-136322445D01*
X156342941Y-136305252D01*
X156315460Y-136289386D01*
X156214930Y-136212247D01*
X156169706Y-136179390D01*
X156161779Y-136171463D01*
X156154533Y-136165903D01*
X156011096Y-136022466D01*
X156005535Y-136015219D01*
X155997610Y-136007294D01*
X155964756Y-135962074D01*
X155887613Y-135861539D01*
X155871745Y-135834055D01*
X155854555Y-135810395D01*
X155828038Y-135758353D01*
X155786190Y-135685870D01*
X155764823Y-135634286D01*
X155744063Y-135593542D01*
X155729931Y-135550050D01*
X155708565Y-135498467D01*
X155686902Y-135417620D01*
X155668854Y-135362074D01*
X155664279Y-135333189D01*
X155656065Y-135302534D01*
X155639524Y-135176891D01*
X155630781Y-135121690D01*
X155630781Y-135110480D01*
X155629588Y-135101419D01*
X155629588Y-134898580D01*
X155630781Y-134889518D01*
X155630781Y-134878310D01*
X155639523Y-134823113D01*
X155656065Y-134697465D01*
X155664279Y-134666807D01*
X155668854Y-134637926D01*
X155686900Y-134582383D01*
X155708565Y-134501532D01*
X155729933Y-134449944D01*
X155744063Y-134406458D01*
X155764821Y-134365717D01*
X155786190Y-134314129D01*
X155828042Y-134241637D01*
X155854555Y-134189605D01*
X155871742Y-134165948D01*
X155887613Y-134138460D01*
X155964770Y-134037906D01*
X155997610Y-133992706D01*
X156005532Y-133984783D01*
X156011096Y-133977533D01*
X156154533Y-133834096D01*
X156161783Y-133828532D01*
X156169706Y-133820610D01*
X156214906Y-133787770D01*
X156315460Y-133710613D01*
X156342948Y-133694742D01*
X156366605Y-133677555D01*
X156418637Y-133651042D01*
X156491129Y-133609190D01*
X156542717Y-133587821D01*
X156583458Y-133567063D01*
X156626944Y-133552933D01*
X156678532Y-133531565D01*
X156759383Y-133509900D01*
X156814926Y-133491854D01*
X156843807Y-133487279D01*
X156874465Y-133479065D01*
X157000113Y-133462523D01*
X157055310Y-133453781D01*
X157066518Y-133453781D01*
X157075580Y-133452588D01*
X157278420Y-133452588D01*
X157287482Y-133453781D01*
G37*
G36*
X151634517Y-133987882D02*
G01*
X151651062Y-133998938D01*
X151662118Y-134015483D01*
X151666000Y-134035000D01*
X151666000Y-135965000D01*
X151662118Y-135984517D01*
X151651062Y-136001062D01*
X151634517Y-136012118D01*
X151615000Y-136016000D01*
X149785000Y-136016000D01*
X149765483Y-136012118D01*
X149748938Y-136001062D01*
X149737882Y-135984517D01*
X149734000Y-135965000D01*
X149734000Y-134035000D01*
X149737882Y-134015483D01*
X149748938Y-133998938D01*
X149765483Y-133987882D01*
X149785000Y-133984000D01*
X151615000Y-133984000D01*
X151634517Y-133987882D01*
G37*
G36*
X154032518Y-121333491D02*
G01*
X154177589Y-121393581D01*
X154308149Y-121480819D01*
X154419181Y-121591851D01*
X154506419Y-121722411D01*
X154566509Y-121867482D01*
X154597143Y-122021488D01*
X154601000Y-122100000D01*
X154601000Y-123900000D01*
X154597143Y-123978512D01*
X154566509Y-124132518D01*
X154506419Y-124277589D01*
X154419181Y-124408149D01*
X154308149Y-124519181D01*
X154177589Y-124606419D01*
X154032518Y-124666509D01*
X153878512Y-124697143D01*
X153721488Y-124697143D01*
X153567482Y-124666509D01*
X153422411Y-124606419D01*
X153291851Y-124519181D01*
X153180819Y-124408149D01*
X153093581Y-124277589D01*
X153033491Y-124132518D01*
X153002857Y-123978512D01*
X152999000Y-123900000D01*
X152999000Y-122100000D01*
X153002857Y-122021488D01*
X153033491Y-121867482D01*
X153093581Y-121722411D01*
X153180819Y-121591851D01*
X153291851Y-121480819D01*
X153422411Y-121393581D01*
X153567482Y-121333491D01*
X153721488Y-121302857D01*
X153878512Y-121302857D01*
X154032518Y-121333491D01*
G37*
G36*
X162332518Y-121333491D02*
G01*
X162477589Y-121393581D01*
X162608149Y-121480819D01*
X162719181Y-121591851D01*
X162806419Y-121722411D01*
X162866509Y-121867482D01*
X162897143Y-122021488D01*
X162901000Y-122100000D01*
X162901000Y-123900000D01*
X162897143Y-123978512D01*
X162866509Y-124132518D01*
X162806419Y-124277589D01*
X162719181Y-124408149D01*
X162608149Y-124519181D01*
X162477589Y-124606419D01*
X162332518Y-124666509D01*
X162178512Y-124697143D01*
X162021488Y-124697143D01*
X161867482Y-124666509D01*
X161722411Y-124606419D01*
X161591851Y-124519181D01*
X161480819Y-124408149D01*
X161393581Y-124277589D01*
X161333491Y-124132518D01*
X161302857Y-123978512D01*
X161299000Y-123900000D01*
X161299000Y-122100000D01*
X161302857Y-122021488D01*
X161333491Y-121867482D01*
X161393581Y-121722411D01*
X161480819Y-121591851D01*
X161591851Y-121480819D01*
X161722411Y-121393581D01*
X161867482Y-121333491D01*
X162021488Y-121302857D01*
X162178512Y-121302857D01*
X162332518Y-121333491D01*
G37*
G36*
X157287482Y-121453781D02*
G01*
X157298690Y-121453781D01*
X157353888Y-121462523D01*
X157479534Y-121479065D01*
X157510189Y-121487279D01*
X157539074Y-121491854D01*
X157594620Y-121509902D01*
X157675467Y-121531565D01*
X157727050Y-121552931D01*
X157770542Y-121567063D01*
X157811286Y-121587823D01*
X157862870Y-121609190D01*
X157935353Y-121651038D01*
X157987395Y-121677555D01*
X158011055Y-121694745D01*
X158038539Y-121710613D01*
X158139074Y-121787756D01*
X158184294Y-121820610D01*
X158192219Y-121828535D01*
X158199466Y-121834096D01*
X158342903Y-121977533D01*
X158348463Y-121984779D01*
X158356390Y-121992706D01*
X158389247Y-122037930D01*
X158466386Y-122138460D01*
X158482252Y-122165941D01*
X158499445Y-122189605D01*
X158525964Y-122241652D01*
X158567809Y-122314129D01*
X158589173Y-122365706D01*
X158609937Y-122406458D01*
X158624070Y-122449955D01*
X158645434Y-122501532D01*
X158667093Y-122582366D01*
X158685146Y-122637926D01*
X158689721Y-122666816D01*
X158697934Y-122697465D01*
X158714474Y-122823099D01*
X158723219Y-122878310D01*
X158723219Y-122889518D01*
X158724412Y-122898580D01*
X158724412Y-123101419D01*
X158723219Y-123110480D01*
X158723219Y-123121690D01*
X158714473Y-123176905D01*
X158697934Y-123302534D01*
X158689722Y-123333180D01*
X158685146Y-123362074D01*
X158667091Y-123417638D01*
X158645434Y-123498467D01*
X158624071Y-123550039D01*
X158609937Y-123593542D01*
X158589171Y-123634297D01*
X158567809Y-123685870D01*
X158525968Y-123758338D01*
X158499445Y-123810395D01*
X158482249Y-123834062D01*
X158466386Y-123861539D01*
X158389261Y-123962050D01*
X158356390Y-124007294D01*
X158348459Y-124015224D01*
X158342903Y-124022466D01*
X158199466Y-124165903D01*
X158192224Y-124171459D01*
X158184294Y-124179390D01*
X158139050Y-124212261D01*
X158038539Y-124289386D01*
X158011062Y-124305249D01*
X157987395Y-124322445D01*
X157935338Y-124348968D01*
X157862870Y-124390809D01*
X157811297Y-124412171D01*
X157770542Y-124432937D01*
X157727039Y-124447071D01*
X157675467Y-124468434D01*
X157594638Y-124490091D01*
X157539074Y-124508146D01*
X157510180Y-124512722D01*
X157479534Y-124520934D01*
X157353902Y-124537474D01*
X157298690Y-124546219D01*
X157287481Y-124546219D01*
X157278420Y-124547412D01*
X157075580Y-124547412D01*
X157066519Y-124546219D01*
X157055310Y-124546219D01*
X157000099Y-124537474D01*
X156874465Y-124520934D01*
X156843816Y-124512721D01*
X156814926Y-124508146D01*
X156759366Y-124490093D01*
X156678532Y-124468434D01*
X156626955Y-124447070D01*
X156583458Y-124432937D01*
X156542706Y-124412173D01*
X156491129Y-124390809D01*
X156418652Y-124348964D01*
X156366605Y-124322445D01*
X156342941Y-124305252D01*
X156315460Y-124289386D01*
X156214930Y-124212247D01*
X156169706Y-124179390D01*
X156161779Y-124171463D01*
X156154533Y-124165903D01*
X156011096Y-124022466D01*
X156005535Y-124015219D01*
X155997610Y-124007294D01*
X155964756Y-123962074D01*
X155887613Y-123861539D01*
X155871745Y-123834055D01*
X155854555Y-123810395D01*
X155828038Y-123758353D01*
X155786190Y-123685870D01*
X155764823Y-123634286D01*
X155744063Y-123593542D01*
X155729931Y-123550050D01*
X155708565Y-123498467D01*
X155686902Y-123417620D01*
X155668854Y-123362074D01*
X155664279Y-123333189D01*
X155656065Y-123302534D01*
X155639524Y-123176891D01*
X155630781Y-123121690D01*
X155630781Y-123110480D01*
X155629588Y-123101419D01*
X155629588Y-122898580D01*
X155630781Y-122889518D01*
X155630781Y-122878310D01*
X155639523Y-122823113D01*
X155656065Y-122697465D01*
X155664279Y-122666807D01*
X155668854Y-122637926D01*
X155686900Y-122582383D01*
X155708565Y-122501532D01*
X155729933Y-122449944D01*
X155744063Y-122406458D01*
X155764821Y-122365717D01*
X155786190Y-122314129D01*
X155828042Y-122241637D01*
X155854555Y-122189605D01*
X155871742Y-122165948D01*
X155887613Y-122138460D01*
X155964770Y-122037906D01*
X155997610Y-121992706D01*
X156005532Y-121984783D01*
X156011096Y-121977533D01*
X156154533Y-121834096D01*
X156161783Y-121828532D01*
X156169706Y-121820610D01*
X156214906Y-121787770D01*
X156315460Y-121710613D01*
X156342948Y-121694742D01*
X156366605Y-121677555D01*
X156418637Y-121651042D01*
X156491129Y-121609190D01*
X156542717Y-121587821D01*
X156583458Y-121567063D01*
X156626944Y-121552933D01*
X156678532Y-121531565D01*
X156759383Y-121509900D01*
X156814926Y-121491854D01*
X156843807Y-121487279D01*
X156874465Y-121479065D01*
X157000113Y-121462523D01*
X157055310Y-121453781D01*
X157066518Y-121453781D01*
X157075580Y-121452588D01*
X157278420Y-121452588D01*
X157287482Y-121453781D01*
G37*
G36*
X151634517Y-121987882D02*
G01*
X151651062Y-121998938D01*
X151662118Y-122015483D01*
X151666000Y-122035000D01*
X151666000Y-123965000D01*
X151662118Y-123984517D01*
X151651062Y-124001062D01*
X151634517Y-124012118D01*
X151615000Y-124016000D01*
X149785000Y-124016000D01*
X149765483Y-124012118D01*
X149748938Y-124001062D01*
X149737882Y-123984517D01*
X149734000Y-123965000D01*
X149734000Y-122035000D01*
X149737882Y-122015483D01*
X149748938Y-121998938D01*
X149765483Y-121987882D01*
X149785000Y-121984000D01*
X151615000Y-121984000D01*
X151634517Y-121987882D01*
G37*
G36*
X154032518Y-109333491D02*
G01*
X154177589Y-109393581D01*
X154308149Y-109480819D01*
X154419181Y-109591851D01*
X154506419Y-109722411D01*
X154566509Y-109867482D01*
X154597143Y-110021488D01*
X154601000Y-110100000D01*
X154601000Y-111900000D01*
X154597143Y-111978512D01*
X154566509Y-112132518D01*
X154506419Y-112277589D01*
X154419181Y-112408149D01*
X154308149Y-112519181D01*
X154177589Y-112606419D01*
X154032518Y-112666509D01*
X153878512Y-112697143D01*
X153721488Y-112697143D01*
X153567482Y-112666509D01*
X153422411Y-112606419D01*
X153291851Y-112519181D01*
X153180819Y-112408149D01*
X153093581Y-112277589D01*
X153033491Y-112132518D01*
X153002857Y-111978512D01*
X152999000Y-111900000D01*
X152999000Y-110100000D01*
X153002857Y-110021488D01*
X153033491Y-109867482D01*
X153093581Y-109722411D01*
X153180819Y-109591851D01*
X153291851Y-109480819D01*
X153422411Y-109393581D01*
X153567482Y-109333491D01*
X153721488Y-109302857D01*
X153878512Y-109302857D01*
X154032518Y-109333491D01*
G37*
G36*
X162332518Y-109333491D02*
G01*
X162477589Y-109393581D01*
X162608149Y-109480819D01*
X162719181Y-109591851D01*
X162806419Y-109722411D01*
X162866509Y-109867482D01*
X162897143Y-110021488D01*
X162901000Y-110100000D01*
X162901000Y-111900000D01*
X162897143Y-111978512D01*
X162866509Y-112132518D01*
X162806419Y-112277589D01*
X162719181Y-112408149D01*
X162608149Y-112519181D01*
X162477589Y-112606419D01*
X162332518Y-112666509D01*
X162178512Y-112697143D01*
X162021488Y-112697143D01*
X161867482Y-112666509D01*
X161722411Y-112606419D01*
X161591851Y-112519181D01*
X161480819Y-112408149D01*
X161393581Y-112277589D01*
X161333491Y-112132518D01*
X161302857Y-111978512D01*
X161299000Y-111900000D01*
X161299000Y-110100000D01*
X161302857Y-110021488D01*
X161333491Y-109867482D01*
X161393581Y-109722411D01*
X161480819Y-109591851D01*
X161591851Y-109480819D01*
X161722411Y-109393581D01*
X161867482Y-109333491D01*
X162021488Y-109302857D01*
X162178512Y-109302857D01*
X162332518Y-109333491D01*
G37*
G36*
X157287482Y-109453781D02*
G01*
X157298690Y-109453781D01*
X157353888Y-109462523D01*
X157479534Y-109479065D01*
X157510189Y-109487279D01*
X157539074Y-109491854D01*
X157594620Y-109509902D01*
X157675467Y-109531565D01*
X157727050Y-109552931D01*
X157770542Y-109567063D01*
X157811286Y-109587823D01*
X157862870Y-109609190D01*
X157935353Y-109651038D01*
X157987395Y-109677555D01*
X158011055Y-109694745D01*
X158038539Y-109710613D01*
X158139074Y-109787756D01*
X158184294Y-109820610D01*
X158192219Y-109828535D01*
X158199466Y-109834096D01*
X158342903Y-109977533D01*
X158348463Y-109984779D01*
X158356390Y-109992706D01*
X158389247Y-110037930D01*
X158466386Y-110138460D01*
X158482252Y-110165941D01*
X158499445Y-110189605D01*
X158525964Y-110241652D01*
X158567809Y-110314129D01*
X158589173Y-110365706D01*
X158609937Y-110406458D01*
X158624070Y-110449955D01*
X158645434Y-110501532D01*
X158667093Y-110582366D01*
X158685146Y-110637926D01*
X158689721Y-110666816D01*
X158697934Y-110697465D01*
X158714474Y-110823099D01*
X158723219Y-110878310D01*
X158723219Y-110889518D01*
X158724412Y-110898580D01*
X158724412Y-111101419D01*
X158723219Y-111110480D01*
X158723219Y-111121690D01*
X158714473Y-111176905D01*
X158697934Y-111302534D01*
X158689722Y-111333180D01*
X158685146Y-111362074D01*
X158667091Y-111417638D01*
X158645434Y-111498467D01*
X158624071Y-111550039D01*
X158609937Y-111593542D01*
X158589171Y-111634297D01*
X158567809Y-111685870D01*
X158525968Y-111758338D01*
X158499445Y-111810395D01*
X158482249Y-111834062D01*
X158466386Y-111861539D01*
X158389261Y-111962050D01*
X158356390Y-112007294D01*
X158348459Y-112015224D01*
X158342903Y-112022466D01*
X158199466Y-112165903D01*
X158192224Y-112171459D01*
X158184294Y-112179390D01*
X158139050Y-112212261D01*
X158038539Y-112289386D01*
X158011062Y-112305249D01*
X157987395Y-112322445D01*
X157935338Y-112348968D01*
X157862870Y-112390809D01*
X157811297Y-112412171D01*
X157770542Y-112432937D01*
X157727039Y-112447071D01*
X157675467Y-112468434D01*
X157594638Y-112490091D01*
X157539074Y-112508146D01*
X157510180Y-112512722D01*
X157479534Y-112520934D01*
X157353902Y-112537474D01*
X157298690Y-112546219D01*
X157287481Y-112546219D01*
X157278420Y-112547412D01*
X157075580Y-112547412D01*
X157066519Y-112546219D01*
X157055310Y-112546219D01*
X157000099Y-112537474D01*
X156874465Y-112520934D01*
X156843816Y-112512721D01*
X156814926Y-112508146D01*
X156759366Y-112490093D01*
X156678532Y-112468434D01*
X156626955Y-112447070D01*
X156583458Y-112432937D01*
X156542706Y-112412173D01*
X156491129Y-112390809D01*
X156418652Y-112348964D01*
X156366605Y-112322445D01*
X156342941Y-112305252D01*
X156315460Y-112289386D01*
X156214930Y-112212247D01*
X156169706Y-112179390D01*
X156161779Y-112171463D01*
X156154533Y-112165903D01*
X156011096Y-112022466D01*
X156005535Y-112015219D01*
X155997610Y-112007294D01*
X155964756Y-111962074D01*
X155887613Y-111861539D01*
X155871745Y-111834055D01*
X155854555Y-111810395D01*
X155828038Y-111758353D01*
X155786190Y-111685870D01*
X155764823Y-111634286D01*
X155744063Y-111593542D01*
X155729931Y-111550050D01*
X155708565Y-111498467D01*
X155686902Y-111417620D01*
X155668854Y-111362074D01*
X155664279Y-111333189D01*
X155656065Y-111302534D01*
X155639524Y-111176891D01*
X155630781Y-111121690D01*
X155630781Y-111110480D01*
X155629588Y-111101419D01*
X155629588Y-110898580D01*
X155630781Y-110889518D01*
X155630781Y-110878310D01*
X155639523Y-110823113D01*
X155656065Y-110697465D01*
X155664279Y-110666807D01*
X155668854Y-110637926D01*
X155686900Y-110582383D01*
X155708565Y-110501532D01*
X155729933Y-110449944D01*
X155744063Y-110406458D01*
X155764821Y-110365717D01*
X155786190Y-110314129D01*
X155828042Y-110241637D01*
X155854555Y-110189605D01*
X155871742Y-110165948D01*
X155887613Y-110138460D01*
X155964770Y-110037906D01*
X155997610Y-109992706D01*
X156005532Y-109984783D01*
X156011096Y-109977533D01*
X156154533Y-109834096D01*
X156161783Y-109828532D01*
X156169706Y-109820610D01*
X156214906Y-109787770D01*
X156315460Y-109710613D01*
X156342948Y-109694742D01*
X156366605Y-109677555D01*
X156418637Y-109651042D01*
X156491129Y-109609190D01*
X156542717Y-109587821D01*
X156583458Y-109567063D01*
X156626944Y-109552933D01*
X156678532Y-109531565D01*
X156759383Y-109509900D01*
X156814926Y-109491854D01*
X156843807Y-109487279D01*
X156874465Y-109479065D01*
X157000113Y-109462523D01*
X157055310Y-109453781D01*
X157066518Y-109453781D01*
X157075580Y-109452588D01*
X157278420Y-109452588D01*
X157287482Y-109453781D01*
G37*
G36*
X151634517Y-109987882D02*
G01*
X151651062Y-109998938D01*
X151662118Y-110015483D01*
X151666000Y-110035000D01*
X151666000Y-111965000D01*
X151662118Y-111984517D01*
X151651062Y-112001062D01*
X151634517Y-112012118D01*
X151615000Y-112016000D01*
X149785000Y-112016000D01*
X149765483Y-112012118D01*
X149748938Y-112001062D01*
X149737882Y-111984517D01*
X149734000Y-111965000D01*
X149734000Y-110035000D01*
X149737882Y-110015483D01*
X149748938Y-109998938D01*
X149765483Y-109987882D01*
X149785000Y-109984000D01*
X151615000Y-109984000D01*
X151634517Y-109987882D01*
G37*
G36*
X154032518Y-97333491D02*
G01*
X154177589Y-97393581D01*
X154308149Y-97480819D01*
X154419181Y-97591851D01*
X154506419Y-97722411D01*
X154566509Y-97867482D01*
X154597143Y-98021488D01*
X154601000Y-98100000D01*
X154601000Y-99900000D01*
X154597143Y-99978512D01*
X154566509Y-100132518D01*
X154506419Y-100277589D01*
X154419181Y-100408149D01*
X154308149Y-100519181D01*
X154177589Y-100606419D01*
X154032518Y-100666509D01*
X153878512Y-100697143D01*
X153721488Y-100697143D01*
X153567482Y-100666509D01*
X153422411Y-100606419D01*
X153291851Y-100519181D01*
X153180819Y-100408149D01*
X153093581Y-100277589D01*
X153033491Y-100132518D01*
X153002857Y-99978512D01*
X152999000Y-99900000D01*
X152999000Y-98100000D01*
X153002857Y-98021488D01*
X153033491Y-97867482D01*
X153093581Y-97722411D01*
X153180819Y-97591851D01*
X153291851Y-97480819D01*
X153422411Y-97393581D01*
X153567482Y-97333491D01*
X153721488Y-97302857D01*
X153878512Y-97302857D01*
X154032518Y-97333491D01*
G37*
G36*
X162332518Y-97333491D02*
G01*
X162477589Y-97393581D01*
X162608149Y-97480819D01*
X162719181Y-97591851D01*
X162806419Y-97722411D01*
X162866509Y-97867482D01*
X162897143Y-98021488D01*
X162901000Y-98100000D01*
X162901000Y-99900000D01*
X162897143Y-99978512D01*
X162866509Y-100132518D01*
X162806419Y-100277589D01*
X162719181Y-100408149D01*
X162608149Y-100519181D01*
X162477589Y-100606419D01*
X162332518Y-100666509D01*
X162178512Y-100697143D01*
X162021488Y-100697143D01*
X161867482Y-100666509D01*
X161722411Y-100606419D01*
X161591851Y-100519181D01*
X161480819Y-100408149D01*
X161393581Y-100277589D01*
X161333491Y-100132518D01*
X161302857Y-99978512D01*
X161299000Y-99900000D01*
X161299000Y-98100000D01*
X161302857Y-98021488D01*
X161333491Y-97867482D01*
X161393581Y-97722411D01*
X161480819Y-97591851D01*
X161591851Y-97480819D01*
X161722411Y-97393581D01*
X161867482Y-97333491D01*
X162021488Y-97302857D01*
X162178512Y-97302857D01*
X162332518Y-97333491D01*
G37*
G36*
X157287482Y-97453781D02*
G01*
X157298690Y-97453781D01*
X157353888Y-97462523D01*
X157479534Y-97479065D01*
X157510189Y-97487279D01*
X157539074Y-97491854D01*
X157594620Y-97509902D01*
X157675467Y-97531565D01*
X157727050Y-97552931D01*
X157770542Y-97567063D01*
X157811286Y-97587823D01*
X157862870Y-97609190D01*
X157935353Y-97651038D01*
X157987395Y-97677555D01*
X158011055Y-97694745D01*
X158038539Y-97710613D01*
X158139074Y-97787756D01*
X158184294Y-97820610D01*
X158192219Y-97828535D01*
X158199466Y-97834096D01*
X158342903Y-97977533D01*
X158348463Y-97984779D01*
X158356390Y-97992706D01*
X158389247Y-98037930D01*
X158466386Y-98138460D01*
X158482252Y-98165941D01*
X158499445Y-98189605D01*
X158525964Y-98241652D01*
X158567809Y-98314129D01*
X158589173Y-98365706D01*
X158609937Y-98406458D01*
X158624070Y-98449955D01*
X158645434Y-98501532D01*
X158667093Y-98582366D01*
X158685146Y-98637926D01*
X158689721Y-98666816D01*
X158697934Y-98697465D01*
X158714474Y-98823099D01*
X158723219Y-98878310D01*
X158723219Y-98889518D01*
X158724412Y-98898580D01*
X158724412Y-99101419D01*
X158723219Y-99110480D01*
X158723219Y-99121690D01*
X158714473Y-99176905D01*
X158697934Y-99302534D01*
X158689722Y-99333180D01*
X158685146Y-99362074D01*
X158667091Y-99417638D01*
X158645434Y-99498467D01*
X158624071Y-99550039D01*
X158609937Y-99593542D01*
X158589171Y-99634297D01*
X158567809Y-99685870D01*
X158525968Y-99758338D01*
X158499445Y-99810395D01*
X158482249Y-99834062D01*
X158466386Y-99861539D01*
X158389261Y-99962050D01*
X158356390Y-100007294D01*
X158348459Y-100015224D01*
X158342903Y-100022466D01*
X158199466Y-100165903D01*
X158192224Y-100171459D01*
X158184294Y-100179390D01*
X158139050Y-100212261D01*
X158038539Y-100289386D01*
X158011062Y-100305249D01*
X157987395Y-100322445D01*
X157935338Y-100348968D01*
X157862870Y-100390809D01*
X157811297Y-100412171D01*
X157770542Y-100432937D01*
X157727039Y-100447071D01*
X157675467Y-100468434D01*
X157594638Y-100490091D01*
X157539074Y-100508146D01*
X157510180Y-100512722D01*
X157479534Y-100520934D01*
X157353902Y-100537474D01*
X157298690Y-100546219D01*
X157287481Y-100546219D01*
X157278420Y-100547412D01*
X157075580Y-100547412D01*
X157066519Y-100546219D01*
X157055310Y-100546219D01*
X157000099Y-100537474D01*
X156874465Y-100520934D01*
X156843816Y-100512721D01*
X156814926Y-100508146D01*
X156759366Y-100490093D01*
X156678532Y-100468434D01*
X156626955Y-100447070D01*
X156583458Y-100432937D01*
X156542706Y-100412173D01*
X156491129Y-100390809D01*
X156418652Y-100348964D01*
X156366605Y-100322445D01*
X156342941Y-100305252D01*
X156315460Y-100289386D01*
X156214930Y-100212247D01*
X156169706Y-100179390D01*
X156161779Y-100171463D01*
X156154533Y-100165903D01*
X156011096Y-100022466D01*
X156005535Y-100015219D01*
X155997610Y-100007294D01*
X155964756Y-99962074D01*
X155887613Y-99861539D01*
X155871745Y-99834055D01*
X155854555Y-99810395D01*
X155828038Y-99758353D01*
X155786190Y-99685870D01*
X155764823Y-99634286D01*
X155744063Y-99593542D01*
X155729931Y-99550050D01*
X155708565Y-99498467D01*
X155686902Y-99417620D01*
X155668854Y-99362074D01*
X155664279Y-99333189D01*
X155656065Y-99302534D01*
X155639524Y-99176891D01*
X155630781Y-99121690D01*
X155630781Y-99110480D01*
X155629588Y-99101419D01*
X155629588Y-98898580D01*
X155630781Y-98889518D01*
X155630781Y-98878310D01*
X155639523Y-98823113D01*
X155656065Y-98697465D01*
X155664279Y-98666807D01*
X155668854Y-98637926D01*
X155686900Y-98582383D01*
X155708565Y-98501532D01*
X155729933Y-98449944D01*
X155744063Y-98406458D01*
X155764821Y-98365717D01*
X155786190Y-98314129D01*
X155828042Y-98241637D01*
X155854555Y-98189605D01*
X155871742Y-98165948D01*
X155887613Y-98138460D01*
X155964770Y-98037906D01*
X155997610Y-97992706D01*
X156005532Y-97984783D01*
X156011096Y-97977533D01*
X156154533Y-97834096D01*
X156161783Y-97828532D01*
X156169706Y-97820610D01*
X156214906Y-97787770D01*
X156315460Y-97710613D01*
X156342948Y-97694742D01*
X156366605Y-97677555D01*
X156418637Y-97651042D01*
X156491129Y-97609190D01*
X156542717Y-97587821D01*
X156583458Y-97567063D01*
X156626944Y-97552933D01*
X156678532Y-97531565D01*
X156759383Y-97509900D01*
X156814926Y-97491854D01*
X156843807Y-97487279D01*
X156874465Y-97479065D01*
X157000113Y-97462523D01*
X157055310Y-97453781D01*
X157066518Y-97453781D01*
X157075580Y-97452588D01*
X157278420Y-97452588D01*
X157287482Y-97453781D01*
G37*
G36*
X151634517Y-97987882D02*
G01*
X151651062Y-97998938D01*
X151662118Y-98015483D01*
X151666000Y-98035000D01*
X151666000Y-99965000D01*
X151662118Y-99984517D01*
X151651062Y-100001062D01*
X151634517Y-100012118D01*
X151615000Y-100016000D01*
X149785000Y-100016000D01*
X149765483Y-100012118D01*
X149748938Y-100001062D01*
X149737882Y-99984517D01*
X149734000Y-99965000D01*
X149734000Y-98035000D01*
X149737882Y-98015483D01*
X149748938Y-97998938D01*
X149765483Y-97987882D01*
X149785000Y-97984000D01*
X151615000Y-97984000D01*
X151634517Y-97987882D01*
G37*
G36*
X154736001Y-91762008D02*
G01*
X154883246Y-91822998D01*
X155015762Y-91911543D01*
X155128457Y-92024238D01*
X155217002Y-92156754D01*
X155277992Y-92303999D01*
X155309085Y-92460312D01*
X155309085Y-92619688D01*
X155277992Y-92776001D01*
X155217002Y-92923246D01*
X155128457Y-93055762D01*
X155015762Y-93168457D01*
X154883246Y-93257002D01*
X154736001Y-93317992D01*
X154579688Y-93349085D01*
X154420312Y-93349085D01*
X154263999Y-93317992D01*
X154116754Y-93257002D01*
X153984238Y-93168457D01*
X153871543Y-93055762D01*
X153782998Y-92923246D01*
X153722008Y-92776001D01*
X153690915Y-92619688D01*
X153690915Y-92460312D01*
X153722008Y-92303999D01*
X153782998Y-92156754D01*
X153871543Y-92024238D01*
X153984238Y-91911543D01*
X154116754Y-91822998D01*
X154263999Y-91762008D01*
X154420312Y-91730915D01*
X154579688Y-91730915D01*
X154736001Y-91762008D01*
G37*
G36*
X160736001Y-91762008D02*
G01*
X160883246Y-91822998D01*
X161015762Y-91911543D01*
X161128457Y-92024238D01*
X161217002Y-92156754D01*
X161277992Y-92303999D01*
X161309085Y-92460312D01*
X161309085Y-92619688D01*
X161277992Y-92776001D01*
X161217002Y-92923246D01*
X161128457Y-93055762D01*
X161015762Y-93168457D01*
X160883246Y-93257002D01*
X160736001Y-93317992D01*
X160579688Y-93349085D01*
X160420312Y-93349085D01*
X160263999Y-93317992D01*
X160116754Y-93257002D01*
X159984238Y-93168457D01*
X159871543Y-93055762D01*
X159782998Y-92923246D01*
X159722008Y-92776001D01*
X159690915Y-92619688D01*
X159690915Y-92460312D01*
X159722008Y-92303999D01*
X159782998Y-92156754D01*
X159871543Y-92024238D01*
X159984238Y-91911543D01*
X160116754Y-91822998D01*
X160263999Y-91762008D01*
X160420312Y-91730915D01*
X160579688Y-91730915D01*
X160736001Y-91762008D01*
G37*
G36*
X154736001Y-89222008D02*
G01*
X154883246Y-89282998D01*
X155015762Y-89371543D01*
X155128457Y-89484238D01*
X155217002Y-89616754D01*
X155277992Y-89763999D01*
X155309085Y-89920312D01*
X155309085Y-90079688D01*
X155277992Y-90236001D01*
X155217002Y-90383246D01*
X155128457Y-90515762D01*
X155015762Y-90628457D01*
X154883246Y-90717002D01*
X154736001Y-90777992D01*
X154579688Y-90809085D01*
X154420312Y-90809085D01*
X154263999Y-90777992D01*
X154116754Y-90717002D01*
X153984238Y-90628457D01*
X153871543Y-90515762D01*
X153782998Y-90383246D01*
X153722008Y-90236001D01*
X153690915Y-90079688D01*
X153690915Y-89920312D01*
X153722008Y-89763999D01*
X153782998Y-89616754D01*
X153871543Y-89484238D01*
X153984238Y-89371543D01*
X154116754Y-89282998D01*
X154263999Y-89222008D01*
X154420312Y-89190915D01*
X154579688Y-89190915D01*
X154736001Y-89222008D01*
G37*
G36*
X160736001Y-89222008D02*
G01*
X160883246Y-89282998D01*
X161015762Y-89371543D01*
X161128457Y-89484238D01*
X161217002Y-89616754D01*
X161277992Y-89763999D01*
X161309085Y-89920312D01*
X161309085Y-90079688D01*
X161277992Y-90236001D01*
X161217002Y-90383246D01*
X161128457Y-90515762D01*
X161015762Y-90628457D01*
X160883246Y-90717002D01*
X160736001Y-90777992D01*
X160579688Y-90809085D01*
X160420312Y-90809085D01*
X160263999Y-90777992D01*
X160116754Y-90717002D01*
X159984238Y-90628457D01*
X159871543Y-90515762D01*
X159782998Y-90383246D01*
X159722008Y-90236001D01*
X159690915Y-90079688D01*
X159690915Y-89920312D01*
X159722008Y-89763999D01*
X159782998Y-89616754D01*
X159871543Y-89484238D01*
X159984238Y-89371543D01*
X160116754Y-89282998D01*
X160263999Y-89222008D01*
X160420312Y-89190915D01*
X160579688Y-89190915D01*
X160736001Y-89222008D01*
G37*
G36*
X154736001Y-86682008D02*
G01*
X154883246Y-86742998D01*
X155015762Y-86831543D01*
X155128457Y-86944238D01*
X155217002Y-87076754D01*
X155277992Y-87223999D01*
X155309085Y-87380312D01*
X155309085Y-87539688D01*
X155277992Y-87696001D01*
X155217002Y-87843246D01*
X155128457Y-87975762D01*
X155015762Y-88088457D01*
X154883246Y-88177002D01*
X154736001Y-88237992D01*
X154579688Y-88269085D01*
X154420312Y-88269085D01*
X154263999Y-88237992D01*
X154116754Y-88177002D01*
X153984238Y-88088457D01*
X153871543Y-87975762D01*
X153782998Y-87843246D01*
X153722008Y-87696001D01*
X153690915Y-87539688D01*
X153690915Y-87380312D01*
X153722008Y-87223999D01*
X153782998Y-87076754D01*
X153871543Y-86944238D01*
X153984238Y-86831543D01*
X154116754Y-86742998D01*
X154263999Y-86682008D01*
X154420312Y-86650915D01*
X154579688Y-86650915D01*
X154736001Y-86682008D01*
G37*
G36*
X160736001Y-86682008D02*
G01*
X160883246Y-86742998D01*
X161015762Y-86831543D01*
X161128457Y-86944238D01*
X161217002Y-87076754D01*
X161277992Y-87223999D01*
X161309085Y-87380312D01*
X161309085Y-87539688D01*
X161277992Y-87696001D01*
X161217002Y-87843246D01*
X161128457Y-87975762D01*
X161015762Y-88088457D01*
X160883246Y-88177002D01*
X160736001Y-88237992D01*
X160579688Y-88269085D01*
X160420312Y-88269085D01*
X160263999Y-88237992D01*
X160116754Y-88177002D01*
X159984238Y-88088457D01*
X159871543Y-87975762D01*
X159782998Y-87843246D01*
X159722008Y-87696001D01*
X159690915Y-87539688D01*
X159690915Y-87380312D01*
X159722008Y-87223999D01*
X159782998Y-87076754D01*
X159871543Y-86944238D01*
X159984238Y-86831543D01*
X160116754Y-86742998D01*
X160263999Y-86682008D01*
X160420312Y-86650915D01*
X160579688Y-86650915D01*
X160736001Y-86682008D01*
G37*
G36*
X154032518Y-79333491D02*
G01*
X154177589Y-79393581D01*
X154308149Y-79480819D01*
X154419181Y-79591851D01*
X154506419Y-79722411D01*
X154566509Y-79867482D01*
X154597143Y-80021488D01*
X154601000Y-80100000D01*
X154601000Y-81900000D01*
X154597143Y-81978512D01*
X154566509Y-82132518D01*
X154506419Y-82277589D01*
X154419181Y-82408149D01*
X154308149Y-82519181D01*
X154177589Y-82606419D01*
X154032518Y-82666509D01*
X153878512Y-82697143D01*
X153721488Y-82697143D01*
X153567482Y-82666509D01*
X153422411Y-82606419D01*
X153291851Y-82519181D01*
X153180819Y-82408149D01*
X153093581Y-82277589D01*
X153033491Y-82132518D01*
X153002857Y-81978512D01*
X152999000Y-81900000D01*
X152999000Y-80100000D01*
X153002857Y-80021488D01*
X153033491Y-79867482D01*
X153093581Y-79722411D01*
X153180819Y-79591851D01*
X153291851Y-79480819D01*
X153422411Y-79393581D01*
X153567482Y-79333491D01*
X153721488Y-79302857D01*
X153878512Y-79302857D01*
X154032518Y-79333491D01*
G37*
G36*
X162332518Y-79333491D02*
G01*
X162477589Y-79393581D01*
X162608149Y-79480819D01*
X162719181Y-79591851D01*
X162806419Y-79722411D01*
X162866509Y-79867482D01*
X162897143Y-80021488D01*
X162901000Y-80100000D01*
X162901000Y-81900000D01*
X162897143Y-81978512D01*
X162866509Y-82132518D01*
X162806419Y-82277589D01*
X162719181Y-82408149D01*
X162608149Y-82519181D01*
X162477589Y-82606419D01*
X162332518Y-82666509D01*
X162178512Y-82697143D01*
X162021488Y-82697143D01*
X161867482Y-82666509D01*
X161722411Y-82606419D01*
X161591851Y-82519181D01*
X161480819Y-82408149D01*
X161393581Y-82277589D01*
X161333491Y-82132518D01*
X161302857Y-81978512D01*
X161299000Y-81900000D01*
X161299000Y-80100000D01*
X161302857Y-80021488D01*
X161333491Y-79867482D01*
X161393581Y-79722411D01*
X161480819Y-79591851D01*
X161591851Y-79480819D01*
X161722411Y-79393581D01*
X161867482Y-79333491D01*
X162021488Y-79302857D01*
X162178512Y-79302857D01*
X162332518Y-79333491D01*
G37*
G36*
X157287482Y-79453781D02*
G01*
X157298690Y-79453781D01*
X157353888Y-79462523D01*
X157479534Y-79479065D01*
X157510189Y-79487279D01*
X157539074Y-79491854D01*
X157594620Y-79509902D01*
X157675467Y-79531565D01*
X157727050Y-79552931D01*
X157770542Y-79567063D01*
X157811286Y-79587823D01*
X157862870Y-79609190D01*
X157935353Y-79651038D01*
X157987395Y-79677555D01*
X158011055Y-79694745D01*
X158038539Y-79710613D01*
X158139074Y-79787756D01*
X158184294Y-79820610D01*
X158192219Y-79828535D01*
X158199466Y-79834096D01*
X158342903Y-79977533D01*
X158348463Y-79984779D01*
X158356390Y-79992706D01*
X158389247Y-80037930D01*
X158466386Y-80138460D01*
X158482252Y-80165941D01*
X158499445Y-80189605D01*
X158525964Y-80241652D01*
X158567809Y-80314129D01*
X158589173Y-80365706D01*
X158609937Y-80406458D01*
X158624070Y-80449955D01*
X158645434Y-80501532D01*
X158667093Y-80582366D01*
X158685146Y-80637926D01*
X158689721Y-80666816D01*
X158697934Y-80697465D01*
X158714474Y-80823099D01*
X158723219Y-80878310D01*
X158723219Y-80889518D01*
X158724412Y-80898580D01*
X158724412Y-81101419D01*
X158723219Y-81110480D01*
X158723219Y-81121690D01*
X158714473Y-81176905D01*
X158697934Y-81302534D01*
X158689722Y-81333180D01*
X158685146Y-81362074D01*
X158667091Y-81417638D01*
X158645434Y-81498467D01*
X158624071Y-81550039D01*
X158609937Y-81593542D01*
X158589171Y-81634297D01*
X158567809Y-81685870D01*
X158525968Y-81758338D01*
X158499445Y-81810395D01*
X158482249Y-81834062D01*
X158466386Y-81861539D01*
X158389261Y-81962050D01*
X158356390Y-82007294D01*
X158348459Y-82015224D01*
X158342903Y-82022466D01*
X158199466Y-82165903D01*
X158192224Y-82171459D01*
X158184294Y-82179390D01*
X158139050Y-82212261D01*
X158038539Y-82289386D01*
X158011062Y-82305249D01*
X157987395Y-82322445D01*
X157935338Y-82348968D01*
X157862870Y-82390809D01*
X157811297Y-82412171D01*
X157770542Y-82432937D01*
X157727039Y-82447071D01*
X157675467Y-82468434D01*
X157594638Y-82490091D01*
X157539074Y-82508146D01*
X157510180Y-82512722D01*
X157479534Y-82520934D01*
X157353902Y-82537474D01*
X157298690Y-82546219D01*
X157287481Y-82546219D01*
X157278420Y-82547412D01*
X157075580Y-82547412D01*
X157066519Y-82546219D01*
X157055310Y-82546219D01*
X157000099Y-82537474D01*
X156874465Y-82520934D01*
X156843816Y-82512721D01*
X156814926Y-82508146D01*
X156759366Y-82490093D01*
X156678532Y-82468434D01*
X156626955Y-82447070D01*
X156583458Y-82432937D01*
X156542706Y-82412173D01*
X156491129Y-82390809D01*
X156418652Y-82348964D01*
X156366605Y-82322445D01*
X156342941Y-82305252D01*
X156315460Y-82289386D01*
X156214930Y-82212247D01*
X156169706Y-82179390D01*
X156161779Y-82171463D01*
X156154533Y-82165903D01*
X156011096Y-82022466D01*
X156005535Y-82015219D01*
X155997610Y-82007294D01*
X155964756Y-81962074D01*
X155887613Y-81861539D01*
X155871745Y-81834055D01*
X155854555Y-81810395D01*
X155828038Y-81758353D01*
X155786190Y-81685870D01*
X155764823Y-81634286D01*
X155744063Y-81593542D01*
X155729931Y-81550050D01*
X155708565Y-81498467D01*
X155686902Y-81417620D01*
X155668854Y-81362074D01*
X155664279Y-81333189D01*
X155656065Y-81302534D01*
X155639524Y-81176891D01*
X155630781Y-81121690D01*
X155630781Y-81110480D01*
X155629588Y-81101419D01*
X155629588Y-80898580D01*
X155630781Y-80889518D01*
X155630781Y-80878310D01*
X155639523Y-80823113D01*
X155656065Y-80697465D01*
X155664279Y-80666807D01*
X155668854Y-80637926D01*
X155686900Y-80582383D01*
X155708565Y-80501532D01*
X155729933Y-80449944D01*
X155744063Y-80406458D01*
X155764821Y-80365717D01*
X155786190Y-80314129D01*
X155828042Y-80241637D01*
X155854555Y-80189605D01*
X155871742Y-80165948D01*
X155887613Y-80138460D01*
X155964770Y-80037906D01*
X155997610Y-79992706D01*
X156005532Y-79984783D01*
X156011096Y-79977533D01*
X156154533Y-79834096D01*
X156161783Y-79828532D01*
X156169706Y-79820610D01*
X156214906Y-79787770D01*
X156315460Y-79710613D01*
X156342948Y-79694742D01*
X156366605Y-79677555D01*
X156418637Y-79651042D01*
X156491129Y-79609190D01*
X156542717Y-79587821D01*
X156583458Y-79567063D01*
X156626944Y-79552933D01*
X156678532Y-79531565D01*
X156759383Y-79509900D01*
X156814926Y-79491854D01*
X156843807Y-79487279D01*
X156874465Y-79479065D01*
X157000113Y-79462523D01*
X157055310Y-79453781D01*
X157066518Y-79453781D01*
X157075580Y-79452588D01*
X157278420Y-79452588D01*
X157287482Y-79453781D01*
G37*
G36*
X151634517Y-79987882D02*
G01*
X151651062Y-79998938D01*
X151662118Y-80015483D01*
X151666000Y-80035000D01*
X151666000Y-81965000D01*
X151662118Y-81984517D01*
X151651062Y-82001062D01*
X151634517Y-82012118D01*
X151615000Y-82016000D01*
X149785000Y-82016000D01*
X149765483Y-82012118D01*
X149748938Y-82001062D01*
X149737882Y-81984517D01*
X149734000Y-81965000D01*
X149734000Y-80035000D01*
X149737882Y-80015483D01*
X149748938Y-79998938D01*
X149765483Y-79987882D01*
X149785000Y-79984000D01*
X151615000Y-79984000D01*
X151634517Y-79987882D01*
G37*
G36*
X154032518Y-67333491D02*
G01*
X154177589Y-67393581D01*
X154308149Y-67480819D01*
X154419181Y-67591851D01*
X154506419Y-67722411D01*
X154566509Y-67867482D01*
X154597143Y-68021488D01*
X154601000Y-68100000D01*
X154601000Y-69900000D01*
X154597143Y-69978512D01*
X154566509Y-70132518D01*
X154506419Y-70277589D01*
X154419181Y-70408149D01*
X154308149Y-70519181D01*
X154177589Y-70606419D01*
X154032518Y-70666509D01*
X153878512Y-70697143D01*
X153721488Y-70697143D01*
X153567482Y-70666509D01*
X153422411Y-70606419D01*
X153291851Y-70519181D01*
X153180819Y-70408149D01*
X153093581Y-70277589D01*
X153033491Y-70132518D01*
X153002857Y-69978512D01*
X152999000Y-69900000D01*
X152999000Y-68100000D01*
X153002857Y-68021488D01*
X153033491Y-67867482D01*
X153093581Y-67722411D01*
X153180819Y-67591851D01*
X153291851Y-67480819D01*
X153422411Y-67393581D01*
X153567482Y-67333491D01*
X153721488Y-67302857D01*
X153878512Y-67302857D01*
X154032518Y-67333491D01*
G37*
G36*
X162332518Y-67333491D02*
G01*
X162477589Y-67393581D01*
X162608149Y-67480819D01*
X162719181Y-67591851D01*
X162806419Y-67722411D01*
X162866509Y-67867482D01*
X162897143Y-68021488D01*
X162901000Y-68100000D01*
X162901000Y-69900000D01*
X162897143Y-69978512D01*
X162866509Y-70132518D01*
X162806419Y-70277589D01*
X162719181Y-70408149D01*
X162608149Y-70519181D01*
X162477589Y-70606419D01*
X162332518Y-70666509D01*
X162178512Y-70697143D01*
X162021488Y-70697143D01*
X161867482Y-70666509D01*
X161722411Y-70606419D01*
X161591851Y-70519181D01*
X161480819Y-70408149D01*
X161393581Y-70277589D01*
X161333491Y-70132518D01*
X161302857Y-69978512D01*
X161299000Y-69900000D01*
X161299000Y-68100000D01*
X161302857Y-68021488D01*
X161333491Y-67867482D01*
X161393581Y-67722411D01*
X161480819Y-67591851D01*
X161591851Y-67480819D01*
X161722411Y-67393581D01*
X161867482Y-67333491D01*
X162021488Y-67302857D01*
X162178512Y-67302857D01*
X162332518Y-67333491D01*
G37*
G36*
X157287482Y-67453781D02*
G01*
X157298690Y-67453781D01*
X157353888Y-67462523D01*
X157479534Y-67479065D01*
X157510189Y-67487279D01*
X157539074Y-67491854D01*
X157594620Y-67509902D01*
X157675467Y-67531565D01*
X157727050Y-67552931D01*
X157770542Y-67567063D01*
X157811286Y-67587823D01*
X157862870Y-67609190D01*
X157935353Y-67651038D01*
X157987395Y-67677555D01*
X158011055Y-67694745D01*
X158038539Y-67710613D01*
X158139074Y-67787756D01*
X158184294Y-67820610D01*
X158192219Y-67828535D01*
X158199466Y-67834096D01*
X158342903Y-67977533D01*
X158348463Y-67984779D01*
X158356390Y-67992706D01*
X158389247Y-68037930D01*
X158466386Y-68138460D01*
X158482252Y-68165941D01*
X158499445Y-68189605D01*
X158525964Y-68241652D01*
X158567809Y-68314129D01*
X158589173Y-68365706D01*
X158609937Y-68406458D01*
X158624070Y-68449955D01*
X158645434Y-68501532D01*
X158667093Y-68582366D01*
X158685146Y-68637926D01*
X158689721Y-68666816D01*
X158697934Y-68697465D01*
X158714474Y-68823099D01*
X158723219Y-68878310D01*
X158723219Y-68889518D01*
X158724412Y-68898580D01*
X158724412Y-69101419D01*
X158723219Y-69110480D01*
X158723219Y-69121690D01*
X158714473Y-69176905D01*
X158697934Y-69302534D01*
X158689722Y-69333180D01*
X158685146Y-69362074D01*
X158667091Y-69417638D01*
X158645434Y-69498467D01*
X158624071Y-69550039D01*
X158609937Y-69593542D01*
X158589171Y-69634297D01*
X158567809Y-69685870D01*
X158525968Y-69758338D01*
X158499445Y-69810395D01*
X158482249Y-69834062D01*
X158466386Y-69861539D01*
X158389261Y-69962050D01*
X158356390Y-70007294D01*
X158348459Y-70015224D01*
X158342903Y-70022466D01*
X158199466Y-70165903D01*
X158192224Y-70171459D01*
X158184294Y-70179390D01*
X158139050Y-70212261D01*
X158038539Y-70289386D01*
X158011062Y-70305249D01*
X157987395Y-70322445D01*
X157935338Y-70348968D01*
X157862870Y-70390809D01*
X157811297Y-70412171D01*
X157770542Y-70432937D01*
X157727039Y-70447071D01*
X157675467Y-70468434D01*
X157594638Y-70490091D01*
X157539074Y-70508146D01*
X157510180Y-70512722D01*
X157479534Y-70520934D01*
X157353902Y-70537474D01*
X157298690Y-70546219D01*
X157287481Y-70546219D01*
X157278420Y-70547412D01*
X157075580Y-70547412D01*
X157066519Y-70546219D01*
X157055310Y-70546219D01*
X157000099Y-70537474D01*
X156874465Y-70520934D01*
X156843816Y-70512721D01*
X156814926Y-70508146D01*
X156759366Y-70490093D01*
X156678532Y-70468434D01*
X156626955Y-70447070D01*
X156583458Y-70432937D01*
X156542706Y-70412173D01*
X156491129Y-70390809D01*
X156418652Y-70348964D01*
X156366605Y-70322445D01*
X156342941Y-70305252D01*
X156315460Y-70289386D01*
X156214930Y-70212247D01*
X156169706Y-70179390D01*
X156161779Y-70171463D01*
X156154533Y-70165903D01*
X156011096Y-70022466D01*
X156005535Y-70015219D01*
X155997610Y-70007294D01*
X155964756Y-69962074D01*
X155887613Y-69861539D01*
X155871745Y-69834055D01*
X155854555Y-69810395D01*
X155828038Y-69758353D01*
X155786190Y-69685870D01*
X155764823Y-69634286D01*
X155744063Y-69593542D01*
X155729931Y-69550050D01*
X155708565Y-69498467D01*
X155686902Y-69417620D01*
X155668854Y-69362074D01*
X155664279Y-69333189D01*
X155656065Y-69302534D01*
X155639524Y-69176891D01*
X155630781Y-69121690D01*
X155630781Y-69110480D01*
X155629588Y-69101419D01*
X155629588Y-68898580D01*
X155630781Y-68889518D01*
X155630781Y-68878310D01*
X155639523Y-68823113D01*
X155656065Y-68697465D01*
X155664279Y-68666807D01*
X155668854Y-68637926D01*
X155686900Y-68582383D01*
X155708565Y-68501532D01*
X155729933Y-68449944D01*
X155744063Y-68406458D01*
X155764821Y-68365717D01*
X155786190Y-68314129D01*
X155828042Y-68241637D01*
X155854555Y-68189605D01*
X155871742Y-68165948D01*
X155887613Y-68138460D01*
X155964770Y-68037906D01*
X155997610Y-67992706D01*
X156005532Y-67984783D01*
X156011096Y-67977533D01*
X156154533Y-67834096D01*
X156161783Y-67828532D01*
X156169706Y-67820610D01*
X156214906Y-67787770D01*
X156315460Y-67710613D01*
X156342948Y-67694742D01*
X156366605Y-67677555D01*
X156418637Y-67651042D01*
X156491129Y-67609190D01*
X156542717Y-67587821D01*
X156583458Y-67567063D01*
X156626944Y-67552933D01*
X156678532Y-67531565D01*
X156759383Y-67509900D01*
X156814926Y-67491854D01*
X156843807Y-67487279D01*
X156874465Y-67479065D01*
X157000113Y-67462523D01*
X157055310Y-67453781D01*
X157066518Y-67453781D01*
X157075580Y-67452588D01*
X157278420Y-67452588D01*
X157287482Y-67453781D01*
G37*
G36*
X151634517Y-67987882D02*
G01*
X151651062Y-67998938D01*
X151662118Y-68015483D01*
X151666000Y-68035000D01*
X151666000Y-69965000D01*
X151662118Y-69984517D01*
X151651062Y-70001062D01*
X151634517Y-70012118D01*
X151615000Y-70016000D01*
X149785000Y-70016000D01*
X149765483Y-70012118D01*
X149748938Y-70001062D01*
X149737882Y-69984517D01*
X149734000Y-69965000D01*
X149734000Y-68035000D01*
X149737882Y-68015483D01*
X149748938Y-67998938D01*
X149765483Y-67987882D01*
X149785000Y-67984000D01*
X151615000Y-67984000D01*
X151634517Y-67987882D01*
G37*
G36*
X154032518Y-55333491D02*
G01*
X154177589Y-55393581D01*
X154308149Y-55480819D01*
X154419181Y-55591851D01*
X154506419Y-55722411D01*
X154566509Y-55867482D01*
X154597143Y-56021488D01*
X154601000Y-56100000D01*
X154601000Y-57900000D01*
X154597143Y-57978512D01*
X154566509Y-58132518D01*
X154506419Y-58277589D01*
X154419181Y-58408149D01*
X154308149Y-58519181D01*
X154177589Y-58606419D01*
X154032518Y-58666509D01*
X153878512Y-58697143D01*
X153721488Y-58697143D01*
X153567482Y-58666509D01*
X153422411Y-58606419D01*
X153291851Y-58519181D01*
X153180819Y-58408149D01*
X153093581Y-58277589D01*
X153033491Y-58132518D01*
X153002857Y-57978512D01*
X152999000Y-57900000D01*
X152999000Y-56100000D01*
X153002857Y-56021488D01*
X153033491Y-55867482D01*
X153093581Y-55722411D01*
X153180819Y-55591851D01*
X153291851Y-55480819D01*
X153422411Y-55393581D01*
X153567482Y-55333491D01*
X153721488Y-55302857D01*
X153878512Y-55302857D01*
X154032518Y-55333491D01*
G37*
G36*
X162332518Y-55333491D02*
G01*
X162477589Y-55393581D01*
X162608149Y-55480819D01*
X162719181Y-55591851D01*
X162806419Y-55722411D01*
X162866509Y-55867482D01*
X162897143Y-56021488D01*
X162901000Y-56100000D01*
X162901000Y-57900000D01*
X162897143Y-57978512D01*
X162866509Y-58132518D01*
X162806419Y-58277589D01*
X162719181Y-58408149D01*
X162608149Y-58519181D01*
X162477589Y-58606419D01*
X162332518Y-58666509D01*
X162178512Y-58697143D01*
X162021488Y-58697143D01*
X161867482Y-58666509D01*
X161722411Y-58606419D01*
X161591851Y-58519181D01*
X161480819Y-58408149D01*
X161393581Y-58277589D01*
X161333491Y-58132518D01*
X161302857Y-57978512D01*
X161299000Y-57900000D01*
X161299000Y-56100000D01*
X161302857Y-56021488D01*
X161333491Y-55867482D01*
X161393581Y-55722411D01*
X161480819Y-55591851D01*
X161591851Y-55480819D01*
X161722411Y-55393581D01*
X161867482Y-55333491D01*
X162021488Y-55302857D01*
X162178512Y-55302857D01*
X162332518Y-55333491D01*
G37*
G36*
X157287482Y-55453781D02*
G01*
X157298690Y-55453781D01*
X157353888Y-55462523D01*
X157479534Y-55479065D01*
X157510189Y-55487279D01*
X157539074Y-55491854D01*
X157594620Y-55509902D01*
X157675467Y-55531565D01*
X157727050Y-55552931D01*
X157770542Y-55567063D01*
X157811286Y-55587823D01*
X157862870Y-55609190D01*
X157935353Y-55651038D01*
X157987395Y-55677555D01*
X158011055Y-55694745D01*
X158038539Y-55710613D01*
X158139074Y-55787756D01*
X158184294Y-55820610D01*
X158192219Y-55828535D01*
X158199466Y-55834096D01*
X158342903Y-55977533D01*
X158348463Y-55984779D01*
X158356390Y-55992706D01*
X158389247Y-56037930D01*
X158466386Y-56138460D01*
X158482252Y-56165941D01*
X158499445Y-56189605D01*
X158525964Y-56241652D01*
X158567809Y-56314129D01*
X158589173Y-56365706D01*
X158609937Y-56406458D01*
X158624070Y-56449955D01*
X158645434Y-56501532D01*
X158667093Y-56582366D01*
X158685146Y-56637926D01*
X158689721Y-56666816D01*
X158697934Y-56697465D01*
X158714474Y-56823099D01*
X158723219Y-56878310D01*
X158723219Y-56889518D01*
X158724412Y-56898580D01*
X158724412Y-57101419D01*
X158723219Y-57110480D01*
X158723219Y-57121690D01*
X158714473Y-57176905D01*
X158697934Y-57302534D01*
X158689722Y-57333180D01*
X158685146Y-57362074D01*
X158667091Y-57417638D01*
X158645434Y-57498467D01*
X158624071Y-57550039D01*
X158609937Y-57593542D01*
X158589171Y-57634297D01*
X158567809Y-57685870D01*
X158525968Y-57758338D01*
X158499445Y-57810395D01*
X158482249Y-57834062D01*
X158466386Y-57861539D01*
X158389261Y-57962050D01*
X158356390Y-58007294D01*
X158348459Y-58015224D01*
X158342903Y-58022466D01*
X158199466Y-58165903D01*
X158192224Y-58171459D01*
X158184294Y-58179390D01*
X158139050Y-58212261D01*
X158038539Y-58289386D01*
X158011062Y-58305249D01*
X157987395Y-58322445D01*
X157935338Y-58348968D01*
X157862870Y-58390809D01*
X157811297Y-58412171D01*
X157770542Y-58432937D01*
X157727039Y-58447071D01*
X157675467Y-58468434D01*
X157594638Y-58490091D01*
X157539074Y-58508146D01*
X157510180Y-58512722D01*
X157479534Y-58520934D01*
X157353902Y-58537474D01*
X157298690Y-58546219D01*
X157287481Y-58546219D01*
X157278420Y-58547412D01*
X157075580Y-58547412D01*
X157066519Y-58546219D01*
X157055310Y-58546219D01*
X157000099Y-58537474D01*
X156874465Y-58520934D01*
X156843816Y-58512721D01*
X156814926Y-58508146D01*
X156759366Y-58490093D01*
X156678532Y-58468434D01*
X156626955Y-58447070D01*
X156583458Y-58432937D01*
X156542706Y-58412173D01*
X156491129Y-58390809D01*
X156418652Y-58348964D01*
X156366605Y-58322445D01*
X156342941Y-58305252D01*
X156315460Y-58289386D01*
X156214930Y-58212247D01*
X156169706Y-58179390D01*
X156161779Y-58171463D01*
X156154533Y-58165903D01*
X156011096Y-58022466D01*
X156005535Y-58015219D01*
X155997610Y-58007294D01*
X155964756Y-57962074D01*
X155887613Y-57861539D01*
X155871745Y-57834055D01*
X155854555Y-57810395D01*
X155828038Y-57758353D01*
X155786190Y-57685870D01*
X155764823Y-57634286D01*
X155744063Y-57593542D01*
X155729931Y-57550050D01*
X155708565Y-57498467D01*
X155686902Y-57417620D01*
X155668854Y-57362074D01*
X155664279Y-57333189D01*
X155656065Y-57302534D01*
X155639524Y-57176891D01*
X155630781Y-57121690D01*
X155630781Y-57110480D01*
X155629588Y-57101419D01*
X155629588Y-56898580D01*
X155630781Y-56889518D01*
X155630781Y-56878310D01*
X155639523Y-56823113D01*
X155656065Y-56697465D01*
X155664279Y-56666807D01*
X155668854Y-56637926D01*
X155686900Y-56582383D01*
X155708565Y-56501532D01*
X155729933Y-56449944D01*
X155744063Y-56406458D01*
X155764821Y-56365717D01*
X155786190Y-56314129D01*
X155828042Y-56241637D01*
X155854555Y-56189605D01*
X155871742Y-56165948D01*
X155887613Y-56138460D01*
X155964770Y-56037906D01*
X155997610Y-55992706D01*
X156005532Y-55984783D01*
X156011096Y-55977533D01*
X156154533Y-55834096D01*
X156161783Y-55828532D01*
X156169706Y-55820610D01*
X156214906Y-55787770D01*
X156315460Y-55710613D01*
X156342948Y-55694742D01*
X156366605Y-55677555D01*
X156418637Y-55651042D01*
X156491129Y-55609190D01*
X156542717Y-55587821D01*
X156583458Y-55567063D01*
X156626944Y-55552933D01*
X156678532Y-55531565D01*
X156759383Y-55509900D01*
X156814926Y-55491854D01*
X156843807Y-55487279D01*
X156874465Y-55479065D01*
X157000113Y-55462523D01*
X157055310Y-55453781D01*
X157066518Y-55453781D01*
X157075580Y-55452588D01*
X157278420Y-55452588D01*
X157287482Y-55453781D01*
G37*
G36*
X151634517Y-55987882D02*
G01*
X151651062Y-55998938D01*
X151662118Y-56015483D01*
X151666000Y-56035000D01*
X151666000Y-57965000D01*
X151662118Y-57984517D01*
X151651062Y-58001062D01*
X151634517Y-58012118D01*
X151615000Y-58016000D01*
X149785000Y-58016000D01*
X149765483Y-58012118D01*
X149748938Y-58001062D01*
X149737882Y-57984517D01*
X149734000Y-57965000D01*
X149734000Y-56035000D01*
X149737882Y-56015483D01*
X149748938Y-55998938D01*
X149765483Y-55987882D01*
X149785000Y-55984000D01*
X151615000Y-55984000D01*
X151634517Y-55987882D01*
G37*
G36*
X154032518Y-43333491D02*
G01*
X154177589Y-43393581D01*
X154308149Y-43480819D01*
X154419181Y-43591851D01*
X154506419Y-43722411D01*
X154566509Y-43867482D01*
X154597143Y-44021488D01*
X154601000Y-44100000D01*
X154601000Y-45900000D01*
X154597143Y-45978512D01*
X154566509Y-46132518D01*
X154506419Y-46277589D01*
X154419181Y-46408149D01*
X154308149Y-46519181D01*
X154177589Y-46606419D01*
X154032518Y-46666509D01*
X153878512Y-46697143D01*
X153721488Y-46697143D01*
X153567482Y-46666509D01*
X153422411Y-46606419D01*
X153291851Y-46519181D01*
X153180819Y-46408149D01*
X153093581Y-46277589D01*
X153033491Y-46132518D01*
X153002857Y-45978512D01*
X152999000Y-45900000D01*
X152999000Y-44100000D01*
X153002857Y-44021488D01*
X153033491Y-43867482D01*
X153093581Y-43722411D01*
X153180819Y-43591851D01*
X153291851Y-43480819D01*
X153422411Y-43393581D01*
X153567482Y-43333491D01*
X153721488Y-43302857D01*
X153878512Y-43302857D01*
X154032518Y-43333491D01*
G37*
G36*
X162332518Y-43333491D02*
G01*
X162477589Y-43393581D01*
X162608149Y-43480819D01*
X162719181Y-43591851D01*
X162806419Y-43722411D01*
X162866509Y-43867482D01*
X162897143Y-44021488D01*
X162901000Y-44100000D01*
X162901000Y-45900000D01*
X162897143Y-45978512D01*
X162866509Y-46132518D01*
X162806419Y-46277589D01*
X162719181Y-46408149D01*
X162608149Y-46519181D01*
X162477589Y-46606419D01*
X162332518Y-46666509D01*
X162178512Y-46697143D01*
X162021488Y-46697143D01*
X161867482Y-46666509D01*
X161722411Y-46606419D01*
X161591851Y-46519181D01*
X161480819Y-46408149D01*
X161393581Y-46277589D01*
X161333491Y-46132518D01*
X161302857Y-45978512D01*
X161299000Y-45900000D01*
X161299000Y-44100000D01*
X161302857Y-44021488D01*
X161333491Y-43867482D01*
X161393581Y-43722411D01*
X161480819Y-43591851D01*
X161591851Y-43480819D01*
X161722411Y-43393581D01*
X161867482Y-43333491D01*
X162021488Y-43302857D01*
X162178512Y-43302857D01*
X162332518Y-43333491D01*
G37*
G36*
X157287482Y-43453781D02*
G01*
X157298690Y-43453781D01*
X157353888Y-43462523D01*
X157479534Y-43479065D01*
X157510189Y-43487279D01*
X157539074Y-43491854D01*
X157594620Y-43509902D01*
X157675467Y-43531565D01*
X157727050Y-43552931D01*
X157770542Y-43567063D01*
X157811286Y-43587823D01*
X157862870Y-43609190D01*
X157935353Y-43651038D01*
X157987395Y-43677555D01*
X158011055Y-43694745D01*
X158038539Y-43710613D01*
X158139074Y-43787756D01*
X158184294Y-43820610D01*
X158192219Y-43828535D01*
X158199466Y-43834096D01*
X158342903Y-43977533D01*
X158348463Y-43984779D01*
X158356390Y-43992706D01*
X158389247Y-44037930D01*
X158466386Y-44138460D01*
X158482252Y-44165941D01*
X158499445Y-44189605D01*
X158525964Y-44241652D01*
X158567809Y-44314129D01*
X158589173Y-44365706D01*
X158609937Y-44406458D01*
X158624070Y-44449955D01*
X158645434Y-44501532D01*
X158667093Y-44582366D01*
X158685146Y-44637926D01*
X158689721Y-44666816D01*
X158697934Y-44697465D01*
X158714474Y-44823099D01*
X158723219Y-44878310D01*
X158723219Y-44889518D01*
X158724412Y-44898580D01*
X158724412Y-45101419D01*
X158723219Y-45110480D01*
X158723219Y-45121690D01*
X158714473Y-45176905D01*
X158697934Y-45302534D01*
X158689722Y-45333180D01*
X158685146Y-45362074D01*
X158667091Y-45417638D01*
X158645434Y-45498467D01*
X158624071Y-45550039D01*
X158609937Y-45593542D01*
X158589171Y-45634297D01*
X158567809Y-45685870D01*
X158525968Y-45758338D01*
X158499445Y-45810395D01*
X158482249Y-45834062D01*
X158466386Y-45861539D01*
X158389261Y-45962050D01*
X158356390Y-46007294D01*
X158348459Y-46015224D01*
X158342903Y-46022466D01*
X158199466Y-46165903D01*
X158192224Y-46171459D01*
X158184294Y-46179390D01*
X158139050Y-46212261D01*
X158038539Y-46289386D01*
X158011062Y-46305249D01*
X157987395Y-46322445D01*
X157935338Y-46348968D01*
X157862870Y-46390809D01*
X157811297Y-46412171D01*
X157770542Y-46432937D01*
X157727039Y-46447071D01*
X157675467Y-46468434D01*
X157594638Y-46490091D01*
X157539074Y-46508146D01*
X157510180Y-46512722D01*
X157479534Y-46520934D01*
X157353902Y-46537474D01*
X157298690Y-46546219D01*
X157287481Y-46546219D01*
X157278420Y-46547412D01*
X157075580Y-46547412D01*
X157066519Y-46546219D01*
X157055310Y-46546219D01*
X157000099Y-46537474D01*
X156874465Y-46520934D01*
X156843816Y-46512721D01*
X156814926Y-46508146D01*
X156759366Y-46490093D01*
X156678532Y-46468434D01*
X156626955Y-46447070D01*
X156583458Y-46432937D01*
X156542706Y-46412173D01*
X156491129Y-46390809D01*
X156418652Y-46348964D01*
X156366605Y-46322445D01*
X156342941Y-46305252D01*
X156315460Y-46289386D01*
X156214930Y-46212247D01*
X156169706Y-46179390D01*
X156161779Y-46171463D01*
X156154533Y-46165903D01*
X156011096Y-46022466D01*
X156005535Y-46015219D01*
X155997610Y-46007294D01*
X155964756Y-45962074D01*
X155887613Y-45861539D01*
X155871745Y-45834055D01*
X155854555Y-45810395D01*
X155828038Y-45758353D01*
X155786190Y-45685870D01*
X155764823Y-45634286D01*
X155744063Y-45593542D01*
X155729931Y-45550050D01*
X155708565Y-45498467D01*
X155686902Y-45417620D01*
X155668854Y-45362074D01*
X155664279Y-45333189D01*
X155656065Y-45302534D01*
X155639524Y-45176891D01*
X155630781Y-45121690D01*
X155630781Y-45110480D01*
X155629588Y-45101419D01*
X155629588Y-44898580D01*
X155630781Y-44889518D01*
X155630781Y-44878310D01*
X155639523Y-44823113D01*
X155656065Y-44697465D01*
X155664279Y-44666807D01*
X155668854Y-44637926D01*
X155686900Y-44582383D01*
X155708565Y-44501532D01*
X155729933Y-44449944D01*
X155744063Y-44406458D01*
X155764821Y-44365717D01*
X155786190Y-44314129D01*
X155828042Y-44241637D01*
X155854555Y-44189605D01*
X155871742Y-44165948D01*
X155887613Y-44138460D01*
X155964770Y-44037906D01*
X155997610Y-43992706D01*
X156005532Y-43984783D01*
X156011096Y-43977533D01*
X156154533Y-43834096D01*
X156161783Y-43828532D01*
X156169706Y-43820610D01*
X156214906Y-43787770D01*
X156315460Y-43710613D01*
X156342948Y-43694742D01*
X156366605Y-43677555D01*
X156418637Y-43651042D01*
X156491129Y-43609190D01*
X156542717Y-43587821D01*
X156583458Y-43567063D01*
X156626944Y-43552933D01*
X156678532Y-43531565D01*
X156759383Y-43509900D01*
X156814926Y-43491854D01*
X156843807Y-43487279D01*
X156874465Y-43479065D01*
X157000113Y-43462523D01*
X157055310Y-43453781D01*
X157066518Y-43453781D01*
X157075580Y-43452588D01*
X157278420Y-43452588D01*
X157287482Y-43453781D01*
G37*
G36*
X151634517Y-43987882D02*
G01*
X151651062Y-43998938D01*
X151662118Y-44015483D01*
X151666000Y-44035000D01*
X151666000Y-45965000D01*
X151662118Y-45984517D01*
X151651062Y-46001062D01*
X151634517Y-46012118D01*
X151615000Y-46016000D01*
X149785000Y-46016000D01*
X149765483Y-46012118D01*
X149748938Y-46001062D01*
X149737882Y-45984517D01*
X149734000Y-45965000D01*
X149734000Y-44035000D01*
X149737882Y-44015483D01*
X149748938Y-43998938D01*
X149765483Y-43987882D01*
X149785000Y-43984000D01*
X151615000Y-43984000D01*
X151634517Y-43987882D01*
G37*
M02*
