M48
; DRILL file KiCad 10.0.6 date 2026-10-07T21:06:22
; FORMAT={-:-/ absolute / metric / decimal}
; #@! TF.CreationDate,2026-10-07T21:06:22-07:00
; #@! TF.GenerationSoftware,Kicad,Pcbnew,10.0.6
; #@! TF.FileFunction,Plated,1,2,PTH
FMAT,2
METRIC
; #@! TA.AperFunction,Plated,PTH,ComponentDrill
T1C0.700
; #@! TA.AperFunction,Plated,PTH,ComponentDrill
T2C0.750
; #@! TA.AperFunction,Plated,PTH,ComponentDrill
T3C1.220
%
G90
G05
T1
X154.5Y-87.46
X154.5Y-90.0
X154.5Y-92.54
X160.5Y-87.46
X160.5Y-90.0
X160.5Y-92.54
T3
X150.7Y-45.0
X150.7Y-57.0
X150.7Y-69.0
X150.7Y-81.0
X150.7Y-99.0
X150.7Y-111.0
X150.7Y-123.0
X150.7Y-135.0
T2
X153.8Y-44.125G85X153.8Y-45.875
G05
X153.8Y-56.125G85X153.8Y-57.875
G05
X153.8Y-68.125G85X153.8Y-69.875
G05
X153.8Y-80.125G85X153.8Y-81.875
G05
X153.8Y-98.125G85X153.8Y-99.875
G05
X153.8Y-110.125G85X153.8Y-111.875
G05
X153.8Y-122.125G85X153.8Y-123.875
G05
X153.8Y-134.125G85X153.8Y-135.875
G05
X162.1Y-44.125G85X162.1Y-45.875
G05
X162.1Y-56.125G85X162.1Y-57.875
G05
X162.1Y-68.125G85X162.1Y-69.875
G05
X162.1Y-80.125G85X162.1Y-81.875
G05
X162.1Y-98.125G85X162.1Y-99.875
G05
X162.1Y-110.125G85X162.1Y-111.875
G05
X162.1Y-122.125G85X162.1Y-123.875
G05
X162.1Y-134.125G85X162.1Y-135.875
G05
M30
