G04 #@! TF.GenerationSoftware,KiCad,Pcbnew,10.0.6*
G04 #@! TF.CreationDate,2026-10-07T19:37:27-07:00*
G04 #@! TF.ProjectId,PassiveMultiples,50617373-6976-4654-9d75-6c7469706c65,1.1*
G04 #@! TF.SameCoordinates,Original*
G04 #@! TF.FileFunction,Copper,L2,Bot*
G04 #@! TF.FilePolarity,Positive*
%FSLAX46Y46*%
G04 Gerber Fmt 4.6, Leading zero omitted, Abs format (unit mm)*
G04 Created by KiCad (PCBNEW 10.0.6) date 2026-10-07 19:37:27*
%MOMM*%
%LPD*%
G01*
G04 APERTURE LIST*
G04 #@! TA.AperFunction,ComponentPad*
%ADD10R,1.830000X1.930000*%
G04 #@! TD*
G04 #@! TA.AperFunction,ComponentPad*
%ADD11O,1.500000X3.300000*%
G04 #@! TD*
G04 #@! TA.AperFunction,ComponentPad*
%ADD12C,1.524000*%
G04 #@! TD*
G04 #@! TA.AperFunction,Conductor*
%ADD13C,1.000000*%
G04 #@! TD*
G04 APERTURE END LIST*
D10*
X150700000Y-99000000D03*
D11*
X162100000Y-99000000D03*
X153800000Y-99000000D03*
D10*
X150700000Y-57000000D03*
D11*
X162100000Y-57000000D03*
X153800000Y-57000000D03*
D10*
X150700000Y-123000000D03*
D11*
X162100000Y-123000000D03*
X153800000Y-123000000D03*
D10*
X150700000Y-111000000D03*
D11*
X162100000Y-111000000D03*
X153800000Y-111000000D03*
D10*
X150700000Y-45000000D03*
D11*
X162100000Y-45000000D03*
X153800000Y-45000000D03*
D10*
X150700000Y-69000000D03*
D11*
X162100000Y-69000000D03*
X153800000Y-69000000D03*
D12*
X154500000Y-87460000D03*
X154500000Y-92540000D03*
X154500000Y-90000000D03*
X160500000Y-92540000D03*
X160500000Y-87460000D03*
X160500000Y-90000000D03*
D10*
X150700000Y-81000000D03*
D11*
X162100000Y-81000000D03*
X153800000Y-81000000D03*
D10*
X150700000Y-135000000D03*
D11*
X162100000Y-135000000D03*
X153800000Y-135000000D03*
D13*
X162400000Y-120350000D02*
X162400000Y-111000000D01*
X162400000Y-123000000D02*
X162400000Y-120350000D01*
X162423000Y-123023000D02*
X162400000Y-123000000D01*
X162400000Y-91900000D02*
X160500000Y-90000000D01*
X162400000Y-99000000D02*
X162400000Y-91900000D01*
X162423000Y-135000000D02*
X162423000Y-123023000D01*
X162400000Y-111000000D02*
X162400000Y-99000000D01*
X162400000Y-57000000D02*
X162400000Y-69000000D01*
X162400000Y-69000000D02*
X162400000Y-81000000D01*
X159580000Y-87460000D02*
X154500000Y-92540000D01*
X162423000Y-56977000D02*
X162400000Y-57000000D01*
X162400000Y-85560000D02*
X160500000Y-87460000D01*
X162400000Y-81000000D02*
X162400000Y-85560000D01*
X160500000Y-87460000D02*
X159580000Y-87460000D01*
X162423000Y-45000000D02*
X162423000Y-56977000D01*
G04 #@! TA.AperFunction,Conductor*
G36*
X164388601Y-40542667D02*
G01*
X164429803Y-40570197D01*
X164457333Y-40611399D01*
X164467000Y-40660000D01*
X164467001Y-139340000D01*
X164457334Y-139388601D01*
X164429804Y-139429803D01*
X164388602Y-139457333D01*
X164340001Y-139467000D01*
X150660000Y-139467000D01*
X150611399Y-139457333D01*
X150570197Y-139429803D01*
X150542667Y-139388601D01*
X150533000Y-139340000D01*
X150533000Y-136388644D01*
X150954000Y-136388644D01*
X151038613Y-136473257D01*
X151609060Y-136476041D01*
X151714590Y-136465648D01*
X151810340Y-136436603D01*
X151898597Y-136389428D01*
X151975948Y-136325948D01*
X152039428Y-136248597D01*
X152086603Y-136160340D01*
X152115648Y-136064590D01*
X152126043Y-135959045D01*
X152123237Y-135338593D01*
X152038644Y-135254000D01*
X150954000Y-135254000D01*
X150954000Y-136388644D01*
X150533000Y-136388644D01*
X150533000Y-133611356D01*
X150954000Y-133611356D01*
X150954000Y-134746000D01*
X152038644Y-134746000D01*
X152123237Y-134661406D01*
X152126043Y-134040943D01*
X152125773Y-134038198D01*
X152542000Y-134038198D01*
X152542000Y-135961801D01*
X152560201Y-136146609D01*
X152632135Y-136383742D01*
X152748950Y-136602288D01*
X152906156Y-136793843D01*
X153097710Y-136951049D01*
X153316256Y-137067864D01*
X153553389Y-137139798D01*
X153799999Y-137164086D01*
X154046609Y-137139798D01*
X154283742Y-137067864D01*
X154502288Y-136951049D01*
X154693843Y-136793843D01*
X154851049Y-136602289D01*
X154967864Y-136383743D01*
X155039798Y-136146610D01*
X155058000Y-135961802D01*
X155058000Y-135769910D01*
X155067667Y-135721309D01*
X155095197Y-135680107D01*
X155136399Y-135652577D01*
X155185000Y-135642910D01*
X155233601Y-135652577D01*
X155274803Y-135680107D01*
X155302333Y-135721309D01*
X155397534Y-135951146D01*
X155617282Y-136280022D01*
X155896977Y-136559717D01*
X156225853Y-136779465D01*
X156591288Y-136930833D01*
X156979231Y-137008000D01*
X157374769Y-137008000D01*
X157762711Y-136930833D01*
X158128146Y-136779465D01*
X158457022Y-136559717D01*
X158736717Y-136280022D01*
X158956465Y-135951146D01*
X159107833Y-135585711D01*
X159185000Y-135197768D01*
X159185000Y-134802231D01*
X159107833Y-134414288D01*
X158956465Y-134048853D01*
X158736717Y-133719977D01*
X158457022Y-133440282D01*
X158128146Y-133220534D01*
X157762711Y-133069166D01*
X157374769Y-132992000D01*
X156979231Y-132992000D01*
X156591288Y-133069166D01*
X156225853Y-133220534D01*
X155896977Y-133440282D01*
X155617282Y-133719977D01*
X155397534Y-134048853D01*
X155302333Y-134278691D01*
X155274803Y-134319893D01*
X155233601Y-134347423D01*
X155185000Y-134357090D01*
X155136399Y-134347423D01*
X155095197Y-134319893D01*
X155067667Y-134278691D01*
X155058000Y-134230090D01*
X155058000Y-134038197D01*
X155039798Y-133853389D01*
X154967864Y-133616256D01*
X154851049Y-133397710D01*
X154693844Y-133206155D01*
X154502289Y-133048950D01*
X154283743Y-132932135D01*
X154046610Y-132860201D01*
X153800000Y-132835913D01*
X153553390Y-132860201D01*
X153316257Y-132932135D01*
X153097711Y-133048950D01*
X152906156Y-133206155D01*
X152748951Y-133397710D01*
X152632136Y-133616256D01*
X152560202Y-133853389D01*
X152542000Y-134038198D01*
X152125773Y-134038198D01*
X152115650Y-133935414D01*
X152086603Y-133839659D01*
X152039428Y-133751402D01*
X151975948Y-133674051D01*
X151898597Y-133610571D01*
X151810340Y-133563396D01*
X151714590Y-133534351D01*
X151609060Y-133523958D01*
X151038613Y-133526742D01*
X150954000Y-133611356D01*
X150533000Y-133611356D01*
X150533000Y-124388644D01*
X150954000Y-124388644D01*
X151038613Y-124473257D01*
X151609060Y-124476041D01*
X151714590Y-124465648D01*
X151810340Y-124436603D01*
X151898597Y-124389428D01*
X151975948Y-124325948D01*
X152039428Y-124248597D01*
X152086603Y-124160340D01*
X152115648Y-124064590D01*
X152126043Y-123959045D01*
X152123237Y-123338593D01*
X152038644Y-123254000D01*
X150954000Y-123254000D01*
X150954000Y-124388644D01*
X150533000Y-124388644D01*
X150533000Y-121611356D01*
X150954000Y-121611356D01*
X150954000Y-122746000D01*
X152038644Y-122746000D01*
X152123237Y-122661406D01*
X152126043Y-122040943D01*
X152125773Y-122038198D01*
X152542000Y-122038198D01*
X152542000Y-123961801D01*
X152560201Y-124146609D01*
X152632135Y-124383742D01*
X152748950Y-124602288D01*
X152906156Y-124793843D01*
X153097710Y-124951049D01*
X153316256Y-125067864D01*
X153553389Y-125139798D01*
X153799999Y-125164086D01*
X154046609Y-125139798D01*
X154283742Y-125067864D01*
X154502288Y-124951049D01*
X154693843Y-124793843D01*
X154851049Y-124602289D01*
X154967864Y-124383743D01*
X155039798Y-124146610D01*
X155058000Y-123961802D01*
X155058000Y-123769910D01*
X155067667Y-123721309D01*
X155095197Y-123680107D01*
X155136399Y-123652577D01*
X155185000Y-123642910D01*
X155233601Y-123652577D01*
X155274803Y-123680107D01*
X155302333Y-123721309D01*
X155397534Y-123951146D01*
X155617282Y-124280022D01*
X155896977Y-124559717D01*
X156225853Y-124779465D01*
X156591288Y-124930833D01*
X156979231Y-125008000D01*
X157374769Y-125008000D01*
X157762711Y-124930833D01*
X158128146Y-124779465D01*
X158457022Y-124559717D01*
X158736717Y-124280022D01*
X158956465Y-123951146D01*
X159107833Y-123585711D01*
X159185000Y-123197768D01*
X159185000Y-122802231D01*
X159107833Y-122414288D01*
X158956465Y-122048853D01*
X158736717Y-121719977D01*
X158457022Y-121440282D01*
X158128146Y-121220534D01*
X157762711Y-121069166D01*
X157374769Y-120992000D01*
X156979231Y-120992000D01*
X156591288Y-121069166D01*
X156225853Y-121220534D01*
X155896977Y-121440282D01*
X155617282Y-121719977D01*
X155397534Y-122048853D01*
X155302333Y-122278691D01*
X155274803Y-122319893D01*
X155233601Y-122347423D01*
X155185000Y-122357090D01*
X155136399Y-122347423D01*
X155095197Y-122319893D01*
X155067667Y-122278691D01*
X155058000Y-122230090D01*
X155058000Y-122038197D01*
X155039798Y-121853389D01*
X154967864Y-121616256D01*
X154851049Y-121397710D01*
X154693844Y-121206155D01*
X154502289Y-121048950D01*
X154283743Y-120932135D01*
X154046610Y-120860201D01*
X153800000Y-120835913D01*
X153553390Y-120860201D01*
X153316257Y-120932135D01*
X153097711Y-121048950D01*
X152906156Y-121206155D01*
X152748951Y-121397710D01*
X152632136Y-121616256D01*
X152560202Y-121853389D01*
X152542000Y-122038198D01*
X152125773Y-122038198D01*
X152115650Y-121935414D01*
X152086603Y-121839659D01*
X152039428Y-121751402D01*
X151975948Y-121674051D01*
X151898597Y-121610571D01*
X151810340Y-121563396D01*
X151714590Y-121534351D01*
X151609060Y-121523958D01*
X151038613Y-121526742D01*
X150954000Y-121611356D01*
X150533000Y-121611356D01*
X150533000Y-112388644D01*
X150954000Y-112388644D01*
X151038613Y-112473257D01*
X151609060Y-112476041D01*
X151714590Y-112465648D01*
X151810340Y-112436603D01*
X151898597Y-112389428D01*
X151975948Y-112325948D01*
X152039428Y-112248597D01*
X152086603Y-112160340D01*
X152115648Y-112064590D01*
X152126043Y-111959045D01*
X152123237Y-111338593D01*
X152038644Y-111254000D01*
X150954000Y-111254000D01*
X150954000Y-112388644D01*
X150533000Y-112388644D01*
X150533000Y-109611356D01*
X150954000Y-109611356D01*
X150954000Y-110746000D01*
X152038644Y-110746000D01*
X152123237Y-110661406D01*
X152126043Y-110040943D01*
X152125773Y-110038198D01*
X152542000Y-110038198D01*
X152542000Y-111961801D01*
X152560201Y-112146609D01*
X152632135Y-112383742D01*
X152748950Y-112602288D01*
X152906156Y-112793843D01*
X153097710Y-112951049D01*
X153316256Y-113067864D01*
X153553389Y-113139798D01*
X153799999Y-113164086D01*
X154046609Y-113139798D01*
X154283742Y-113067864D01*
X154502288Y-112951049D01*
X154693843Y-112793843D01*
X154851049Y-112602289D01*
X154967864Y-112383743D01*
X155039798Y-112146610D01*
X155058000Y-111961802D01*
X155058000Y-111769910D01*
X155067667Y-111721309D01*
X155095197Y-111680107D01*
X155136399Y-111652577D01*
X155185000Y-111642910D01*
X155233601Y-111652577D01*
X155274803Y-111680107D01*
X155302333Y-111721309D01*
X155397534Y-111951146D01*
X155617282Y-112280022D01*
X155896977Y-112559717D01*
X156225853Y-112779465D01*
X156591288Y-112930833D01*
X156979231Y-113008000D01*
X157374769Y-113008000D01*
X157762711Y-112930833D01*
X158128146Y-112779465D01*
X158457022Y-112559717D01*
X158736717Y-112280022D01*
X158956465Y-111951146D01*
X159107833Y-111585711D01*
X159185000Y-111197768D01*
X159185000Y-110802231D01*
X159107833Y-110414288D01*
X158956465Y-110048853D01*
X158736717Y-109719977D01*
X158457022Y-109440282D01*
X158128146Y-109220534D01*
X157762711Y-109069166D01*
X157374769Y-108992000D01*
X156979231Y-108992000D01*
X156591288Y-109069166D01*
X156225853Y-109220534D01*
X155896977Y-109440282D01*
X155617282Y-109719977D01*
X155397534Y-110048853D01*
X155302333Y-110278691D01*
X155274803Y-110319893D01*
X155233601Y-110347423D01*
X155185000Y-110357090D01*
X155136399Y-110347423D01*
X155095197Y-110319893D01*
X155067667Y-110278691D01*
X155058000Y-110230090D01*
X155058000Y-110038197D01*
X155039798Y-109853389D01*
X154967864Y-109616256D01*
X154851049Y-109397710D01*
X154693844Y-109206155D01*
X154502289Y-109048950D01*
X154283743Y-108932135D01*
X154046610Y-108860201D01*
X153800000Y-108835913D01*
X153553390Y-108860201D01*
X153316257Y-108932135D01*
X153097711Y-109048950D01*
X152906156Y-109206155D01*
X152748951Y-109397710D01*
X152632136Y-109616256D01*
X152560202Y-109853389D01*
X152542000Y-110038198D01*
X152125773Y-110038198D01*
X152115650Y-109935414D01*
X152086603Y-109839659D01*
X152039428Y-109751402D01*
X151975948Y-109674051D01*
X151898597Y-109610571D01*
X151810340Y-109563396D01*
X151714590Y-109534351D01*
X151609060Y-109523958D01*
X151038613Y-109526742D01*
X150954000Y-109611356D01*
X150533000Y-109611356D01*
X150533000Y-100388644D01*
X150954000Y-100388644D01*
X151038613Y-100473257D01*
X151609060Y-100476041D01*
X151714590Y-100465648D01*
X151810340Y-100436603D01*
X151898597Y-100389428D01*
X151975948Y-100325948D01*
X152039428Y-100248597D01*
X152086603Y-100160340D01*
X152115648Y-100064590D01*
X152126043Y-99959045D01*
X152123237Y-99338593D01*
X152038644Y-99254000D01*
X150954000Y-99254000D01*
X150954000Y-100388644D01*
X150533000Y-100388644D01*
X150533000Y-97611356D01*
X150954000Y-97611356D01*
X150954000Y-98746000D01*
X152038644Y-98746000D01*
X152123237Y-98661406D01*
X152126043Y-98040943D01*
X152125773Y-98038198D01*
X152542000Y-98038198D01*
X152542000Y-99961801D01*
X152560201Y-100146609D01*
X152632135Y-100383742D01*
X152748950Y-100602288D01*
X152906156Y-100793843D01*
X153097710Y-100951049D01*
X153316256Y-101067864D01*
X153553389Y-101139798D01*
X153799999Y-101164086D01*
X154046609Y-101139798D01*
X154283742Y-101067864D01*
X154502288Y-100951049D01*
X154693843Y-100793843D01*
X154851049Y-100602289D01*
X154967864Y-100383743D01*
X155039798Y-100146610D01*
X155058000Y-99961802D01*
X155058000Y-99769910D01*
X155067667Y-99721309D01*
X155095197Y-99680107D01*
X155136399Y-99652577D01*
X155185000Y-99642910D01*
X155233601Y-99652577D01*
X155274803Y-99680107D01*
X155302333Y-99721309D01*
X155397534Y-99951146D01*
X155617282Y-100280022D01*
X155896977Y-100559717D01*
X156225853Y-100779465D01*
X156591288Y-100930833D01*
X156979231Y-101008000D01*
X157374769Y-101008000D01*
X157762711Y-100930833D01*
X158128146Y-100779465D01*
X158457022Y-100559717D01*
X158736717Y-100280022D01*
X158956465Y-99951146D01*
X159107833Y-99585711D01*
X159185000Y-99197768D01*
X159185000Y-98802231D01*
X159107833Y-98414288D01*
X158956465Y-98048853D01*
X158736717Y-97719977D01*
X158457022Y-97440282D01*
X158128146Y-97220534D01*
X157762711Y-97069166D01*
X157374769Y-96992000D01*
X156979231Y-96992000D01*
X156591288Y-97069166D01*
X156225853Y-97220534D01*
X155896977Y-97440282D01*
X155617282Y-97719977D01*
X155397534Y-98048853D01*
X155302333Y-98278691D01*
X155274803Y-98319893D01*
X155233601Y-98347423D01*
X155185000Y-98357090D01*
X155136399Y-98347423D01*
X155095197Y-98319893D01*
X155067667Y-98278691D01*
X155058000Y-98230090D01*
X155058000Y-98038197D01*
X155039798Y-97853389D01*
X154967864Y-97616256D01*
X154851049Y-97397710D01*
X154693844Y-97206155D01*
X154502289Y-97048950D01*
X154283743Y-96932135D01*
X154046610Y-96860201D01*
X153800000Y-96835913D01*
X153553390Y-96860201D01*
X153316257Y-96932135D01*
X153097711Y-97048950D01*
X152906156Y-97206155D01*
X152748951Y-97397710D01*
X152632136Y-97616256D01*
X152560202Y-97853389D01*
X152542000Y-98038198D01*
X152125773Y-98038198D01*
X152115650Y-97935414D01*
X152086603Y-97839659D01*
X152039428Y-97751402D01*
X151975948Y-97674051D01*
X151898597Y-97610571D01*
X151810340Y-97563396D01*
X151714590Y-97534351D01*
X151609060Y-97523958D01*
X151038613Y-97526742D01*
X150954000Y-97611356D01*
X150533000Y-97611356D01*
X150533000Y-87334917D01*
X153230000Y-87334917D01*
X153230000Y-87585082D01*
X153278805Y-87830444D01*
X153374540Y-88061568D01*
X153513527Y-88269576D01*
X153690423Y-88446472D01*
X153898431Y-88585459D01*
X153964116Y-88612667D01*
X154005318Y-88640198D01*
X154032848Y-88681400D01*
X154042515Y-88730000D01*
X154032848Y-88778601D01*
X154005317Y-88819803D01*
X153964116Y-88847333D01*
X153898431Y-88874540D01*
X153690423Y-89013527D01*
X153513527Y-89190423D01*
X153374540Y-89398431D01*
X153278805Y-89629555D01*
X153230000Y-89874917D01*
X153230000Y-90125082D01*
X153278805Y-90370444D01*
X153374540Y-90601568D01*
X153513527Y-90809576D01*
X153690423Y-90986472D01*
X153898431Y-91125459D01*
X153964116Y-91152667D01*
X154005318Y-91180198D01*
X154032848Y-91221400D01*
X154042515Y-91270000D01*
X154032848Y-91318601D01*
X154005317Y-91359803D01*
X153964116Y-91387333D01*
X153898431Y-91414540D01*
X153690423Y-91553527D01*
X153513527Y-91730423D01*
X153374540Y-91938431D01*
X153278805Y-92169555D01*
X153230000Y-92414917D01*
X153230000Y-92665082D01*
X153278805Y-92910444D01*
X153374540Y-93141568D01*
X153513527Y-93349576D01*
X153690423Y-93526472D01*
X153898431Y-93665459D01*
X154129555Y-93761194D01*
X154374917Y-93810000D01*
X154625083Y-93810000D01*
X154870444Y-93761194D01*
X155101568Y-93665459D01*
X155309576Y-93526472D01*
X155486472Y-93349576D01*
X155625459Y-93141568D01*
X155721194Y-92910444D01*
X155754925Y-92740870D01*
X155773888Y-92695089D01*
X155789682Y-92675843D01*
X159140468Y-89325058D01*
X159181670Y-89297528D01*
X159230271Y-89287861D01*
X159278872Y-89297528D01*
X159320074Y-89325058D01*
X159347604Y-89366260D01*
X159357271Y-89414861D01*
X159347604Y-89463462D01*
X159278805Y-89629555D01*
X159230000Y-89874917D01*
X159230000Y-90125082D01*
X159278805Y-90370444D01*
X159374540Y-90601568D01*
X159513527Y-90809576D01*
X159690423Y-90986472D01*
X159898431Y-91125459D01*
X159964116Y-91152667D01*
X160005318Y-91180198D01*
X160032848Y-91221400D01*
X160042515Y-91270000D01*
X160032848Y-91318601D01*
X160005317Y-91359803D01*
X159964116Y-91387333D01*
X159898431Y-91414540D01*
X159690423Y-91553527D01*
X159513527Y-91730423D01*
X159374540Y-91938431D01*
X159278805Y-92169555D01*
X159230000Y-92414917D01*
X159230000Y-92665082D01*
X159278805Y-92910444D01*
X159374540Y-93141568D01*
X159513527Y-93349576D01*
X159690423Y-93526472D01*
X159898431Y-93665459D01*
X160129555Y-93761194D01*
X160374917Y-93810000D01*
X160625083Y-93810000D01*
X160870444Y-93761194D01*
X161101571Y-93665458D01*
X161194444Y-93603403D01*
X161240225Y-93584440D01*
X161289778Y-93584440D01*
X161335559Y-93603404D01*
X161370598Y-93638443D01*
X161389561Y-93684224D01*
X161392001Y-93709000D01*
X161392000Y-96993572D01*
X161382333Y-97042173D01*
X161354803Y-97083375D01*
X161345568Y-97091744D01*
X161206156Y-97206155D01*
X161048951Y-97397710D01*
X160932136Y-97616256D01*
X160860202Y-97853389D01*
X160842000Y-98038198D01*
X160842000Y-99961801D01*
X160860201Y-100146609D01*
X160932135Y-100383742D01*
X161048950Y-100602288D01*
X161206155Y-100793843D01*
X161345569Y-100908257D01*
X161377005Y-100946562D01*
X161391389Y-100993981D01*
X161392001Y-101006429D01*
X161392000Y-108993572D01*
X161382333Y-109042173D01*
X161354803Y-109083375D01*
X161345568Y-109091744D01*
X161206156Y-109206155D01*
X161048951Y-109397710D01*
X160932136Y-109616256D01*
X160860202Y-109853389D01*
X160842000Y-110038198D01*
X160842000Y-111961801D01*
X160860201Y-112146609D01*
X160932135Y-112383742D01*
X161048950Y-112602288D01*
X161206155Y-112793843D01*
X161345569Y-112908257D01*
X161377005Y-112946562D01*
X161391389Y-112993981D01*
X161392001Y-113006429D01*
X161392000Y-120405740D01*
X161392001Y-120405761D01*
X161392001Y-120993571D01*
X161382334Y-121042172D01*
X161354804Y-121083374D01*
X161345569Y-121091743D01*
X161206156Y-121206155D01*
X161048951Y-121397710D01*
X160932136Y-121616256D01*
X160860202Y-121853389D01*
X160842000Y-122038198D01*
X160842000Y-123961801D01*
X160860201Y-124146609D01*
X160932135Y-124383742D01*
X161048950Y-124602288D01*
X161206155Y-124793843D01*
X161368569Y-124927133D01*
X161400005Y-124965438D01*
X161414390Y-125012857D01*
X161415001Y-125025305D01*
X161415000Y-132974696D01*
X161405333Y-133023297D01*
X161377803Y-133064499D01*
X161368568Y-133072868D01*
X161206156Y-133206155D01*
X161048951Y-133397710D01*
X160932136Y-133616256D01*
X160860202Y-133853389D01*
X160842000Y-134038198D01*
X160842000Y-135961801D01*
X160860201Y-136146609D01*
X160932135Y-136383742D01*
X161048950Y-136602288D01*
X161206156Y-136793843D01*
X161397710Y-136951049D01*
X161616256Y-137067864D01*
X161853389Y-137139798D01*
X162099999Y-137164086D01*
X162346609Y-137139798D01*
X162583742Y-137067864D01*
X162802288Y-136951049D01*
X162993843Y-136793843D01*
X163151049Y-136602289D01*
X163267864Y-136383743D01*
X163339798Y-136146610D01*
X163358000Y-135961802D01*
X163358000Y-135409007D01*
X163363469Y-135372141D01*
X163416415Y-135197602D01*
X163431000Y-135049517D01*
X163431000Y-123078751D01*
X163431612Y-123066303D01*
X163435876Y-123022999D01*
X163416415Y-122825400D01*
X163413469Y-122815688D01*
X163408000Y-122778821D01*
X163408000Y-91955752D01*
X163408612Y-91943304D01*
X163412876Y-91900000D01*
X163393415Y-91702397D01*
X163335776Y-91512390D01*
X163242176Y-91337275D01*
X163116212Y-91183787D01*
X163082573Y-91156181D01*
X163073338Y-91147812D01*
X161789682Y-89864157D01*
X161762152Y-89822955D01*
X161754925Y-89799130D01*
X161721194Y-89629555D01*
X161625459Y-89398431D01*
X161486472Y-89190423D01*
X161309576Y-89013527D01*
X161101568Y-88874540D01*
X161035884Y-88847333D01*
X160994682Y-88819802D01*
X160967152Y-88778600D01*
X160957485Y-88730000D01*
X160967152Y-88681399D01*
X160994683Y-88640197D01*
X161035884Y-88612667D01*
X161101568Y-88585459D01*
X161309576Y-88446472D01*
X161486472Y-88269576D01*
X161625459Y-88061568D01*
X161721194Y-87830444D01*
X161754925Y-87660870D01*
X161773888Y-87615089D01*
X161789682Y-87595843D01*
X163073338Y-86312188D01*
X163082573Y-86303819D01*
X163116212Y-86276212D01*
X163242176Y-86122724D01*
X163335776Y-85947609D01*
X163393415Y-85757602D01*
X163412876Y-85559999D01*
X163408612Y-85516696D01*
X163408000Y-85504248D01*
X163408000Y-57221180D01*
X163413469Y-57184313D01*
X163416415Y-57174600D01*
X163435876Y-56977000D01*
X163431612Y-56933697D01*
X163431000Y-56921249D01*
X163431000Y-44950482D01*
X163416415Y-44802397D01*
X163363469Y-44627859D01*
X163358000Y-44590993D01*
X163358000Y-44038197D01*
X163339798Y-43853389D01*
X163267864Y-43616256D01*
X163151049Y-43397710D01*
X162993844Y-43206155D01*
X162802289Y-43048950D01*
X162583743Y-42932135D01*
X162346610Y-42860201D01*
X162100000Y-42835913D01*
X161853390Y-42860201D01*
X161616257Y-42932135D01*
X161397711Y-43048950D01*
X161206156Y-43206155D01*
X161048951Y-43397710D01*
X160932136Y-43616256D01*
X160860202Y-43853389D01*
X160842000Y-44038198D01*
X160842000Y-45961801D01*
X160860201Y-46146609D01*
X160932135Y-46383742D01*
X161048950Y-46602288D01*
X161206154Y-46793840D01*
X161368569Y-46927133D01*
X161400004Y-46965438D01*
X161414389Y-47012858D01*
X161415000Y-47025305D01*
X161415001Y-54974695D01*
X161405334Y-55023296D01*
X161377804Y-55064498D01*
X161368569Y-55072867D01*
X161206156Y-55206155D01*
X161048951Y-55397710D01*
X160932136Y-55616256D01*
X160860202Y-55853389D01*
X160842000Y-56038198D01*
X160842000Y-57961801D01*
X160860201Y-58146609D01*
X160932135Y-58383742D01*
X161048950Y-58602288D01*
X161206156Y-58793843D01*
X161345568Y-58908257D01*
X161377004Y-58946562D01*
X161391389Y-58993982D01*
X161392000Y-59006429D01*
X161392001Y-66993571D01*
X161382334Y-67042172D01*
X161354804Y-67083374D01*
X161345569Y-67091743D01*
X161206156Y-67206155D01*
X161048951Y-67397710D01*
X160932136Y-67616256D01*
X160860202Y-67853389D01*
X160842000Y-68038198D01*
X160842000Y-69961801D01*
X160860201Y-70146609D01*
X160932135Y-70383742D01*
X161048950Y-70602288D01*
X161206156Y-70793843D01*
X161345568Y-70908257D01*
X161377004Y-70946562D01*
X161391389Y-70993982D01*
X161392000Y-71006429D01*
X161392001Y-78993571D01*
X161382334Y-79042172D01*
X161354804Y-79083374D01*
X161345569Y-79091743D01*
X161206156Y-79206155D01*
X161048951Y-79397710D01*
X160932136Y-79616256D01*
X160860202Y-79853389D01*
X160842000Y-80038198D01*
X160842000Y-81961801D01*
X160860201Y-82146609D01*
X160932135Y-82383742D01*
X161048950Y-82602288D01*
X161206156Y-82793843D01*
X161345568Y-82908257D01*
X161377004Y-82946562D01*
X161391389Y-82993982D01*
X161392000Y-83006429D01*
X161392001Y-85089867D01*
X161382334Y-85138468D01*
X161354804Y-85179670D01*
X160364157Y-86170318D01*
X160322955Y-86197848D01*
X160299130Y-86205075D01*
X160129555Y-86238805D01*
X159898427Y-86334542D01*
X159754674Y-86430596D01*
X159708893Y-86449560D01*
X159684116Y-86452000D01*
X159635751Y-86452000D01*
X159623303Y-86451388D01*
X159579999Y-86447123D01*
X159382397Y-86466584D01*
X159192390Y-86524223D01*
X159017275Y-86617823D01*
X158863791Y-86743785D01*
X158836184Y-86777425D01*
X158827814Y-86786660D01*
X155932837Y-89681637D01*
X155891635Y-89709167D01*
X155843034Y-89718834D01*
X155794433Y-89709167D01*
X155753231Y-89681637D01*
X155725701Y-89640435D01*
X155625459Y-89398431D01*
X155486472Y-89190423D01*
X155309576Y-89013527D01*
X155101568Y-88874540D01*
X155035884Y-88847333D01*
X154994682Y-88819802D01*
X154967152Y-88778600D01*
X154957485Y-88730000D01*
X154967152Y-88681399D01*
X154994683Y-88640197D01*
X155035884Y-88612667D01*
X155101568Y-88585459D01*
X155309576Y-88446472D01*
X155486472Y-88269576D01*
X155625459Y-88061568D01*
X155721194Y-87830444D01*
X155770000Y-87585082D01*
X155770000Y-87334917D01*
X155721194Y-87089555D01*
X155625459Y-86858431D01*
X155486472Y-86650423D01*
X155309576Y-86473527D01*
X155101568Y-86334540D01*
X154870444Y-86238805D01*
X154625083Y-86190000D01*
X154374917Y-86190000D01*
X154129555Y-86238805D01*
X153898431Y-86334540D01*
X153690423Y-86473527D01*
X153513527Y-86650423D01*
X153374540Y-86858431D01*
X153278805Y-87089555D01*
X153230000Y-87334917D01*
X150533000Y-87334917D01*
X150533000Y-82388644D01*
X150954000Y-82388644D01*
X151038613Y-82473257D01*
X151609060Y-82476041D01*
X151714590Y-82465648D01*
X151810340Y-82436603D01*
X151898597Y-82389428D01*
X151975948Y-82325948D01*
X152039428Y-82248597D01*
X152086603Y-82160340D01*
X152115648Y-82064590D01*
X152126043Y-81959045D01*
X152123237Y-81338593D01*
X152038644Y-81254000D01*
X150954000Y-81254000D01*
X150954000Y-82388644D01*
X150533000Y-82388644D01*
X150533000Y-79611356D01*
X150954000Y-79611356D01*
X150954000Y-80746000D01*
X152038644Y-80746000D01*
X152123237Y-80661406D01*
X152126043Y-80040943D01*
X152125773Y-80038198D01*
X152542000Y-80038198D01*
X152542000Y-81961801D01*
X152560201Y-82146609D01*
X152632135Y-82383742D01*
X152748950Y-82602288D01*
X152906156Y-82793843D01*
X153097710Y-82951049D01*
X153316256Y-83067864D01*
X153553389Y-83139798D01*
X153799999Y-83164086D01*
X154046609Y-83139798D01*
X154283742Y-83067864D01*
X154502288Y-82951049D01*
X154693843Y-82793843D01*
X154851049Y-82602289D01*
X154967864Y-82383743D01*
X155039798Y-82146610D01*
X155058000Y-81961802D01*
X155058000Y-81769910D01*
X155067667Y-81721309D01*
X155095197Y-81680107D01*
X155136399Y-81652577D01*
X155185000Y-81642910D01*
X155233601Y-81652577D01*
X155274803Y-81680107D01*
X155302333Y-81721309D01*
X155397534Y-81951146D01*
X155617282Y-82280022D01*
X155896977Y-82559717D01*
X156225853Y-82779465D01*
X156591288Y-82930833D01*
X156979231Y-83008000D01*
X157374769Y-83008000D01*
X157762711Y-82930833D01*
X158128146Y-82779465D01*
X158457022Y-82559717D01*
X158736717Y-82280022D01*
X158956465Y-81951146D01*
X159107833Y-81585711D01*
X159185000Y-81197768D01*
X159185000Y-80802231D01*
X159107833Y-80414288D01*
X158956465Y-80048853D01*
X158736717Y-79719977D01*
X158457022Y-79440282D01*
X158128146Y-79220534D01*
X157762711Y-79069166D01*
X157374769Y-78992000D01*
X156979231Y-78992000D01*
X156591288Y-79069166D01*
X156225853Y-79220534D01*
X155896977Y-79440282D01*
X155617282Y-79719977D01*
X155397534Y-80048853D01*
X155302333Y-80278691D01*
X155274803Y-80319893D01*
X155233601Y-80347423D01*
X155185000Y-80357090D01*
X155136399Y-80347423D01*
X155095197Y-80319893D01*
X155067667Y-80278691D01*
X155058000Y-80230090D01*
X155058000Y-80038197D01*
X155039798Y-79853389D01*
X154967864Y-79616256D01*
X154851049Y-79397710D01*
X154693844Y-79206155D01*
X154502289Y-79048950D01*
X154283743Y-78932135D01*
X154046610Y-78860201D01*
X153800000Y-78835913D01*
X153553390Y-78860201D01*
X153316257Y-78932135D01*
X153097711Y-79048950D01*
X152906156Y-79206155D01*
X152748951Y-79397710D01*
X152632136Y-79616256D01*
X152560202Y-79853389D01*
X152542000Y-80038198D01*
X152125773Y-80038198D01*
X152115650Y-79935414D01*
X152086603Y-79839659D01*
X152039428Y-79751402D01*
X151975948Y-79674051D01*
X151898597Y-79610571D01*
X151810340Y-79563396D01*
X151714590Y-79534351D01*
X151609060Y-79523958D01*
X151038613Y-79526742D01*
X150954000Y-79611356D01*
X150533000Y-79611356D01*
X150533000Y-70388644D01*
X150954000Y-70388644D01*
X151038613Y-70473257D01*
X151609060Y-70476041D01*
X151714590Y-70465648D01*
X151810340Y-70436603D01*
X151898597Y-70389428D01*
X151975948Y-70325948D01*
X152039428Y-70248597D01*
X152086603Y-70160340D01*
X152115648Y-70064590D01*
X152126043Y-69959045D01*
X152123237Y-69338593D01*
X152038644Y-69254000D01*
X150954000Y-69254000D01*
X150954000Y-70388644D01*
X150533000Y-70388644D01*
X150533000Y-67611356D01*
X150954000Y-67611356D01*
X150954000Y-68746000D01*
X152038644Y-68746000D01*
X152123237Y-68661406D01*
X152126043Y-68040943D01*
X152125773Y-68038198D01*
X152542000Y-68038198D01*
X152542000Y-69961801D01*
X152560201Y-70146609D01*
X152632135Y-70383742D01*
X152748950Y-70602288D01*
X152906156Y-70793843D01*
X153097710Y-70951049D01*
X153316256Y-71067864D01*
X153553389Y-71139798D01*
X153799999Y-71164086D01*
X154046609Y-71139798D01*
X154283742Y-71067864D01*
X154502288Y-70951049D01*
X154693843Y-70793843D01*
X154851049Y-70602289D01*
X154967864Y-70383743D01*
X155039798Y-70146610D01*
X155058000Y-69961802D01*
X155058000Y-69769910D01*
X155067667Y-69721309D01*
X155095197Y-69680107D01*
X155136399Y-69652577D01*
X155185000Y-69642910D01*
X155233601Y-69652577D01*
X155274803Y-69680107D01*
X155302333Y-69721309D01*
X155397534Y-69951146D01*
X155617282Y-70280022D01*
X155896977Y-70559717D01*
X156225853Y-70779465D01*
X156591288Y-70930833D01*
X156979231Y-71008000D01*
X157374769Y-71008000D01*
X157762711Y-70930833D01*
X158128146Y-70779465D01*
X158457022Y-70559717D01*
X158736717Y-70280022D01*
X158956465Y-69951146D01*
X159107833Y-69585711D01*
X159185000Y-69197768D01*
X159185000Y-68802231D01*
X159107833Y-68414288D01*
X158956465Y-68048853D01*
X158736717Y-67719977D01*
X158457022Y-67440282D01*
X158128146Y-67220534D01*
X157762711Y-67069166D01*
X157374769Y-66992000D01*
X156979231Y-66992000D01*
X156591288Y-67069166D01*
X156225853Y-67220534D01*
X155896977Y-67440282D01*
X155617282Y-67719977D01*
X155397534Y-68048853D01*
X155302333Y-68278691D01*
X155274803Y-68319893D01*
X155233601Y-68347423D01*
X155185000Y-68357090D01*
X155136399Y-68347423D01*
X155095197Y-68319893D01*
X155067667Y-68278691D01*
X155058000Y-68230090D01*
X155058000Y-68038197D01*
X155039798Y-67853389D01*
X154967864Y-67616256D01*
X154851049Y-67397710D01*
X154693844Y-67206155D01*
X154502289Y-67048950D01*
X154283743Y-66932135D01*
X154046610Y-66860201D01*
X153800000Y-66835913D01*
X153553390Y-66860201D01*
X153316257Y-66932135D01*
X153097711Y-67048950D01*
X152906156Y-67206155D01*
X152748951Y-67397710D01*
X152632136Y-67616256D01*
X152560202Y-67853389D01*
X152542000Y-68038198D01*
X152125773Y-68038198D01*
X152115650Y-67935414D01*
X152086603Y-67839659D01*
X152039428Y-67751402D01*
X151975948Y-67674051D01*
X151898597Y-67610571D01*
X151810340Y-67563396D01*
X151714590Y-67534351D01*
X151609060Y-67523958D01*
X151038613Y-67526742D01*
X150954000Y-67611356D01*
X150533000Y-67611356D01*
X150533000Y-58388644D01*
X150954000Y-58388644D01*
X151038613Y-58473257D01*
X151609060Y-58476041D01*
X151714590Y-58465648D01*
X151810340Y-58436603D01*
X151898597Y-58389428D01*
X151975948Y-58325948D01*
X152039428Y-58248597D01*
X152086603Y-58160340D01*
X152115648Y-58064590D01*
X152126043Y-57959045D01*
X152123237Y-57338593D01*
X152038644Y-57254000D01*
X150954000Y-57254000D01*
X150954000Y-58388644D01*
X150533000Y-58388644D01*
X150533000Y-55611356D01*
X150954000Y-55611356D01*
X150954000Y-56746000D01*
X152038644Y-56746000D01*
X152123237Y-56661406D01*
X152126043Y-56040943D01*
X152125773Y-56038198D01*
X152542000Y-56038198D01*
X152542000Y-57961801D01*
X152560201Y-58146609D01*
X152632135Y-58383742D01*
X152748950Y-58602288D01*
X152906156Y-58793843D01*
X153097710Y-58951049D01*
X153316256Y-59067864D01*
X153553389Y-59139798D01*
X153799999Y-59164086D01*
X154046609Y-59139798D01*
X154283742Y-59067864D01*
X154502288Y-58951049D01*
X154693843Y-58793843D01*
X154851049Y-58602289D01*
X154967864Y-58383743D01*
X155039798Y-58146610D01*
X155058000Y-57961802D01*
X155058000Y-57769910D01*
X155067667Y-57721309D01*
X155095197Y-57680107D01*
X155136399Y-57652577D01*
X155185000Y-57642910D01*
X155233601Y-57652577D01*
X155274803Y-57680107D01*
X155302333Y-57721309D01*
X155397534Y-57951146D01*
X155617282Y-58280022D01*
X155896977Y-58559717D01*
X156225853Y-58779465D01*
X156591288Y-58930833D01*
X156979231Y-59008000D01*
X157374769Y-59008000D01*
X157762711Y-58930833D01*
X158128146Y-58779465D01*
X158457022Y-58559717D01*
X158736717Y-58280022D01*
X158956465Y-57951146D01*
X159107833Y-57585711D01*
X159185000Y-57197768D01*
X159185000Y-56802231D01*
X159107833Y-56414288D01*
X158956465Y-56048853D01*
X158736717Y-55719977D01*
X158457022Y-55440282D01*
X158128146Y-55220534D01*
X157762711Y-55069166D01*
X157374769Y-54992000D01*
X156979231Y-54992000D01*
X156591288Y-55069166D01*
X156225853Y-55220534D01*
X155896977Y-55440282D01*
X155617282Y-55719977D01*
X155397534Y-56048853D01*
X155302333Y-56278691D01*
X155274803Y-56319893D01*
X155233601Y-56347423D01*
X155185000Y-56357090D01*
X155136399Y-56347423D01*
X155095197Y-56319893D01*
X155067667Y-56278691D01*
X155058000Y-56230090D01*
X155058000Y-56038197D01*
X155039798Y-55853389D01*
X154967864Y-55616256D01*
X154851049Y-55397710D01*
X154693844Y-55206155D01*
X154502289Y-55048950D01*
X154283743Y-54932135D01*
X154046610Y-54860201D01*
X153800000Y-54835913D01*
X153553390Y-54860201D01*
X153316257Y-54932135D01*
X153097711Y-55048950D01*
X152906156Y-55206155D01*
X152748951Y-55397710D01*
X152632136Y-55616256D01*
X152560202Y-55853389D01*
X152542000Y-56038198D01*
X152125773Y-56038198D01*
X152115650Y-55935414D01*
X152086603Y-55839659D01*
X152039428Y-55751402D01*
X151975948Y-55674051D01*
X151898597Y-55610571D01*
X151810340Y-55563396D01*
X151714590Y-55534351D01*
X151609060Y-55523958D01*
X151038613Y-55526742D01*
X150954000Y-55611356D01*
X150533000Y-55611356D01*
X150533000Y-46388644D01*
X150954000Y-46388644D01*
X151038613Y-46473257D01*
X151609060Y-46476041D01*
X151714590Y-46465648D01*
X151810340Y-46436603D01*
X151898597Y-46389428D01*
X151975948Y-46325948D01*
X152039428Y-46248597D01*
X152086603Y-46160340D01*
X152115648Y-46064590D01*
X152126043Y-45959045D01*
X152123237Y-45338593D01*
X152038644Y-45254000D01*
X150954000Y-45254000D01*
X150954000Y-46388644D01*
X150533000Y-46388644D01*
X150533000Y-43611356D01*
X150954000Y-43611356D01*
X150954000Y-44746000D01*
X152038644Y-44746000D01*
X152123237Y-44661406D01*
X152126043Y-44040943D01*
X152125773Y-44038198D01*
X152542000Y-44038198D01*
X152542000Y-45961801D01*
X152560201Y-46146609D01*
X152632135Y-46383742D01*
X152748950Y-46602288D01*
X152906156Y-46793843D01*
X153097710Y-46951049D01*
X153316256Y-47067864D01*
X153553389Y-47139798D01*
X153799999Y-47164086D01*
X154046609Y-47139798D01*
X154283742Y-47067864D01*
X154502288Y-46951049D01*
X154693843Y-46793843D01*
X154851049Y-46602289D01*
X154967864Y-46383743D01*
X155039798Y-46146610D01*
X155058000Y-45961802D01*
X155058000Y-45769910D01*
X155067667Y-45721309D01*
X155095197Y-45680107D01*
X155136399Y-45652577D01*
X155185000Y-45642910D01*
X155233601Y-45652577D01*
X155274803Y-45680107D01*
X155302333Y-45721309D01*
X155397534Y-45951146D01*
X155617282Y-46280022D01*
X155896977Y-46559717D01*
X156225853Y-46779465D01*
X156591288Y-46930833D01*
X156979231Y-47008000D01*
X157374769Y-47008000D01*
X157762711Y-46930833D01*
X158128146Y-46779465D01*
X158457022Y-46559717D01*
X158736717Y-46280022D01*
X158956465Y-45951146D01*
X159107833Y-45585711D01*
X159185000Y-45197768D01*
X159185000Y-44802231D01*
X159107833Y-44414288D01*
X158956465Y-44048853D01*
X158736717Y-43719977D01*
X158457022Y-43440282D01*
X158128146Y-43220534D01*
X157762711Y-43069166D01*
X157374769Y-42992000D01*
X156979231Y-42992000D01*
X156591288Y-43069166D01*
X156225853Y-43220534D01*
X155896977Y-43440282D01*
X155617282Y-43719977D01*
X155397534Y-44048853D01*
X155302333Y-44278691D01*
X155274803Y-44319893D01*
X155233601Y-44347423D01*
X155185000Y-44357090D01*
X155136399Y-44347423D01*
X155095197Y-44319893D01*
X155067667Y-44278691D01*
X155058000Y-44230090D01*
X155058000Y-44038197D01*
X155039798Y-43853389D01*
X154967864Y-43616256D01*
X154851049Y-43397710D01*
X154693844Y-43206155D01*
X154502289Y-43048950D01*
X154283743Y-42932135D01*
X154046610Y-42860201D01*
X153800000Y-42835913D01*
X153553390Y-42860201D01*
X153316257Y-42932135D01*
X153097711Y-43048950D01*
X152906156Y-43206155D01*
X152748951Y-43397710D01*
X152632136Y-43616256D01*
X152560202Y-43853389D01*
X152542000Y-44038198D01*
X152125773Y-44038198D01*
X152115650Y-43935414D01*
X152086603Y-43839659D01*
X152039428Y-43751402D01*
X151975948Y-43674051D01*
X151898597Y-43610571D01*
X151810340Y-43563396D01*
X151714590Y-43534351D01*
X151609060Y-43523958D01*
X151038613Y-43526742D01*
X150954000Y-43611356D01*
X150533000Y-43611356D01*
X150533000Y-40660000D01*
X150542667Y-40611399D01*
X150570197Y-40570197D01*
X150611399Y-40542667D01*
X150660000Y-40533000D01*
X164340000Y-40533000D01*
X164388601Y-40542667D01*
G37*
G04 #@! TD.AperFunction*
M02*
