G04 #@! TF.GenerationSoftware,KiCad,Pcbnew,(5.1.4)-1*
G04 #@! TF.CreationDate,2019-11-25T22:11:09-08:00*
G04 #@! TF.ProjectId,PassiveMultiples,50617373-6976-4654-9d75-6c7469706c65,rev?*
G04 #@! TF.SameCoordinates,Original*
G04 #@! TF.FileFunction,Copper,L1,Top*
G04 #@! TF.FilePolarity,Positive*
%FSLAX46Y46*%
G04 Gerber Fmt 4.6, Leading zero omitted, Abs format (unit mm)*
G04 Created by KiCad (PCBNEW (5.1.4)-1) date 2019-11-25 22:11:09*
%MOMM*%
%LPD*%
G04 APERTURE LIST*
%ADD10C,1.524000*%
%ADD11O,1.500000X3.300000*%
%ADD12R,1.830000X1.930000*%
%ADD13C,1.000000*%
%ADD14C,0.254000*%
G04 APERTURE END LIST*
D10*
X160500000Y-92540000D03*
X160500000Y-90000000D03*
X160500000Y-87460000D03*
X154500000Y-90000000D03*
X154500000Y-92540000D03*
X154500000Y-87460000D03*
D11*
X154123000Y-45000000D03*
D12*
X151023000Y-45000000D03*
D11*
X162423000Y-45000000D03*
X154100000Y-57000000D03*
D12*
X151000000Y-57000000D03*
D11*
X162400000Y-57000000D03*
X154100000Y-69000000D03*
D12*
X151000000Y-69000000D03*
D11*
X162400000Y-69000000D03*
X154100000Y-81000000D03*
D12*
X151000000Y-81000000D03*
D11*
X162400000Y-81000000D03*
X154100000Y-99000000D03*
D12*
X151000000Y-99000000D03*
D11*
X162400000Y-99000000D03*
X154100000Y-111000000D03*
D12*
X151000000Y-111000000D03*
D11*
X162400000Y-111000000D03*
X154100000Y-123000000D03*
D12*
X151000000Y-123000000D03*
D11*
X162400000Y-123000000D03*
X154123000Y-135000000D03*
D12*
X151023000Y-135000000D03*
D11*
X162423000Y-135000000D03*
D13*
X154500000Y-90000000D02*
X160500000Y-90000000D01*
D14*
G36*
X164340001Y-139340000D02*
G01*
X150660000Y-139340000D01*
X150660000Y-136600377D01*
X150737250Y-136600000D01*
X150896000Y-136441250D01*
X150896000Y-135127000D01*
X151150000Y-135127000D01*
X151150000Y-136441250D01*
X151308750Y-136600000D01*
X151938000Y-136603072D01*
X152062482Y-136590812D01*
X152182180Y-136554502D01*
X152292494Y-136495537D01*
X152389185Y-136416185D01*
X152468537Y-136319494D01*
X152527502Y-136209180D01*
X152563812Y-136089482D01*
X152576072Y-135965000D01*
X152573000Y-135285750D01*
X152414250Y-135127000D01*
X151150000Y-135127000D01*
X150896000Y-135127000D01*
X150876000Y-135127000D01*
X150876000Y-134873000D01*
X150896000Y-134873000D01*
X150896000Y-133558750D01*
X151150000Y-133558750D01*
X151150000Y-134873000D01*
X152414250Y-134873000D01*
X152573000Y-134714250D01*
X152576072Y-134035000D01*
X152575773Y-134031963D01*
X152738000Y-134031963D01*
X152738000Y-135968036D01*
X152758040Y-136171506D01*
X152837236Y-136432580D01*
X152965843Y-136673187D01*
X153138919Y-136884080D01*
X153349812Y-137057157D01*
X153590419Y-137185764D01*
X153851493Y-137264960D01*
X154123000Y-137291701D01*
X154394506Y-137264960D01*
X154655580Y-137185764D01*
X154896187Y-137057157D01*
X155107080Y-136884081D01*
X155280157Y-136673188D01*
X155408764Y-136432581D01*
X155487960Y-136171507D01*
X155508000Y-135968037D01*
X155508000Y-135769910D01*
X155607988Y-136011302D01*
X155841637Y-136360983D01*
X156139017Y-136658363D01*
X156488698Y-136892012D01*
X156877244Y-137052953D01*
X157289721Y-137135000D01*
X157710279Y-137135000D01*
X158122756Y-137052953D01*
X158511302Y-136892012D01*
X158860983Y-136658363D01*
X159158363Y-136360983D01*
X159392012Y-136011302D01*
X159552953Y-135622756D01*
X159635000Y-135210279D01*
X159635000Y-134789721D01*
X159552953Y-134377244D01*
X159409933Y-134031963D01*
X161038000Y-134031963D01*
X161038000Y-135968036D01*
X161058040Y-136171506D01*
X161137236Y-136432580D01*
X161265843Y-136673187D01*
X161438919Y-136884080D01*
X161649812Y-137057157D01*
X161890419Y-137185764D01*
X162151493Y-137264960D01*
X162423000Y-137291701D01*
X162694506Y-137264960D01*
X162955580Y-137185764D01*
X163196187Y-137057157D01*
X163407080Y-136884081D01*
X163580157Y-136673188D01*
X163708764Y-136432581D01*
X163787960Y-136171507D01*
X163808000Y-135968037D01*
X163808000Y-134031963D01*
X163787960Y-133828493D01*
X163708764Y-133567419D01*
X163580157Y-133326812D01*
X163407081Y-133115919D01*
X163196188Y-132942843D01*
X162955581Y-132814236D01*
X162694507Y-132735040D01*
X162423000Y-132708299D01*
X162151494Y-132735040D01*
X161890420Y-132814236D01*
X161649813Y-132942843D01*
X161438920Y-133115919D01*
X161265844Y-133326812D01*
X161137237Y-133567419D01*
X161058041Y-133828493D01*
X161038000Y-134031963D01*
X159409933Y-134031963D01*
X159392012Y-133988698D01*
X159158363Y-133639017D01*
X158860983Y-133341637D01*
X158511302Y-133107988D01*
X158122756Y-132947047D01*
X157710279Y-132865000D01*
X157289721Y-132865000D01*
X156877244Y-132947047D01*
X156488698Y-133107988D01*
X156139017Y-133341637D01*
X155841637Y-133639017D01*
X155607988Y-133988698D01*
X155508000Y-134230090D01*
X155508000Y-134031963D01*
X155487960Y-133828493D01*
X155408764Y-133567419D01*
X155280157Y-133326812D01*
X155107081Y-133115919D01*
X154896188Y-132942843D01*
X154655581Y-132814236D01*
X154394507Y-132735040D01*
X154123000Y-132708299D01*
X153851494Y-132735040D01*
X153590420Y-132814236D01*
X153349813Y-132942843D01*
X153138920Y-133115919D01*
X152965844Y-133326812D01*
X152837237Y-133567419D01*
X152758041Y-133828493D01*
X152738000Y-134031963D01*
X152575773Y-134031963D01*
X152563812Y-133910518D01*
X152527502Y-133790820D01*
X152468537Y-133680506D01*
X152389185Y-133583815D01*
X152292494Y-133504463D01*
X152182180Y-133445498D01*
X152062482Y-133409188D01*
X151938000Y-133396928D01*
X151308750Y-133400000D01*
X151150000Y-133558750D01*
X150896000Y-133558750D01*
X150737250Y-133400000D01*
X150660000Y-133399623D01*
X150660000Y-124600265D01*
X150714250Y-124600000D01*
X150873000Y-124441250D01*
X150873000Y-123127000D01*
X151127000Y-123127000D01*
X151127000Y-124441250D01*
X151285750Y-124600000D01*
X151915000Y-124603072D01*
X152039482Y-124590812D01*
X152159180Y-124554502D01*
X152269494Y-124495537D01*
X152366185Y-124416185D01*
X152445537Y-124319494D01*
X152504502Y-124209180D01*
X152540812Y-124089482D01*
X152553072Y-123965000D01*
X152550000Y-123285750D01*
X152391250Y-123127000D01*
X151127000Y-123127000D01*
X150873000Y-123127000D01*
X150853000Y-123127000D01*
X150853000Y-122873000D01*
X150873000Y-122873000D01*
X150873000Y-121558750D01*
X151127000Y-121558750D01*
X151127000Y-122873000D01*
X152391250Y-122873000D01*
X152550000Y-122714250D01*
X152553072Y-122035000D01*
X152552773Y-122031963D01*
X152715000Y-122031963D01*
X152715000Y-123968036D01*
X152735040Y-124171506D01*
X152814236Y-124432580D01*
X152942843Y-124673187D01*
X153115919Y-124884080D01*
X153326812Y-125057157D01*
X153567419Y-125185764D01*
X153828493Y-125264960D01*
X154100000Y-125291701D01*
X154371506Y-125264960D01*
X154632580Y-125185764D01*
X154873187Y-125057157D01*
X155084080Y-124884081D01*
X155257157Y-124673188D01*
X155385764Y-124432581D01*
X155464960Y-124171507D01*
X155485000Y-123968037D01*
X155485000Y-123769910D01*
X155584988Y-124011302D01*
X155818637Y-124360983D01*
X156116017Y-124658363D01*
X156465698Y-124892012D01*
X156854244Y-125052953D01*
X157266721Y-125135000D01*
X157687279Y-125135000D01*
X158099756Y-125052953D01*
X158488302Y-124892012D01*
X158837983Y-124658363D01*
X159135363Y-124360983D01*
X159369012Y-124011302D01*
X159529953Y-123622756D01*
X159612000Y-123210279D01*
X159612000Y-122789721D01*
X159529953Y-122377244D01*
X159386933Y-122031963D01*
X161015000Y-122031963D01*
X161015000Y-123968036D01*
X161035040Y-124171506D01*
X161114236Y-124432580D01*
X161242843Y-124673187D01*
X161415919Y-124884080D01*
X161626812Y-125057157D01*
X161867419Y-125185764D01*
X162128493Y-125264960D01*
X162400000Y-125291701D01*
X162671506Y-125264960D01*
X162932580Y-125185764D01*
X163173187Y-125057157D01*
X163384080Y-124884081D01*
X163557157Y-124673188D01*
X163685764Y-124432581D01*
X163764960Y-124171507D01*
X163785000Y-123968037D01*
X163785000Y-122031963D01*
X163764960Y-121828493D01*
X163685764Y-121567419D01*
X163557157Y-121326812D01*
X163384081Y-121115919D01*
X163173188Y-120942843D01*
X162932581Y-120814236D01*
X162671507Y-120735040D01*
X162400000Y-120708299D01*
X162128494Y-120735040D01*
X161867420Y-120814236D01*
X161626813Y-120942843D01*
X161415920Y-121115919D01*
X161242844Y-121326812D01*
X161114237Y-121567419D01*
X161035041Y-121828493D01*
X161015000Y-122031963D01*
X159386933Y-122031963D01*
X159369012Y-121988698D01*
X159135363Y-121639017D01*
X158837983Y-121341637D01*
X158488302Y-121107988D01*
X158099756Y-120947047D01*
X157687279Y-120865000D01*
X157266721Y-120865000D01*
X156854244Y-120947047D01*
X156465698Y-121107988D01*
X156116017Y-121341637D01*
X155818637Y-121639017D01*
X155584988Y-121988698D01*
X155485000Y-122230090D01*
X155485000Y-122031963D01*
X155464960Y-121828493D01*
X155385764Y-121567419D01*
X155257157Y-121326812D01*
X155084081Y-121115919D01*
X154873188Y-120942843D01*
X154632581Y-120814236D01*
X154371507Y-120735040D01*
X154100000Y-120708299D01*
X153828494Y-120735040D01*
X153567420Y-120814236D01*
X153326813Y-120942843D01*
X153115920Y-121115919D01*
X152942844Y-121326812D01*
X152814237Y-121567419D01*
X152735041Y-121828493D01*
X152715000Y-122031963D01*
X152552773Y-122031963D01*
X152540812Y-121910518D01*
X152504502Y-121790820D01*
X152445537Y-121680506D01*
X152366185Y-121583815D01*
X152269494Y-121504463D01*
X152159180Y-121445498D01*
X152039482Y-121409188D01*
X151915000Y-121396928D01*
X151285750Y-121400000D01*
X151127000Y-121558750D01*
X150873000Y-121558750D01*
X150714250Y-121400000D01*
X150660000Y-121399735D01*
X150660000Y-112600265D01*
X150714250Y-112600000D01*
X150873000Y-112441250D01*
X150873000Y-111127000D01*
X151127000Y-111127000D01*
X151127000Y-112441250D01*
X151285750Y-112600000D01*
X151915000Y-112603072D01*
X152039482Y-112590812D01*
X152159180Y-112554502D01*
X152269494Y-112495537D01*
X152366185Y-112416185D01*
X152445537Y-112319494D01*
X152504502Y-112209180D01*
X152540812Y-112089482D01*
X152553072Y-111965000D01*
X152550000Y-111285750D01*
X152391250Y-111127000D01*
X151127000Y-111127000D01*
X150873000Y-111127000D01*
X150853000Y-111127000D01*
X150853000Y-110873000D01*
X150873000Y-110873000D01*
X150873000Y-109558750D01*
X151127000Y-109558750D01*
X151127000Y-110873000D01*
X152391250Y-110873000D01*
X152550000Y-110714250D01*
X152553072Y-110035000D01*
X152552773Y-110031963D01*
X152715000Y-110031963D01*
X152715000Y-111968036D01*
X152735040Y-112171506D01*
X152814236Y-112432580D01*
X152942843Y-112673187D01*
X153115919Y-112884080D01*
X153326812Y-113057157D01*
X153567419Y-113185764D01*
X153828493Y-113264960D01*
X154100000Y-113291701D01*
X154371506Y-113264960D01*
X154632580Y-113185764D01*
X154873187Y-113057157D01*
X155084080Y-112884081D01*
X155257157Y-112673188D01*
X155385764Y-112432581D01*
X155464960Y-112171507D01*
X155485000Y-111968037D01*
X155485000Y-111769910D01*
X155584988Y-112011302D01*
X155818637Y-112360983D01*
X156116017Y-112658363D01*
X156465698Y-112892012D01*
X156854244Y-113052953D01*
X157266721Y-113135000D01*
X157687279Y-113135000D01*
X158099756Y-113052953D01*
X158488302Y-112892012D01*
X158837983Y-112658363D01*
X159135363Y-112360983D01*
X159369012Y-112011302D01*
X159529953Y-111622756D01*
X159612000Y-111210279D01*
X159612000Y-110789721D01*
X159529953Y-110377244D01*
X159386933Y-110031963D01*
X161015000Y-110031963D01*
X161015000Y-111968036D01*
X161035040Y-112171506D01*
X161114236Y-112432580D01*
X161242843Y-112673187D01*
X161415919Y-112884080D01*
X161626812Y-113057157D01*
X161867419Y-113185764D01*
X162128493Y-113264960D01*
X162400000Y-113291701D01*
X162671506Y-113264960D01*
X162932580Y-113185764D01*
X163173187Y-113057157D01*
X163384080Y-112884081D01*
X163557157Y-112673188D01*
X163685764Y-112432581D01*
X163764960Y-112171507D01*
X163785000Y-111968037D01*
X163785000Y-110031963D01*
X163764960Y-109828493D01*
X163685764Y-109567419D01*
X163557157Y-109326812D01*
X163384081Y-109115919D01*
X163173188Y-108942843D01*
X162932581Y-108814236D01*
X162671507Y-108735040D01*
X162400000Y-108708299D01*
X162128494Y-108735040D01*
X161867420Y-108814236D01*
X161626813Y-108942843D01*
X161415920Y-109115919D01*
X161242844Y-109326812D01*
X161114237Y-109567419D01*
X161035041Y-109828493D01*
X161015000Y-110031963D01*
X159386933Y-110031963D01*
X159369012Y-109988698D01*
X159135363Y-109639017D01*
X158837983Y-109341637D01*
X158488302Y-109107988D01*
X158099756Y-108947047D01*
X157687279Y-108865000D01*
X157266721Y-108865000D01*
X156854244Y-108947047D01*
X156465698Y-109107988D01*
X156116017Y-109341637D01*
X155818637Y-109639017D01*
X155584988Y-109988698D01*
X155485000Y-110230090D01*
X155485000Y-110031963D01*
X155464960Y-109828493D01*
X155385764Y-109567419D01*
X155257157Y-109326812D01*
X155084081Y-109115919D01*
X154873188Y-108942843D01*
X154632581Y-108814236D01*
X154371507Y-108735040D01*
X154100000Y-108708299D01*
X153828494Y-108735040D01*
X153567420Y-108814236D01*
X153326813Y-108942843D01*
X153115920Y-109115919D01*
X152942844Y-109326812D01*
X152814237Y-109567419D01*
X152735041Y-109828493D01*
X152715000Y-110031963D01*
X152552773Y-110031963D01*
X152540812Y-109910518D01*
X152504502Y-109790820D01*
X152445537Y-109680506D01*
X152366185Y-109583815D01*
X152269494Y-109504463D01*
X152159180Y-109445498D01*
X152039482Y-109409188D01*
X151915000Y-109396928D01*
X151285750Y-109400000D01*
X151127000Y-109558750D01*
X150873000Y-109558750D01*
X150714250Y-109400000D01*
X150660000Y-109399735D01*
X150660000Y-100600265D01*
X150714250Y-100600000D01*
X150873000Y-100441250D01*
X150873000Y-99127000D01*
X151127000Y-99127000D01*
X151127000Y-100441250D01*
X151285750Y-100600000D01*
X151915000Y-100603072D01*
X152039482Y-100590812D01*
X152159180Y-100554502D01*
X152269494Y-100495537D01*
X152366185Y-100416185D01*
X152445537Y-100319494D01*
X152504502Y-100209180D01*
X152540812Y-100089482D01*
X152553072Y-99965000D01*
X152550000Y-99285750D01*
X152391250Y-99127000D01*
X151127000Y-99127000D01*
X150873000Y-99127000D01*
X150853000Y-99127000D01*
X150853000Y-98873000D01*
X150873000Y-98873000D01*
X150873000Y-97558750D01*
X151127000Y-97558750D01*
X151127000Y-98873000D01*
X152391250Y-98873000D01*
X152550000Y-98714250D01*
X152553072Y-98035000D01*
X152552773Y-98031963D01*
X152715000Y-98031963D01*
X152715000Y-99968036D01*
X152735040Y-100171506D01*
X152814236Y-100432580D01*
X152942843Y-100673187D01*
X153115919Y-100884080D01*
X153326812Y-101057157D01*
X153567419Y-101185764D01*
X153828493Y-101264960D01*
X154100000Y-101291701D01*
X154371506Y-101264960D01*
X154632580Y-101185764D01*
X154873187Y-101057157D01*
X155084080Y-100884081D01*
X155257157Y-100673188D01*
X155385764Y-100432581D01*
X155464960Y-100171507D01*
X155485000Y-99968037D01*
X155485000Y-99769910D01*
X155584988Y-100011302D01*
X155818637Y-100360983D01*
X156116017Y-100658363D01*
X156465698Y-100892012D01*
X156854244Y-101052953D01*
X157266721Y-101135000D01*
X157687279Y-101135000D01*
X158099756Y-101052953D01*
X158488302Y-100892012D01*
X158837983Y-100658363D01*
X159135363Y-100360983D01*
X159369012Y-100011302D01*
X159529953Y-99622756D01*
X159612000Y-99210279D01*
X159612000Y-98789721D01*
X159529953Y-98377244D01*
X159386933Y-98031963D01*
X161015000Y-98031963D01*
X161015000Y-99968036D01*
X161035040Y-100171506D01*
X161114236Y-100432580D01*
X161242843Y-100673187D01*
X161415919Y-100884080D01*
X161626812Y-101057157D01*
X161867419Y-101185764D01*
X162128493Y-101264960D01*
X162400000Y-101291701D01*
X162671506Y-101264960D01*
X162932580Y-101185764D01*
X163173187Y-101057157D01*
X163384080Y-100884081D01*
X163557157Y-100673188D01*
X163685764Y-100432581D01*
X163764960Y-100171507D01*
X163785000Y-99968037D01*
X163785000Y-98031963D01*
X163764960Y-97828493D01*
X163685764Y-97567419D01*
X163557157Y-97326812D01*
X163384081Y-97115919D01*
X163173188Y-96942843D01*
X162932581Y-96814236D01*
X162671507Y-96735040D01*
X162400000Y-96708299D01*
X162128494Y-96735040D01*
X161867420Y-96814236D01*
X161626813Y-96942843D01*
X161415920Y-97115919D01*
X161242844Y-97326812D01*
X161114237Y-97567419D01*
X161035041Y-97828493D01*
X161015000Y-98031963D01*
X159386933Y-98031963D01*
X159369012Y-97988698D01*
X159135363Y-97639017D01*
X158837983Y-97341637D01*
X158488302Y-97107988D01*
X158099756Y-96947047D01*
X157687279Y-96865000D01*
X157266721Y-96865000D01*
X156854244Y-96947047D01*
X156465698Y-97107988D01*
X156116017Y-97341637D01*
X155818637Y-97639017D01*
X155584988Y-97988698D01*
X155485000Y-98230090D01*
X155485000Y-98031963D01*
X155464960Y-97828493D01*
X155385764Y-97567419D01*
X155257157Y-97326812D01*
X155084081Y-97115919D01*
X154873188Y-96942843D01*
X154632581Y-96814236D01*
X154371507Y-96735040D01*
X154100000Y-96708299D01*
X153828494Y-96735040D01*
X153567420Y-96814236D01*
X153326813Y-96942843D01*
X153115920Y-97115919D01*
X152942844Y-97326812D01*
X152814237Y-97567419D01*
X152735041Y-97828493D01*
X152715000Y-98031963D01*
X152552773Y-98031963D01*
X152540812Y-97910518D01*
X152504502Y-97790820D01*
X152445537Y-97680506D01*
X152366185Y-97583815D01*
X152269494Y-97504463D01*
X152159180Y-97445498D01*
X152039482Y-97409188D01*
X151915000Y-97396928D01*
X151285750Y-97400000D01*
X151127000Y-97558750D01*
X150873000Y-97558750D01*
X150714250Y-97400000D01*
X150660000Y-97399735D01*
X150660000Y-87322408D01*
X153103000Y-87322408D01*
X153103000Y-87597592D01*
X153156686Y-87867490D01*
X153261995Y-88121727D01*
X153414880Y-88350535D01*
X153609465Y-88545120D01*
X153838273Y-88698005D01*
X153915515Y-88730000D01*
X153838273Y-88761995D01*
X153609465Y-88914880D01*
X153414880Y-89109465D01*
X153261995Y-89338273D01*
X153156686Y-89592510D01*
X153103000Y-89862408D01*
X153103000Y-90137592D01*
X153156686Y-90407490D01*
X153261995Y-90661727D01*
X153414880Y-90890535D01*
X153609465Y-91085120D01*
X153838273Y-91238005D01*
X153915515Y-91270000D01*
X153838273Y-91301995D01*
X153609465Y-91454880D01*
X153414880Y-91649465D01*
X153261995Y-91878273D01*
X153156686Y-92132510D01*
X153103000Y-92402408D01*
X153103000Y-92677592D01*
X153156686Y-92947490D01*
X153261995Y-93201727D01*
X153414880Y-93430535D01*
X153609465Y-93625120D01*
X153838273Y-93778005D01*
X154092510Y-93883314D01*
X154362408Y-93937000D01*
X154637592Y-93937000D01*
X154907490Y-93883314D01*
X155161727Y-93778005D01*
X155390535Y-93625120D01*
X155585120Y-93430535D01*
X155738005Y-93201727D01*
X155843314Y-92947490D01*
X155897000Y-92677592D01*
X155897000Y-92402408D01*
X155843314Y-92132510D01*
X155738005Y-91878273D01*
X155585120Y-91649465D01*
X155390535Y-91454880D01*
X155161727Y-91301995D01*
X155084485Y-91270000D01*
X155161727Y-91238005D01*
X155315884Y-91135000D01*
X159684116Y-91135000D01*
X159838273Y-91238005D01*
X159915515Y-91270000D01*
X159838273Y-91301995D01*
X159609465Y-91454880D01*
X159414880Y-91649465D01*
X159261995Y-91878273D01*
X159156686Y-92132510D01*
X159103000Y-92402408D01*
X159103000Y-92677592D01*
X159156686Y-92947490D01*
X159261995Y-93201727D01*
X159414880Y-93430535D01*
X159609465Y-93625120D01*
X159838273Y-93778005D01*
X160092510Y-93883314D01*
X160362408Y-93937000D01*
X160637592Y-93937000D01*
X160907490Y-93883314D01*
X161161727Y-93778005D01*
X161390535Y-93625120D01*
X161585120Y-93430535D01*
X161738005Y-93201727D01*
X161843314Y-92947490D01*
X161897000Y-92677592D01*
X161897000Y-92402408D01*
X161843314Y-92132510D01*
X161738005Y-91878273D01*
X161585120Y-91649465D01*
X161390535Y-91454880D01*
X161161727Y-91301995D01*
X161084485Y-91270000D01*
X161161727Y-91238005D01*
X161390535Y-91085120D01*
X161585120Y-90890535D01*
X161738005Y-90661727D01*
X161843314Y-90407490D01*
X161897000Y-90137592D01*
X161897000Y-89862408D01*
X161843314Y-89592510D01*
X161738005Y-89338273D01*
X161585120Y-89109465D01*
X161390535Y-88914880D01*
X161161727Y-88761995D01*
X161084485Y-88730000D01*
X161161727Y-88698005D01*
X161390535Y-88545120D01*
X161585120Y-88350535D01*
X161738005Y-88121727D01*
X161843314Y-87867490D01*
X161897000Y-87597592D01*
X161897000Y-87322408D01*
X161843314Y-87052510D01*
X161738005Y-86798273D01*
X161585120Y-86569465D01*
X161390535Y-86374880D01*
X161161727Y-86221995D01*
X160907490Y-86116686D01*
X160637592Y-86063000D01*
X160362408Y-86063000D01*
X160092510Y-86116686D01*
X159838273Y-86221995D01*
X159609465Y-86374880D01*
X159414880Y-86569465D01*
X159261995Y-86798273D01*
X159156686Y-87052510D01*
X159103000Y-87322408D01*
X159103000Y-87597592D01*
X159156686Y-87867490D01*
X159261995Y-88121727D01*
X159414880Y-88350535D01*
X159609465Y-88545120D01*
X159838273Y-88698005D01*
X159915515Y-88730000D01*
X159838273Y-88761995D01*
X159684116Y-88865000D01*
X155315884Y-88865000D01*
X155161727Y-88761995D01*
X155084485Y-88730000D01*
X155161727Y-88698005D01*
X155390535Y-88545120D01*
X155585120Y-88350535D01*
X155738005Y-88121727D01*
X155843314Y-87867490D01*
X155897000Y-87597592D01*
X155897000Y-87322408D01*
X155843314Y-87052510D01*
X155738005Y-86798273D01*
X155585120Y-86569465D01*
X155390535Y-86374880D01*
X155161727Y-86221995D01*
X154907490Y-86116686D01*
X154637592Y-86063000D01*
X154362408Y-86063000D01*
X154092510Y-86116686D01*
X153838273Y-86221995D01*
X153609465Y-86374880D01*
X153414880Y-86569465D01*
X153261995Y-86798273D01*
X153156686Y-87052510D01*
X153103000Y-87322408D01*
X150660000Y-87322408D01*
X150660000Y-82600265D01*
X150714250Y-82600000D01*
X150873000Y-82441250D01*
X150873000Y-81127000D01*
X151127000Y-81127000D01*
X151127000Y-82441250D01*
X151285750Y-82600000D01*
X151915000Y-82603072D01*
X152039482Y-82590812D01*
X152159180Y-82554502D01*
X152269494Y-82495537D01*
X152366185Y-82416185D01*
X152445537Y-82319494D01*
X152504502Y-82209180D01*
X152540812Y-82089482D01*
X152553072Y-81965000D01*
X152550000Y-81285750D01*
X152391250Y-81127000D01*
X151127000Y-81127000D01*
X150873000Y-81127000D01*
X150853000Y-81127000D01*
X150853000Y-80873000D01*
X150873000Y-80873000D01*
X150873000Y-79558750D01*
X151127000Y-79558750D01*
X151127000Y-80873000D01*
X152391250Y-80873000D01*
X152550000Y-80714250D01*
X152553072Y-80035000D01*
X152552773Y-80031963D01*
X152715000Y-80031963D01*
X152715000Y-81968036D01*
X152735040Y-82171506D01*
X152814236Y-82432580D01*
X152942843Y-82673187D01*
X153115919Y-82884080D01*
X153326812Y-83057157D01*
X153567419Y-83185764D01*
X153828493Y-83264960D01*
X154100000Y-83291701D01*
X154371506Y-83264960D01*
X154632580Y-83185764D01*
X154873187Y-83057157D01*
X155084080Y-82884081D01*
X155257157Y-82673188D01*
X155385764Y-82432581D01*
X155464960Y-82171507D01*
X155485000Y-81968037D01*
X155485000Y-81769910D01*
X155584988Y-82011302D01*
X155818637Y-82360983D01*
X156116017Y-82658363D01*
X156465698Y-82892012D01*
X156854244Y-83052953D01*
X157266721Y-83135000D01*
X157687279Y-83135000D01*
X158099756Y-83052953D01*
X158488302Y-82892012D01*
X158837983Y-82658363D01*
X159135363Y-82360983D01*
X159369012Y-82011302D01*
X159529953Y-81622756D01*
X159612000Y-81210279D01*
X159612000Y-80789721D01*
X159529953Y-80377244D01*
X159386933Y-80031963D01*
X161015000Y-80031963D01*
X161015000Y-81968036D01*
X161035040Y-82171506D01*
X161114236Y-82432580D01*
X161242843Y-82673187D01*
X161415919Y-82884080D01*
X161626812Y-83057157D01*
X161867419Y-83185764D01*
X162128493Y-83264960D01*
X162400000Y-83291701D01*
X162671506Y-83264960D01*
X162932580Y-83185764D01*
X163173187Y-83057157D01*
X163384080Y-82884081D01*
X163557157Y-82673188D01*
X163685764Y-82432581D01*
X163764960Y-82171507D01*
X163785000Y-81968037D01*
X163785000Y-80031963D01*
X163764960Y-79828493D01*
X163685764Y-79567419D01*
X163557157Y-79326812D01*
X163384081Y-79115919D01*
X163173188Y-78942843D01*
X162932581Y-78814236D01*
X162671507Y-78735040D01*
X162400000Y-78708299D01*
X162128494Y-78735040D01*
X161867420Y-78814236D01*
X161626813Y-78942843D01*
X161415920Y-79115919D01*
X161242844Y-79326812D01*
X161114237Y-79567419D01*
X161035041Y-79828493D01*
X161015000Y-80031963D01*
X159386933Y-80031963D01*
X159369012Y-79988698D01*
X159135363Y-79639017D01*
X158837983Y-79341637D01*
X158488302Y-79107988D01*
X158099756Y-78947047D01*
X157687279Y-78865000D01*
X157266721Y-78865000D01*
X156854244Y-78947047D01*
X156465698Y-79107988D01*
X156116017Y-79341637D01*
X155818637Y-79639017D01*
X155584988Y-79988698D01*
X155485000Y-80230090D01*
X155485000Y-80031963D01*
X155464960Y-79828493D01*
X155385764Y-79567419D01*
X155257157Y-79326812D01*
X155084081Y-79115919D01*
X154873188Y-78942843D01*
X154632581Y-78814236D01*
X154371507Y-78735040D01*
X154100000Y-78708299D01*
X153828494Y-78735040D01*
X153567420Y-78814236D01*
X153326813Y-78942843D01*
X153115920Y-79115919D01*
X152942844Y-79326812D01*
X152814237Y-79567419D01*
X152735041Y-79828493D01*
X152715000Y-80031963D01*
X152552773Y-80031963D01*
X152540812Y-79910518D01*
X152504502Y-79790820D01*
X152445537Y-79680506D01*
X152366185Y-79583815D01*
X152269494Y-79504463D01*
X152159180Y-79445498D01*
X152039482Y-79409188D01*
X151915000Y-79396928D01*
X151285750Y-79400000D01*
X151127000Y-79558750D01*
X150873000Y-79558750D01*
X150714250Y-79400000D01*
X150660000Y-79399735D01*
X150660000Y-70600265D01*
X150714250Y-70600000D01*
X150873000Y-70441250D01*
X150873000Y-69127000D01*
X151127000Y-69127000D01*
X151127000Y-70441250D01*
X151285750Y-70600000D01*
X151915000Y-70603072D01*
X152039482Y-70590812D01*
X152159180Y-70554502D01*
X152269494Y-70495537D01*
X152366185Y-70416185D01*
X152445537Y-70319494D01*
X152504502Y-70209180D01*
X152540812Y-70089482D01*
X152553072Y-69965000D01*
X152550000Y-69285750D01*
X152391250Y-69127000D01*
X151127000Y-69127000D01*
X150873000Y-69127000D01*
X150853000Y-69127000D01*
X150853000Y-68873000D01*
X150873000Y-68873000D01*
X150873000Y-67558750D01*
X151127000Y-67558750D01*
X151127000Y-68873000D01*
X152391250Y-68873000D01*
X152550000Y-68714250D01*
X152553072Y-68035000D01*
X152552773Y-68031963D01*
X152715000Y-68031963D01*
X152715000Y-69968036D01*
X152735040Y-70171506D01*
X152814236Y-70432580D01*
X152942843Y-70673187D01*
X153115919Y-70884080D01*
X153326812Y-71057157D01*
X153567419Y-71185764D01*
X153828493Y-71264960D01*
X154100000Y-71291701D01*
X154371506Y-71264960D01*
X154632580Y-71185764D01*
X154873187Y-71057157D01*
X155084080Y-70884081D01*
X155257157Y-70673188D01*
X155385764Y-70432581D01*
X155464960Y-70171507D01*
X155485000Y-69968037D01*
X155485000Y-69769910D01*
X155584988Y-70011302D01*
X155818637Y-70360983D01*
X156116017Y-70658363D01*
X156465698Y-70892012D01*
X156854244Y-71052953D01*
X157266721Y-71135000D01*
X157687279Y-71135000D01*
X158099756Y-71052953D01*
X158488302Y-70892012D01*
X158837983Y-70658363D01*
X159135363Y-70360983D01*
X159369012Y-70011302D01*
X159529953Y-69622756D01*
X159612000Y-69210279D01*
X159612000Y-68789721D01*
X159529953Y-68377244D01*
X159386933Y-68031963D01*
X161015000Y-68031963D01*
X161015000Y-69968036D01*
X161035040Y-70171506D01*
X161114236Y-70432580D01*
X161242843Y-70673187D01*
X161415919Y-70884080D01*
X161626812Y-71057157D01*
X161867419Y-71185764D01*
X162128493Y-71264960D01*
X162400000Y-71291701D01*
X162671506Y-71264960D01*
X162932580Y-71185764D01*
X163173187Y-71057157D01*
X163384080Y-70884081D01*
X163557157Y-70673188D01*
X163685764Y-70432581D01*
X163764960Y-70171507D01*
X163785000Y-69968037D01*
X163785000Y-68031963D01*
X163764960Y-67828493D01*
X163685764Y-67567419D01*
X163557157Y-67326812D01*
X163384081Y-67115919D01*
X163173188Y-66942843D01*
X162932581Y-66814236D01*
X162671507Y-66735040D01*
X162400000Y-66708299D01*
X162128494Y-66735040D01*
X161867420Y-66814236D01*
X161626813Y-66942843D01*
X161415920Y-67115919D01*
X161242844Y-67326812D01*
X161114237Y-67567419D01*
X161035041Y-67828493D01*
X161015000Y-68031963D01*
X159386933Y-68031963D01*
X159369012Y-67988698D01*
X159135363Y-67639017D01*
X158837983Y-67341637D01*
X158488302Y-67107988D01*
X158099756Y-66947047D01*
X157687279Y-66865000D01*
X157266721Y-66865000D01*
X156854244Y-66947047D01*
X156465698Y-67107988D01*
X156116017Y-67341637D01*
X155818637Y-67639017D01*
X155584988Y-67988698D01*
X155485000Y-68230090D01*
X155485000Y-68031963D01*
X155464960Y-67828493D01*
X155385764Y-67567419D01*
X155257157Y-67326812D01*
X155084081Y-67115919D01*
X154873188Y-66942843D01*
X154632581Y-66814236D01*
X154371507Y-66735040D01*
X154100000Y-66708299D01*
X153828494Y-66735040D01*
X153567420Y-66814236D01*
X153326813Y-66942843D01*
X153115920Y-67115919D01*
X152942844Y-67326812D01*
X152814237Y-67567419D01*
X152735041Y-67828493D01*
X152715000Y-68031963D01*
X152552773Y-68031963D01*
X152540812Y-67910518D01*
X152504502Y-67790820D01*
X152445537Y-67680506D01*
X152366185Y-67583815D01*
X152269494Y-67504463D01*
X152159180Y-67445498D01*
X152039482Y-67409188D01*
X151915000Y-67396928D01*
X151285750Y-67400000D01*
X151127000Y-67558750D01*
X150873000Y-67558750D01*
X150714250Y-67400000D01*
X150660000Y-67399735D01*
X150660000Y-58600265D01*
X150714250Y-58600000D01*
X150873000Y-58441250D01*
X150873000Y-57127000D01*
X151127000Y-57127000D01*
X151127000Y-58441250D01*
X151285750Y-58600000D01*
X151915000Y-58603072D01*
X152039482Y-58590812D01*
X152159180Y-58554502D01*
X152269494Y-58495537D01*
X152366185Y-58416185D01*
X152445537Y-58319494D01*
X152504502Y-58209180D01*
X152540812Y-58089482D01*
X152553072Y-57965000D01*
X152550000Y-57285750D01*
X152391250Y-57127000D01*
X151127000Y-57127000D01*
X150873000Y-57127000D01*
X150853000Y-57127000D01*
X150853000Y-56873000D01*
X150873000Y-56873000D01*
X150873000Y-55558750D01*
X151127000Y-55558750D01*
X151127000Y-56873000D01*
X152391250Y-56873000D01*
X152550000Y-56714250D01*
X152553072Y-56035000D01*
X152552773Y-56031963D01*
X152715000Y-56031963D01*
X152715000Y-57968036D01*
X152735040Y-58171506D01*
X152814236Y-58432580D01*
X152942843Y-58673187D01*
X153115919Y-58884080D01*
X153326812Y-59057157D01*
X153567419Y-59185764D01*
X153828493Y-59264960D01*
X154100000Y-59291701D01*
X154371506Y-59264960D01*
X154632580Y-59185764D01*
X154873187Y-59057157D01*
X155084080Y-58884081D01*
X155257157Y-58673188D01*
X155385764Y-58432581D01*
X155464960Y-58171507D01*
X155485000Y-57968037D01*
X155485000Y-57769910D01*
X155584988Y-58011302D01*
X155818637Y-58360983D01*
X156116017Y-58658363D01*
X156465698Y-58892012D01*
X156854244Y-59052953D01*
X157266721Y-59135000D01*
X157687279Y-59135000D01*
X158099756Y-59052953D01*
X158488302Y-58892012D01*
X158837983Y-58658363D01*
X159135363Y-58360983D01*
X159369012Y-58011302D01*
X159529953Y-57622756D01*
X159612000Y-57210279D01*
X159612000Y-56789721D01*
X159529953Y-56377244D01*
X159386933Y-56031963D01*
X161015000Y-56031963D01*
X161015000Y-57968036D01*
X161035040Y-58171506D01*
X161114236Y-58432580D01*
X161242843Y-58673187D01*
X161415919Y-58884080D01*
X161626812Y-59057157D01*
X161867419Y-59185764D01*
X162128493Y-59264960D01*
X162400000Y-59291701D01*
X162671506Y-59264960D01*
X162932580Y-59185764D01*
X163173187Y-59057157D01*
X163384080Y-58884081D01*
X163557157Y-58673188D01*
X163685764Y-58432581D01*
X163764960Y-58171507D01*
X163785000Y-57968037D01*
X163785000Y-56031963D01*
X163764960Y-55828493D01*
X163685764Y-55567419D01*
X163557157Y-55326812D01*
X163384081Y-55115919D01*
X163173188Y-54942843D01*
X162932581Y-54814236D01*
X162671507Y-54735040D01*
X162400000Y-54708299D01*
X162128494Y-54735040D01*
X161867420Y-54814236D01*
X161626813Y-54942843D01*
X161415920Y-55115919D01*
X161242844Y-55326812D01*
X161114237Y-55567419D01*
X161035041Y-55828493D01*
X161015000Y-56031963D01*
X159386933Y-56031963D01*
X159369012Y-55988698D01*
X159135363Y-55639017D01*
X158837983Y-55341637D01*
X158488302Y-55107988D01*
X158099756Y-54947047D01*
X157687279Y-54865000D01*
X157266721Y-54865000D01*
X156854244Y-54947047D01*
X156465698Y-55107988D01*
X156116017Y-55341637D01*
X155818637Y-55639017D01*
X155584988Y-55988698D01*
X155485000Y-56230090D01*
X155485000Y-56031963D01*
X155464960Y-55828493D01*
X155385764Y-55567419D01*
X155257157Y-55326812D01*
X155084081Y-55115919D01*
X154873188Y-54942843D01*
X154632581Y-54814236D01*
X154371507Y-54735040D01*
X154100000Y-54708299D01*
X153828494Y-54735040D01*
X153567420Y-54814236D01*
X153326813Y-54942843D01*
X153115920Y-55115919D01*
X152942844Y-55326812D01*
X152814237Y-55567419D01*
X152735041Y-55828493D01*
X152715000Y-56031963D01*
X152552773Y-56031963D01*
X152540812Y-55910518D01*
X152504502Y-55790820D01*
X152445537Y-55680506D01*
X152366185Y-55583815D01*
X152269494Y-55504463D01*
X152159180Y-55445498D01*
X152039482Y-55409188D01*
X151915000Y-55396928D01*
X151285750Y-55400000D01*
X151127000Y-55558750D01*
X150873000Y-55558750D01*
X150714250Y-55400000D01*
X150660000Y-55399735D01*
X150660000Y-46600377D01*
X150737250Y-46600000D01*
X150896000Y-46441250D01*
X150896000Y-45127000D01*
X151150000Y-45127000D01*
X151150000Y-46441250D01*
X151308750Y-46600000D01*
X151938000Y-46603072D01*
X152062482Y-46590812D01*
X152182180Y-46554502D01*
X152292494Y-46495537D01*
X152389185Y-46416185D01*
X152468537Y-46319494D01*
X152527502Y-46209180D01*
X152563812Y-46089482D01*
X152576072Y-45965000D01*
X152573000Y-45285750D01*
X152414250Y-45127000D01*
X151150000Y-45127000D01*
X150896000Y-45127000D01*
X150876000Y-45127000D01*
X150876000Y-44873000D01*
X150896000Y-44873000D01*
X150896000Y-43558750D01*
X151150000Y-43558750D01*
X151150000Y-44873000D01*
X152414250Y-44873000D01*
X152573000Y-44714250D01*
X152576072Y-44035000D01*
X152575773Y-44031963D01*
X152738000Y-44031963D01*
X152738000Y-45968036D01*
X152758040Y-46171506D01*
X152837236Y-46432580D01*
X152965843Y-46673187D01*
X153138919Y-46884080D01*
X153349812Y-47057157D01*
X153590419Y-47185764D01*
X153851493Y-47264960D01*
X154123000Y-47291701D01*
X154394506Y-47264960D01*
X154655580Y-47185764D01*
X154896187Y-47057157D01*
X155107080Y-46884081D01*
X155280157Y-46673188D01*
X155408764Y-46432581D01*
X155487960Y-46171507D01*
X155508000Y-45968037D01*
X155508000Y-45769910D01*
X155607988Y-46011302D01*
X155841637Y-46360983D01*
X156139017Y-46658363D01*
X156488698Y-46892012D01*
X156877244Y-47052953D01*
X157289721Y-47135000D01*
X157710279Y-47135000D01*
X158122756Y-47052953D01*
X158511302Y-46892012D01*
X158860983Y-46658363D01*
X159158363Y-46360983D01*
X159392012Y-46011302D01*
X159552953Y-45622756D01*
X159635000Y-45210279D01*
X159635000Y-44789721D01*
X159552953Y-44377244D01*
X159409933Y-44031963D01*
X161038000Y-44031963D01*
X161038000Y-45968036D01*
X161058040Y-46171506D01*
X161137236Y-46432580D01*
X161265843Y-46673187D01*
X161438919Y-46884080D01*
X161649812Y-47057157D01*
X161890419Y-47185764D01*
X162151493Y-47264960D01*
X162423000Y-47291701D01*
X162694506Y-47264960D01*
X162955580Y-47185764D01*
X163196187Y-47057157D01*
X163407080Y-46884081D01*
X163580157Y-46673188D01*
X163708764Y-46432581D01*
X163787960Y-46171507D01*
X163808000Y-45968037D01*
X163808000Y-44031963D01*
X163787960Y-43828493D01*
X163708764Y-43567419D01*
X163580157Y-43326812D01*
X163407081Y-43115919D01*
X163196188Y-42942843D01*
X162955581Y-42814236D01*
X162694507Y-42735040D01*
X162423000Y-42708299D01*
X162151494Y-42735040D01*
X161890420Y-42814236D01*
X161649813Y-42942843D01*
X161438920Y-43115919D01*
X161265844Y-43326812D01*
X161137237Y-43567419D01*
X161058041Y-43828493D01*
X161038000Y-44031963D01*
X159409933Y-44031963D01*
X159392012Y-43988698D01*
X159158363Y-43639017D01*
X158860983Y-43341637D01*
X158511302Y-43107988D01*
X158122756Y-42947047D01*
X157710279Y-42865000D01*
X157289721Y-42865000D01*
X156877244Y-42947047D01*
X156488698Y-43107988D01*
X156139017Y-43341637D01*
X155841637Y-43639017D01*
X155607988Y-43988698D01*
X155508000Y-44230090D01*
X155508000Y-44031963D01*
X155487960Y-43828493D01*
X155408764Y-43567419D01*
X155280157Y-43326812D01*
X155107081Y-43115919D01*
X154896188Y-42942843D01*
X154655581Y-42814236D01*
X154394507Y-42735040D01*
X154123000Y-42708299D01*
X153851494Y-42735040D01*
X153590420Y-42814236D01*
X153349813Y-42942843D01*
X153138920Y-43115919D01*
X152965844Y-43326812D01*
X152837237Y-43567419D01*
X152758041Y-43828493D01*
X152738000Y-44031963D01*
X152575773Y-44031963D01*
X152563812Y-43910518D01*
X152527502Y-43790820D01*
X152468537Y-43680506D01*
X152389185Y-43583815D01*
X152292494Y-43504463D01*
X152182180Y-43445498D01*
X152062482Y-43409188D01*
X151938000Y-43396928D01*
X151308750Y-43400000D01*
X151150000Y-43558750D01*
X150896000Y-43558750D01*
X150737250Y-43400000D01*
X150660000Y-43399623D01*
X150660000Y-40660000D01*
X164340000Y-40660000D01*
X164340001Y-139340000D01*
X164340001Y-139340000D01*
G37*
X164340001Y-139340000D02*
X150660000Y-139340000D01*
X150660000Y-136600377D01*
X150737250Y-136600000D01*
X150896000Y-136441250D01*
X150896000Y-135127000D01*
X151150000Y-135127000D01*
X151150000Y-136441250D01*
X151308750Y-136600000D01*
X151938000Y-136603072D01*
X152062482Y-136590812D01*
X152182180Y-136554502D01*
X152292494Y-136495537D01*
X152389185Y-136416185D01*
X152468537Y-136319494D01*
X152527502Y-136209180D01*
X152563812Y-136089482D01*
X152576072Y-135965000D01*
X152573000Y-135285750D01*
X152414250Y-135127000D01*
X151150000Y-135127000D01*
X150896000Y-135127000D01*
X150876000Y-135127000D01*
X150876000Y-134873000D01*
X150896000Y-134873000D01*
X150896000Y-133558750D01*
X151150000Y-133558750D01*
X151150000Y-134873000D01*
X152414250Y-134873000D01*
X152573000Y-134714250D01*
X152576072Y-134035000D01*
X152575773Y-134031963D01*
X152738000Y-134031963D01*
X152738000Y-135968036D01*
X152758040Y-136171506D01*
X152837236Y-136432580D01*
X152965843Y-136673187D01*
X153138919Y-136884080D01*
X153349812Y-137057157D01*
X153590419Y-137185764D01*
X153851493Y-137264960D01*
X154123000Y-137291701D01*
X154394506Y-137264960D01*
X154655580Y-137185764D01*
X154896187Y-137057157D01*
X155107080Y-136884081D01*
X155280157Y-136673188D01*
X155408764Y-136432581D01*
X155487960Y-136171507D01*
X155508000Y-135968037D01*
X155508000Y-135769910D01*
X155607988Y-136011302D01*
X155841637Y-136360983D01*
X156139017Y-136658363D01*
X156488698Y-136892012D01*
X156877244Y-137052953D01*
X157289721Y-137135000D01*
X157710279Y-137135000D01*
X158122756Y-137052953D01*
X158511302Y-136892012D01*
X158860983Y-136658363D01*
X159158363Y-136360983D01*
X159392012Y-136011302D01*
X159552953Y-135622756D01*
X159635000Y-135210279D01*
X159635000Y-134789721D01*
X159552953Y-134377244D01*
X159409933Y-134031963D01*
X161038000Y-134031963D01*
X161038000Y-135968036D01*
X161058040Y-136171506D01*
X161137236Y-136432580D01*
X161265843Y-136673187D01*
X161438919Y-136884080D01*
X161649812Y-137057157D01*
X161890419Y-137185764D01*
X162151493Y-137264960D01*
X162423000Y-137291701D01*
X162694506Y-137264960D01*
X162955580Y-137185764D01*
X163196187Y-137057157D01*
X163407080Y-136884081D01*
X163580157Y-136673188D01*
X163708764Y-136432581D01*
X163787960Y-136171507D01*
X163808000Y-135968037D01*
X163808000Y-134031963D01*
X163787960Y-133828493D01*
X163708764Y-133567419D01*
X163580157Y-133326812D01*
X163407081Y-133115919D01*
X163196188Y-132942843D01*
X162955581Y-132814236D01*
X162694507Y-132735040D01*
X162423000Y-132708299D01*
X162151494Y-132735040D01*
X161890420Y-132814236D01*
X161649813Y-132942843D01*
X161438920Y-133115919D01*
X161265844Y-133326812D01*
X161137237Y-133567419D01*
X161058041Y-133828493D01*
X161038000Y-134031963D01*
X159409933Y-134031963D01*
X159392012Y-133988698D01*
X159158363Y-133639017D01*
X158860983Y-133341637D01*
X158511302Y-133107988D01*
X158122756Y-132947047D01*
X157710279Y-132865000D01*
X157289721Y-132865000D01*
X156877244Y-132947047D01*
X156488698Y-133107988D01*
X156139017Y-133341637D01*
X155841637Y-133639017D01*
X155607988Y-133988698D01*
X155508000Y-134230090D01*
X155508000Y-134031963D01*
X155487960Y-133828493D01*
X155408764Y-133567419D01*
X155280157Y-133326812D01*
X155107081Y-133115919D01*
X154896188Y-132942843D01*
X154655581Y-132814236D01*
X154394507Y-132735040D01*
X154123000Y-132708299D01*
X153851494Y-132735040D01*
X153590420Y-132814236D01*
X153349813Y-132942843D01*
X153138920Y-133115919D01*
X152965844Y-133326812D01*
X152837237Y-133567419D01*
X152758041Y-133828493D01*
X152738000Y-134031963D01*
X152575773Y-134031963D01*
X152563812Y-133910518D01*
X152527502Y-133790820D01*
X152468537Y-133680506D01*
X152389185Y-133583815D01*
X152292494Y-133504463D01*
X152182180Y-133445498D01*
X152062482Y-133409188D01*
X151938000Y-133396928D01*
X151308750Y-133400000D01*
X151150000Y-133558750D01*
X150896000Y-133558750D01*
X150737250Y-133400000D01*
X150660000Y-133399623D01*
X150660000Y-124600265D01*
X150714250Y-124600000D01*
X150873000Y-124441250D01*
X150873000Y-123127000D01*
X151127000Y-123127000D01*
X151127000Y-124441250D01*
X151285750Y-124600000D01*
X151915000Y-124603072D01*
X152039482Y-124590812D01*
X152159180Y-124554502D01*
X152269494Y-124495537D01*
X152366185Y-124416185D01*
X152445537Y-124319494D01*
X152504502Y-124209180D01*
X152540812Y-124089482D01*
X152553072Y-123965000D01*
X152550000Y-123285750D01*
X152391250Y-123127000D01*
X151127000Y-123127000D01*
X150873000Y-123127000D01*
X150853000Y-123127000D01*
X150853000Y-122873000D01*
X150873000Y-122873000D01*
X150873000Y-121558750D01*
X151127000Y-121558750D01*
X151127000Y-122873000D01*
X152391250Y-122873000D01*
X152550000Y-122714250D01*
X152553072Y-122035000D01*
X152552773Y-122031963D01*
X152715000Y-122031963D01*
X152715000Y-123968036D01*
X152735040Y-124171506D01*
X152814236Y-124432580D01*
X152942843Y-124673187D01*
X153115919Y-124884080D01*
X153326812Y-125057157D01*
X153567419Y-125185764D01*
X153828493Y-125264960D01*
X154100000Y-125291701D01*
X154371506Y-125264960D01*
X154632580Y-125185764D01*
X154873187Y-125057157D01*
X155084080Y-124884081D01*
X155257157Y-124673188D01*
X155385764Y-124432581D01*
X155464960Y-124171507D01*
X155485000Y-123968037D01*
X155485000Y-123769910D01*
X155584988Y-124011302D01*
X155818637Y-124360983D01*
X156116017Y-124658363D01*
X156465698Y-124892012D01*
X156854244Y-125052953D01*
X157266721Y-125135000D01*
X157687279Y-125135000D01*
X158099756Y-125052953D01*
X158488302Y-124892012D01*
X158837983Y-124658363D01*
X159135363Y-124360983D01*
X159369012Y-124011302D01*
X159529953Y-123622756D01*
X159612000Y-123210279D01*
X159612000Y-122789721D01*
X159529953Y-122377244D01*
X159386933Y-122031963D01*
X161015000Y-122031963D01*
X161015000Y-123968036D01*
X161035040Y-124171506D01*
X161114236Y-124432580D01*
X161242843Y-124673187D01*
X161415919Y-124884080D01*
X161626812Y-125057157D01*
X161867419Y-125185764D01*
X162128493Y-125264960D01*
X162400000Y-125291701D01*
X162671506Y-125264960D01*
X162932580Y-125185764D01*
X163173187Y-125057157D01*
X163384080Y-124884081D01*
X163557157Y-124673188D01*
X163685764Y-124432581D01*
X163764960Y-124171507D01*
X163785000Y-123968037D01*
X163785000Y-122031963D01*
X163764960Y-121828493D01*
X163685764Y-121567419D01*
X163557157Y-121326812D01*
X163384081Y-121115919D01*
X163173188Y-120942843D01*
X162932581Y-120814236D01*
X162671507Y-120735040D01*
X162400000Y-120708299D01*
X162128494Y-120735040D01*
X161867420Y-120814236D01*
X161626813Y-120942843D01*
X161415920Y-121115919D01*
X161242844Y-121326812D01*
X161114237Y-121567419D01*
X161035041Y-121828493D01*
X161015000Y-122031963D01*
X159386933Y-122031963D01*
X159369012Y-121988698D01*
X159135363Y-121639017D01*
X158837983Y-121341637D01*
X158488302Y-121107988D01*
X158099756Y-120947047D01*
X157687279Y-120865000D01*
X157266721Y-120865000D01*
X156854244Y-120947047D01*
X156465698Y-121107988D01*
X156116017Y-121341637D01*
X155818637Y-121639017D01*
X155584988Y-121988698D01*
X155485000Y-122230090D01*
X155485000Y-122031963D01*
X155464960Y-121828493D01*
X155385764Y-121567419D01*
X155257157Y-121326812D01*
X155084081Y-121115919D01*
X154873188Y-120942843D01*
X154632581Y-120814236D01*
X154371507Y-120735040D01*
X154100000Y-120708299D01*
X153828494Y-120735040D01*
X153567420Y-120814236D01*
X153326813Y-120942843D01*
X153115920Y-121115919D01*
X152942844Y-121326812D01*
X152814237Y-121567419D01*
X152735041Y-121828493D01*
X152715000Y-122031963D01*
X152552773Y-122031963D01*
X152540812Y-121910518D01*
X152504502Y-121790820D01*
X152445537Y-121680506D01*
X152366185Y-121583815D01*
X152269494Y-121504463D01*
X152159180Y-121445498D01*
X152039482Y-121409188D01*
X151915000Y-121396928D01*
X151285750Y-121400000D01*
X151127000Y-121558750D01*
X150873000Y-121558750D01*
X150714250Y-121400000D01*
X150660000Y-121399735D01*
X150660000Y-112600265D01*
X150714250Y-112600000D01*
X150873000Y-112441250D01*
X150873000Y-111127000D01*
X151127000Y-111127000D01*
X151127000Y-112441250D01*
X151285750Y-112600000D01*
X151915000Y-112603072D01*
X152039482Y-112590812D01*
X152159180Y-112554502D01*
X152269494Y-112495537D01*
X152366185Y-112416185D01*
X152445537Y-112319494D01*
X152504502Y-112209180D01*
X152540812Y-112089482D01*
X152553072Y-111965000D01*
X152550000Y-111285750D01*
X152391250Y-111127000D01*
X151127000Y-111127000D01*
X150873000Y-111127000D01*
X150853000Y-111127000D01*
X150853000Y-110873000D01*
X150873000Y-110873000D01*
X150873000Y-109558750D01*
X151127000Y-109558750D01*
X151127000Y-110873000D01*
X152391250Y-110873000D01*
X152550000Y-110714250D01*
X152553072Y-110035000D01*
X152552773Y-110031963D01*
X152715000Y-110031963D01*
X152715000Y-111968036D01*
X152735040Y-112171506D01*
X152814236Y-112432580D01*
X152942843Y-112673187D01*
X153115919Y-112884080D01*
X153326812Y-113057157D01*
X153567419Y-113185764D01*
X153828493Y-113264960D01*
X154100000Y-113291701D01*
X154371506Y-113264960D01*
X154632580Y-113185764D01*
X154873187Y-113057157D01*
X155084080Y-112884081D01*
X155257157Y-112673188D01*
X155385764Y-112432581D01*
X155464960Y-112171507D01*
X155485000Y-111968037D01*
X155485000Y-111769910D01*
X155584988Y-112011302D01*
X155818637Y-112360983D01*
X156116017Y-112658363D01*
X156465698Y-112892012D01*
X156854244Y-113052953D01*
X157266721Y-113135000D01*
X157687279Y-113135000D01*
X158099756Y-113052953D01*
X158488302Y-112892012D01*
X158837983Y-112658363D01*
X159135363Y-112360983D01*
X159369012Y-112011302D01*
X159529953Y-111622756D01*
X159612000Y-111210279D01*
X159612000Y-110789721D01*
X159529953Y-110377244D01*
X159386933Y-110031963D01*
X161015000Y-110031963D01*
X161015000Y-111968036D01*
X161035040Y-112171506D01*
X161114236Y-112432580D01*
X161242843Y-112673187D01*
X161415919Y-112884080D01*
X161626812Y-113057157D01*
X161867419Y-113185764D01*
X162128493Y-113264960D01*
X162400000Y-113291701D01*
X162671506Y-113264960D01*
X162932580Y-113185764D01*
X163173187Y-113057157D01*
X163384080Y-112884081D01*
X163557157Y-112673188D01*
X163685764Y-112432581D01*
X163764960Y-112171507D01*
X163785000Y-111968037D01*
X163785000Y-110031963D01*
X163764960Y-109828493D01*
X163685764Y-109567419D01*
X163557157Y-109326812D01*
X163384081Y-109115919D01*
X163173188Y-108942843D01*
X162932581Y-108814236D01*
X162671507Y-108735040D01*
X162400000Y-108708299D01*
X162128494Y-108735040D01*
X161867420Y-108814236D01*
X161626813Y-108942843D01*
X161415920Y-109115919D01*
X161242844Y-109326812D01*
X161114237Y-109567419D01*
X161035041Y-109828493D01*
X161015000Y-110031963D01*
X159386933Y-110031963D01*
X159369012Y-109988698D01*
X159135363Y-109639017D01*
X158837983Y-109341637D01*
X158488302Y-109107988D01*
X158099756Y-108947047D01*
X157687279Y-108865000D01*
X157266721Y-108865000D01*
X156854244Y-108947047D01*
X156465698Y-109107988D01*
X156116017Y-109341637D01*
X155818637Y-109639017D01*
X155584988Y-109988698D01*
X155485000Y-110230090D01*
X155485000Y-110031963D01*
X155464960Y-109828493D01*
X155385764Y-109567419D01*
X155257157Y-109326812D01*
X155084081Y-109115919D01*
X154873188Y-108942843D01*
X154632581Y-108814236D01*
X154371507Y-108735040D01*
X154100000Y-108708299D01*
X153828494Y-108735040D01*
X153567420Y-108814236D01*
X153326813Y-108942843D01*
X153115920Y-109115919D01*
X152942844Y-109326812D01*
X152814237Y-109567419D01*
X152735041Y-109828493D01*
X152715000Y-110031963D01*
X152552773Y-110031963D01*
X152540812Y-109910518D01*
X152504502Y-109790820D01*
X152445537Y-109680506D01*
X152366185Y-109583815D01*
X152269494Y-109504463D01*
X152159180Y-109445498D01*
X152039482Y-109409188D01*
X151915000Y-109396928D01*
X151285750Y-109400000D01*
X151127000Y-109558750D01*
X150873000Y-109558750D01*
X150714250Y-109400000D01*
X150660000Y-109399735D01*
X150660000Y-100600265D01*
X150714250Y-100600000D01*
X150873000Y-100441250D01*
X150873000Y-99127000D01*
X151127000Y-99127000D01*
X151127000Y-100441250D01*
X151285750Y-100600000D01*
X151915000Y-100603072D01*
X152039482Y-100590812D01*
X152159180Y-100554502D01*
X152269494Y-100495537D01*
X152366185Y-100416185D01*
X152445537Y-100319494D01*
X152504502Y-100209180D01*
X152540812Y-100089482D01*
X152553072Y-99965000D01*
X152550000Y-99285750D01*
X152391250Y-99127000D01*
X151127000Y-99127000D01*
X150873000Y-99127000D01*
X150853000Y-99127000D01*
X150853000Y-98873000D01*
X150873000Y-98873000D01*
X150873000Y-97558750D01*
X151127000Y-97558750D01*
X151127000Y-98873000D01*
X152391250Y-98873000D01*
X152550000Y-98714250D01*
X152553072Y-98035000D01*
X152552773Y-98031963D01*
X152715000Y-98031963D01*
X152715000Y-99968036D01*
X152735040Y-100171506D01*
X152814236Y-100432580D01*
X152942843Y-100673187D01*
X153115919Y-100884080D01*
X153326812Y-101057157D01*
X153567419Y-101185764D01*
X153828493Y-101264960D01*
X154100000Y-101291701D01*
X154371506Y-101264960D01*
X154632580Y-101185764D01*
X154873187Y-101057157D01*
X155084080Y-100884081D01*
X155257157Y-100673188D01*
X155385764Y-100432581D01*
X155464960Y-100171507D01*
X155485000Y-99968037D01*
X155485000Y-99769910D01*
X155584988Y-100011302D01*
X155818637Y-100360983D01*
X156116017Y-100658363D01*
X156465698Y-100892012D01*
X156854244Y-101052953D01*
X157266721Y-101135000D01*
X157687279Y-101135000D01*
X158099756Y-101052953D01*
X158488302Y-100892012D01*
X158837983Y-100658363D01*
X159135363Y-100360983D01*
X159369012Y-100011302D01*
X159529953Y-99622756D01*
X159612000Y-99210279D01*
X159612000Y-98789721D01*
X159529953Y-98377244D01*
X159386933Y-98031963D01*
X161015000Y-98031963D01*
X161015000Y-99968036D01*
X161035040Y-100171506D01*
X161114236Y-100432580D01*
X161242843Y-100673187D01*
X161415919Y-100884080D01*
X161626812Y-101057157D01*
X161867419Y-101185764D01*
X162128493Y-101264960D01*
X162400000Y-101291701D01*
X162671506Y-101264960D01*
X162932580Y-101185764D01*
X163173187Y-101057157D01*
X163384080Y-100884081D01*
X163557157Y-100673188D01*
X163685764Y-100432581D01*
X163764960Y-100171507D01*
X163785000Y-99968037D01*
X163785000Y-98031963D01*
X163764960Y-97828493D01*
X163685764Y-97567419D01*
X163557157Y-97326812D01*
X163384081Y-97115919D01*
X163173188Y-96942843D01*
X162932581Y-96814236D01*
X162671507Y-96735040D01*
X162400000Y-96708299D01*
X162128494Y-96735040D01*
X161867420Y-96814236D01*
X161626813Y-96942843D01*
X161415920Y-97115919D01*
X161242844Y-97326812D01*
X161114237Y-97567419D01*
X161035041Y-97828493D01*
X161015000Y-98031963D01*
X159386933Y-98031963D01*
X159369012Y-97988698D01*
X159135363Y-97639017D01*
X158837983Y-97341637D01*
X158488302Y-97107988D01*
X158099756Y-96947047D01*
X157687279Y-96865000D01*
X157266721Y-96865000D01*
X156854244Y-96947047D01*
X156465698Y-97107988D01*
X156116017Y-97341637D01*
X155818637Y-97639017D01*
X155584988Y-97988698D01*
X155485000Y-98230090D01*
X155485000Y-98031963D01*
X155464960Y-97828493D01*
X155385764Y-97567419D01*
X155257157Y-97326812D01*
X155084081Y-97115919D01*
X154873188Y-96942843D01*
X154632581Y-96814236D01*
X154371507Y-96735040D01*
X154100000Y-96708299D01*
X153828494Y-96735040D01*
X153567420Y-96814236D01*
X153326813Y-96942843D01*
X153115920Y-97115919D01*
X152942844Y-97326812D01*
X152814237Y-97567419D01*
X152735041Y-97828493D01*
X152715000Y-98031963D01*
X152552773Y-98031963D01*
X152540812Y-97910518D01*
X152504502Y-97790820D01*
X152445537Y-97680506D01*
X152366185Y-97583815D01*
X152269494Y-97504463D01*
X152159180Y-97445498D01*
X152039482Y-97409188D01*
X151915000Y-97396928D01*
X151285750Y-97400000D01*
X151127000Y-97558750D01*
X150873000Y-97558750D01*
X150714250Y-97400000D01*
X150660000Y-97399735D01*
X150660000Y-87322408D01*
X153103000Y-87322408D01*
X153103000Y-87597592D01*
X153156686Y-87867490D01*
X153261995Y-88121727D01*
X153414880Y-88350535D01*
X153609465Y-88545120D01*
X153838273Y-88698005D01*
X153915515Y-88730000D01*
X153838273Y-88761995D01*
X153609465Y-88914880D01*
X153414880Y-89109465D01*
X153261995Y-89338273D01*
X153156686Y-89592510D01*
X153103000Y-89862408D01*
X153103000Y-90137592D01*
X153156686Y-90407490D01*
X153261995Y-90661727D01*
X153414880Y-90890535D01*
X153609465Y-91085120D01*
X153838273Y-91238005D01*
X153915515Y-91270000D01*
X153838273Y-91301995D01*
X153609465Y-91454880D01*
X153414880Y-91649465D01*
X153261995Y-91878273D01*
X153156686Y-92132510D01*
X153103000Y-92402408D01*
X153103000Y-92677592D01*
X153156686Y-92947490D01*
X153261995Y-93201727D01*
X153414880Y-93430535D01*
X153609465Y-93625120D01*
X153838273Y-93778005D01*
X154092510Y-93883314D01*
X154362408Y-93937000D01*
X154637592Y-93937000D01*
X154907490Y-93883314D01*
X155161727Y-93778005D01*
X155390535Y-93625120D01*
X155585120Y-93430535D01*
X155738005Y-93201727D01*
X155843314Y-92947490D01*
X155897000Y-92677592D01*
X155897000Y-92402408D01*
X155843314Y-92132510D01*
X155738005Y-91878273D01*
X155585120Y-91649465D01*
X155390535Y-91454880D01*
X155161727Y-91301995D01*
X155084485Y-91270000D01*
X155161727Y-91238005D01*
X155315884Y-91135000D01*
X159684116Y-91135000D01*
X159838273Y-91238005D01*
X159915515Y-91270000D01*
X159838273Y-91301995D01*
X159609465Y-91454880D01*
X159414880Y-91649465D01*
X159261995Y-91878273D01*
X159156686Y-92132510D01*
X159103000Y-92402408D01*
X159103000Y-92677592D01*
X159156686Y-92947490D01*
X159261995Y-93201727D01*
X159414880Y-93430535D01*
X159609465Y-93625120D01*
X159838273Y-93778005D01*
X160092510Y-93883314D01*
X160362408Y-93937000D01*
X160637592Y-93937000D01*
X160907490Y-93883314D01*
X161161727Y-93778005D01*
X161390535Y-93625120D01*
X161585120Y-93430535D01*
X161738005Y-93201727D01*
X161843314Y-92947490D01*
X161897000Y-92677592D01*
X161897000Y-92402408D01*
X161843314Y-92132510D01*
X161738005Y-91878273D01*
X161585120Y-91649465D01*
X161390535Y-91454880D01*
X161161727Y-91301995D01*
X161084485Y-91270000D01*
X161161727Y-91238005D01*
X161390535Y-91085120D01*
X161585120Y-90890535D01*
X161738005Y-90661727D01*
X161843314Y-90407490D01*
X161897000Y-90137592D01*
X161897000Y-89862408D01*
X161843314Y-89592510D01*
X161738005Y-89338273D01*
X161585120Y-89109465D01*
X161390535Y-88914880D01*
X161161727Y-88761995D01*
X161084485Y-88730000D01*
X161161727Y-88698005D01*
X161390535Y-88545120D01*
X161585120Y-88350535D01*
X161738005Y-88121727D01*
X161843314Y-87867490D01*
X161897000Y-87597592D01*
X161897000Y-87322408D01*
X161843314Y-87052510D01*
X161738005Y-86798273D01*
X161585120Y-86569465D01*
X161390535Y-86374880D01*
X161161727Y-86221995D01*
X160907490Y-86116686D01*
X160637592Y-86063000D01*
X160362408Y-86063000D01*
X160092510Y-86116686D01*
X159838273Y-86221995D01*
X159609465Y-86374880D01*
X159414880Y-86569465D01*
X159261995Y-86798273D01*
X159156686Y-87052510D01*
X159103000Y-87322408D01*
X159103000Y-87597592D01*
X159156686Y-87867490D01*
X159261995Y-88121727D01*
X159414880Y-88350535D01*
X159609465Y-88545120D01*
X159838273Y-88698005D01*
X159915515Y-88730000D01*
X159838273Y-88761995D01*
X159684116Y-88865000D01*
X155315884Y-88865000D01*
X155161727Y-88761995D01*
X155084485Y-88730000D01*
X155161727Y-88698005D01*
X155390535Y-88545120D01*
X155585120Y-88350535D01*
X155738005Y-88121727D01*
X155843314Y-87867490D01*
X155897000Y-87597592D01*
X155897000Y-87322408D01*
X155843314Y-87052510D01*
X155738005Y-86798273D01*
X155585120Y-86569465D01*
X155390535Y-86374880D01*
X155161727Y-86221995D01*
X154907490Y-86116686D01*
X154637592Y-86063000D01*
X154362408Y-86063000D01*
X154092510Y-86116686D01*
X153838273Y-86221995D01*
X153609465Y-86374880D01*
X153414880Y-86569465D01*
X153261995Y-86798273D01*
X153156686Y-87052510D01*
X153103000Y-87322408D01*
X150660000Y-87322408D01*
X150660000Y-82600265D01*
X150714250Y-82600000D01*
X150873000Y-82441250D01*
X150873000Y-81127000D01*
X151127000Y-81127000D01*
X151127000Y-82441250D01*
X151285750Y-82600000D01*
X151915000Y-82603072D01*
X152039482Y-82590812D01*
X152159180Y-82554502D01*
X152269494Y-82495537D01*
X152366185Y-82416185D01*
X152445537Y-82319494D01*
X152504502Y-82209180D01*
X152540812Y-82089482D01*
X152553072Y-81965000D01*
X152550000Y-81285750D01*
X152391250Y-81127000D01*
X151127000Y-81127000D01*
X150873000Y-81127000D01*
X150853000Y-81127000D01*
X150853000Y-80873000D01*
X150873000Y-80873000D01*
X150873000Y-79558750D01*
X151127000Y-79558750D01*
X151127000Y-80873000D01*
X152391250Y-80873000D01*
X152550000Y-80714250D01*
X152553072Y-80035000D01*
X152552773Y-80031963D01*
X152715000Y-80031963D01*
X152715000Y-81968036D01*
X152735040Y-82171506D01*
X152814236Y-82432580D01*
X152942843Y-82673187D01*
X153115919Y-82884080D01*
X153326812Y-83057157D01*
X153567419Y-83185764D01*
X153828493Y-83264960D01*
X154100000Y-83291701D01*
X154371506Y-83264960D01*
X154632580Y-83185764D01*
X154873187Y-83057157D01*
X155084080Y-82884081D01*
X155257157Y-82673188D01*
X155385764Y-82432581D01*
X155464960Y-82171507D01*
X155485000Y-81968037D01*
X155485000Y-81769910D01*
X155584988Y-82011302D01*
X155818637Y-82360983D01*
X156116017Y-82658363D01*
X156465698Y-82892012D01*
X156854244Y-83052953D01*
X157266721Y-83135000D01*
X157687279Y-83135000D01*
X158099756Y-83052953D01*
X158488302Y-82892012D01*
X158837983Y-82658363D01*
X159135363Y-82360983D01*
X159369012Y-82011302D01*
X159529953Y-81622756D01*
X159612000Y-81210279D01*
X159612000Y-80789721D01*
X159529953Y-80377244D01*
X159386933Y-80031963D01*
X161015000Y-80031963D01*
X161015000Y-81968036D01*
X161035040Y-82171506D01*
X161114236Y-82432580D01*
X161242843Y-82673187D01*
X161415919Y-82884080D01*
X161626812Y-83057157D01*
X161867419Y-83185764D01*
X162128493Y-83264960D01*
X162400000Y-83291701D01*
X162671506Y-83264960D01*
X162932580Y-83185764D01*
X163173187Y-83057157D01*
X163384080Y-82884081D01*
X163557157Y-82673188D01*
X163685764Y-82432581D01*
X163764960Y-82171507D01*
X163785000Y-81968037D01*
X163785000Y-80031963D01*
X163764960Y-79828493D01*
X163685764Y-79567419D01*
X163557157Y-79326812D01*
X163384081Y-79115919D01*
X163173188Y-78942843D01*
X162932581Y-78814236D01*
X162671507Y-78735040D01*
X162400000Y-78708299D01*
X162128494Y-78735040D01*
X161867420Y-78814236D01*
X161626813Y-78942843D01*
X161415920Y-79115919D01*
X161242844Y-79326812D01*
X161114237Y-79567419D01*
X161035041Y-79828493D01*
X161015000Y-80031963D01*
X159386933Y-80031963D01*
X159369012Y-79988698D01*
X159135363Y-79639017D01*
X158837983Y-79341637D01*
X158488302Y-79107988D01*
X158099756Y-78947047D01*
X157687279Y-78865000D01*
X157266721Y-78865000D01*
X156854244Y-78947047D01*
X156465698Y-79107988D01*
X156116017Y-79341637D01*
X155818637Y-79639017D01*
X155584988Y-79988698D01*
X155485000Y-80230090D01*
X155485000Y-80031963D01*
X155464960Y-79828493D01*
X155385764Y-79567419D01*
X155257157Y-79326812D01*
X155084081Y-79115919D01*
X154873188Y-78942843D01*
X154632581Y-78814236D01*
X154371507Y-78735040D01*
X154100000Y-78708299D01*
X153828494Y-78735040D01*
X153567420Y-78814236D01*
X153326813Y-78942843D01*
X153115920Y-79115919D01*
X152942844Y-79326812D01*
X152814237Y-79567419D01*
X152735041Y-79828493D01*
X152715000Y-80031963D01*
X152552773Y-80031963D01*
X152540812Y-79910518D01*
X152504502Y-79790820D01*
X152445537Y-79680506D01*
X152366185Y-79583815D01*
X152269494Y-79504463D01*
X152159180Y-79445498D01*
X152039482Y-79409188D01*
X151915000Y-79396928D01*
X151285750Y-79400000D01*
X151127000Y-79558750D01*
X150873000Y-79558750D01*
X150714250Y-79400000D01*
X150660000Y-79399735D01*
X150660000Y-70600265D01*
X150714250Y-70600000D01*
X150873000Y-70441250D01*
X150873000Y-69127000D01*
X151127000Y-69127000D01*
X151127000Y-70441250D01*
X151285750Y-70600000D01*
X151915000Y-70603072D01*
X152039482Y-70590812D01*
X152159180Y-70554502D01*
X152269494Y-70495537D01*
X152366185Y-70416185D01*
X152445537Y-70319494D01*
X152504502Y-70209180D01*
X152540812Y-70089482D01*
X152553072Y-69965000D01*
X152550000Y-69285750D01*
X152391250Y-69127000D01*
X151127000Y-69127000D01*
X150873000Y-69127000D01*
X150853000Y-69127000D01*
X150853000Y-68873000D01*
X150873000Y-68873000D01*
X150873000Y-67558750D01*
X151127000Y-67558750D01*
X151127000Y-68873000D01*
X152391250Y-68873000D01*
X152550000Y-68714250D01*
X152553072Y-68035000D01*
X152552773Y-68031963D01*
X152715000Y-68031963D01*
X152715000Y-69968036D01*
X152735040Y-70171506D01*
X152814236Y-70432580D01*
X152942843Y-70673187D01*
X153115919Y-70884080D01*
X153326812Y-71057157D01*
X153567419Y-71185764D01*
X153828493Y-71264960D01*
X154100000Y-71291701D01*
X154371506Y-71264960D01*
X154632580Y-71185764D01*
X154873187Y-71057157D01*
X155084080Y-70884081D01*
X155257157Y-70673188D01*
X155385764Y-70432581D01*
X155464960Y-70171507D01*
X155485000Y-69968037D01*
X155485000Y-69769910D01*
X155584988Y-70011302D01*
X155818637Y-70360983D01*
X156116017Y-70658363D01*
X156465698Y-70892012D01*
X156854244Y-71052953D01*
X157266721Y-71135000D01*
X157687279Y-71135000D01*
X158099756Y-71052953D01*
X158488302Y-70892012D01*
X158837983Y-70658363D01*
X159135363Y-70360983D01*
X159369012Y-70011302D01*
X159529953Y-69622756D01*
X159612000Y-69210279D01*
X159612000Y-68789721D01*
X159529953Y-68377244D01*
X159386933Y-68031963D01*
X161015000Y-68031963D01*
X161015000Y-69968036D01*
X161035040Y-70171506D01*
X161114236Y-70432580D01*
X161242843Y-70673187D01*
X161415919Y-70884080D01*
X161626812Y-71057157D01*
X161867419Y-71185764D01*
X162128493Y-71264960D01*
X162400000Y-71291701D01*
X162671506Y-71264960D01*
X162932580Y-71185764D01*
X163173187Y-71057157D01*
X163384080Y-70884081D01*
X163557157Y-70673188D01*
X163685764Y-70432581D01*
X163764960Y-70171507D01*
X163785000Y-69968037D01*
X163785000Y-68031963D01*
X163764960Y-67828493D01*
X163685764Y-67567419D01*
X163557157Y-67326812D01*
X163384081Y-67115919D01*
X163173188Y-66942843D01*
X162932581Y-66814236D01*
X162671507Y-66735040D01*
X162400000Y-66708299D01*
X162128494Y-66735040D01*
X161867420Y-66814236D01*
X161626813Y-66942843D01*
X161415920Y-67115919D01*
X161242844Y-67326812D01*
X161114237Y-67567419D01*
X161035041Y-67828493D01*
X161015000Y-68031963D01*
X159386933Y-68031963D01*
X159369012Y-67988698D01*
X159135363Y-67639017D01*
X158837983Y-67341637D01*
X158488302Y-67107988D01*
X158099756Y-66947047D01*
X157687279Y-66865000D01*
X157266721Y-66865000D01*
X156854244Y-66947047D01*
X156465698Y-67107988D01*
X156116017Y-67341637D01*
X155818637Y-67639017D01*
X155584988Y-67988698D01*
X155485000Y-68230090D01*
X155485000Y-68031963D01*
X155464960Y-67828493D01*
X155385764Y-67567419D01*
X155257157Y-67326812D01*
X155084081Y-67115919D01*
X154873188Y-66942843D01*
X154632581Y-66814236D01*
X154371507Y-66735040D01*
X154100000Y-66708299D01*
X153828494Y-66735040D01*
X153567420Y-66814236D01*
X153326813Y-66942843D01*
X153115920Y-67115919D01*
X152942844Y-67326812D01*
X152814237Y-67567419D01*
X152735041Y-67828493D01*
X152715000Y-68031963D01*
X152552773Y-68031963D01*
X152540812Y-67910518D01*
X152504502Y-67790820D01*
X152445537Y-67680506D01*
X152366185Y-67583815D01*
X152269494Y-67504463D01*
X152159180Y-67445498D01*
X152039482Y-67409188D01*
X151915000Y-67396928D01*
X151285750Y-67400000D01*
X151127000Y-67558750D01*
X150873000Y-67558750D01*
X150714250Y-67400000D01*
X150660000Y-67399735D01*
X150660000Y-58600265D01*
X150714250Y-58600000D01*
X150873000Y-58441250D01*
X150873000Y-57127000D01*
X151127000Y-57127000D01*
X151127000Y-58441250D01*
X151285750Y-58600000D01*
X151915000Y-58603072D01*
X152039482Y-58590812D01*
X152159180Y-58554502D01*
X152269494Y-58495537D01*
X152366185Y-58416185D01*
X152445537Y-58319494D01*
X152504502Y-58209180D01*
X152540812Y-58089482D01*
X152553072Y-57965000D01*
X152550000Y-57285750D01*
X152391250Y-57127000D01*
X151127000Y-57127000D01*
X150873000Y-57127000D01*
X150853000Y-57127000D01*
X150853000Y-56873000D01*
X150873000Y-56873000D01*
X150873000Y-55558750D01*
X151127000Y-55558750D01*
X151127000Y-56873000D01*
X152391250Y-56873000D01*
X152550000Y-56714250D01*
X152553072Y-56035000D01*
X152552773Y-56031963D01*
X152715000Y-56031963D01*
X152715000Y-57968036D01*
X152735040Y-58171506D01*
X152814236Y-58432580D01*
X152942843Y-58673187D01*
X153115919Y-58884080D01*
X153326812Y-59057157D01*
X153567419Y-59185764D01*
X153828493Y-59264960D01*
X154100000Y-59291701D01*
X154371506Y-59264960D01*
X154632580Y-59185764D01*
X154873187Y-59057157D01*
X155084080Y-58884081D01*
X155257157Y-58673188D01*
X155385764Y-58432581D01*
X155464960Y-58171507D01*
X155485000Y-57968037D01*
X155485000Y-57769910D01*
X155584988Y-58011302D01*
X155818637Y-58360983D01*
X156116017Y-58658363D01*
X156465698Y-58892012D01*
X156854244Y-59052953D01*
X157266721Y-59135000D01*
X157687279Y-59135000D01*
X158099756Y-59052953D01*
X158488302Y-58892012D01*
X158837983Y-58658363D01*
X159135363Y-58360983D01*
X159369012Y-58011302D01*
X159529953Y-57622756D01*
X159612000Y-57210279D01*
X159612000Y-56789721D01*
X159529953Y-56377244D01*
X159386933Y-56031963D01*
X161015000Y-56031963D01*
X161015000Y-57968036D01*
X161035040Y-58171506D01*
X161114236Y-58432580D01*
X161242843Y-58673187D01*
X161415919Y-58884080D01*
X161626812Y-59057157D01*
X161867419Y-59185764D01*
X162128493Y-59264960D01*
X162400000Y-59291701D01*
X162671506Y-59264960D01*
X162932580Y-59185764D01*
X163173187Y-59057157D01*
X163384080Y-58884081D01*
X163557157Y-58673188D01*
X163685764Y-58432581D01*
X163764960Y-58171507D01*
X163785000Y-57968037D01*
X163785000Y-56031963D01*
X163764960Y-55828493D01*
X163685764Y-55567419D01*
X163557157Y-55326812D01*
X163384081Y-55115919D01*
X163173188Y-54942843D01*
X162932581Y-54814236D01*
X162671507Y-54735040D01*
X162400000Y-54708299D01*
X162128494Y-54735040D01*
X161867420Y-54814236D01*
X161626813Y-54942843D01*
X161415920Y-55115919D01*
X161242844Y-55326812D01*
X161114237Y-55567419D01*
X161035041Y-55828493D01*
X161015000Y-56031963D01*
X159386933Y-56031963D01*
X159369012Y-55988698D01*
X159135363Y-55639017D01*
X158837983Y-55341637D01*
X158488302Y-55107988D01*
X158099756Y-54947047D01*
X157687279Y-54865000D01*
X157266721Y-54865000D01*
X156854244Y-54947047D01*
X156465698Y-55107988D01*
X156116017Y-55341637D01*
X155818637Y-55639017D01*
X155584988Y-55988698D01*
X155485000Y-56230090D01*
X155485000Y-56031963D01*
X155464960Y-55828493D01*
X155385764Y-55567419D01*
X155257157Y-55326812D01*
X155084081Y-55115919D01*
X154873188Y-54942843D01*
X154632581Y-54814236D01*
X154371507Y-54735040D01*
X154100000Y-54708299D01*
X153828494Y-54735040D01*
X153567420Y-54814236D01*
X153326813Y-54942843D01*
X153115920Y-55115919D01*
X152942844Y-55326812D01*
X152814237Y-55567419D01*
X152735041Y-55828493D01*
X152715000Y-56031963D01*
X152552773Y-56031963D01*
X152540812Y-55910518D01*
X152504502Y-55790820D01*
X152445537Y-55680506D01*
X152366185Y-55583815D01*
X152269494Y-55504463D01*
X152159180Y-55445498D01*
X152039482Y-55409188D01*
X151915000Y-55396928D01*
X151285750Y-55400000D01*
X151127000Y-55558750D01*
X150873000Y-55558750D01*
X150714250Y-55400000D01*
X150660000Y-55399735D01*
X150660000Y-46600377D01*
X150737250Y-46600000D01*
X150896000Y-46441250D01*
X150896000Y-45127000D01*
X151150000Y-45127000D01*
X151150000Y-46441250D01*
X151308750Y-46600000D01*
X151938000Y-46603072D01*
X152062482Y-46590812D01*
X152182180Y-46554502D01*
X152292494Y-46495537D01*
X152389185Y-46416185D01*
X152468537Y-46319494D01*
X152527502Y-46209180D01*
X152563812Y-46089482D01*
X152576072Y-45965000D01*
X152573000Y-45285750D01*
X152414250Y-45127000D01*
X151150000Y-45127000D01*
X150896000Y-45127000D01*
X150876000Y-45127000D01*
X150876000Y-44873000D01*
X150896000Y-44873000D01*
X150896000Y-43558750D01*
X151150000Y-43558750D01*
X151150000Y-44873000D01*
X152414250Y-44873000D01*
X152573000Y-44714250D01*
X152576072Y-44035000D01*
X152575773Y-44031963D01*
X152738000Y-44031963D01*
X152738000Y-45968036D01*
X152758040Y-46171506D01*
X152837236Y-46432580D01*
X152965843Y-46673187D01*
X153138919Y-46884080D01*
X153349812Y-47057157D01*
X153590419Y-47185764D01*
X153851493Y-47264960D01*
X154123000Y-47291701D01*
X154394506Y-47264960D01*
X154655580Y-47185764D01*
X154896187Y-47057157D01*
X155107080Y-46884081D01*
X155280157Y-46673188D01*
X155408764Y-46432581D01*
X155487960Y-46171507D01*
X155508000Y-45968037D01*
X155508000Y-45769910D01*
X155607988Y-46011302D01*
X155841637Y-46360983D01*
X156139017Y-46658363D01*
X156488698Y-46892012D01*
X156877244Y-47052953D01*
X157289721Y-47135000D01*
X157710279Y-47135000D01*
X158122756Y-47052953D01*
X158511302Y-46892012D01*
X158860983Y-46658363D01*
X159158363Y-46360983D01*
X159392012Y-46011302D01*
X159552953Y-45622756D01*
X159635000Y-45210279D01*
X159635000Y-44789721D01*
X159552953Y-44377244D01*
X159409933Y-44031963D01*
X161038000Y-44031963D01*
X161038000Y-45968036D01*
X161058040Y-46171506D01*
X161137236Y-46432580D01*
X161265843Y-46673187D01*
X161438919Y-46884080D01*
X161649812Y-47057157D01*
X161890419Y-47185764D01*
X162151493Y-47264960D01*
X162423000Y-47291701D01*
X162694506Y-47264960D01*
X162955580Y-47185764D01*
X163196187Y-47057157D01*
X163407080Y-46884081D01*
X163580157Y-46673188D01*
X163708764Y-46432581D01*
X163787960Y-46171507D01*
X163808000Y-45968037D01*
X163808000Y-44031963D01*
X163787960Y-43828493D01*
X163708764Y-43567419D01*
X163580157Y-43326812D01*
X163407081Y-43115919D01*
X163196188Y-42942843D01*
X162955581Y-42814236D01*
X162694507Y-42735040D01*
X162423000Y-42708299D01*
X162151494Y-42735040D01*
X161890420Y-42814236D01*
X161649813Y-42942843D01*
X161438920Y-43115919D01*
X161265844Y-43326812D01*
X161137237Y-43567419D01*
X161058041Y-43828493D01*
X161038000Y-44031963D01*
X159409933Y-44031963D01*
X159392012Y-43988698D01*
X159158363Y-43639017D01*
X158860983Y-43341637D01*
X158511302Y-43107988D01*
X158122756Y-42947047D01*
X157710279Y-42865000D01*
X157289721Y-42865000D01*
X156877244Y-42947047D01*
X156488698Y-43107988D01*
X156139017Y-43341637D01*
X155841637Y-43639017D01*
X155607988Y-43988698D01*
X155508000Y-44230090D01*
X155508000Y-44031963D01*
X155487960Y-43828493D01*
X155408764Y-43567419D01*
X155280157Y-43326812D01*
X155107081Y-43115919D01*
X154896188Y-42942843D01*
X154655581Y-42814236D01*
X154394507Y-42735040D01*
X154123000Y-42708299D01*
X153851494Y-42735040D01*
X153590420Y-42814236D01*
X153349813Y-42942843D01*
X153138920Y-43115919D01*
X152965844Y-43326812D01*
X152837237Y-43567419D01*
X152758041Y-43828493D01*
X152738000Y-44031963D01*
X152575773Y-44031963D01*
X152563812Y-43910518D01*
X152527502Y-43790820D01*
X152468537Y-43680506D01*
X152389185Y-43583815D01*
X152292494Y-43504463D01*
X152182180Y-43445498D01*
X152062482Y-43409188D01*
X151938000Y-43396928D01*
X151308750Y-43400000D01*
X151150000Y-43558750D01*
X150896000Y-43558750D01*
X150737250Y-43400000D01*
X150660000Y-43399623D01*
X150660000Y-40660000D01*
X164340000Y-40660000D01*
X164340001Y-139340000D01*
M02*
