G04 #@! TF.GenerationSoftware,KiCad,Pcbnew,(5.1.4)-1*
G04 #@! TF.CreationDate,2019-11-26T21:34:17-08:00*
G04 #@! TF.ProjectId,PassiveMultiples,50617373-6976-4654-9d75-6c7469706c65,rev?*
G04 #@! TF.SameCoordinates,Original*
G04 #@! TF.FileFunction,Soldermask,Bot*
G04 #@! TF.FilePolarity,Negative*
%FSLAX46Y46*%
G04 Gerber Fmt 4.6, Leading zero omitted, Abs format (unit mm)*
G04 Created by KiCad (PCBNEW (5.1.4)-1) date 2019-11-26 21:34:17*
%MOMM*%
%LPD*%
G04 APERTURE LIST*
%ADD10C,0.100000*%
G04 APERTURE END LIST*
D10*
G36*
X153957023Y-133310590D02*
G01*
X154057682Y-133341125D01*
X154108013Y-133356392D01*
X154247165Y-133430771D01*
X154369133Y-133530867D01*
X154469229Y-133652835D01*
X154543608Y-133791987D01*
X154544601Y-133795260D01*
X154589410Y-133942977D01*
X154601000Y-134060655D01*
X154601000Y-135939345D01*
X154589410Y-136057023D01*
X154558875Y-136157682D01*
X154543608Y-136208013D01*
X154469230Y-136347164D01*
X154469229Y-136347165D01*
X154369133Y-136469133D01*
X154269376Y-136551000D01*
X154247164Y-136569229D01*
X154108012Y-136643608D01*
X154057681Y-136658875D01*
X153957022Y-136689410D01*
X153800000Y-136704875D01*
X153642977Y-136689410D01*
X153542318Y-136658875D01*
X153491987Y-136643608D01*
X153352835Y-136569229D01*
X153257995Y-136491396D01*
X153230867Y-136469133D01*
X153130771Y-136347164D01*
X153056393Y-136208013D01*
X153056392Y-136208012D01*
X153041125Y-136157681D01*
X153010590Y-136057022D01*
X152999000Y-135939344D01*
X152999001Y-134060655D01*
X153010591Y-133942977D01*
X153055400Y-133795260D01*
X153056393Y-133791987D01*
X153130772Y-133652835D01*
X153230868Y-133530867D01*
X153352836Y-133430771D01*
X153491988Y-133356392D01*
X153542319Y-133341125D01*
X153642978Y-133310590D01*
X153800000Y-133295125D01*
X153957023Y-133310590D01*
X153957023Y-133310590D01*
G37*
G36*
X162257023Y-133310590D02*
G01*
X162357682Y-133341125D01*
X162408013Y-133356392D01*
X162547165Y-133430771D01*
X162669133Y-133530867D01*
X162769229Y-133652835D01*
X162843608Y-133791987D01*
X162844601Y-133795260D01*
X162889410Y-133942977D01*
X162901000Y-134060655D01*
X162901000Y-135939345D01*
X162889410Y-136057023D01*
X162858875Y-136157682D01*
X162843608Y-136208013D01*
X162769230Y-136347164D01*
X162769229Y-136347165D01*
X162669133Y-136469133D01*
X162569376Y-136551000D01*
X162547164Y-136569229D01*
X162408012Y-136643608D01*
X162357681Y-136658875D01*
X162257022Y-136689410D01*
X162100000Y-136704875D01*
X161942977Y-136689410D01*
X161842318Y-136658875D01*
X161791987Y-136643608D01*
X161652835Y-136569229D01*
X161557995Y-136491396D01*
X161530867Y-136469133D01*
X161430771Y-136347164D01*
X161356393Y-136208013D01*
X161356392Y-136208012D01*
X161341125Y-136157681D01*
X161310590Y-136057022D01*
X161299000Y-135939344D01*
X161299001Y-134060655D01*
X161310591Y-133942977D01*
X161355400Y-133795260D01*
X161356393Y-133791987D01*
X161430772Y-133652835D01*
X161530868Y-133530867D01*
X161652836Y-133430771D01*
X161791988Y-133356392D01*
X161842319Y-133341125D01*
X161942978Y-133310590D01*
X162100000Y-133295125D01*
X162257023Y-133310590D01*
X162257023Y-133310590D01*
G37*
G36*
X157479585Y-133478802D02*
G01*
X157629410Y-133508604D01*
X157911674Y-133625521D01*
X158165705Y-133795259D01*
X158381741Y-134011295D01*
X158551479Y-134265326D01*
X158668396Y-134547590D01*
X158728000Y-134847240D01*
X158728000Y-135152760D01*
X158668396Y-135452410D01*
X158551479Y-135734674D01*
X158381741Y-135988705D01*
X158165705Y-136204741D01*
X157911674Y-136374479D01*
X157629410Y-136491396D01*
X157479585Y-136521198D01*
X157329761Y-136551000D01*
X157024239Y-136551000D01*
X156874415Y-136521198D01*
X156724590Y-136491396D01*
X156442326Y-136374479D01*
X156188295Y-136204741D01*
X155972259Y-135988705D01*
X155802521Y-135734674D01*
X155685604Y-135452410D01*
X155626000Y-135152760D01*
X155626000Y-134847240D01*
X155685604Y-134547590D01*
X155802521Y-134265326D01*
X155972259Y-134011295D01*
X156188295Y-133795259D01*
X156442326Y-133625521D01*
X156724590Y-133508604D01*
X156874415Y-133478802D01*
X157024239Y-133449000D01*
X157329761Y-133449000D01*
X157479585Y-133478802D01*
X157479585Y-133478802D01*
G37*
G36*
X151666000Y-136016000D02*
G01*
X149734000Y-136016000D01*
X149734000Y-133984000D01*
X151666000Y-133984000D01*
X151666000Y-136016000D01*
X151666000Y-136016000D01*
G37*
G36*
X153957023Y-121310590D02*
G01*
X154057682Y-121341125D01*
X154108013Y-121356392D01*
X154247165Y-121430771D01*
X154369133Y-121530867D01*
X154469229Y-121652835D01*
X154543608Y-121791987D01*
X154544601Y-121795260D01*
X154589410Y-121942977D01*
X154601000Y-122060655D01*
X154601000Y-123939345D01*
X154589410Y-124057023D01*
X154558875Y-124157682D01*
X154543608Y-124208013D01*
X154469230Y-124347164D01*
X154469229Y-124347165D01*
X154369133Y-124469133D01*
X154269376Y-124551000D01*
X154247164Y-124569229D01*
X154108012Y-124643608D01*
X154057681Y-124658875D01*
X153957022Y-124689410D01*
X153800000Y-124704875D01*
X153642977Y-124689410D01*
X153542318Y-124658875D01*
X153491987Y-124643608D01*
X153352835Y-124569229D01*
X153257995Y-124491396D01*
X153230867Y-124469133D01*
X153130771Y-124347164D01*
X153056393Y-124208013D01*
X153056392Y-124208012D01*
X153041125Y-124157681D01*
X153010590Y-124057022D01*
X152999000Y-123939344D01*
X152999001Y-122060655D01*
X153010591Y-121942977D01*
X153055400Y-121795260D01*
X153056393Y-121791987D01*
X153130772Y-121652835D01*
X153230868Y-121530867D01*
X153352836Y-121430771D01*
X153491988Y-121356392D01*
X153542319Y-121341125D01*
X153642978Y-121310590D01*
X153800000Y-121295125D01*
X153957023Y-121310590D01*
X153957023Y-121310590D01*
G37*
G36*
X162257023Y-121310590D02*
G01*
X162357682Y-121341125D01*
X162408013Y-121356392D01*
X162547165Y-121430771D01*
X162669133Y-121530867D01*
X162769229Y-121652835D01*
X162843608Y-121791987D01*
X162844601Y-121795260D01*
X162889410Y-121942977D01*
X162901000Y-122060655D01*
X162901000Y-123939345D01*
X162889410Y-124057023D01*
X162858875Y-124157682D01*
X162843608Y-124208013D01*
X162769230Y-124347164D01*
X162769229Y-124347165D01*
X162669133Y-124469133D01*
X162569376Y-124551000D01*
X162547164Y-124569229D01*
X162408012Y-124643608D01*
X162357681Y-124658875D01*
X162257022Y-124689410D01*
X162100000Y-124704875D01*
X161942977Y-124689410D01*
X161842318Y-124658875D01*
X161791987Y-124643608D01*
X161652835Y-124569229D01*
X161557995Y-124491396D01*
X161530867Y-124469133D01*
X161430771Y-124347164D01*
X161356393Y-124208013D01*
X161356392Y-124208012D01*
X161341125Y-124157681D01*
X161310590Y-124057022D01*
X161299000Y-123939344D01*
X161299001Y-122060655D01*
X161310591Y-121942977D01*
X161355400Y-121795260D01*
X161356393Y-121791987D01*
X161430772Y-121652835D01*
X161530868Y-121530867D01*
X161652836Y-121430771D01*
X161791988Y-121356392D01*
X161842319Y-121341125D01*
X161942978Y-121310590D01*
X162100000Y-121295125D01*
X162257023Y-121310590D01*
X162257023Y-121310590D01*
G37*
G36*
X157479585Y-121478802D02*
G01*
X157629410Y-121508604D01*
X157911674Y-121625521D01*
X158165705Y-121795259D01*
X158381741Y-122011295D01*
X158551479Y-122265326D01*
X158668396Y-122547590D01*
X158728000Y-122847240D01*
X158728000Y-123152760D01*
X158668396Y-123452410D01*
X158551479Y-123734674D01*
X158381741Y-123988705D01*
X158165705Y-124204741D01*
X157911674Y-124374479D01*
X157629410Y-124491396D01*
X157479585Y-124521198D01*
X157329761Y-124551000D01*
X157024239Y-124551000D01*
X156874415Y-124521198D01*
X156724590Y-124491396D01*
X156442326Y-124374479D01*
X156188295Y-124204741D01*
X155972259Y-123988705D01*
X155802521Y-123734674D01*
X155685604Y-123452410D01*
X155626000Y-123152760D01*
X155626000Y-122847240D01*
X155685604Y-122547590D01*
X155802521Y-122265326D01*
X155972259Y-122011295D01*
X156188295Y-121795259D01*
X156442326Y-121625521D01*
X156724590Y-121508604D01*
X156874415Y-121478802D01*
X157024239Y-121449000D01*
X157329761Y-121449000D01*
X157479585Y-121478802D01*
X157479585Y-121478802D01*
G37*
G36*
X151666000Y-124016000D02*
G01*
X149734000Y-124016000D01*
X149734000Y-121984000D01*
X151666000Y-121984000D01*
X151666000Y-124016000D01*
X151666000Y-124016000D01*
G37*
G36*
X153957023Y-109310590D02*
G01*
X154057682Y-109341125D01*
X154108013Y-109356392D01*
X154247165Y-109430771D01*
X154369133Y-109530867D01*
X154469229Y-109652835D01*
X154543608Y-109791987D01*
X154544601Y-109795260D01*
X154589410Y-109942977D01*
X154601000Y-110060655D01*
X154601000Y-111939345D01*
X154589410Y-112057023D01*
X154558875Y-112157682D01*
X154543608Y-112208013D01*
X154469230Y-112347164D01*
X154469229Y-112347165D01*
X154369133Y-112469133D01*
X154269376Y-112551000D01*
X154247164Y-112569229D01*
X154108012Y-112643608D01*
X154057681Y-112658875D01*
X153957022Y-112689410D01*
X153800000Y-112704875D01*
X153642977Y-112689410D01*
X153542318Y-112658875D01*
X153491987Y-112643608D01*
X153352835Y-112569229D01*
X153257995Y-112491396D01*
X153230867Y-112469133D01*
X153130771Y-112347164D01*
X153056393Y-112208013D01*
X153056392Y-112208012D01*
X153041125Y-112157681D01*
X153010590Y-112057022D01*
X152999000Y-111939344D01*
X152999001Y-110060655D01*
X153010591Y-109942977D01*
X153055400Y-109795260D01*
X153056393Y-109791987D01*
X153130772Y-109652835D01*
X153230868Y-109530867D01*
X153352836Y-109430771D01*
X153491988Y-109356392D01*
X153542319Y-109341125D01*
X153642978Y-109310590D01*
X153800000Y-109295125D01*
X153957023Y-109310590D01*
X153957023Y-109310590D01*
G37*
G36*
X162257023Y-109310590D02*
G01*
X162357682Y-109341125D01*
X162408013Y-109356392D01*
X162547165Y-109430771D01*
X162669133Y-109530867D01*
X162769229Y-109652835D01*
X162843608Y-109791987D01*
X162844601Y-109795260D01*
X162889410Y-109942977D01*
X162901000Y-110060655D01*
X162901000Y-111939345D01*
X162889410Y-112057023D01*
X162858875Y-112157682D01*
X162843608Y-112208013D01*
X162769230Y-112347164D01*
X162769229Y-112347165D01*
X162669133Y-112469133D01*
X162569376Y-112551000D01*
X162547164Y-112569229D01*
X162408012Y-112643608D01*
X162357681Y-112658875D01*
X162257022Y-112689410D01*
X162100000Y-112704875D01*
X161942977Y-112689410D01*
X161842318Y-112658875D01*
X161791987Y-112643608D01*
X161652835Y-112569229D01*
X161557995Y-112491396D01*
X161530867Y-112469133D01*
X161430771Y-112347164D01*
X161356393Y-112208013D01*
X161356392Y-112208012D01*
X161341125Y-112157681D01*
X161310590Y-112057022D01*
X161299000Y-111939344D01*
X161299001Y-110060655D01*
X161310591Y-109942977D01*
X161355400Y-109795260D01*
X161356393Y-109791987D01*
X161430772Y-109652835D01*
X161530868Y-109530867D01*
X161652836Y-109430771D01*
X161791988Y-109356392D01*
X161842319Y-109341125D01*
X161942978Y-109310590D01*
X162100000Y-109295125D01*
X162257023Y-109310590D01*
X162257023Y-109310590D01*
G37*
G36*
X157479585Y-109478802D02*
G01*
X157629410Y-109508604D01*
X157911674Y-109625521D01*
X158165705Y-109795259D01*
X158381741Y-110011295D01*
X158551479Y-110265326D01*
X158668396Y-110547590D01*
X158728000Y-110847240D01*
X158728000Y-111152760D01*
X158668396Y-111452410D01*
X158551479Y-111734674D01*
X158381741Y-111988705D01*
X158165705Y-112204741D01*
X157911674Y-112374479D01*
X157629410Y-112491396D01*
X157479585Y-112521198D01*
X157329761Y-112551000D01*
X157024239Y-112551000D01*
X156874415Y-112521198D01*
X156724590Y-112491396D01*
X156442326Y-112374479D01*
X156188295Y-112204741D01*
X155972259Y-111988705D01*
X155802521Y-111734674D01*
X155685604Y-111452410D01*
X155626000Y-111152760D01*
X155626000Y-110847240D01*
X155685604Y-110547590D01*
X155802521Y-110265326D01*
X155972259Y-110011295D01*
X156188295Y-109795259D01*
X156442326Y-109625521D01*
X156724590Y-109508604D01*
X156874415Y-109478802D01*
X157024239Y-109449000D01*
X157329761Y-109449000D01*
X157479585Y-109478802D01*
X157479585Y-109478802D01*
G37*
G36*
X151666000Y-112016000D02*
G01*
X149734000Y-112016000D01*
X149734000Y-109984000D01*
X151666000Y-109984000D01*
X151666000Y-112016000D01*
X151666000Y-112016000D01*
G37*
G36*
X153957023Y-97310590D02*
G01*
X154057682Y-97341125D01*
X154108013Y-97356392D01*
X154247165Y-97430771D01*
X154369133Y-97530867D01*
X154469229Y-97652835D01*
X154543608Y-97791987D01*
X154544601Y-97795260D01*
X154589410Y-97942977D01*
X154601000Y-98060655D01*
X154601000Y-99939345D01*
X154589410Y-100057023D01*
X154558875Y-100157682D01*
X154543608Y-100208013D01*
X154469230Y-100347164D01*
X154469229Y-100347165D01*
X154369133Y-100469133D01*
X154269376Y-100551000D01*
X154247164Y-100569229D01*
X154108012Y-100643608D01*
X154057681Y-100658875D01*
X153957022Y-100689410D01*
X153800000Y-100704875D01*
X153642977Y-100689410D01*
X153542318Y-100658875D01*
X153491987Y-100643608D01*
X153352835Y-100569229D01*
X153257995Y-100491396D01*
X153230867Y-100469133D01*
X153130771Y-100347164D01*
X153056393Y-100208013D01*
X153056392Y-100208012D01*
X153041125Y-100157681D01*
X153010590Y-100057022D01*
X152999000Y-99939344D01*
X152999001Y-98060655D01*
X153010591Y-97942977D01*
X153055400Y-97795260D01*
X153056393Y-97791987D01*
X153130772Y-97652835D01*
X153230868Y-97530867D01*
X153352836Y-97430771D01*
X153491988Y-97356392D01*
X153542319Y-97341125D01*
X153642978Y-97310590D01*
X153800000Y-97295125D01*
X153957023Y-97310590D01*
X153957023Y-97310590D01*
G37*
G36*
X162257023Y-97310590D02*
G01*
X162357682Y-97341125D01*
X162408013Y-97356392D01*
X162547165Y-97430771D01*
X162669133Y-97530867D01*
X162769229Y-97652835D01*
X162843608Y-97791987D01*
X162844601Y-97795260D01*
X162889410Y-97942977D01*
X162901000Y-98060655D01*
X162901000Y-99939345D01*
X162889410Y-100057023D01*
X162858875Y-100157682D01*
X162843608Y-100208013D01*
X162769230Y-100347164D01*
X162769229Y-100347165D01*
X162669133Y-100469133D01*
X162569376Y-100551000D01*
X162547164Y-100569229D01*
X162408012Y-100643608D01*
X162357681Y-100658875D01*
X162257022Y-100689410D01*
X162100000Y-100704875D01*
X161942977Y-100689410D01*
X161842318Y-100658875D01*
X161791987Y-100643608D01*
X161652835Y-100569229D01*
X161557995Y-100491396D01*
X161530867Y-100469133D01*
X161430771Y-100347164D01*
X161356393Y-100208013D01*
X161356392Y-100208012D01*
X161341125Y-100157681D01*
X161310590Y-100057022D01*
X161299000Y-99939344D01*
X161299001Y-98060655D01*
X161310591Y-97942977D01*
X161355400Y-97795260D01*
X161356393Y-97791987D01*
X161430772Y-97652835D01*
X161530868Y-97530867D01*
X161652836Y-97430771D01*
X161791988Y-97356392D01*
X161842319Y-97341125D01*
X161942978Y-97310590D01*
X162100000Y-97295125D01*
X162257023Y-97310590D01*
X162257023Y-97310590D01*
G37*
G36*
X157479585Y-97478802D02*
G01*
X157629410Y-97508604D01*
X157911674Y-97625521D01*
X158165705Y-97795259D01*
X158381741Y-98011295D01*
X158551479Y-98265326D01*
X158668396Y-98547590D01*
X158728000Y-98847240D01*
X158728000Y-99152760D01*
X158668396Y-99452410D01*
X158551479Y-99734674D01*
X158381741Y-99988705D01*
X158165705Y-100204741D01*
X157911674Y-100374479D01*
X157629410Y-100491396D01*
X157479585Y-100521198D01*
X157329761Y-100551000D01*
X157024239Y-100551000D01*
X156874415Y-100521198D01*
X156724590Y-100491396D01*
X156442326Y-100374479D01*
X156188295Y-100204741D01*
X155972259Y-99988705D01*
X155802521Y-99734674D01*
X155685604Y-99452410D01*
X155626000Y-99152760D01*
X155626000Y-98847240D01*
X155685604Y-98547590D01*
X155802521Y-98265326D01*
X155972259Y-98011295D01*
X156188295Y-97795259D01*
X156442326Y-97625521D01*
X156724590Y-97508604D01*
X156874415Y-97478802D01*
X157024239Y-97449000D01*
X157329761Y-97449000D01*
X157479585Y-97478802D01*
X157479585Y-97478802D01*
G37*
G36*
X151666000Y-100016000D02*
G01*
X149734000Y-100016000D01*
X149734000Y-97984000D01*
X151666000Y-97984000D01*
X151666000Y-100016000D01*
X151666000Y-100016000D01*
G37*
G36*
X160737142Y-91758242D02*
G01*
X160885101Y-91819529D01*
X161018255Y-91908499D01*
X161131501Y-92021745D01*
X161220471Y-92154899D01*
X161281758Y-92302858D01*
X161313000Y-92459925D01*
X161313000Y-92620075D01*
X161281758Y-92777142D01*
X161220471Y-92925101D01*
X161131501Y-93058255D01*
X161018255Y-93171501D01*
X160885101Y-93260471D01*
X160737142Y-93321758D01*
X160580075Y-93353000D01*
X160419925Y-93353000D01*
X160262858Y-93321758D01*
X160114899Y-93260471D01*
X159981745Y-93171501D01*
X159868499Y-93058255D01*
X159779529Y-92925101D01*
X159718242Y-92777142D01*
X159687000Y-92620075D01*
X159687000Y-92459925D01*
X159718242Y-92302858D01*
X159779529Y-92154899D01*
X159868499Y-92021745D01*
X159981745Y-91908499D01*
X160114899Y-91819529D01*
X160262858Y-91758242D01*
X160419925Y-91727000D01*
X160580075Y-91727000D01*
X160737142Y-91758242D01*
X160737142Y-91758242D01*
G37*
G36*
X154737142Y-91758242D02*
G01*
X154885101Y-91819529D01*
X155018255Y-91908499D01*
X155131501Y-92021745D01*
X155220471Y-92154899D01*
X155281758Y-92302858D01*
X155313000Y-92459925D01*
X155313000Y-92620075D01*
X155281758Y-92777142D01*
X155220471Y-92925101D01*
X155131501Y-93058255D01*
X155018255Y-93171501D01*
X154885101Y-93260471D01*
X154737142Y-93321758D01*
X154580075Y-93353000D01*
X154419925Y-93353000D01*
X154262858Y-93321758D01*
X154114899Y-93260471D01*
X153981745Y-93171501D01*
X153868499Y-93058255D01*
X153779529Y-92925101D01*
X153718242Y-92777142D01*
X153687000Y-92620075D01*
X153687000Y-92459925D01*
X153718242Y-92302858D01*
X153779529Y-92154899D01*
X153868499Y-92021745D01*
X153981745Y-91908499D01*
X154114899Y-91819529D01*
X154262858Y-91758242D01*
X154419925Y-91727000D01*
X154580075Y-91727000D01*
X154737142Y-91758242D01*
X154737142Y-91758242D01*
G37*
G36*
X154737142Y-89218242D02*
G01*
X154885101Y-89279529D01*
X155018255Y-89368499D01*
X155131501Y-89481745D01*
X155220471Y-89614899D01*
X155281758Y-89762858D01*
X155313000Y-89919925D01*
X155313000Y-90080075D01*
X155281758Y-90237142D01*
X155220471Y-90385101D01*
X155131501Y-90518255D01*
X155018255Y-90631501D01*
X154885101Y-90720471D01*
X154737142Y-90781758D01*
X154580075Y-90813000D01*
X154419925Y-90813000D01*
X154262858Y-90781758D01*
X154114899Y-90720471D01*
X153981745Y-90631501D01*
X153868499Y-90518255D01*
X153779529Y-90385101D01*
X153718242Y-90237142D01*
X153687000Y-90080075D01*
X153687000Y-89919925D01*
X153718242Y-89762858D01*
X153779529Y-89614899D01*
X153868499Y-89481745D01*
X153981745Y-89368499D01*
X154114899Y-89279529D01*
X154262858Y-89218242D01*
X154419925Y-89187000D01*
X154580075Y-89187000D01*
X154737142Y-89218242D01*
X154737142Y-89218242D01*
G37*
G36*
X160737142Y-89218242D02*
G01*
X160885101Y-89279529D01*
X161018255Y-89368499D01*
X161131501Y-89481745D01*
X161220471Y-89614899D01*
X161281758Y-89762858D01*
X161313000Y-89919925D01*
X161313000Y-90080075D01*
X161281758Y-90237142D01*
X161220471Y-90385101D01*
X161131501Y-90518255D01*
X161018255Y-90631501D01*
X160885101Y-90720471D01*
X160737142Y-90781758D01*
X160580075Y-90813000D01*
X160419925Y-90813000D01*
X160262858Y-90781758D01*
X160114899Y-90720471D01*
X159981745Y-90631501D01*
X159868499Y-90518255D01*
X159779529Y-90385101D01*
X159718242Y-90237142D01*
X159687000Y-90080075D01*
X159687000Y-89919925D01*
X159718242Y-89762858D01*
X159779529Y-89614899D01*
X159868499Y-89481745D01*
X159981745Y-89368499D01*
X160114899Y-89279529D01*
X160262858Y-89218242D01*
X160419925Y-89187000D01*
X160580075Y-89187000D01*
X160737142Y-89218242D01*
X160737142Y-89218242D01*
G37*
G36*
X160737142Y-86678242D02*
G01*
X160885101Y-86739529D01*
X161018255Y-86828499D01*
X161131501Y-86941745D01*
X161220471Y-87074899D01*
X161281758Y-87222858D01*
X161313000Y-87379925D01*
X161313000Y-87540075D01*
X161281758Y-87697142D01*
X161220471Y-87845101D01*
X161131501Y-87978255D01*
X161018255Y-88091501D01*
X160885101Y-88180471D01*
X160737142Y-88241758D01*
X160580075Y-88273000D01*
X160419925Y-88273000D01*
X160262858Y-88241758D01*
X160114899Y-88180471D01*
X159981745Y-88091501D01*
X159868499Y-87978255D01*
X159779529Y-87845101D01*
X159718242Y-87697142D01*
X159687000Y-87540075D01*
X159687000Y-87379925D01*
X159718242Y-87222858D01*
X159779529Y-87074899D01*
X159868499Y-86941745D01*
X159981745Y-86828499D01*
X160114899Y-86739529D01*
X160262858Y-86678242D01*
X160419925Y-86647000D01*
X160580075Y-86647000D01*
X160737142Y-86678242D01*
X160737142Y-86678242D01*
G37*
G36*
X154737142Y-86678242D02*
G01*
X154885101Y-86739529D01*
X155018255Y-86828499D01*
X155131501Y-86941745D01*
X155220471Y-87074899D01*
X155281758Y-87222858D01*
X155313000Y-87379925D01*
X155313000Y-87540075D01*
X155281758Y-87697142D01*
X155220471Y-87845101D01*
X155131501Y-87978255D01*
X155018255Y-88091501D01*
X154885101Y-88180471D01*
X154737142Y-88241758D01*
X154580075Y-88273000D01*
X154419925Y-88273000D01*
X154262858Y-88241758D01*
X154114899Y-88180471D01*
X153981745Y-88091501D01*
X153868499Y-87978255D01*
X153779529Y-87845101D01*
X153718242Y-87697142D01*
X153687000Y-87540075D01*
X153687000Y-87379925D01*
X153718242Y-87222858D01*
X153779529Y-87074899D01*
X153868499Y-86941745D01*
X153981745Y-86828499D01*
X154114899Y-86739529D01*
X154262858Y-86678242D01*
X154419925Y-86647000D01*
X154580075Y-86647000D01*
X154737142Y-86678242D01*
X154737142Y-86678242D01*
G37*
G36*
X153957023Y-79310590D02*
G01*
X154057682Y-79341125D01*
X154108013Y-79356392D01*
X154247165Y-79430771D01*
X154369133Y-79530867D01*
X154469229Y-79652835D01*
X154543608Y-79791987D01*
X154544601Y-79795260D01*
X154589410Y-79942977D01*
X154601000Y-80060655D01*
X154601000Y-81939345D01*
X154589410Y-82057023D01*
X154558875Y-82157682D01*
X154543608Y-82208013D01*
X154469230Y-82347164D01*
X154469229Y-82347165D01*
X154369133Y-82469133D01*
X154269376Y-82551000D01*
X154247164Y-82569229D01*
X154108012Y-82643608D01*
X154057681Y-82658875D01*
X153957022Y-82689410D01*
X153800000Y-82704875D01*
X153642977Y-82689410D01*
X153542318Y-82658875D01*
X153491987Y-82643608D01*
X153352835Y-82569229D01*
X153257995Y-82491396D01*
X153230867Y-82469133D01*
X153130771Y-82347164D01*
X153056393Y-82208013D01*
X153056392Y-82208012D01*
X153041125Y-82157681D01*
X153010590Y-82057022D01*
X152999000Y-81939344D01*
X152999001Y-80060655D01*
X153010591Y-79942977D01*
X153055400Y-79795260D01*
X153056393Y-79791987D01*
X153130772Y-79652835D01*
X153230868Y-79530867D01*
X153352836Y-79430771D01*
X153491988Y-79356392D01*
X153542319Y-79341125D01*
X153642978Y-79310590D01*
X153800000Y-79295125D01*
X153957023Y-79310590D01*
X153957023Y-79310590D01*
G37*
G36*
X162257023Y-79310590D02*
G01*
X162357682Y-79341125D01*
X162408013Y-79356392D01*
X162547165Y-79430771D01*
X162669133Y-79530867D01*
X162769229Y-79652835D01*
X162843608Y-79791987D01*
X162844601Y-79795260D01*
X162889410Y-79942977D01*
X162901000Y-80060655D01*
X162901000Y-81939345D01*
X162889410Y-82057023D01*
X162858875Y-82157682D01*
X162843608Y-82208013D01*
X162769230Y-82347164D01*
X162769229Y-82347165D01*
X162669133Y-82469133D01*
X162569376Y-82551000D01*
X162547164Y-82569229D01*
X162408012Y-82643608D01*
X162357681Y-82658875D01*
X162257022Y-82689410D01*
X162100000Y-82704875D01*
X161942977Y-82689410D01*
X161842318Y-82658875D01*
X161791987Y-82643608D01*
X161652835Y-82569229D01*
X161557995Y-82491396D01*
X161530867Y-82469133D01*
X161430771Y-82347164D01*
X161356393Y-82208013D01*
X161356392Y-82208012D01*
X161341125Y-82157681D01*
X161310590Y-82057022D01*
X161299000Y-81939344D01*
X161299001Y-80060655D01*
X161310591Y-79942977D01*
X161355400Y-79795260D01*
X161356393Y-79791987D01*
X161430772Y-79652835D01*
X161530868Y-79530867D01*
X161652836Y-79430771D01*
X161791988Y-79356392D01*
X161842319Y-79341125D01*
X161942978Y-79310590D01*
X162100000Y-79295125D01*
X162257023Y-79310590D01*
X162257023Y-79310590D01*
G37*
G36*
X157479585Y-79478802D02*
G01*
X157629410Y-79508604D01*
X157911674Y-79625521D01*
X158165705Y-79795259D01*
X158381741Y-80011295D01*
X158551479Y-80265326D01*
X158668396Y-80547590D01*
X158728000Y-80847240D01*
X158728000Y-81152760D01*
X158668396Y-81452410D01*
X158551479Y-81734674D01*
X158381741Y-81988705D01*
X158165705Y-82204741D01*
X157911674Y-82374479D01*
X157629410Y-82491396D01*
X157479585Y-82521198D01*
X157329761Y-82551000D01*
X157024239Y-82551000D01*
X156874415Y-82521198D01*
X156724590Y-82491396D01*
X156442326Y-82374479D01*
X156188295Y-82204741D01*
X155972259Y-81988705D01*
X155802521Y-81734674D01*
X155685604Y-81452410D01*
X155626000Y-81152760D01*
X155626000Y-80847240D01*
X155685604Y-80547590D01*
X155802521Y-80265326D01*
X155972259Y-80011295D01*
X156188295Y-79795259D01*
X156442326Y-79625521D01*
X156724590Y-79508604D01*
X156874415Y-79478802D01*
X157024239Y-79449000D01*
X157329761Y-79449000D01*
X157479585Y-79478802D01*
X157479585Y-79478802D01*
G37*
G36*
X151666000Y-82016000D02*
G01*
X149734000Y-82016000D01*
X149734000Y-79984000D01*
X151666000Y-79984000D01*
X151666000Y-82016000D01*
X151666000Y-82016000D01*
G37*
G36*
X153957023Y-67310590D02*
G01*
X154057682Y-67341125D01*
X154108013Y-67356392D01*
X154247165Y-67430771D01*
X154369133Y-67530867D01*
X154469229Y-67652835D01*
X154543608Y-67791987D01*
X154544601Y-67795260D01*
X154589410Y-67942977D01*
X154601000Y-68060655D01*
X154601000Y-69939345D01*
X154589410Y-70057023D01*
X154558875Y-70157682D01*
X154543608Y-70208013D01*
X154469230Y-70347164D01*
X154469229Y-70347165D01*
X154369133Y-70469133D01*
X154269376Y-70551000D01*
X154247164Y-70569229D01*
X154108012Y-70643608D01*
X154057681Y-70658875D01*
X153957022Y-70689410D01*
X153800000Y-70704875D01*
X153642977Y-70689410D01*
X153542318Y-70658875D01*
X153491987Y-70643608D01*
X153352835Y-70569229D01*
X153257995Y-70491396D01*
X153230867Y-70469133D01*
X153130771Y-70347164D01*
X153056393Y-70208013D01*
X153056392Y-70208012D01*
X153041125Y-70157681D01*
X153010590Y-70057022D01*
X152999000Y-69939344D01*
X152999001Y-68060655D01*
X153010591Y-67942977D01*
X153055400Y-67795260D01*
X153056393Y-67791987D01*
X153130772Y-67652835D01*
X153230868Y-67530867D01*
X153352836Y-67430771D01*
X153491988Y-67356392D01*
X153542319Y-67341125D01*
X153642978Y-67310590D01*
X153800000Y-67295125D01*
X153957023Y-67310590D01*
X153957023Y-67310590D01*
G37*
G36*
X162257023Y-67310590D02*
G01*
X162357682Y-67341125D01*
X162408013Y-67356392D01*
X162547165Y-67430771D01*
X162669133Y-67530867D01*
X162769229Y-67652835D01*
X162843608Y-67791987D01*
X162844601Y-67795260D01*
X162889410Y-67942977D01*
X162901000Y-68060655D01*
X162901000Y-69939345D01*
X162889410Y-70057023D01*
X162858875Y-70157682D01*
X162843608Y-70208013D01*
X162769230Y-70347164D01*
X162769229Y-70347165D01*
X162669133Y-70469133D01*
X162569376Y-70551000D01*
X162547164Y-70569229D01*
X162408012Y-70643608D01*
X162357681Y-70658875D01*
X162257022Y-70689410D01*
X162100000Y-70704875D01*
X161942977Y-70689410D01*
X161842318Y-70658875D01*
X161791987Y-70643608D01*
X161652835Y-70569229D01*
X161557995Y-70491396D01*
X161530867Y-70469133D01*
X161430771Y-70347164D01*
X161356393Y-70208013D01*
X161356392Y-70208012D01*
X161341125Y-70157681D01*
X161310590Y-70057022D01*
X161299000Y-69939344D01*
X161299001Y-68060655D01*
X161310591Y-67942977D01*
X161355400Y-67795260D01*
X161356393Y-67791987D01*
X161430772Y-67652835D01*
X161530868Y-67530867D01*
X161652836Y-67430771D01*
X161791988Y-67356392D01*
X161842319Y-67341125D01*
X161942978Y-67310590D01*
X162100000Y-67295125D01*
X162257023Y-67310590D01*
X162257023Y-67310590D01*
G37*
G36*
X157479585Y-67478802D02*
G01*
X157629410Y-67508604D01*
X157911674Y-67625521D01*
X158165705Y-67795259D01*
X158381741Y-68011295D01*
X158551479Y-68265326D01*
X158668396Y-68547590D01*
X158728000Y-68847240D01*
X158728000Y-69152760D01*
X158668396Y-69452410D01*
X158551479Y-69734674D01*
X158381741Y-69988705D01*
X158165705Y-70204741D01*
X157911674Y-70374479D01*
X157629410Y-70491396D01*
X157479585Y-70521198D01*
X157329761Y-70551000D01*
X157024239Y-70551000D01*
X156874415Y-70521198D01*
X156724590Y-70491396D01*
X156442326Y-70374479D01*
X156188295Y-70204741D01*
X155972259Y-69988705D01*
X155802521Y-69734674D01*
X155685604Y-69452410D01*
X155626000Y-69152760D01*
X155626000Y-68847240D01*
X155685604Y-68547590D01*
X155802521Y-68265326D01*
X155972259Y-68011295D01*
X156188295Y-67795259D01*
X156442326Y-67625521D01*
X156724590Y-67508604D01*
X156874415Y-67478802D01*
X157024239Y-67449000D01*
X157329761Y-67449000D01*
X157479585Y-67478802D01*
X157479585Y-67478802D01*
G37*
G36*
X151666000Y-70016000D02*
G01*
X149734000Y-70016000D01*
X149734000Y-67984000D01*
X151666000Y-67984000D01*
X151666000Y-70016000D01*
X151666000Y-70016000D01*
G37*
G36*
X153957023Y-55310590D02*
G01*
X154057682Y-55341125D01*
X154108013Y-55356392D01*
X154247165Y-55430771D01*
X154369133Y-55530867D01*
X154469229Y-55652835D01*
X154543608Y-55791987D01*
X154544601Y-55795260D01*
X154589410Y-55942977D01*
X154601000Y-56060655D01*
X154601000Y-57939345D01*
X154589410Y-58057023D01*
X154558875Y-58157682D01*
X154543608Y-58208013D01*
X154469230Y-58347164D01*
X154469229Y-58347165D01*
X154369133Y-58469133D01*
X154269376Y-58551000D01*
X154247164Y-58569229D01*
X154108012Y-58643608D01*
X154057681Y-58658875D01*
X153957022Y-58689410D01*
X153800000Y-58704875D01*
X153642977Y-58689410D01*
X153542318Y-58658875D01*
X153491987Y-58643608D01*
X153352835Y-58569229D01*
X153257995Y-58491396D01*
X153230867Y-58469133D01*
X153130771Y-58347164D01*
X153056393Y-58208013D01*
X153056392Y-58208012D01*
X153041125Y-58157681D01*
X153010590Y-58057022D01*
X152999000Y-57939344D01*
X152999001Y-56060655D01*
X153010591Y-55942977D01*
X153055400Y-55795260D01*
X153056393Y-55791987D01*
X153130772Y-55652835D01*
X153230868Y-55530867D01*
X153352836Y-55430771D01*
X153491988Y-55356392D01*
X153542319Y-55341125D01*
X153642978Y-55310590D01*
X153800000Y-55295125D01*
X153957023Y-55310590D01*
X153957023Y-55310590D01*
G37*
G36*
X162257023Y-55310590D02*
G01*
X162357682Y-55341125D01*
X162408013Y-55356392D01*
X162547165Y-55430771D01*
X162669133Y-55530867D01*
X162769229Y-55652835D01*
X162843608Y-55791987D01*
X162844601Y-55795260D01*
X162889410Y-55942977D01*
X162901000Y-56060655D01*
X162901000Y-57939345D01*
X162889410Y-58057023D01*
X162858875Y-58157682D01*
X162843608Y-58208013D01*
X162769230Y-58347164D01*
X162769229Y-58347165D01*
X162669133Y-58469133D01*
X162569376Y-58551000D01*
X162547164Y-58569229D01*
X162408012Y-58643608D01*
X162357681Y-58658875D01*
X162257022Y-58689410D01*
X162100000Y-58704875D01*
X161942977Y-58689410D01*
X161842318Y-58658875D01*
X161791987Y-58643608D01*
X161652835Y-58569229D01*
X161557995Y-58491396D01*
X161530867Y-58469133D01*
X161430771Y-58347164D01*
X161356393Y-58208013D01*
X161356392Y-58208012D01*
X161341125Y-58157681D01*
X161310590Y-58057022D01*
X161299000Y-57939344D01*
X161299001Y-56060655D01*
X161310591Y-55942977D01*
X161355400Y-55795260D01*
X161356393Y-55791987D01*
X161430772Y-55652835D01*
X161530868Y-55530867D01*
X161652836Y-55430771D01*
X161791988Y-55356392D01*
X161842319Y-55341125D01*
X161942978Y-55310590D01*
X162100000Y-55295125D01*
X162257023Y-55310590D01*
X162257023Y-55310590D01*
G37*
G36*
X157479585Y-55478802D02*
G01*
X157629410Y-55508604D01*
X157911674Y-55625521D01*
X158165705Y-55795259D01*
X158381741Y-56011295D01*
X158551479Y-56265326D01*
X158668396Y-56547590D01*
X158728000Y-56847240D01*
X158728000Y-57152760D01*
X158668396Y-57452410D01*
X158551479Y-57734674D01*
X158381741Y-57988705D01*
X158165705Y-58204741D01*
X157911674Y-58374479D01*
X157629410Y-58491396D01*
X157479585Y-58521198D01*
X157329761Y-58551000D01*
X157024239Y-58551000D01*
X156874415Y-58521198D01*
X156724590Y-58491396D01*
X156442326Y-58374479D01*
X156188295Y-58204741D01*
X155972259Y-57988705D01*
X155802521Y-57734674D01*
X155685604Y-57452410D01*
X155626000Y-57152760D01*
X155626000Y-56847240D01*
X155685604Y-56547590D01*
X155802521Y-56265326D01*
X155972259Y-56011295D01*
X156188295Y-55795259D01*
X156442326Y-55625521D01*
X156724590Y-55508604D01*
X156874415Y-55478802D01*
X157024239Y-55449000D01*
X157329761Y-55449000D01*
X157479585Y-55478802D01*
X157479585Y-55478802D01*
G37*
G36*
X151666000Y-58016000D02*
G01*
X149734000Y-58016000D01*
X149734000Y-55984000D01*
X151666000Y-55984000D01*
X151666000Y-58016000D01*
X151666000Y-58016000D01*
G37*
G36*
X162257023Y-43310590D02*
G01*
X162357682Y-43341125D01*
X162408013Y-43356392D01*
X162547165Y-43430771D01*
X162669133Y-43530867D01*
X162769229Y-43652835D01*
X162843608Y-43791987D01*
X162844601Y-43795260D01*
X162889410Y-43942977D01*
X162901000Y-44060655D01*
X162901000Y-45939345D01*
X162889410Y-46057023D01*
X162858875Y-46157682D01*
X162843608Y-46208013D01*
X162769230Y-46347164D01*
X162769229Y-46347165D01*
X162669133Y-46469133D01*
X162569376Y-46551000D01*
X162547164Y-46569229D01*
X162408012Y-46643608D01*
X162357681Y-46658875D01*
X162257022Y-46689410D01*
X162100000Y-46704875D01*
X161942977Y-46689410D01*
X161842318Y-46658875D01*
X161791987Y-46643608D01*
X161652835Y-46569229D01*
X161557995Y-46491396D01*
X161530867Y-46469133D01*
X161430771Y-46347164D01*
X161356393Y-46208013D01*
X161356392Y-46208012D01*
X161341125Y-46157681D01*
X161310590Y-46057022D01*
X161299000Y-45939344D01*
X161299001Y-44060655D01*
X161310591Y-43942977D01*
X161355400Y-43795260D01*
X161356393Y-43791987D01*
X161430772Y-43652835D01*
X161530868Y-43530867D01*
X161652836Y-43430771D01*
X161791988Y-43356392D01*
X161842319Y-43341125D01*
X161942978Y-43310590D01*
X162100000Y-43295125D01*
X162257023Y-43310590D01*
X162257023Y-43310590D01*
G37*
G36*
X153957023Y-43310590D02*
G01*
X154057682Y-43341125D01*
X154108013Y-43356392D01*
X154247165Y-43430771D01*
X154369133Y-43530867D01*
X154469229Y-43652835D01*
X154543608Y-43791987D01*
X154544601Y-43795260D01*
X154589410Y-43942977D01*
X154601000Y-44060655D01*
X154601000Y-45939345D01*
X154589410Y-46057023D01*
X154558875Y-46157682D01*
X154543608Y-46208013D01*
X154469230Y-46347164D01*
X154469229Y-46347165D01*
X154369133Y-46469133D01*
X154269376Y-46551000D01*
X154247164Y-46569229D01*
X154108012Y-46643608D01*
X154057681Y-46658875D01*
X153957022Y-46689410D01*
X153800000Y-46704875D01*
X153642977Y-46689410D01*
X153542318Y-46658875D01*
X153491987Y-46643608D01*
X153352835Y-46569229D01*
X153257995Y-46491396D01*
X153230867Y-46469133D01*
X153130771Y-46347164D01*
X153056393Y-46208013D01*
X153056392Y-46208012D01*
X153041125Y-46157681D01*
X153010590Y-46057022D01*
X152999000Y-45939344D01*
X152999001Y-44060655D01*
X153010591Y-43942977D01*
X153055400Y-43795260D01*
X153056393Y-43791987D01*
X153130772Y-43652835D01*
X153230868Y-43530867D01*
X153352836Y-43430771D01*
X153491988Y-43356392D01*
X153542319Y-43341125D01*
X153642978Y-43310590D01*
X153800000Y-43295125D01*
X153957023Y-43310590D01*
X153957023Y-43310590D01*
G37*
G36*
X157479585Y-43478802D02*
G01*
X157629410Y-43508604D01*
X157911674Y-43625521D01*
X158165705Y-43795259D01*
X158381741Y-44011295D01*
X158551479Y-44265326D01*
X158668396Y-44547590D01*
X158728000Y-44847240D01*
X158728000Y-45152760D01*
X158668396Y-45452410D01*
X158551479Y-45734674D01*
X158381741Y-45988705D01*
X158165705Y-46204741D01*
X157911674Y-46374479D01*
X157629410Y-46491396D01*
X157479585Y-46521198D01*
X157329761Y-46551000D01*
X157024239Y-46551000D01*
X156874415Y-46521198D01*
X156724590Y-46491396D01*
X156442326Y-46374479D01*
X156188295Y-46204741D01*
X155972259Y-45988705D01*
X155802521Y-45734674D01*
X155685604Y-45452410D01*
X155626000Y-45152760D01*
X155626000Y-44847240D01*
X155685604Y-44547590D01*
X155802521Y-44265326D01*
X155972259Y-44011295D01*
X156188295Y-43795259D01*
X156442326Y-43625521D01*
X156724590Y-43508604D01*
X156874415Y-43478802D01*
X157024239Y-43449000D01*
X157329761Y-43449000D01*
X157479585Y-43478802D01*
X157479585Y-43478802D01*
G37*
G36*
X151666000Y-46016000D02*
G01*
X149734000Y-46016000D01*
X149734000Y-43984000D01*
X151666000Y-43984000D01*
X151666000Y-46016000D01*
X151666000Y-46016000D01*
G37*
M02*
