M48
INCH
T1C0.0276
T2C0.0295
T3C0.0480
%
G90
G05
T1
X6.0827Y-3.4433
X6.0827Y-3.5433
X6.0827Y-3.6433
X6.3189Y-3.4433
X6.3189Y-3.5433
X6.3189Y-3.6433
T3
X5.9449Y-3.189
X5.9449Y-2.7165
X5.9458Y-1.7717
X5.9449Y-4.8425
X5.9449Y-3.8976
X5.9449Y-2.2441
X5.9449Y-4.3701
X5.9458Y-5.315
T2
G00X6.0678Y-1.7372
M15
G01X6.0678Y-1.8061
M16
G05
G00X6.3946Y-1.7372
M15
G01X6.3946Y-1.8061
M16
G05
G00X6.0669Y-4.8081
M15
G01X6.0669Y-4.877
M16
G05
G00X6.3937Y-4.8081
M15
G01X6.3937Y-4.877
M16
G05
G00X6.0669Y-3.8632
M15
G01X6.0669Y-3.9321
M16
G05
G00X6.3937Y-3.8632
M15
G01X6.3937Y-3.9321
M16
G05
G00X6.0669Y-2.2096
M15
G01X6.0669Y-2.2785
M16
G05
G00X6.3937Y-2.2096
M15
G01X6.3937Y-2.2785
M16
G05
G00X6.0669Y-4.3356
M15
G01X6.0669Y-4.4045
M16
G05
G00X6.3937Y-4.3356
M15
G01X6.3937Y-4.4045
M16
G05
G00X6.0678Y-5.2805
M15
G01X6.0678Y-5.3494
M16
G05
G00X6.3946Y-5.2805
M15
G01X6.3946Y-5.3494
M16
G05
G00X6.0669Y-3.1545
M15
G01X6.0669Y-3.2234
M16
G05
G00X6.3937Y-3.1545
M15
G01X6.3937Y-3.2234
M16
G05
G00X6.0669Y-2.6821
M15
G01X6.0669Y-2.751
M16
G05
G00X6.3937Y-2.6821
M15
G01X6.3937Y-2.751
M16
G05
T0
M30
