G04 #@! TF.GenerationSoftware,KiCad,Pcbnew,(5.1.4)-1*
G04 #@! TF.CreationDate,2019-11-25T22:11:09-08:00*
G04 #@! TF.ProjectId,PassiveMultiples,50617373-6976-4654-9d75-6c7469706c65,rev?*
G04 #@! TF.SameCoordinates,Original*
G04 #@! TF.FileFunction,Legend,Top*
G04 #@! TF.FilePolarity,Positive*
%FSLAX46Y46*%
G04 Gerber Fmt 4.6, Leading zero omitted, Abs format (unit mm)*
G04 Created by KiCad (PCBNEW (5.1.4)-1) date 2019-11-25 22:11:09*
%MOMM*%
%LPD*%
G04 APERTURE LIST*
%ADD10C,0.150000*%
%ADD11C,0.120000*%
G04 APERTURE END LIST*
D10*
X153500000Y-94000000D02*
X153500000Y-90000000D01*
X161500000Y-94000000D02*
X153500000Y-94000000D01*
X161500000Y-86000000D02*
X161500000Y-94000000D01*
X153500000Y-86000000D02*
X161500000Y-86000000D01*
X153500000Y-90000000D02*
X153500000Y-86000000D01*
D11*
X153003000Y-49500000D02*
X163503000Y-49500000D01*
X153003000Y-40500000D02*
X163503000Y-40500000D01*
X163503000Y-40500000D02*
X163503000Y-44500000D01*
X163503000Y-45500000D02*
X163503000Y-49500000D01*
X153003000Y-40500000D02*
X153003000Y-44650000D01*
X153003000Y-45350000D02*
X153003000Y-49500000D01*
X159303000Y-45000000D02*
G75*
G03X159303000Y-45000000I-1800000J0D01*
G01*
X150023000Y-46060000D02*
X150823000Y-46060000D01*
X150023000Y-46060000D02*
X150023000Y-45200000D01*
X152980000Y-61500000D02*
X163480000Y-61500000D01*
X152980000Y-52500000D02*
X163480000Y-52500000D01*
X163480000Y-52500000D02*
X163480000Y-56500000D01*
X163480000Y-57500000D02*
X163480000Y-61500000D01*
X152980000Y-52500000D02*
X152980000Y-56650000D01*
X152980000Y-57350000D02*
X152980000Y-61500000D01*
X159280000Y-57000000D02*
G75*
G03X159280000Y-57000000I-1800000J0D01*
G01*
X150000000Y-58060000D02*
X150800000Y-58060000D01*
X150000000Y-58060000D02*
X150000000Y-57200000D01*
X152980000Y-73500000D02*
X163480000Y-73500000D01*
X152980000Y-64500000D02*
X163480000Y-64500000D01*
X163480000Y-64500000D02*
X163480000Y-68500000D01*
X163480000Y-69500000D02*
X163480000Y-73500000D01*
X152980000Y-64500000D02*
X152980000Y-68650000D01*
X152980000Y-69350000D02*
X152980000Y-73500000D01*
X159280000Y-69000000D02*
G75*
G03X159280000Y-69000000I-1800000J0D01*
G01*
X150000000Y-70060000D02*
X150800000Y-70060000D01*
X150000000Y-70060000D02*
X150000000Y-69200000D01*
X152980000Y-85500000D02*
X163480000Y-85500000D01*
X152980000Y-76500000D02*
X163480000Y-76500000D01*
X163480000Y-76500000D02*
X163480000Y-80500000D01*
X163480000Y-81500000D02*
X163480000Y-85500000D01*
X152980000Y-76500000D02*
X152980000Y-80650000D01*
X152980000Y-81350000D02*
X152980000Y-85500000D01*
X159280000Y-81000000D02*
G75*
G03X159280000Y-81000000I-1800000J0D01*
G01*
X150000000Y-82060000D02*
X150800000Y-82060000D01*
X150000000Y-82060000D02*
X150000000Y-81200000D01*
X152980000Y-103500000D02*
X163480000Y-103500000D01*
X152980000Y-94500000D02*
X163480000Y-94500000D01*
X163480000Y-94500000D02*
X163480000Y-98500000D01*
X163480000Y-99500000D02*
X163480000Y-103500000D01*
X152980000Y-94500000D02*
X152980000Y-98650000D01*
X152980000Y-99350000D02*
X152980000Y-103500000D01*
X159280000Y-99000000D02*
G75*
G03X159280000Y-99000000I-1800000J0D01*
G01*
X150000000Y-100060000D02*
X150800000Y-100060000D01*
X150000000Y-100060000D02*
X150000000Y-99200000D01*
X152980000Y-115500000D02*
X163480000Y-115500000D01*
X152980000Y-106500000D02*
X163480000Y-106500000D01*
X163480000Y-106500000D02*
X163480000Y-110500000D01*
X163480000Y-111500000D02*
X163480000Y-115500000D01*
X152980000Y-106500000D02*
X152980000Y-110650000D01*
X152980000Y-111350000D02*
X152980000Y-115500000D01*
X159280000Y-111000000D02*
G75*
G03X159280000Y-111000000I-1800000J0D01*
G01*
X150000000Y-112060000D02*
X150800000Y-112060000D01*
X150000000Y-112060000D02*
X150000000Y-111200000D01*
X152980000Y-127500000D02*
X163480000Y-127500000D01*
X152980000Y-118500000D02*
X163480000Y-118500000D01*
X163480000Y-118500000D02*
X163480000Y-122500000D01*
X163480000Y-123500000D02*
X163480000Y-127500000D01*
X152980000Y-118500000D02*
X152980000Y-122650000D01*
X152980000Y-123350000D02*
X152980000Y-127500000D01*
X159280000Y-123000000D02*
G75*
G03X159280000Y-123000000I-1800000J0D01*
G01*
X150000000Y-124060000D02*
X150800000Y-124060000D01*
X150000000Y-124060000D02*
X150000000Y-123200000D01*
X153003000Y-139500000D02*
X163503000Y-139500000D01*
X153003000Y-130500000D02*
X163503000Y-130500000D01*
X163503000Y-130500000D02*
X163503000Y-134500000D01*
X163503000Y-135500000D02*
X163503000Y-139500000D01*
X153003000Y-130500000D02*
X153003000Y-134650000D01*
X153003000Y-135350000D02*
X153003000Y-139500000D01*
X159303000Y-135000000D02*
G75*
G03X159303000Y-135000000I-1800000J0D01*
G01*
X150023000Y-136060000D02*
X150823000Y-136060000D01*
X150023000Y-136060000D02*
X150023000Y-135200000D01*
D10*
X153404761Y-91333333D02*
X153452380Y-91190476D01*
X153452380Y-90952380D01*
X153404761Y-90857142D01*
X153357142Y-90809523D01*
X153261904Y-90761904D01*
X153166666Y-90761904D01*
X153071428Y-90809523D01*
X153023809Y-90857142D01*
X152976190Y-90952380D01*
X152928571Y-91142857D01*
X152880952Y-91238095D01*
X152833333Y-91285714D01*
X152738095Y-91333333D01*
X152642857Y-91333333D01*
X152547619Y-91285714D01*
X152500000Y-91238095D01*
X152452380Y-91142857D01*
X152452380Y-90904761D01*
X152500000Y-90761904D01*
X152452380Y-90428571D02*
X153452380Y-90190476D01*
X152738095Y-90000000D01*
X153452380Y-89809523D01*
X152452380Y-89571428D01*
X153452380Y-88666666D02*
X153452380Y-89238095D01*
X153452380Y-88952380D02*
X152452380Y-88952380D01*
X152595238Y-89047619D01*
X152690476Y-89142857D01*
X152738095Y-89238095D01*
X151555380Y-49363333D02*
X152269666Y-49363333D01*
X152412523Y-49410952D01*
X152507761Y-49506190D01*
X152555380Y-49649047D01*
X152555380Y-49744285D01*
X152555380Y-48363333D02*
X152555380Y-48934761D01*
X152555380Y-48649047D02*
X151555380Y-48649047D01*
X151698238Y-48744285D01*
X151793476Y-48839523D01*
X151841095Y-48934761D01*
X151532380Y-61363333D02*
X152246666Y-61363333D01*
X152389523Y-61410952D01*
X152484761Y-61506190D01*
X152532380Y-61649047D01*
X152532380Y-61744285D01*
X151627619Y-60934761D02*
X151580000Y-60887142D01*
X151532380Y-60791904D01*
X151532380Y-60553809D01*
X151580000Y-60458571D01*
X151627619Y-60410952D01*
X151722857Y-60363333D01*
X151818095Y-60363333D01*
X151960952Y-60410952D01*
X152532380Y-60982380D01*
X152532380Y-60363333D01*
X151532380Y-73363333D02*
X152246666Y-73363333D01*
X152389523Y-73410952D01*
X152484761Y-73506190D01*
X152532380Y-73649047D01*
X152532380Y-73744285D01*
X151532380Y-72982380D02*
X151532380Y-72363333D01*
X151913333Y-72696666D01*
X151913333Y-72553809D01*
X151960952Y-72458571D01*
X152008571Y-72410952D01*
X152103809Y-72363333D01*
X152341904Y-72363333D01*
X152437142Y-72410952D01*
X152484761Y-72458571D01*
X152532380Y-72553809D01*
X152532380Y-72839523D01*
X152484761Y-72934761D01*
X152437142Y-72982380D01*
X151532380Y-85363333D02*
X152246666Y-85363333D01*
X152389523Y-85410952D01*
X152484761Y-85506190D01*
X152532380Y-85649047D01*
X152532380Y-85744285D01*
X151865714Y-84458571D02*
X152532380Y-84458571D01*
X151484761Y-84696666D02*
X152199047Y-84934761D01*
X152199047Y-84315714D01*
X151532380Y-103363333D02*
X152246666Y-103363333D01*
X152389523Y-103410952D01*
X152484761Y-103506190D01*
X152532380Y-103649047D01*
X152532380Y-103744285D01*
X151532380Y-102410952D02*
X151532380Y-102887142D01*
X152008571Y-102934761D01*
X151960952Y-102887142D01*
X151913333Y-102791904D01*
X151913333Y-102553809D01*
X151960952Y-102458571D01*
X152008571Y-102410952D01*
X152103809Y-102363333D01*
X152341904Y-102363333D01*
X152437142Y-102410952D01*
X152484761Y-102458571D01*
X152532380Y-102553809D01*
X152532380Y-102791904D01*
X152484761Y-102887142D01*
X152437142Y-102934761D01*
X151532380Y-115363333D02*
X152246666Y-115363333D01*
X152389523Y-115410952D01*
X152484761Y-115506190D01*
X152532380Y-115649047D01*
X152532380Y-115744285D01*
X151532380Y-114458571D02*
X151532380Y-114649047D01*
X151580000Y-114744285D01*
X151627619Y-114791904D01*
X151770476Y-114887142D01*
X151960952Y-114934761D01*
X152341904Y-114934761D01*
X152437142Y-114887142D01*
X152484761Y-114839523D01*
X152532380Y-114744285D01*
X152532380Y-114553809D01*
X152484761Y-114458571D01*
X152437142Y-114410952D01*
X152341904Y-114363333D01*
X152103809Y-114363333D01*
X152008571Y-114410952D01*
X151960952Y-114458571D01*
X151913333Y-114553809D01*
X151913333Y-114744285D01*
X151960952Y-114839523D01*
X152008571Y-114887142D01*
X152103809Y-114934761D01*
X151532380Y-127363333D02*
X152246666Y-127363333D01*
X152389523Y-127410952D01*
X152484761Y-127506190D01*
X152532380Y-127649047D01*
X152532380Y-127744285D01*
X151532380Y-126982380D02*
X151532380Y-126315714D01*
X152532380Y-126744285D01*
X151555380Y-139363333D02*
X152269666Y-139363333D01*
X152412523Y-139410952D01*
X152507761Y-139506190D01*
X152555380Y-139649047D01*
X152555380Y-139744285D01*
X151983952Y-138744285D02*
X151936333Y-138839523D01*
X151888714Y-138887142D01*
X151793476Y-138934761D01*
X151745857Y-138934761D01*
X151650619Y-138887142D01*
X151603000Y-138839523D01*
X151555380Y-138744285D01*
X151555380Y-138553809D01*
X151603000Y-138458571D01*
X151650619Y-138410952D01*
X151745857Y-138363333D01*
X151793476Y-138363333D01*
X151888714Y-138410952D01*
X151936333Y-138458571D01*
X151983952Y-138553809D01*
X151983952Y-138744285D01*
X152031571Y-138839523D01*
X152079190Y-138887142D01*
X152174428Y-138934761D01*
X152364904Y-138934761D01*
X152460142Y-138887142D01*
X152507761Y-138839523D01*
X152555380Y-138744285D01*
X152555380Y-138553809D01*
X152507761Y-138458571D01*
X152460142Y-138410952D01*
X152364904Y-138363333D01*
X152174428Y-138363333D01*
X152079190Y-138410952D01*
X152031571Y-138458571D01*
X151983952Y-138553809D01*
M02*
