G04 #@! TF.GenerationSoftware,KiCad,Pcbnew,(5.1.4)-1*
G04 #@! TF.CreationDate,2019-11-26T21:34:17-08:00*
G04 #@! TF.ProjectId,PassiveMultiples,50617373-6976-4654-9d75-6c7469706c65,rev?*
G04 #@! TF.SameCoordinates,Original*
G04 #@! TF.FileFunction,Copper,L2,Bot*
G04 #@! TF.FilePolarity,Positive*
%FSLAX46Y46*%
G04 Gerber Fmt 4.6, Leading zero omitted, Abs format (unit mm)*
G04 Created by KiCad (PCBNEW (5.1.4)-1) date 2019-11-26 21:34:17*
%MOMM*%
%LPD*%
G04 APERTURE LIST*
%ADD10C,1.524000*%
%ADD11O,1.500000X3.300000*%
%ADD12R,1.830000X1.930000*%
%ADD13C,1.000000*%
%ADD14C,0.254000*%
G04 APERTURE END LIST*
D10*
X160500000Y-92540000D03*
X160500000Y-90000000D03*
X160500000Y-87460000D03*
X154500000Y-90000000D03*
X154500000Y-92540000D03*
X154500000Y-87460000D03*
D11*
X153800000Y-45000000D03*
D12*
X150700000Y-45000000D03*
D11*
X162100000Y-45000000D03*
X153800000Y-57000000D03*
D12*
X150700000Y-57000000D03*
D11*
X162100000Y-57000000D03*
X153800000Y-69000000D03*
D12*
X150700000Y-69000000D03*
D11*
X162100000Y-69000000D03*
X153800000Y-81000000D03*
D12*
X150700000Y-81000000D03*
D11*
X162100000Y-81000000D03*
X153800000Y-99000000D03*
D12*
X150700000Y-99000000D03*
D11*
X162100000Y-99000000D03*
X153800000Y-111000000D03*
D12*
X150700000Y-111000000D03*
D11*
X162100000Y-111000000D03*
X153800000Y-123000000D03*
D12*
X150700000Y-123000000D03*
D11*
X162100000Y-123000000D03*
X153800000Y-135000000D03*
D12*
X150700000Y-135000000D03*
D11*
X162100000Y-135000000D03*
D13*
X162423000Y-56977000D02*
X162400000Y-57000000D01*
X162423000Y-45000000D02*
X162423000Y-56977000D01*
X162400000Y-57000000D02*
X162400000Y-69000000D01*
X162400000Y-69000000D02*
X162400000Y-81000000D01*
X162400000Y-85560000D02*
X160500000Y-87460000D01*
X162400000Y-81000000D02*
X162400000Y-85560000D01*
X159580000Y-87460000D02*
X154500000Y-92540000D01*
X160500000Y-87460000D02*
X159580000Y-87460000D01*
X162423000Y-123023000D02*
X162400000Y-123000000D01*
X162423000Y-135000000D02*
X162423000Y-123023000D01*
X162400000Y-120350000D02*
X162400000Y-111000000D01*
X162400000Y-123000000D02*
X162400000Y-120350000D01*
X162400000Y-111000000D02*
X162400000Y-99000000D01*
X162400000Y-91900000D02*
X160500000Y-90000000D01*
X162400000Y-99000000D02*
X162400000Y-91900000D01*
D14*
G36*
X164340001Y-139340000D02*
G01*
X150660000Y-139340000D01*
X150660000Y-135127000D01*
X150827000Y-135127000D01*
X150827000Y-136441250D01*
X150985750Y-136600000D01*
X151615000Y-136603072D01*
X151739482Y-136590812D01*
X151859180Y-136554502D01*
X151969494Y-136495537D01*
X152066185Y-136416185D01*
X152145537Y-136319494D01*
X152204502Y-136209180D01*
X152240812Y-136089482D01*
X152253072Y-135965000D01*
X152250000Y-135285750D01*
X152091250Y-135127000D01*
X150827000Y-135127000D01*
X150660000Y-135127000D01*
X150660000Y-133558750D01*
X150827000Y-133558750D01*
X150827000Y-134873000D01*
X152091250Y-134873000D01*
X152250000Y-134714250D01*
X152253072Y-134035000D01*
X152252773Y-134031963D01*
X152415000Y-134031963D01*
X152415000Y-135968036D01*
X152435040Y-136171506D01*
X152514236Y-136432580D01*
X152642843Y-136673187D01*
X152815919Y-136884080D01*
X153026812Y-137057157D01*
X153267419Y-137185764D01*
X153528493Y-137264960D01*
X153800000Y-137291701D01*
X154071506Y-137264960D01*
X154332580Y-137185764D01*
X154573187Y-137057157D01*
X154784080Y-136884081D01*
X154957157Y-136673188D01*
X155085764Y-136432581D01*
X155164960Y-136171507D01*
X155185000Y-135968037D01*
X155185000Y-135769910D01*
X155284988Y-136011302D01*
X155518637Y-136360983D01*
X155816017Y-136658363D01*
X156165698Y-136892012D01*
X156554244Y-137052953D01*
X156966721Y-137135000D01*
X157387279Y-137135000D01*
X157799756Y-137052953D01*
X158188302Y-136892012D01*
X158537983Y-136658363D01*
X158835363Y-136360983D01*
X159069012Y-136011302D01*
X159229953Y-135622756D01*
X159312000Y-135210279D01*
X159312000Y-134789721D01*
X159229953Y-134377244D01*
X159069012Y-133988698D01*
X158835363Y-133639017D01*
X158537983Y-133341637D01*
X158188302Y-133107988D01*
X157799756Y-132947047D01*
X157387279Y-132865000D01*
X156966721Y-132865000D01*
X156554244Y-132947047D01*
X156165698Y-133107988D01*
X155816017Y-133341637D01*
X155518637Y-133639017D01*
X155284988Y-133988698D01*
X155185000Y-134230090D01*
X155185000Y-134031963D01*
X155164960Y-133828493D01*
X155085764Y-133567419D01*
X154957157Y-133326812D01*
X154784081Y-133115919D01*
X154573188Y-132942843D01*
X154332581Y-132814236D01*
X154071507Y-132735040D01*
X153800000Y-132708299D01*
X153528494Y-132735040D01*
X153267420Y-132814236D01*
X153026813Y-132942843D01*
X152815920Y-133115919D01*
X152642844Y-133326812D01*
X152514237Y-133567419D01*
X152435041Y-133828493D01*
X152415000Y-134031963D01*
X152252773Y-134031963D01*
X152240812Y-133910518D01*
X152204502Y-133790820D01*
X152145537Y-133680506D01*
X152066185Y-133583815D01*
X151969494Y-133504463D01*
X151859180Y-133445498D01*
X151739482Y-133409188D01*
X151615000Y-133396928D01*
X150985750Y-133400000D01*
X150827000Y-133558750D01*
X150660000Y-133558750D01*
X150660000Y-123127000D01*
X150827000Y-123127000D01*
X150827000Y-124441250D01*
X150985750Y-124600000D01*
X151615000Y-124603072D01*
X151739482Y-124590812D01*
X151859180Y-124554502D01*
X151969494Y-124495537D01*
X152066185Y-124416185D01*
X152145537Y-124319494D01*
X152204502Y-124209180D01*
X152240812Y-124089482D01*
X152253072Y-123965000D01*
X152250000Y-123285750D01*
X152091250Y-123127000D01*
X150827000Y-123127000D01*
X150660000Y-123127000D01*
X150660000Y-121558750D01*
X150827000Y-121558750D01*
X150827000Y-122873000D01*
X152091250Y-122873000D01*
X152250000Y-122714250D01*
X152253072Y-122035000D01*
X152252773Y-122031963D01*
X152415000Y-122031963D01*
X152415000Y-123968036D01*
X152435040Y-124171506D01*
X152514236Y-124432580D01*
X152642843Y-124673187D01*
X152815919Y-124884080D01*
X153026812Y-125057157D01*
X153267419Y-125185764D01*
X153528493Y-125264960D01*
X153800000Y-125291701D01*
X154071506Y-125264960D01*
X154332580Y-125185764D01*
X154573187Y-125057157D01*
X154784080Y-124884081D01*
X154957157Y-124673188D01*
X155085764Y-124432581D01*
X155164960Y-124171507D01*
X155185000Y-123968037D01*
X155185000Y-123769910D01*
X155284988Y-124011302D01*
X155518637Y-124360983D01*
X155816017Y-124658363D01*
X156165698Y-124892012D01*
X156554244Y-125052953D01*
X156966721Y-125135000D01*
X157387279Y-125135000D01*
X157799756Y-125052953D01*
X158188302Y-124892012D01*
X158537983Y-124658363D01*
X158835363Y-124360983D01*
X159069012Y-124011302D01*
X159229953Y-123622756D01*
X159312000Y-123210279D01*
X159312000Y-122789721D01*
X159229953Y-122377244D01*
X159069012Y-121988698D01*
X158835363Y-121639017D01*
X158537983Y-121341637D01*
X158188302Y-121107988D01*
X157799756Y-120947047D01*
X157387279Y-120865000D01*
X156966721Y-120865000D01*
X156554244Y-120947047D01*
X156165698Y-121107988D01*
X155816017Y-121341637D01*
X155518637Y-121639017D01*
X155284988Y-121988698D01*
X155185000Y-122230090D01*
X155185000Y-122031963D01*
X155164960Y-121828493D01*
X155085764Y-121567419D01*
X154957157Y-121326812D01*
X154784081Y-121115919D01*
X154573188Y-120942843D01*
X154332581Y-120814236D01*
X154071507Y-120735040D01*
X153800000Y-120708299D01*
X153528494Y-120735040D01*
X153267420Y-120814236D01*
X153026813Y-120942843D01*
X152815920Y-121115919D01*
X152642844Y-121326812D01*
X152514237Y-121567419D01*
X152435041Y-121828493D01*
X152415000Y-122031963D01*
X152252773Y-122031963D01*
X152240812Y-121910518D01*
X152204502Y-121790820D01*
X152145537Y-121680506D01*
X152066185Y-121583815D01*
X151969494Y-121504463D01*
X151859180Y-121445498D01*
X151739482Y-121409188D01*
X151615000Y-121396928D01*
X150985750Y-121400000D01*
X150827000Y-121558750D01*
X150660000Y-121558750D01*
X150660000Y-111127000D01*
X150827000Y-111127000D01*
X150827000Y-112441250D01*
X150985750Y-112600000D01*
X151615000Y-112603072D01*
X151739482Y-112590812D01*
X151859180Y-112554502D01*
X151969494Y-112495537D01*
X152066185Y-112416185D01*
X152145537Y-112319494D01*
X152204502Y-112209180D01*
X152240812Y-112089482D01*
X152253072Y-111965000D01*
X152250000Y-111285750D01*
X152091250Y-111127000D01*
X150827000Y-111127000D01*
X150660000Y-111127000D01*
X150660000Y-109558750D01*
X150827000Y-109558750D01*
X150827000Y-110873000D01*
X152091250Y-110873000D01*
X152250000Y-110714250D01*
X152253072Y-110035000D01*
X152252773Y-110031963D01*
X152415000Y-110031963D01*
X152415000Y-111968036D01*
X152435040Y-112171506D01*
X152514236Y-112432580D01*
X152642843Y-112673187D01*
X152815919Y-112884080D01*
X153026812Y-113057157D01*
X153267419Y-113185764D01*
X153528493Y-113264960D01*
X153800000Y-113291701D01*
X154071506Y-113264960D01*
X154332580Y-113185764D01*
X154573187Y-113057157D01*
X154784080Y-112884081D01*
X154957157Y-112673188D01*
X155085764Y-112432581D01*
X155164960Y-112171507D01*
X155185000Y-111968037D01*
X155185000Y-111769910D01*
X155284988Y-112011302D01*
X155518637Y-112360983D01*
X155816017Y-112658363D01*
X156165698Y-112892012D01*
X156554244Y-113052953D01*
X156966721Y-113135000D01*
X157387279Y-113135000D01*
X157799756Y-113052953D01*
X158188302Y-112892012D01*
X158537983Y-112658363D01*
X158835363Y-112360983D01*
X159069012Y-112011302D01*
X159229953Y-111622756D01*
X159312000Y-111210279D01*
X159312000Y-110789721D01*
X159229953Y-110377244D01*
X159069012Y-109988698D01*
X158835363Y-109639017D01*
X158537983Y-109341637D01*
X158188302Y-109107988D01*
X157799756Y-108947047D01*
X157387279Y-108865000D01*
X156966721Y-108865000D01*
X156554244Y-108947047D01*
X156165698Y-109107988D01*
X155816017Y-109341637D01*
X155518637Y-109639017D01*
X155284988Y-109988698D01*
X155185000Y-110230090D01*
X155185000Y-110031963D01*
X155164960Y-109828493D01*
X155085764Y-109567419D01*
X154957157Y-109326812D01*
X154784081Y-109115919D01*
X154573188Y-108942843D01*
X154332581Y-108814236D01*
X154071507Y-108735040D01*
X153800000Y-108708299D01*
X153528494Y-108735040D01*
X153267420Y-108814236D01*
X153026813Y-108942843D01*
X152815920Y-109115919D01*
X152642844Y-109326812D01*
X152514237Y-109567419D01*
X152435041Y-109828493D01*
X152415000Y-110031963D01*
X152252773Y-110031963D01*
X152240812Y-109910518D01*
X152204502Y-109790820D01*
X152145537Y-109680506D01*
X152066185Y-109583815D01*
X151969494Y-109504463D01*
X151859180Y-109445498D01*
X151739482Y-109409188D01*
X151615000Y-109396928D01*
X150985750Y-109400000D01*
X150827000Y-109558750D01*
X150660000Y-109558750D01*
X150660000Y-99127000D01*
X150827000Y-99127000D01*
X150827000Y-100441250D01*
X150985750Y-100600000D01*
X151615000Y-100603072D01*
X151739482Y-100590812D01*
X151859180Y-100554502D01*
X151969494Y-100495537D01*
X152066185Y-100416185D01*
X152145537Y-100319494D01*
X152204502Y-100209180D01*
X152240812Y-100089482D01*
X152253072Y-99965000D01*
X152250000Y-99285750D01*
X152091250Y-99127000D01*
X150827000Y-99127000D01*
X150660000Y-99127000D01*
X150660000Y-97558750D01*
X150827000Y-97558750D01*
X150827000Y-98873000D01*
X152091250Y-98873000D01*
X152250000Y-98714250D01*
X152253072Y-98035000D01*
X152252773Y-98031963D01*
X152415000Y-98031963D01*
X152415000Y-99968036D01*
X152435040Y-100171506D01*
X152514236Y-100432580D01*
X152642843Y-100673187D01*
X152815919Y-100884080D01*
X153026812Y-101057157D01*
X153267419Y-101185764D01*
X153528493Y-101264960D01*
X153800000Y-101291701D01*
X154071506Y-101264960D01*
X154332580Y-101185764D01*
X154573187Y-101057157D01*
X154784080Y-100884081D01*
X154957157Y-100673188D01*
X155085764Y-100432581D01*
X155164960Y-100171507D01*
X155185000Y-99968037D01*
X155185000Y-99769910D01*
X155284988Y-100011302D01*
X155518637Y-100360983D01*
X155816017Y-100658363D01*
X156165698Y-100892012D01*
X156554244Y-101052953D01*
X156966721Y-101135000D01*
X157387279Y-101135000D01*
X157799756Y-101052953D01*
X158188302Y-100892012D01*
X158537983Y-100658363D01*
X158835363Y-100360983D01*
X159069012Y-100011302D01*
X159229953Y-99622756D01*
X159312000Y-99210279D01*
X159312000Y-98789721D01*
X159229953Y-98377244D01*
X159069012Y-97988698D01*
X158835363Y-97639017D01*
X158537983Y-97341637D01*
X158188302Y-97107988D01*
X157799756Y-96947047D01*
X157387279Y-96865000D01*
X156966721Y-96865000D01*
X156554244Y-96947047D01*
X156165698Y-97107988D01*
X155816017Y-97341637D01*
X155518637Y-97639017D01*
X155284988Y-97988698D01*
X155185000Y-98230090D01*
X155185000Y-98031963D01*
X155164960Y-97828493D01*
X155085764Y-97567419D01*
X154957157Y-97326812D01*
X154784081Y-97115919D01*
X154573188Y-96942843D01*
X154332581Y-96814236D01*
X154071507Y-96735040D01*
X153800000Y-96708299D01*
X153528494Y-96735040D01*
X153267420Y-96814236D01*
X153026813Y-96942843D01*
X152815920Y-97115919D01*
X152642844Y-97326812D01*
X152514237Y-97567419D01*
X152435041Y-97828493D01*
X152415000Y-98031963D01*
X152252773Y-98031963D01*
X152240812Y-97910518D01*
X152204502Y-97790820D01*
X152145537Y-97680506D01*
X152066185Y-97583815D01*
X151969494Y-97504463D01*
X151859180Y-97445498D01*
X151739482Y-97409188D01*
X151615000Y-97396928D01*
X150985750Y-97400000D01*
X150827000Y-97558750D01*
X150660000Y-97558750D01*
X150660000Y-87322408D01*
X153103000Y-87322408D01*
X153103000Y-87597592D01*
X153156686Y-87867490D01*
X153261995Y-88121727D01*
X153414880Y-88350535D01*
X153609465Y-88545120D01*
X153838273Y-88698005D01*
X153915515Y-88730000D01*
X153838273Y-88761995D01*
X153609465Y-88914880D01*
X153414880Y-89109465D01*
X153261995Y-89338273D01*
X153156686Y-89592510D01*
X153103000Y-89862408D01*
X153103000Y-90137592D01*
X153156686Y-90407490D01*
X153261995Y-90661727D01*
X153414880Y-90890535D01*
X153609465Y-91085120D01*
X153838273Y-91238005D01*
X153915515Y-91270000D01*
X153838273Y-91301995D01*
X153609465Y-91454880D01*
X153414880Y-91649465D01*
X153261995Y-91878273D01*
X153156686Y-92132510D01*
X153103000Y-92402408D01*
X153103000Y-92677592D01*
X153156686Y-92947490D01*
X153261995Y-93201727D01*
X153414880Y-93430535D01*
X153609465Y-93625120D01*
X153838273Y-93778005D01*
X154092510Y-93883314D01*
X154362408Y-93937000D01*
X154637592Y-93937000D01*
X154907490Y-93883314D01*
X155161727Y-93778005D01*
X155390535Y-93625120D01*
X155585120Y-93430535D01*
X155738005Y-93201727D01*
X155843314Y-92947490D01*
X155879485Y-92765646D01*
X159230271Y-89414861D01*
X159156686Y-89592510D01*
X159103000Y-89862408D01*
X159103000Y-90137592D01*
X159156686Y-90407490D01*
X159261995Y-90661727D01*
X159414880Y-90890535D01*
X159609465Y-91085120D01*
X159838273Y-91238005D01*
X159915515Y-91270000D01*
X159838273Y-91301995D01*
X159609465Y-91454880D01*
X159414880Y-91649465D01*
X159261995Y-91878273D01*
X159156686Y-92132510D01*
X159103000Y-92402408D01*
X159103000Y-92677592D01*
X159156686Y-92947490D01*
X159261995Y-93201727D01*
X159414880Y-93430535D01*
X159609465Y-93625120D01*
X159838273Y-93778005D01*
X160092510Y-93883314D01*
X160362408Y-93937000D01*
X160637592Y-93937000D01*
X160907490Y-93883314D01*
X161161727Y-93778005D01*
X161265001Y-93709000D01*
X161265000Y-96993572D01*
X161115920Y-97115919D01*
X160942844Y-97326812D01*
X160814237Y-97567419D01*
X160735041Y-97828493D01*
X160715000Y-98031963D01*
X160715000Y-99968036D01*
X160735040Y-100171506D01*
X160814236Y-100432580D01*
X160942843Y-100673187D01*
X161115919Y-100884080D01*
X161265001Y-101006429D01*
X161265000Y-108993572D01*
X161115920Y-109115919D01*
X160942844Y-109326812D01*
X160814237Y-109567419D01*
X160735041Y-109828493D01*
X160715000Y-110031963D01*
X160715000Y-111968036D01*
X160735040Y-112171506D01*
X160814236Y-112432580D01*
X160942843Y-112673187D01*
X161115919Y-112884080D01*
X161265001Y-113006429D01*
X161265000Y-120405751D01*
X161265001Y-120405761D01*
X161265001Y-120993571D01*
X161115920Y-121115919D01*
X160942844Y-121326812D01*
X160814237Y-121567419D01*
X160735041Y-121828493D01*
X160715000Y-122031963D01*
X160715000Y-123968036D01*
X160735040Y-124171506D01*
X160814236Y-124432580D01*
X160942843Y-124673187D01*
X161115919Y-124884080D01*
X161288001Y-125025305D01*
X161288000Y-132974696D01*
X161115920Y-133115919D01*
X160942844Y-133326812D01*
X160814237Y-133567419D01*
X160735041Y-133828493D01*
X160715000Y-134031963D01*
X160715000Y-135968036D01*
X160735040Y-136171506D01*
X160814236Y-136432580D01*
X160942843Y-136673187D01*
X161115919Y-136884080D01*
X161326812Y-137057157D01*
X161567419Y-137185764D01*
X161828493Y-137264960D01*
X162100000Y-137291701D01*
X162371506Y-137264960D01*
X162632580Y-137185764D01*
X162873187Y-137057157D01*
X163084080Y-136884081D01*
X163257157Y-136673188D01*
X163385764Y-136432581D01*
X163464960Y-136171507D01*
X163485000Y-135968037D01*
X163485000Y-135409007D01*
X163541577Y-135222499D01*
X163558000Y-135055752D01*
X163558000Y-123078751D01*
X163563491Y-123023000D01*
X163541577Y-122800502D01*
X163535000Y-122778821D01*
X163535000Y-91955752D01*
X163540491Y-91900000D01*
X163518577Y-91677501D01*
X163453676Y-91463553D01*
X163348284Y-91266377D01*
X163291090Y-91196686D01*
X163206449Y-91093551D01*
X163163141Y-91058009D01*
X161879485Y-89774354D01*
X161843314Y-89592510D01*
X161738005Y-89338273D01*
X161585120Y-89109465D01*
X161390535Y-88914880D01*
X161161727Y-88761995D01*
X161084485Y-88730000D01*
X161161727Y-88698005D01*
X161390535Y-88545120D01*
X161585120Y-88350535D01*
X161738005Y-88121727D01*
X161843314Y-87867490D01*
X161879485Y-87685646D01*
X163163141Y-86401991D01*
X163206449Y-86366449D01*
X163348284Y-86193623D01*
X163453676Y-85996447D01*
X163518577Y-85782499D01*
X163535000Y-85615752D01*
X163540491Y-85560000D01*
X163535000Y-85504248D01*
X163535000Y-57221180D01*
X163541577Y-57199499D01*
X163558000Y-57032752D01*
X163558000Y-57032751D01*
X163563491Y-56977000D01*
X163558000Y-56921249D01*
X163558000Y-44944248D01*
X163541577Y-44777501D01*
X163485000Y-44590993D01*
X163485000Y-44031963D01*
X163464960Y-43828493D01*
X163385764Y-43567419D01*
X163257157Y-43326812D01*
X163084081Y-43115919D01*
X162873188Y-42942843D01*
X162632581Y-42814236D01*
X162371507Y-42735040D01*
X162100000Y-42708299D01*
X161828494Y-42735040D01*
X161567420Y-42814236D01*
X161326813Y-42942843D01*
X161115920Y-43115919D01*
X160942844Y-43326812D01*
X160814237Y-43567419D01*
X160735041Y-43828493D01*
X160715000Y-44031963D01*
X160715000Y-45968036D01*
X160735040Y-46171506D01*
X160814236Y-46432580D01*
X160942843Y-46673187D01*
X161115919Y-46884080D01*
X161288000Y-47025305D01*
X161288001Y-54974695D01*
X161115920Y-55115919D01*
X160942844Y-55326812D01*
X160814237Y-55567419D01*
X160735041Y-55828493D01*
X160715000Y-56031963D01*
X160715000Y-57968036D01*
X160735040Y-58171506D01*
X160814236Y-58432580D01*
X160942843Y-58673187D01*
X161115919Y-58884080D01*
X161265000Y-59006429D01*
X161265001Y-66993571D01*
X161115920Y-67115919D01*
X160942844Y-67326812D01*
X160814237Y-67567419D01*
X160735041Y-67828493D01*
X160715000Y-68031963D01*
X160715000Y-69968036D01*
X160735040Y-70171506D01*
X160814236Y-70432580D01*
X160942843Y-70673187D01*
X161115919Y-70884080D01*
X161265000Y-71006429D01*
X161265001Y-78993571D01*
X161115920Y-79115919D01*
X160942844Y-79326812D01*
X160814237Y-79567419D01*
X160735041Y-79828493D01*
X160715000Y-80031963D01*
X160715000Y-81968036D01*
X160735040Y-82171506D01*
X160814236Y-82432580D01*
X160942843Y-82673187D01*
X161115919Y-82884080D01*
X161265000Y-83006429D01*
X161265001Y-85089867D01*
X160274354Y-86080515D01*
X160092510Y-86116686D01*
X159838273Y-86221995D01*
X159684116Y-86325000D01*
X159635751Y-86325000D01*
X159580000Y-86319509D01*
X159524248Y-86325000D01*
X159357501Y-86341423D01*
X159143553Y-86406324D01*
X158946377Y-86511716D01*
X158773551Y-86653551D01*
X158738011Y-86696857D01*
X155843034Y-89591834D01*
X155738005Y-89338273D01*
X155585120Y-89109465D01*
X155390535Y-88914880D01*
X155161727Y-88761995D01*
X155084485Y-88730000D01*
X155161727Y-88698005D01*
X155390535Y-88545120D01*
X155585120Y-88350535D01*
X155738005Y-88121727D01*
X155843314Y-87867490D01*
X155897000Y-87597592D01*
X155897000Y-87322408D01*
X155843314Y-87052510D01*
X155738005Y-86798273D01*
X155585120Y-86569465D01*
X155390535Y-86374880D01*
X155161727Y-86221995D01*
X154907490Y-86116686D01*
X154637592Y-86063000D01*
X154362408Y-86063000D01*
X154092510Y-86116686D01*
X153838273Y-86221995D01*
X153609465Y-86374880D01*
X153414880Y-86569465D01*
X153261995Y-86798273D01*
X153156686Y-87052510D01*
X153103000Y-87322408D01*
X150660000Y-87322408D01*
X150660000Y-81127000D01*
X150827000Y-81127000D01*
X150827000Y-82441250D01*
X150985750Y-82600000D01*
X151615000Y-82603072D01*
X151739482Y-82590812D01*
X151859180Y-82554502D01*
X151969494Y-82495537D01*
X152066185Y-82416185D01*
X152145537Y-82319494D01*
X152204502Y-82209180D01*
X152240812Y-82089482D01*
X152253072Y-81965000D01*
X152250000Y-81285750D01*
X152091250Y-81127000D01*
X150827000Y-81127000D01*
X150660000Y-81127000D01*
X150660000Y-79558750D01*
X150827000Y-79558750D01*
X150827000Y-80873000D01*
X152091250Y-80873000D01*
X152250000Y-80714250D01*
X152253072Y-80035000D01*
X152252773Y-80031963D01*
X152415000Y-80031963D01*
X152415000Y-81968036D01*
X152435040Y-82171506D01*
X152514236Y-82432580D01*
X152642843Y-82673187D01*
X152815919Y-82884080D01*
X153026812Y-83057157D01*
X153267419Y-83185764D01*
X153528493Y-83264960D01*
X153800000Y-83291701D01*
X154071506Y-83264960D01*
X154332580Y-83185764D01*
X154573187Y-83057157D01*
X154784080Y-82884081D01*
X154957157Y-82673188D01*
X155085764Y-82432581D01*
X155164960Y-82171507D01*
X155185000Y-81968037D01*
X155185000Y-81769910D01*
X155284988Y-82011302D01*
X155518637Y-82360983D01*
X155816017Y-82658363D01*
X156165698Y-82892012D01*
X156554244Y-83052953D01*
X156966721Y-83135000D01*
X157387279Y-83135000D01*
X157799756Y-83052953D01*
X158188302Y-82892012D01*
X158537983Y-82658363D01*
X158835363Y-82360983D01*
X159069012Y-82011302D01*
X159229953Y-81622756D01*
X159312000Y-81210279D01*
X159312000Y-80789721D01*
X159229953Y-80377244D01*
X159069012Y-79988698D01*
X158835363Y-79639017D01*
X158537983Y-79341637D01*
X158188302Y-79107988D01*
X157799756Y-78947047D01*
X157387279Y-78865000D01*
X156966721Y-78865000D01*
X156554244Y-78947047D01*
X156165698Y-79107988D01*
X155816017Y-79341637D01*
X155518637Y-79639017D01*
X155284988Y-79988698D01*
X155185000Y-80230090D01*
X155185000Y-80031963D01*
X155164960Y-79828493D01*
X155085764Y-79567419D01*
X154957157Y-79326812D01*
X154784081Y-79115919D01*
X154573188Y-78942843D01*
X154332581Y-78814236D01*
X154071507Y-78735040D01*
X153800000Y-78708299D01*
X153528494Y-78735040D01*
X153267420Y-78814236D01*
X153026813Y-78942843D01*
X152815920Y-79115919D01*
X152642844Y-79326812D01*
X152514237Y-79567419D01*
X152435041Y-79828493D01*
X152415000Y-80031963D01*
X152252773Y-80031963D01*
X152240812Y-79910518D01*
X152204502Y-79790820D01*
X152145537Y-79680506D01*
X152066185Y-79583815D01*
X151969494Y-79504463D01*
X151859180Y-79445498D01*
X151739482Y-79409188D01*
X151615000Y-79396928D01*
X150985750Y-79400000D01*
X150827000Y-79558750D01*
X150660000Y-79558750D01*
X150660000Y-69127000D01*
X150827000Y-69127000D01*
X150827000Y-70441250D01*
X150985750Y-70600000D01*
X151615000Y-70603072D01*
X151739482Y-70590812D01*
X151859180Y-70554502D01*
X151969494Y-70495537D01*
X152066185Y-70416185D01*
X152145537Y-70319494D01*
X152204502Y-70209180D01*
X152240812Y-70089482D01*
X152253072Y-69965000D01*
X152250000Y-69285750D01*
X152091250Y-69127000D01*
X150827000Y-69127000D01*
X150660000Y-69127000D01*
X150660000Y-67558750D01*
X150827000Y-67558750D01*
X150827000Y-68873000D01*
X152091250Y-68873000D01*
X152250000Y-68714250D01*
X152253072Y-68035000D01*
X152252773Y-68031963D01*
X152415000Y-68031963D01*
X152415000Y-69968036D01*
X152435040Y-70171506D01*
X152514236Y-70432580D01*
X152642843Y-70673187D01*
X152815919Y-70884080D01*
X153026812Y-71057157D01*
X153267419Y-71185764D01*
X153528493Y-71264960D01*
X153800000Y-71291701D01*
X154071506Y-71264960D01*
X154332580Y-71185764D01*
X154573187Y-71057157D01*
X154784080Y-70884081D01*
X154957157Y-70673188D01*
X155085764Y-70432581D01*
X155164960Y-70171507D01*
X155185000Y-69968037D01*
X155185000Y-69769910D01*
X155284988Y-70011302D01*
X155518637Y-70360983D01*
X155816017Y-70658363D01*
X156165698Y-70892012D01*
X156554244Y-71052953D01*
X156966721Y-71135000D01*
X157387279Y-71135000D01*
X157799756Y-71052953D01*
X158188302Y-70892012D01*
X158537983Y-70658363D01*
X158835363Y-70360983D01*
X159069012Y-70011302D01*
X159229953Y-69622756D01*
X159312000Y-69210279D01*
X159312000Y-68789721D01*
X159229953Y-68377244D01*
X159069012Y-67988698D01*
X158835363Y-67639017D01*
X158537983Y-67341637D01*
X158188302Y-67107988D01*
X157799756Y-66947047D01*
X157387279Y-66865000D01*
X156966721Y-66865000D01*
X156554244Y-66947047D01*
X156165698Y-67107988D01*
X155816017Y-67341637D01*
X155518637Y-67639017D01*
X155284988Y-67988698D01*
X155185000Y-68230090D01*
X155185000Y-68031963D01*
X155164960Y-67828493D01*
X155085764Y-67567419D01*
X154957157Y-67326812D01*
X154784081Y-67115919D01*
X154573188Y-66942843D01*
X154332581Y-66814236D01*
X154071507Y-66735040D01*
X153800000Y-66708299D01*
X153528494Y-66735040D01*
X153267420Y-66814236D01*
X153026813Y-66942843D01*
X152815920Y-67115919D01*
X152642844Y-67326812D01*
X152514237Y-67567419D01*
X152435041Y-67828493D01*
X152415000Y-68031963D01*
X152252773Y-68031963D01*
X152240812Y-67910518D01*
X152204502Y-67790820D01*
X152145537Y-67680506D01*
X152066185Y-67583815D01*
X151969494Y-67504463D01*
X151859180Y-67445498D01*
X151739482Y-67409188D01*
X151615000Y-67396928D01*
X150985750Y-67400000D01*
X150827000Y-67558750D01*
X150660000Y-67558750D01*
X150660000Y-57127000D01*
X150827000Y-57127000D01*
X150827000Y-58441250D01*
X150985750Y-58600000D01*
X151615000Y-58603072D01*
X151739482Y-58590812D01*
X151859180Y-58554502D01*
X151969494Y-58495537D01*
X152066185Y-58416185D01*
X152145537Y-58319494D01*
X152204502Y-58209180D01*
X152240812Y-58089482D01*
X152253072Y-57965000D01*
X152250000Y-57285750D01*
X152091250Y-57127000D01*
X150827000Y-57127000D01*
X150660000Y-57127000D01*
X150660000Y-55558750D01*
X150827000Y-55558750D01*
X150827000Y-56873000D01*
X152091250Y-56873000D01*
X152250000Y-56714250D01*
X152253072Y-56035000D01*
X152252773Y-56031963D01*
X152415000Y-56031963D01*
X152415000Y-57968036D01*
X152435040Y-58171506D01*
X152514236Y-58432580D01*
X152642843Y-58673187D01*
X152815919Y-58884080D01*
X153026812Y-59057157D01*
X153267419Y-59185764D01*
X153528493Y-59264960D01*
X153800000Y-59291701D01*
X154071506Y-59264960D01*
X154332580Y-59185764D01*
X154573187Y-59057157D01*
X154784080Y-58884081D01*
X154957157Y-58673188D01*
X155085764Y-58432581D01*
X155164960Y-58171507D01*
X155185000Y-57968037D01*
X155185000Y-57769910D01*
X155284988Y-58011302D01*
X155518637Y-58360983D01*
X155816017Y-58658363D01*
X156165698Y-58892012D01*
X156554244Y-59052953D01*
X156966721Y-59135000D01*
X157387279Y-59135000D01*
X157799756Y-59052953D01*
X158188302Y-58892012D01*
X158537983Y-58658363D01*
X158835363Y-58360983D01*
X159069012Y-58011302D01*
X159229953Y-57622756D01*
X159312000Y-57210279D01*
X159312000Y-56789721D01*
X159229953Y-56377244D01*
X159069012Y-55988698D01*
X158835363Y-55639017D01*
X158537983Y-55341637D01*
X158188302Y-55107988D01*
X157799756Y-54947047D01*
X157387279Y-54865000D01*
X156966721Y-54865000D01*
X156554244Y-54947047D01*
X156165698Y-55107988D01*
X155816017Y-55341637D01*
X155518637Y-55639017D01*
X155284988Y-55988698D01*
X155185000Y-56230090D01*
X155185000Y-56031963D01*
X155164960Y-55828493D01*
X155085764Y-55567419D01*
X154957157Y-55326812D01*
X154784081Y-55115919D01*
X154573188Y-54942843D01*
X154332581Y-54814236D01*
X154071507Y-54735040D01*
X153800000Y-54708299D01*
X153528494Y-54735040D01*
X153267420Y-54814236D01*
X153026813Y-54942843D01*
X152815920Y-55115919D01*
X152642844Y-55326812D01*
X152514237Y-55567419D01*
X152435041Y-55828493D01*
X152415000Y-56031963D01*
X152252773Y-56031963D01*
X152240812Y-55910518D01*
X152204502Y-55790820D01*
X152145537Y-55680506D01*
X152066185Y-55583815D01*
X151969494Y-55504463D01*
X151859180Y-55445498D01*
X151739482Y-55409188D01*
X151615000Y-55396928D01*
X150985750Y-55400000D01*
X150827000Y-55558750D01*
X150660000Y-55558750D01*
X150660000Y-45127000D01*
X150827000Y-45127000D01*
X150827000Y-46441250D01*
X150985750Y-46600000D01*
X151615000Y-46603072D01*
X151739482Y-46590812D01*
X151859180Y-46554502D01*
X151969494Y-46495537D01*
X152066185Y-46416185D01*
X152145537Y-46319494D01*
X152204502Y-46209180D01*
X152240812Y-46089482D01*
X152253072Y-45965000D01*
X152250000Y-45285750D01*
X152091250Y-45127000D01*
X150827000Y-45127000D01*
X150660000Y-45127000D01*
X150660000Y-43558750D01*
X150827000Y-43558750D01*
X150827000Y-44873000D01*
X152091250Y-44873000D01*
X152250000Y-44714250D01*
X152253072Y-44035000D01*
X152252773Y-44031963D01*
X152415000Y-44031963D01*
X152415000Y-45968036D01*
X152435040Y-46171506D01*
X152514236Y-46432580D01*
X152642843Y-46673187D01*
X152815919Y-46884080D01*
X153026812Y-47057157D01*
X153267419Y-47185764D01*
X153528493Y-47264960D01*
X153800000Y-47291701D01*
X154071506Y-47264960D01*
X154332580Y-47185764D01*
X154573187Y-47057157D01*
X154784080Y-46884081D01*
X154957157Y-46673188D01*
X155085764Y-46432581D01*
X155164960Y-46171507D01*
X155185000Y-45968037D01*
X155185000Y-45769910D01*
X155284988Y-46011302D01*
X155518637Y-46360983D01*
X155816017Y-46658363D01*
X156165698Y-46892012D01*
X156554244Y-47052953D01*
X156966721Y-47135000D01*
X157387279Y-47135000D01*
X157799756Y-47052953D01*
X158188302Y-46892012D01*
X158537983Y-46658363D01*
X158835363Y-46360983D01*
X159069012Y-46011302D01*
X159229953Y-45622756D01*
X159312000Y-45210279D01*
X159312000Y-44789721D01*
X159229953Y-44377244D01*
X159069012Y-43988698D01*
X158835363Y-43639017D01*
X158537983Y-43341637D01*
X158188302Y-43107988D01*
X157799756Y-42947047D01*
X157387279Y-42865000D01*
X156966721Y-42865000D01*
X156554244Y-42947047D01*
X156165698Y-43107988D01*
X155816017Y-43341637D01*
X155518637Y-43639017D01*
X155284988Y-43988698D01*
X155185000Y-44230090D01*
X155185000Y-44031963D01*
X155164960Y-43828493D01*
X155085764Y-43567419D01*
X154957157Y-43326812D01*
X154784081Y-43115919D01*
X154573188Y-42942843D01*
X154332581Y-42814236D01*
X154071507Y-42735040D01*
X153800000Y-42708299D01*
X153528494Y-42735040D01*
X153267420Y-42814236D01*
X153026813Y-42942843D01*
X152815920Y-43115919D01*
X152642844Y-43326812D01*
X152514237Y-43567419D01*
X152435041Y-43828493D01*
X152415000Y-44031963D01*
X152252773Y-44031963D01*
X152240812Y-43910518D01*
X152204502Y-43790820D01*
X152145537Y-43680506D01*
X152066185Y-43583815D01*
X151969494Y-43504463D01*
X151859180Y-43445498D01*
X151739482Y-43409188D01*
X151615000Y-43396928D01*
X150985750Y-43400000D01*
X150827000Y-43558750D01*
X150660000Y-43558750D01*
X150660000Y-40660000D01*
X164340000Y-40660000D01*
X164340001Y-139340000D01*
X164340001Y-139340000D01*
G37*
X164340001Y-139340000D02*
X150660000Y-139340000D01*
X150660000Y-135127000D01*
X150827000Y-135127000D01*
X150827000Y-136441250D01*
X150985750Y-136600000D01*
X151615000Y-136603072D01*
X151739482Y-136590812D01*
X151859180Y-136554502D01*
X151969494Y-136495537D01*
X152066185Y-136416185D01*
X152145537Y-136319494D01*
X152204502Y-136209180D01*
X152240812Y-136089482D01*
X152253072Y-135965000D01*
X152250000Y-135285750D01*
X152091250Y-135127000D01*
X150827000Y-135127000D01*
X150660000Y-135127000D01*
X150660000Y-133558750D01*
X150827000Y-133558750D01*
X150827000Y-134873000D01*
X152091250Y-134873000D01*
X152250000Y-134714250D01*
X152253072Y-134035000D01*
X152252773Y-134031963D01*
X152415000Y-134031963D01*
X152415000Y-135968036D01*
X152435040Y-136171506D01*
X152514236Y-136432580D01*
X152642843Y-136673187D01*
X152815919Y-136884080D01*
X153026812Y-137057157D01*
X153267419Y-137185764D01*
X153528493Y-137264960D01*
X153800000Y-137291701D01*
X154071506Y-137264960D01*
X154332580Y-137185764D01*
X154573187Y-137057157D01*
X154784080Y-136884081D01*
X154957157Y-136673188D01*
X155085764Y-136432581D01*
X155164960Y-136171507D01*
X155185000Y-135968037D01*
X155185000Y-135769910D01*
X155284988Y-136011302D01*
X155518637Y-136360983D01*
X155816017Y-136658363D01*
X156165698Y-136892012D01*
X156554244Y-137052953D01*
X156966721Y-137135000D01*
X157387279Y-137135000D01*
X157799756Y-137052953D01*
X158188302Y-136892012D01*
X158537983Y-136658363D01*
X158835363Y-136360983D01*
X159069012Y-136011302D01*
X159229953Y-135622756D01*
X159312000Y-135210279D01*
X159312000Y-134789721D01*
X159229953Y-134377244D01*
X159069012Y-133988698D01*
X158835363Y-133639017D01*
X158537983Y-133341637D01*
X158188302Y-133107988D01*
X157799756Y-132947047D01*
X157387279Y-132865000D01*
X156966721Y-132865000D01*
X156554244Y-132947047D01*
X156165698Y-133107988D01*
X155816017Y-133341637D01*
X155518637Y-133639017D01*
X155284988Y-133988698D01*
X155185000Y-134230090D01*
X155185000Y-134031963D01*
X155164960Y-133828493D01*
X155085764Y-133567419D01*
X154957157Y-133326812D01*
X154784081Y-133115919D01*
X154573188Y-132942843D01*
X154332581Y-132814236D01*
X154071507Y-132735040D01*
X153800000Y-132708299D01*
X153528494Y-132735040D01*
X153267420Y-132814236D01*
X153026813Y-132942843D01*
X152815920Y-133115919D01*
X152642844Y-133326812D01*
X152514237Y-133567419D01*
X152435041Y-133828493D01*
X152415000Y-134031963D01*
X152252773Y-134031963D01*
X152240812Y-133910518D01*
X152204502Y-133790820D01*
X152145537Y-133680506D01*
X152066185Y-133583815D01*
X151969494Y-133504463D01*
X151859180Y-133445498D01*
X151739482Y-133409188D01*
X151615000Y-133396928D01*
X150985750Y-133400000D01*
X150827000Y-133558750D01*
X150660000Y-133558750D01*
X150660000Y-123127000D01*
X150827000Y-123127000D01*
X150827000Y-124441250D01*
X150985750Y-124600000D01*
X151615000Y-124603072D01*
X151739482Y-124590812D01*
X151859180Y-124554502D01*
X151969494Y-124495537D01*
X152066185Y-124416185D01*
X152145537Y-124319494D01*
X152204502Y-124209180D01*
X152240812Y-124089482D01*
X152253072Y-123965000D01*
X152250000Y-123285750D01*
X152091250Y-123127000D01*
X150827000Y-123127000D01*
X150660000Y-123127000D01*
X150660000Y-121558750D01*
X150827000Y-121558750D01*
X150827000Y-122873000D01*
X152091250Y-122873000D01*
X152250000Y-122714250D01*
X152253072Y-122035000D01*
X152252773Y-122031963D01*
X152415000Y-122031963D01*
X152415000Y-123968036D01*
X152435040Y-124171506D01*
X152514236Y-124432580D01*
X152642843Y-124673187D01*
X152815919Y-124884080D01*
X153026812Y-125057157D01*
X153267419Y-125185764D01*
X153528493Y-125264960D01*
X153800000Y-125291701D01*
X154071506Y-125264960D01*
X154332580Y-125185764D01*
X154573187Y-125057157D01*
X154784080Y-124884081D01*
X154957157Y-124673188D01*
X155085764Y-124432581D01*
X155164960Y-124171507D01*
X155185000Y-123968037D01*
X155185000Y-123769910D01*
X155284988Y-124011302D01*
X155518637Y-124360983D01*
X155816017Y-124658363D01*
X156165698Y-124892012D01*
X156554244Y-125052953D01*
X156966721Y-125135000D01*
X157387279Y-125135000D01*
X157799756Y-125052953D01*
X158188302Y-124892012D01*
X158537983Y-124658363D01*
X158835363Y-124360983D01*
X159069012Y-124011302D01*
X159229953Y-123622756D01*
X159312000Y-123210279D01*
X159312000Y-122789721D01*
X159229953Y-122377244D01*
X159069012Y-121988698D01*
X158835363Y-121639017D01*
X158537983Y-121341637D01*
X158188302Y-121107988D01*
X157799756Y-120947047D01*
X157387279Y-120865000D01*
X156966721Y-120865000D01*
X156554244Y-120947047D01*
X156165698Y-121107988D01*
X155816017Y-121341637D01*
X155518637Y-121639017D01*
X155284988Y-121988698D01*
X155185000Y-122230090D01*
X155185000Y-122031963D01*
X155164960Y-121828493D01*
X155085764Y-121567419D01*
X154957157Y-121326812D01*
X154784081Y-121115919D01*
X154573188Y-120942843D01*
X154332581Y-120814236D01*
X154071507Y-120735040D01*
X153800000Y-120708299D01*
X153528494Y-120735040D01*
X153267420Y-120814236D01*
X153026813Y-120942843D01*
X152815920Y-121115919D01*
X152642844Y-121326812D01*
X152514237Y-121567419D01*
X152435041Y-121828493D01*
X152415000Y-122031963D01*
X152252773Y-122031963D01*
X152240812Y-121910518D01*
X152204502Y-121790820D01*
X152145537Y-121680506D01*
X152066185Y-121583815D01*
X151969494Y-121504463D01*
X151859180Y-121445498D01*
X151739482Y-121409188D01*
X151615000Y-121396928D01*
X150985750Y-121400000D01*
X150827000Y-121558750D01*
X150660000Y-121558750D01*
X150660000Y-111127000D01*
X150827000Y-111127000D01*
X150827000Y-112441250D01*
X150985750Y-112600000D01*
X151615000Y-112603072D01*
X151739482Y-112590812D01*
X151859180Y-112554502D01*
X151969494Y-112495537D01*
X152066185Y-112416185D01*
X152145537Y-112319494D01*
X152204502Y-112209180D01*
X152240812Y-112089482D01*
X152253072Y-111965000D01*
X152250000Y-111285750D01*
X152091250Y-111127000D01*
X150827000Y-111127000D01*
X150660000Y-111127000D01*
X150660000Y-109558750D01*
X150827000Y-109558750D01*
X150827000Y-110873000D01*
X152091250Y-110873000D01*
X152250000Y-110714250D01*
X152253072Y-110035000D01*
X152252773Y-110031963D01*
X152415000Y-110031963D01*
X152415000Y-111968036D01*
X152435040Y-112171506D01*
X152514236Y-112432580D01*
X152642843Y-112673187D01*
X152815919Y-112884080D01*
X153026812Y-113057157D01*
X153267419Y-113185764D01*
X153528493Y-113264960D01*
X153800000Y-113291701D01*
X154071506Y-113264960D01*
X154332580Y-113185764D01*
X154573187Y-113057157D01*
X154784080Y-112884081D01*
X154957157Y-112673188D01*
X155085764Y-112432581D01*
X155164960Y-112171507D01*
X155185000Y-111968037D01*
X155185000Y-111769910D01*
X155284988Y-112011302D01*
X155518637Y-112360983D01*
X155816017Y-112658363D01*
X156165698Y-112892012D01*
X156554244Y-113052953D01*
X156966721Y-113135000D01*
X157387279Y-113135000D01*
X157799756Y-113052953D01*
X158188302Y-112892012D01*
X158537983Y-112658363D01*
X158835363Y-112360983D01*
X159069012Y-112011302D01*
X159229953Y-111622756D01*
X159312000Y-111210279D01*
X159312000Y-110789721D01*
X159229953Y-110377244D01*
X159069012Y-109988698D01*
X158835363Y-109639017D01*
X158537983Y-109341637D01*
X158188302Y-109107988D01*
X157799756Y-108947047D01*
X157387279Y-108865000D01*
X156966721Y-108865000D01*
X156554244Y-108947047D01*
X156165698Y-109107988D01*
X155816017Y-109341637D01*
X155518637Y-109639017D01*
X155284988Y-109988698D01*
X155185000Y-110230090D01*
X155185000Y-110031963D01*
X155164960Y-109828493D01*
X155085764Y-109567419D01*
X154957157Y-109326812D01*
X154784081Y-109115919D01*
X154573188Y-108942843D01*
X154332581Y-108814236D01*
X154071507Y-108735040D01*
X153800000Y-108708299D01*
X153528494Y-108735040D01*
X153267420Y-108814236D01*
X153026813Y-108942843D01*
X152815920Y-109115919D01*
X152642844Y-109326812D01*
X152514237Y-109567419D01*
X152435041Y-109828493D01*
X152415000Y-110031963D01*
X152252773Y-110031963D01*
X152240812Y-109910518D01*
X152204502Y-109790820D01*
X152145537Y-109680506D01*
X152066185Y-109583815D01*
X151969494Y-109504463D01*
X151859180Y-109445498D01*
X151739482Y-109409188D01*
X151615000Y-109396928D01*
X150985750Y-109400000D01*
X150827000Y-109558750D01*
X150660000Y-109558750D01*
X150660000Y-99127000D01*
X150827000Y-99127000D01*
X150827000Y-100441250D01*
X150985750Y-100600000D01*
X151615000Y-100603072D01*
X151739482Y-100590812D01*
X151859180Y-100554502D01*
X151969494Y-100495537D01*
X152066185Y-100416185D01*
X152145537Y-100319494D01*
X152204502Y-100209180D01*
X152240812Y-100089482D01*
X152253072Y-99965000D01*
X152250000Y-99285750D01*
X152091250Y-99127000D01*
X150827000Y-99127000D01*
X150660000Y-99127000D01*
X150660000Y-97558750D01*
X150827000Y-97558750D01*
X150827000Y-98873000D01*
X152091250Y-98873000D01*
X152250000Y-98714250D01*
X152253072Y-98035000D01*
X152252773Y-98031963D01*
X152415000Y-98031963D01*
X152415000Y-99968036D01*
X152435040Y-100171506D01*
X152514236Y-100432580D01*
X152642843Y-100673187D01*
X152815919Y-100884080D01*
X153026812Y-101057157D01*
X153267419Y-101185764D01*
X153528493Y-101264960D01*
X153800000Y-101291701D01*
X154071506Y-101264960D01*
X154332580Y-101185764D01*
X154573187Y-101057157D01*
X154784080Y-100884081D01*
X154957157Y-100673188D01*
X155085764Y-100432581D01*
X155164960Y-100171507D01*
X155185000Y-99968037D01*
X155185000Y-99769910D01*
X155284988Y-100011302D01*
X155518637Y-100360983D01*
X155816017Y-100658363D01*
X156165698Y-100892012D01*
X156554244Y-101052953D01*
X156966721Y-101135000D01*
X157387279Y-101135000D01*
X157799756Y-101052953D01*
X158188302Y-100892012D01*
X158537983Y-100658363D01*
X158835363Y-100360983D01*
X159069012Y-100011302D01*
X159229953Y-99622756D01*
X159312000Y-99210279D01*
X159312000Y-98789721D01*
X159229953Y-98377244D01*
X159069012Y-97988698D01*
X158835363Y-97639017D01*
X158537983Y-97341637D01*
X158188302Y-97107988D01*
X157799756Y-96947047D01*
X157387279Y-96865000D01*
X156966721Y-96865000D01*
X156554244Y-96947047D01*
X156165698Y-97107988D01*
X155816017Y-97341637D01*
X155518637Y-97639017D01*
X155284988Y-97988698D01*
X155185000Y-98230090D01*
X155185000Y-98031963D01*
X155164960Y-97828493D01*
X155085764Y-97567419D01*
X154957157Y-97326812D01*
X154784081Y-97115919D01*
X154573188Y-96942843D01*
X154332581Y-96814236D01*
X154071507Y-96735040D01*
X153800000Y-96708299D01*
X153528494Y-96735040D01*
X153267420Y-96814236D01*
X153026813Y-96942843D01*
X152815920Y-97115919D01*
X152642844Y-97326812D01*
X152514237Y-97567419D01*
X152435041Y-97828493D01*
X152415000Y-98031963D01*
X152252773Y-98031963D01*
X152240812Y-97910518D01*
X152204502Y-97790820D01*
X152145537Y-97680506D01*
X152066185Y-97583815D01*
X151969494Y-97504463D01*
X151859180Y-97445498D01*
X151739482Y-97409188D01*
X151615000Y-97396928D01*
X150985750Y-97400000D01*
X150827000Y-97558750D01*
X150660000Y-97558750D01*
X150660000Y-87322408D01*
X153103000Y-87322408D01*
X153103000Y-87597592D01*
X153156686Y-87867490D01*
X153261995Y-88121727D01*
X153414880Y-88350535D01*
X153609465Y-88545120D01*
X153838273Y-88698005D01*
X153915515Y-88730000D01*
X153838273Y-88761995D01*
X153609465Y-88914880D01*
X153414880Y-89109465D01*
X153261995Y-89338273D01*
X153156686Y-89592510D01*
X153103000Y-89862408D01*
X153103000Y-90137592D01*
X153156686Y-90407490D01*
X153261995Y-90661727D01*
X153414880Y-90890535D01*
X153609465Y-91085120D01*
X153838273Y-91238005D01*
X153915515Y-91270000D01*
X153838273Y-91301995D01*
X153609465Y-91454880D01*
X153414880Y-91649465D01*
X153261995Y-91878273D01*
X153156686Y-92132510D01*
X153103000Y-92402408D01*
X153103000Y-92677592D01*
X153156686Y-92947490D01*
X153261995Y-93201727D01*
X153414880Y-93430535D01*
X153609465Y-93625120D01*
X153838273Y-93778005D01*
X154092510Y-93883314D01*
X154362408Y-93937000D01*
X154637592Y-93937000D01*
X154907490Y-93883314D01*
X155161727Y-93778005D01*
X155390535Y-93625120D01*
X155585120Y-93430535D01*
X155738005Y-93201727D01*
X155843314Y-92947490D01*
X155879485Y-92765646D01*
X159230271Y-89414861D01*
X159156686Y-89592510D01*
X159103000Y-89862408D01*
X159103000Y-90137592D01*
X159156686Y-90407490D01*
X159261995Y-90661727D01*
X159414880Y-90890535D01*
X159609465Y-91085120D01*
X159838273Y-91238005D01*
X159915515Y-91270000D01*
X159838273Y-91301995D01*
X159609465Y-91454880D01*
X159414880Y-91649465D01*
X159261995Y-91878273D01*
X159156686Y-92132510D01*
X159103000Y-92402408D01*
X159103000Y-92677592D01*
X159156686Y-92947490D01*
X159261995Y-93201727D01*
X159414880Y-93430535D01*
X159609465Y-93625120D01*
X159838273Y-93778005D01*
X160092510Y-93883314D01*
X160362408Y-93937000D01*
X160637592Y-93937000D01*
X160907490Y-93883314D01*
X161161727Y-93778005D01*
X161265001Y-93709000D01*
X161265000Y-96993572D01*
X161115920Y-97115919D01*
X160942844Y-97326812D01*
X160814237Y-97567419D01*
X160735041Y-97828493D01*
X160715000Y-98031963D01*
X160715000Y-99968036D01*
X160735040Y-100171506D01*
X160814236Y-100432580D01*
X160942843Y-100673187D01*
X161115919Y-100884080D01*
X161265001Y-101006429D01*
X161265000Y-108993572D01*
X161115920Y-109115919D01*
X160942844Y-109326812D01*
X160814237Y-109567419D01*
X160735041Y-109828493D01*
X160715000Y-110031963D01*
X160715000Y-111968036D01*
X160735040Y-112171506D01*
X160814236Y-112432580D01*
X160942843Y-112673187D01*
X161115919Y-112884080D01*
X161265001Y-113006429D01*
X161265000Y-120405751D01*
X161265001Y-120405761D01*
X161265001Y-120993571D01*
X161115920Y-121115919D01*
X160942844Y-121326812D01*
X160814237Y-121567419D01*
X160735041Y-121828493D01*
X160715000Y-122031963D01*
X160715000Y-123968036D01*
X160735040Y-124171506D01*
X160814236Y-124432580D01*
X160942843Y-124673187D01*
X161115919Y-124884080D01*
X161288001Y-125025305D01*
X161288000Y-132974696D01*
X161115920Y-133115919D01*
X160942844Y-133326812D01*
X160814237Y-133567419D01*
X160735041Y-133828493D01*
X160715000Y-134031963D01*
X160715000Y-135968036D01*
X160735040Y-136171506D01*
X160814236Y-136432580D01*
X160942843Y-136673187D01*
X161115919Y-136884080D01*
X161326812Y-137057157D01*
X161567419Y-137185764D01*
X161828493Y-137264960D01*
X162100000Y-137291701D01*
X162371506Y-137264960D01*
X162632580Y-137185764D01*
X162873187Y-137057157D01*
X163084080Y-136884081D01*
X163257157Y-136673188D01*
X163385764Y-136432581D01*
X163464960Y-136171507D01*
X163485000Y-135968037D01*
X163485000Y-135409007D01*
X163541577Y-135222499D01*
X163558000Y-135055752D01*
X163558000Y-123078751D01*
X163563491Y-123023000D01*
X163541577Y-122800502D01*
X163535000Y-122778821D01*
X163535000Y-91955752D01*
X163540491Y-91900000D01*
X163518577Y-91677501D01*
X163453676Y-91463553D01*
X163348284Y-91266377D01*
X163291090Y-91196686D01*
X163206449Y-91093551D01*
X163163141Y-91058009D01*
X161879485Y-89774354D01*
X161843314Y-89592510D01*
X161738005Y-89338273D01*
X161585120Y-89109465D01*
X161390535Y-88914880D01*
X161161727Y-88761995D01*
X161084485Y-88730000D01*
X161161727Y-88698005D01*
X161390535Y-88545120D01*
X161585120Y-88350535D01*
X161738005Y-88121727D01*
X161843314Y-87867490D01*
X161879485Y-87685646D01*
X163163141Y-86401991D01*
X163206449Y-86366449D01*
X163348284Y-86193623D01*
X163453676Y-85996447D01*
X163518577Y-85782499D01*
X163535000Y-85615752D01*
X163540491Y-85560000D01*
X163535000Y-85504248D01*
X163535000Y-57221180D01*
X163541577Y-57199499D01*
X163558000Y-57032752D01*
X163558000Y-57032751D01*
X163563491Y-56977000D01*
X163558000Y-56921249D01*
X163558000Y-44944248D01*
X163541577Y-44777501D01*
X163485000Y-44590993D01*
X163485000Y-44031963D01*
X163464960Y-43828493D01*
X163385764Y-43567419D01*
X163257157Y-43326812D01*
X163084081Y-43115919D01*
X162873188Y-42942843D01*
X162632581Y-42814236D01*
X162371507Y-42735040D01*
X162100000Y-42708299D01*
X161828494Y-42735040D01*
X161567420Y-42814236D01*
X161326813Y-42942843D01*
X161115920Y-43115919D01*
X160942844Y-43326812D01*
X160814237Y-43567419D01*
X160735041Y-43828493D01*
X160715000Y-44031963D01*
X160715000Y-45968036D01*
X160735040Y-46171506D01*
X160814236Y-46432580D01*
X160942843Y-46673187D01*
X161115919Y-46884080D01*
X161288000Y-47025305D01*
X161288001Y-54974695D01*
X161115920Y-55115919D01*
X160942844Y-55326812D01*
X160814237Y-55567419D01*
X160735041Y-55828493D01*
X160715000Y-56031963D01*
X160715000Y-57968036D01*
X160735040Y-58171506D01*
X160814236Y-58432580D01*
X160942843Y-58673187D01*
X161115919Y-58884080D01*
X161265000Y-59006429D01*
X161265001Y-66993571D01*
X161115920Y-67115919D01*
X160942844Y-67326812D01*
X160814237Y-67567419D01*
X160735041Y-67828493D01*
X160715000Y-68031963D01*
X160715000Y-69968036D01*
X160735040Y-70171506D01*
X160814236Y-70432580D01*
X160942843Y-70673187D01*
X161115919Y-70884080D01*
X161265000Y-71006429D01*
X161265001Y-78993571D01*
X161115920Y-79115919D01*
X160942844Y-79326812D01*
X160814237Y-79567419D01*
X160735041Y-79828493D01*
X160715000Y-80031963D01*
X160715000Y-81968036D01*
X160735040Y-82171506D01*
X160814236Y-82432580D01*
X160942843Y-82673187D01*
X161115919Y-82884080D01*
X161265000Y-83006429D01*
X161265001Y-85089867D01*
X160274354Y-86080515D01*
X160092510Y-86116686D01*
X159838273Y-86221995D01*
X159684116Y-86325000D01*
X159635751Y-86325000D01*
X159580000Y-86319509D01*
X159524248Y-86325000D01*
X159357501Y-86341423D01*
X159143553Y-86406324D01*
X158946377Y-86511716D01*
X158773551Y-86653551D01*
X158738011Y-86696857D01*
X155843034Y-89591834D01*
X155738005Y-89338273D01*
X155585120Y-89109465D01*
X155390535Y-88914880D01*
X155161727Y-88761995D01*
X155084485Y-88730000D01*
X155161727Y-88698005D01*
X155390535Y-88545120D01*
X155585120Y-88350535D01*
X155738005Y-88121727D01*
X155843314Y-87867490D01*
X155897000Y-87597592D01*
X155897000Y-87322408D01*
X155843314Y-87052510D01*
X155738005Y-86798273D01*
X155585120Y-86569465D01*
X155390535Y-86374880D01*
X155161727Y-86221995D01*
X154907490Y-86116686D01*
X154637592Y-86063000D01*
X154362408Y-86063000D01*
X154092510Y-86116686D01*
X153838273Y-86221995D01*
X153609465Y-86374880D01*
X153414880Y-86569465D01*
X153261995Y-86798273D01*
X153156686Y-87052510D01*
X153103000Y-87322408D01*
X150660000Y-87322408D01*
X150660000Y-81127000D01*
X150827000Y-81127000D01*
X150827000Y-82441250D01*
X150985750Y-82600000D01*
X151615000Y-82603072D01*
X151739482Y-82590812D01*
X151859180Y-82554502D01*
X151969494Y-82495537D01*
X152066185Y-82416185D01*
X152145537Y-82319494D01*
X152204502Y-82209180D01*
X152240812Y-82089482D01*
X152253072Y-81965000D01*
X152250000Y-81285750D01*
X152091250Y-81127000D01*
X150827000Y-81127000D01*
X150660000Y-81127000D01*
X150660000Y-79558750D01*
X150827000Y-79558750D01*
X150827000Y-80873000D01*
X152091250Y-80873000D01*
X152250000Y-80714250D01*
X152253072Y-80035000D01*
X152252773Y-80031963D01*
X152415000Y-80031963D01*
X152415000Y-81968036D01*
X152435040Y-82171506D01*
X152514236Y-82432580D01*
X152642843Y-82673187D01*
X152815919Y-82884080D01*
X153026812Y-83057157D01*
X153267419Y-83185764D01*
X153528493Y-83264960D01*
X153800000Y-83291701D01*
X154071506Y-83264960D01*
X154332580Y-83185764D01*
X154573187Y-83057157D01*
X154784080Y-82884081D01*
X154957157Y-82673188D01*
X155085764Y-82432581D01*
X155164960Y-82171507D01*
X155185000Y-81968037D01*
X155185000Y-81769910D01*
X155284988Y-82011302D01*
X155518637Y-82360983D01*
X155816017Y-82658363D01*
X156165698Y-82892012D01*
X156554244Y-83052953D01*
X156966721Y-83135000D01*
X157387279Y-83135000D01*
X157799756Y-83052953D01*
X158188302Y-82892012D01*
X158537983Y-82658363D01*
X158835363Y-82360983D01*
X159069012Y-82011302D01*
X159229953Y-81622756D01*
X159312000Y-81210279D01*
X159312000Y-80789721D01*
X159229953Y-80377244D01*
X159069012Y-79988698D01*
X158835363Y-79639017D01*
X158537983Y-79341637D01*
X158188302Y-79107988D01*
X157799756Y-78947047D01*
X157387279Y-78865000D01*
X156966721Y-78865000D01*
X156554244Y-78947047D01*
X156165698Y-79107988D01*
X155816017Y-79341637D01*
X155518637Y-79639017D01*
X155284988Y-79988698D01*
X155185000Y-80230090D01*
X155185000Y-80031963D01*
X155164960Y-79828493D01*
X155085764Y-79567419D01*
X154957157Y-79326812D01*
X154784081Y-79115919D01*
X154573188Y-78942843D01*
X154332581Y-78814236D01*
X154071507Y-78735040D01*
X153800000Y-78708299D01*
X153528494Y-78735040D01*
X153267420Y-78814236D01*
X153026813Y-78942843D01*
X152815920Y-79115919D01*
X152642844Y-79326812D01*
X152514237Y-79567419D01*
X152435041Y-79828493D01*
X152415000Y-80031963D01*
X152252773Y-80031963D01*
X152240812Y-79910518D01*
X152204502Y-79790820D01*
X152145537Y-79680506D01*
X152066185Y-79583815D01*
X151969494Y-79504463D01*
X151859180Y-79445498D01*
X151739482Y-79409188D01*
X151615000Y-79396928D01*
X150985750Y-79400000D01*
X150827000Y-79558750D01*
X150660000Y-79558750D01*
X150660000Y-69127000D01*
X150827000Y-69127000D01*
X150827000Y-70441250D01*
X150985750Y-70600000D01*
X151615000Y-70603072D01*
X151739482Y-70590812D01*
X151859180Y-70554502D01*
X151969494Y-70495537D01*
X152066185Y-70416185D01*
X152145537Y-70319494D01*
X152204502Y-70209180D01*
X152240812Y-70089482D01*
X152253072Y-69965000D01*
X152250000Y-69285750D01*
X152091250Y-69127000D01*
X150827000Y-69127000D01*
X150660000Y-69127000D01*
X150660000Y-67558750D01*
X150827000Y-67558750D01*
X150827000Y-68873000D01*
X152091250Y-68873000D01*
X152250000Y-68714250D01*
X152253072Y-68035000D01*
X152252773Y-68031963D01*
X152415000Y-68031963D01*
X152415000Y-69968036D01*
X152435040Y-70171506D01*
X152514236Y-70432580D01*
X152642843Y-70673187D01*
X152815919Y-70884080D01*
X153026812Y-71057157D01*
X153267419Y-71185764D01*
X153528493Y-71264960D01*
X153800000Y-71291701D01*
X154071506Y-71264960D01*
X154332580Y-71185764D01*
X154573187Y-71057157D01*
X154784080Y-70884081D01*
X154957157Y-70673188D01*
X155085764Y-70432581D01*
X155164960Y-70171507D01*
X155185000Y-69968037D01*
X155185000Y-69769910D01*
X155284988Y-70011302D01*
X155518637Y-70360983D01*
X155816017Y-70658363D01*
X156165698Y-70892012D01*
X156554244Y-71052953D01*
X156966721Y-71135000D01*
X157387279Y-71135000D01*
X157799756Y-71052953D01*
X158188302Y-70892012D01*
X158537983Y-70658363D01*
X158835363Y-70360983D01*
X159069012Y-70011302D01*
X159229953Y-69622756D01*
X159312000Y-69210279D01*
X159312000Y-68789721D01*
X159229953Y-68377244D01*
X159069012Y-67988698D01*
X158835363Y-67639017D01*
X158537983Y-67341637D01*
X158188302Y-67107988D01*
X157799756Y-66947047D01*
X157387279Y-66865000D01*
X156966721Y-66865000D01*
X156554244Y-66947047D01*
X156165698Y-67107988D01*
X155816017Y-67341637D01*
X155518637Y-67639017D01*
X155284988Y-67988698D01*
X155185000Y-68230090D01*
X155185000Y-68031963D01*
X155164960Y-67828493D01*
X155085764Y-67567419D01*
X154957157Y-67326812D01*
X154784081Y-67115919D01*
X154573188Y-66942843D01*
X154332581Y-66814236D01*
X154071507Y-66735040D01*
X153800000Y-66708299D01*
X153528494Y-66735040D01*
X153267420Y-66814236D01*
X153026813Y-66942843D01*
X152815920Y-67115919D01*
X152642844Y-67326812D01*
X152514237Y-67567419D01*
X152435041Y-67828493D01*
X152415000Y-68031963D01*
X152252773Y-68031963D01*
X152240812Y-67910518D01*
X152204502Y-67790820D01*
X152145537Y-67680506D01*
X152066185Y-67583815D01*
X151969494Y-67504463D01*
X151859180Y-67445498D01*
X151739482Y-67409188D01*
X151615000Y-67396928D01*
X150985750Y-67400000D01*
X150827000Y-67558750D01*
X150660000Y-67558750D01*
X150660000Y-57127000D01*
X150827000Y-57127000D01*
X150827000Y-58441250D01*
X150985750Y-58600000D01*
X151615000Y-58603072D01*
X151739482Y-58590812D01*
X151859180Y-58554502D01*
X151969494Y-58495537D01*
X152066185Y-58416185D01*
X152145537Y-58319494D01*
X152204502Y-58209180D01*
X152240812Y-58089482D01*
X152253072Y-57965000D01*
X152250000Y-57285750D01*
X152091250Y-57127000D01*
X150827000Y-57127000D01*
X150660000Y-57127000D01*
X150660000Y-55558750D01*
X150827000Y-55558750D01*
X150827000Y-56873000D01*
X152091250Y-56873000D01*
X152250000Y-56714250D01*
X152253072Y-56035000D01*
X152252773Y-56031963D01*
X152415000Y-56031963D01*
X152415000Y-57968036D01*
X152435040Y-58171506D01*
X152514236Y-58432580D01*
X152642843Y-58673187D01*
X152815919Y-58884080D01*
X153026812Y-59057157D01*
X153267419Y-59185764D01*
X153528493Y-59264960D01*
X153800000Y-59291701D01*
X154071506Y-59264960D01*
X154332580Y-59185764D01*
X154573187Y-59057157D01*
X154784080Y-58884081D01*
X154957157Y-58673188D01*
X155085764Y-58432581D01*
X155164960Y-58171507D01*
X155185000Y-57968037D01*
X155185000Y-57769910D01*
X155284988Y-58011302D01*
X155518637Y-58360983D01*
X155816017Y-58658363D01*
X156165698Y-58892012D01*
X156554244Y-59052953D01*
X156966721Y-59135000D01*
X157387279Y-59135000D01*
X157799756Y-59052953D01*
X158188302Y-58892012D01*
X158537983Y-58658363D01*
X158835363Y-58360983D01*
X159069012Y-58011302D01*
X159229953Y-57622756D01*
X159312000Y-57210279D01*
X159312000Y-56789721D01*
X159229953Y-56377244D01*
X159069012Y-55988698D01*
X158835363Y-55639017D01*
X158537983Y-55341637D01*
X158188302Y-55107988D01*
X157799756Y-54947047D01*
X157387279Y-54865000D01*
X156966721Y-54865000D01*
X156554244Y-54947047D01*
X156165698Y-55107988D01*
X155816017Y-55341637D01*
X155518637Y-55639017D01*
X155284988Y-55988698D01*
X155185000Y-56230090D01*
X155185000Y-56031963D01*
X155164960Y-55828493D01*
X155085764Y-55567419D01*
X154957157Y-55326812D01*
X154784081Y-55115919D01*
X154573188Y-54942843D01*
X154332581Y-54814236D01*
X154071507Y-54735040D01*
X153800000Y-54708299D01*
X153528494Y-54735040D01*
X153267420Y-54814236D01*
X153026813Y-54942843D01*
X152815920Y-55115919D01*
X152642844Y-55326812D01*
X152514237Y-55567419D01*
X152435041Y-55828493D01*
X152415000Y-56031963D01*
X152252773Y-56031963D01*
X152240812Y-55910518D01*
X152204502Y-55790820D01*
X152145537Y-55680506D01*
X152066185Y-55583815D01*
X151969494Y-55504463D01*
X151859180Y-55445498D01*
X151739482Y-55409188D01*
X151615000Y-55396928D01*
X150985750Y-55400000D01*
X150827000Y-55558750D01*
X150660000Y-55558750D01*
X150660000Y-45127000D01*
X150827000Y-45127000D01*
X150827000Y-46441250D01*
X150985750Y-46600000D01*
X151615000Y-46603072D01*
X151739482Y-46590812D01*
X151859180Y-46554502D01*
X151969494Y-46495537D01*
X152066185Y-46416185D01*
X152145537Y-46319494D01*
X152204502Y-46209180D01*
X152240812Y-46089482D01*
X152253072Y-45965000D01*
X152250000Y-45285750D01*
X152091250Y-45127000D01*
X150827000Y-45127000D01*
X150660000Y-45127000D01*
X150660000Y-43558750D01*
X150827000Y-43558750D01*
X150827000Y-44873000D01*
X152091250Y-44873000D01*
X152250000Y-44714250D01*
X152253072Y-44035000D01*
X152252773Y-44031963D01*
X152415000Y-44031963D01*
X152415000Y-45968036D01*
X152435040Y-46171506D01*
X152514236Y-46432580D01*
X152642843Y-46673187D01*
X152815919Y-46884080D01*
X153026812Y-47057157D01*
X153267419Y-47185764D01*
X153528493Y-47264960D01*
X153800000Y-47291701D01*
X154071506Y-47264960D01*
X154332580Y-47185764D01*
X154573187Y-47057157D01*
X154784080Y-46884081D01*
X154957157Y-46673188D01*
X155085764Y-46432581D01*
X155164960Y-46171507D01*
X155185000Y-45968037D01*
X155185000Y-45769910D01*
X155284988Y-46011302D01*
X155518637Y-46360983D01*
X155816017Y-46658363D01*
X156165698Y-46892012D01*
X156554244Y-47052953D01*
X156966721Y-47135000D01*
X157387279Y-47135000D01*
X157799756Y-47052953D01*
X158188302Y-46892012D01*
X158537983Y-46658363D01*
X158835363Y-46360983D01*
X159069012Y-46011302D01*
X159229953Y-45622756D01*
X159312000Y-45210279D01*
X159312000Y-44789721D01*
X159229953Y-44377244D01*
X159069012Y-43988698D01*
X158835363Y-43639017D01*
X158537983Y-43341637D01*
X158188302Y-43107988D01*
X157799756Y-42947047D01*
X157387279Y-42865000D01*
X156966721Y-42865000D01*
X156554244Y-42947047D01*
X156165698Y-43107988D01*
X155816017Y-43341637D01*
X155518637Y-43639017D01*
X155284988Y-43988698D01*
X155185000Y-44230090D01*
X155185000Y-44031963D01*
X155164960Y-43828493D01*
X155085764Y-43567419D01*
X154957157Y-43326812D01*
X154784081Y-43115919D01*
X154573188Y-42942843D01*
X154332581Y-42814236D01*
X154071507Y-42735040D01*
X153800000Y-42708299D01*
X153528494Y-42735040D01*
X153267420Y-42814236D01*
X153026813Y-42942843D01*
X152815920Y-43115919D01*
X152642844Y-43326812D01*
X152514237Y-43567419D01*
X152435041Y-43828493D01*
X152415000Y-44031963D01*
X152252773Y-44031963D01*
X152240812Y-43910518D01*
X152204502Y-43790820D01*
X152145537Y-43680506D01*
X152066185Y-43583815D01*
X151969494Y-43504463D01*
X151859180Y-43445498D01*
X151739482Y-43409188D01*
X151615000Y-43396928D01*
X150985750Y-43400000D01*
X150827000Y-43558750D01*
X150660000Y-43558750D01*
X150660000Y-40660000D01*
X164340000Y-40660000D01*
X164340001Y-139340000D01*
M02*
