G04 #@! TF.GenerationSoftware,KiCad,Pcbnew,(5.1.4)-1*
G04 #@! TF.CreationDate,2019-11-26T21:34:17-08:00*
G04 #@! TF.ProjectId,PassiveMultiples,50617373-6976-4654-9d75-6c7469706c65,rev?*
G04 #@! TF.SameCoordinates,Original*
G04 #@! TF.FileFunction,Legend,Top*
G04 #@! TF.FilePolarity,Positive*
%FSLAX46Y46*%
G04 Gerber Fmt 4.6, Leading zero omitted, Abs format (unit mm)*
G04 Created by KiCad (PCBNEW (5.1.4)-1) date 2019-11-26 21:34:17*
%MOMM*%
%LPD*%
G04 APERTURE LIST*
%ADD10C,0.150000*%
%ADD11C,0.120000*%
G04 APERTURE END LIST*
D10*
X153500000Y-94000000D02*
X153500000Y-90000000D01*
X161500000Y-94000000D02*
X153500000Y-94000000D01*
X161500000Y-86000000D02*
X161500000Y-94000000D01*
X153500000Y-86000000D02*
X161500000Y-86000000D01*
X153500000Y-90000000D02*
X153500000Y-86000000D01*
D11*
X152680000Y-49500000D02*
X163180000Y-49500000D01*
X152680000Y-40500000D02*
X163180000Y-40500000D01*
X163180000Y-40500000D02*
X163180000Y-44500000D01*
X163180000Y-45500000D02*
X163180000Y-49500000D01*
X152680000Y-40500000D02*
X152680000Y-44650000D01*
X152680000Y-45350000D02*
X152680000Y-49500000D01*
X158980000Y-45000000D02*
G75*
G03X158980000Y-45000000I-1800000J0D01*
G01*
X149700000Y-46060000D02*
X150500000Y-46060000D01*
X149700000Y-46060000D02*
X149700000Y-45200000D01*
X152680000Y-61500000D02*
X163180000Y-61500000D01*
X152680000Y-52500000D02*
X163180000Y-52500000D01*
X163180000Y-52500000D02*
X163180000Y-56500000D01*
X163180000Y-57500000D02*
X163180000Y-61500000D01*
X152680000Y-52500000D02*
X152680000Y-56650000D01*
X152680000Y-57350000D02*
X152680000Y-61500000D01*
X158980000Y-57000000D02*
G75*
G03X158980000Y-57000000I-1800000J0D01*
G01*
X149700000Y-58060000D02*
X150500000Y-58060000D01*
X149700000Y-58060000D02*
X149700000Y-57200000D01*
X152680000Y-73500000D02*
X163180000Y-73500000D01*
X152680000Y-64500000D02*
X163180000Y-64500000D01*
X163180000Y-64500000D02*
X163180000Y-68500000D01*
X163180000Y-69500000D02*
X163180000Y-73500000D01*
X152680000Y-64500000D02*
X152680000Y-68650000D01*
X152680000Y-69350000D02*
X152680000Y-73500000D01*
X158980000Y-69000000D02*
G75*
G03X158980000Y-69000000I-1800000J0D01*
G01*
X149700000Y-70060000D02*
X150500000Y-70060000D01*
X149700000Y-70060000D02*
X149700000Y-69200000D01*
X152680000Y-85500000D02*
X163180000Y-85500000D01*
X152680000Y-76500000D02*
X163180000Y-76500000D01*
X163180000Y-76500000D02*
X163180000Y-80500000D01*
X163180000Y-81500000D02*
X163180000Y-85500000D01*
X152680000Y-76500000D02*
X152680000Y-80650000D01*
X152680000Y-81350000D02*
X152680000Y-85500000D01*
X158980000Y-81000000D02*
G75*
G03X158980000Y-81000000I-1800000J0D01*
G01*
X149700000Y-82060000D02*
X150500000Y-82060000D01*
X149700000Y-82060000D02*
X149700000Y-81200000D01*
X152680000Y-103500000D02*
X163180000Y-103500000D01*
X152680000Y-94500000D02*
X163180000Y-94500000D01*
X163180000Y-94500000D02*
X163180000Y-98500000D01*
X163180000Y-99500000D02*
X163180000Y-103500000D01*
X152680000Y-94500000D02*
X152680000Y-98650000D01*
X152680000Y-99350000D02*
X152680000Y-103500000D01*
X158980000Y-99000000D02*
G75*
G03X158980000Y-99000000I-1800000J0D01*
G01*
X149700000Y-100060000D02*
X150500000Y-100060000D01*
X149700000Y-100060000D02*
X149700000Y-99200000D01*
X152680000Y-115500000D02*
X163180000Y-115500000D01*
X152680000Y-106500000D02*
X163180000Y-106500000D01*
X163180000Y-106500000D02*
X163180000Y-110500000D01*
X163180000Y-111500000D02*
X163180000Y-115500000D01*
X152680000Y-106500000D02*
X152680000Y-110650000D01*
X152680000Y-111350000D02*
X152680000Y-115500000D01*
X158980000Y-111000000D02*
G75*
G03X158980000Y-111000000I-1800000J0D01*
G01*
X149700000Y-112060000D02*
X150500000Y-112060000D01*
X149700000Y-112060000D02*
X149700000Y-111200000D01*
X152680000Y-127500000D02*
X163180000Y-127500000D01*
X152680000Y-118500000D02*
X163180000Y-118500000D01*
X163180000Y-118500000D02*
X163180000Y-122500000D01*
X163180000Y-123500000D02*
X163180000Y-127500000D01*
X152680000Y-118500000D02*
X152680000Y-122650000D01*
X152680000Y-123350000D02*
X152680000Y-127500000D01*
X158980000Y-123000000D02*
G75*
G03X158980000Y-123000000I-1800000J0D01*
G01*
X149700000Y-124060000D02*
X150500000Y-124060000D01*
X149700000Y-124060000D02*
X149700000Y-123200000D01*
X152680000Y-139500000D02*
X163180000Y-139500000D01*
X152680000Y-130500000D02*
X163180000Y-130500000D01*
X163180000Y-130500000D02*
X163180000Y-134500000D01*
X163180000Y-135500000D02*
X163180000Y-139500000D01*
X152680000Y-130500000D02*
X152680000Y-134650000D01*
X152680000Y-135350000D02*
X152680000Y-139500000D01*
X158980000Y-135000000D02*
G75*
G03X158980000Y-135000000I-1800000J0D01*
G01*
X149700000Y-136060000D02*
X150500000Y-136060000D01*
X149700000Y-136060000D02*
X149700000Y-135200000D01*
D10*
X153404761Y-91333333D02*
X153452380Y-91190476D01*
X153452380Y-90952380D01*
X153404761Y-90857142D01*
X153357142Y-90809523D01*
X153261904Y-90761904D01*
X153166666Y-90761904D01*
X153071428Y-90809523D01*
X153023809Y-90857142D01*
X152976190Y-90952380D01*
X152928571Y-91142857D01*
X152880952Y-91238095D01*
X152833333Y-91285714D01*
X152738095Y-91333333D01*
X152642857Y-91333333D01*
X152547619Y-91285714D01*
X152500000Y-91238095D01*
X152452380Y-91142857D01*
X152452380Y-90904761D01*
X152500000Y-90761904D01*
X152452380Y-90428571D02*
X153452380Y-90190476D01*
X152738095Y-90000000D01*
X153452380Y-89809523D01*
X152452380Y-89571428D01*
X153452380Y-88666666D02*
X153452380Y-89238095D01*
X153452380Y-88952380D02*
X152452380Y-88952380D01*
X152595238Y-89047619D01*
X152690476Y-89142857D01*
X152738095Y-89238095D01*
X151232380Y-49363333D02*
X151946666Y-49363333D01*
X152089523Y-49410952D01*
X152184761Y-49506190D01*
X152232380Y-49649047D01*
X152232380Y-49744285D01*
X152232380Y-48363333D02*
X152232380Y-48934761D01*
X152232380Y-48649047D02*
X151232380Y-48649047D01*
X151375238Y-48744285D01*
X151470476Y-48839523D01*
X151518095Y-48934761D01*
X151232380Y-61363333D02*
X151946666Y-61363333D01*
X152089523Y-61410952D01*
X152184761Y-61506190D01*
X152232380Y-61649047D01*
X152232380Y-61744285D01*
X151327619Y-60934761D02*
X151280000Y-60887142D01*
X151232380Y-60791904D01*
X151232380Y-60553809D01*
X151280000Y-60458571D01*
X151327619Y-60410952D01*
X151422857Y-60363333D01*
X151518095Y-60363333D01*
X151660952Y-60410952D01*
X152232380Y-60982380D01*
X152232380Y-60363333D01*
X151232380Y-73363333D02*
X151946666Y-73363333D01*
X152089523Y-73410952D01*
X152184761Y-73506190D01*
X152232380Y-73649047D01*
X152232380Y-73744285D01*
X151232380Y-72982380D02*
X151232380Y-72363333D01*
X151613333Y-72696666D01*
X151613333Y-72553809D01*
X151660952Y-72458571D01*
X151708571Y-72410952D01*
X151803809Y-72363333D01*
X152041904Y-72363333D01*
X152137142Y-72410952D01*
X152184761Y-72458571D01*
X152232380Y-72553809D01*
X152232380Y-72839523D01*
X152184761Y-72934761D01*
X152137142Y-72982380D01*
X151232380Y-85363333D02*
X151946666Y-85363333D01*
X152089523Y-85410952D01*
X152184761Y-85506190D01*
X152232380Y-85649047D01*
X152232380Y-85744285D01*
X151565714Y-84458571D02*
X152232380Y-84458571D01*
X151184761Y-84696666D02*
X151899047Y-84934761D01*
X151899047Y-84315714D01*
X151232380Y-103363333D02*
X151946666Y-103363333D01*
X152089523Y-103410952D01*
X152184761Y-103506190D01*
X152232380Y-103649047D01*
X152232380Y-103744285D01*
X151232380Y-102410952D02*
X151232380Y-102887142D01*
X151708571Y-102934761D01*
X151660952Y-102887142D01*
X151613333Y-102791904D01*
X151613333Y-102553809D01*
X151660952Y-102458571D01*
X151708571Y-102410952D01*
X151803809Y-102363333D01*
X152041904Y-102363333D01*
X152137142Y-102410952D01*
X152184761Y-102458571D01*
X152232380Y-102553809D01*
X152232380Y-102791904D01*
X152184761Y-102887142D01*
X152137142Y-102934761D01*
X151232380Y-115363333D02*
X151946666Y-115363333D01*
X152089523Y-115410952D01*
X152184761Y-115506190D01*
X152232380Y-115649047D01*
X152232380Y-115744285D01*
X151232380Y-114458571D02*
X151232380Y-114649047D01*
X151280000Y-114744285D01*
X151327619Y-114791904D01*
X151470476Y-114887142D01*
X151660952Y-114934761D01*
X152041904Y-114934761D01*
X152137142Y-114887142D01*
X152184761Y-114839523D01*
X152232380Y-114744285D01*
X152232380Y-114553809D01*
X152184761Y-114458571D01*
X152137142Y-114410952D01*
X152041904Y-114363333D01*
X151803809Y-114363333D01*
X151708571Y-114410952D01*
X151660952Y-114458571D01*
X151613333Y-114553809D01*
X151613333Y-114744285D01*
X151660952Y-114839523D01*
X151708571Y-114887142D01*
X151803809Y-114934761D01*
X151232380Y-127363333D02*
X151946666Y-127363333D01*
X152089523Y-127410952D01*
X152184761Y-127506190D01*
X152232380Y-127649047D01*
X152232380Y-127744285D01*
X151232380Y-126982380D02*
X151232380Y-126315714D01*
X152232380Y-126744285D01*
X151232380Y-139363333D02*
X151946666Y-139363333D01*
X152089523Y-139410952D01*
X152184761Y-139506190D01*
X152232380Y-139649047D01*
X152232380Y-139744285D01*
X151660952Y-138744285D02*
X151613333Y-138839523D01*
X151565714Y-138887142D01*
X151470476Y-138934761D01*
X151422857Y-138934761D01*
X151327619Y-138887142D01*
X151280000Y-138839523D01*
X151232380Y-138744285D01*
X151232380Y-138553809D01*
X151280000Y-138458571D01*
X151327619Y-138410952D01*
X151422857Y-138363333D01*
X151470476Y-138363333D01*
X151565714Y-138410952D01*
X151613333Y-138458571D01*
X151660952Y-138553809D01*
X151660952Y-138744285D01*
X151708571Y-138839523D01*
X151756190Y-138887142D01*
X151851428Y-138934761D01*
X152041904Y-138934761D01*
X152137142Y-138887142D01*
X152184761Y-138839523D01*
X152232380Y-138744285D01*
X152232380Y-138553809D01*
X152184761Y-138458571D01*
X152137142Y-138410952D01*
X152041904Y-138363333D01*
X151851428Y-138363333D01*
X151756190Y-138410952D01*
X151708571Y-138458571D01*
X151660952Y-138553809D01*
M02*
