G04 #@! TF.GenerationSoftware,KiCad,Pcbnew,10.0.6*
G04 #@! TF.CreationDate,2026-09-30T21:29:56-07:00*
G04 #@! TF.ProjectId,PassiveMultiplesFaceplate,50617373-6976-4654-9d75-6c7469706c65,rev?*
G04 #@! TF.SameCoordinates,Original*
G04 #@! TF.FileFunction,Legend,Top*
G04 #@! TF.FilePolarity,Positive*
%FSLAX46Y46*%
G04 Gerber Fmt 4.6, Leading zero omitted, Abs format (unit mm)*
G04 Created by KiCad (PCBNEW 10.0.6) date 2026-09-30 21:29:56*
%MOMM*%
%LPD*%
G01*
G04 APERTURE LIST*
%ADD10C,0.400000*%
%ADD11C,0.500000*%
%ADD12C,0.700000*%
%ADD13C,0.010000*%
G04 APERTURE END LIST*
D10*
X143199405Y-62135747D02*
X143511905Y-59635747D01*
X143511905Y-59635747D02*
X144122024Y-61421461D01*
X144122024Y-61421461D02*
X145178571Y-59635747D01*
X145178571Y-59635747D02*
X144866071Y-62135747D01*
X147336310Y-60469080D02*
X147127976Y-62135747D01*
X146264881Y-60469080D02*
X146101191Y-61778604D01*
X146101191Y-61778604D02*
X146190476Y-62016700D01*
X146190476Y-62016700D02*
X146413691Y-62135747D01*
X146413691Y-62135747D02*
X146770833Y-62135747D01*
X146770833Y-62135747D02*
X147023810Y-62016700D01*
X147023810Y-62016700D02*
X147157738Y-61897652D01*
X148675596Y-62135747D02*
X148452381Y-62016700D01*
X148452381Y-62016700D02*
X148363096Y-61778604D01*
X148363096Y-61778604D02*
X148630953Y-59635747D01*
X149479167Y-60469080D02*
X150431548Y-60469080D01*
X149940477Y-59635747D02*
X149672620Y-61778604D01*
X149672620Y-61778604D02*
X149761905Y-62016700D01*
X149761905Y-62016700D02*
X149985120Y-62135747D01*
X149985120Y-62135747D02*
X150223215Y-62135747D01*
X151056548Y-62135747D02*
X151264881Y-60469080D01*
X151369048Y-59635747D02*
X151235119Y-59754795D01*
X151235119Y-59754795D02*
X151339286Y-59873842D01*
X151339286Y-59873842D02*
X151473214Y-59754795D01*
X151473214Y-59754795D02*
X151369048Y-59635747D01*
X151369048Y-59635747D02*
X151339286Y-59873842D01*
X152455357Y-60469080D02*
X152142857Y-62969080D01*
X152440476Y-60588128D02*
X152693452Y-60469080D01*
X152693452Y-60469080D02*
X153169643Y-60469080D01*
X153169643Y-60469080D02*
X153392857Y-60588128D01*
X153392857Y-60588128D02*
X153497024Y-60707176D01*
X153497024Y-60707176D02*
X153586309Y-60945271D01*
X153586309Y-60945271D02*
X153497024Y-61659557D01*
X153497024Y-61659557D02*
X153348214Y-61897652D01*
X153348214Y-61897652D02*
X153214286Y-62016700D01*
X153214286Y-62016700D02*
X152961309Y-62135747D01*
X152961309Y-62135747D02*
X152485119Y-62135747D01*
X152485119Y-62135747D02*
X152261905Y-62016700D01*
X154866072Y-62135747D02*
X154642857Y-62016700D01*
X154642857Y-62016700D02*
X154553572Y-61778604D01*
X154553572Y-61778604D02*
X154821429Y-59635747D01*
X156785715Y-62016700D02*
X156532738Y-62135747D01*
X156532738Y-62135747D02*
X156056548Y-62135747D01*
X156056548Y-62135747D02*
X155833334Y-62016700D01*
X155833334Y-62016700D02*
X155744048Y-61778604D01*
X155744048Y-61778604D02*
X155863096Y-60826223D01*
X155863096Y-60826223D02*
X156011905Y-60588128D01*
X156011905Y-60588128D02*
X156264881Y-60469080D01*
X156264881Y-60469080D02*
X156741072Y-60469080D01*
X156741072Y-60469080D02*
X156964286Y-60588128D01*
X156964286Y-60588128D02*
X157053572Y-60826223D01*
X157053572Y-60826223D02*
X157023810Y-61064319D01*
X157023810Y-61064319D02*
X155803572Y-61302414D01*
D11*
X145000000Y-126000000D02*
X145000000Y-120000000D01*
X145000000Y-108000000D02*
X145000000Y-113750000D01*
X145000000Y-120000000D02*
X143250000Y-114000000D01*
D12*
X145250000Y-114000000D02*
G75*
G02*
X144750000Y-114000000I-250000J0D01*
G01*
X144750000Y-114000000D02*
G75*
G02*
X145250000Y-114000000I250000J0D01*
G01*
X145250000Y-120000000D02*
G75*
G02*
X144750000Y-120000000I-250000J0D01*
G01*
X144750000Y-120000000D02*
G75*
G02*
X145250000Y-120000000I250000J0D01*
G01*
D11*
X150000000Y-126000000D02*
X145000000Y-126000000D01*
X150000000Y-108000000D02*
X145000000Y-108000000D01*
X150000000Y-126000000D02*
X150000000Y-162000000D01*
X150000000Y-72000000D02*
X150000000Y-108000000D01*
D13*
X143802444Y-173717333D02*
X143802444Y-174535778D01*
X143520222Y-174535778D01*
X143520222Y-173717333D01*
X143802444Y-173717333D01*
G36*
X143802444Y-174535778D02*
G01*
X143520222Y-174535778D01*
X143520222Y-173717333D01*
X143802444Y-173717333D01*
X143802444Y-174535778D01*
G37*
X143266222Y-160622222D02*
X143266222Y-161082244D01*
X143267297Y-161267998D01*
X143271606Y-161404687D01*
X143280772Y-161499669D01*
X143296421Y-161560300D01*
X143320176Y-161593938D01*
X143353661Y-161607941D01*
X143382739Y-161610000D01*
X143435562Y-161602091D01*
X143473261Y-161573300D01*
X143498195Y-161516029D01*
X143512723Y-161422684D01*
X143519205Y-161285666D01*
X143520222Y-161167327D01*
X143521387Y-161013435D01*
X143525945Y-160903573D01*
X143535490Y-160825358D01*
X143551617Y-160766404D01*
X143575919Y-160714327D01*
X143579326Y-160708190D01*
X143669749Y-160597946D01*
X143786542Y-160527806D01*
X143917672Y-160497800D01*
X144051105Y-160507955D01*
X144174806Y-160558299D01*
X144276740Y-160648863D01*
X144314308Y-160706449D01*
X144332893Y-160747240D01*
X144346576Y-160795917D01*
X144356081Y-160861314D01*
X144362131Y-160952266D01*
X144365449Y-161077606D01*
X144366760Y-161246169D01*
X144366889Y-161348504D01*
X144366889Y-161892222D01*
X144056444Y-161892222D01*
X144056444Y-161375756D01*
X144055604Y-161179372D01*
X144052143Y-161032376D01*
X144044651Y-160927722D01*
X144031719Y-160858364D01*
X144011936Y-160817260D01*
X143983891Y-160797363D01*
X143946176Y-160791630D01*
X143939511Y-160791556D01*
X143886981Y-160803989D01*
X143848860Y-160845487D01*
X143823326Y-160922345D01*
X143808555Y-161040860D01*
X143802723Y-161207329D01*
X143802444Y-161264903D01*
X143799364Y-161445128D01*
X143788055Y-161579117D01*
X143765418Y-161676847D01*
X143728353Y-161748293D01*
X143673759Y-161803433D01*
X143624685Y-161836920D01*
X143510557Y-161879978D01*
X143374221Y-161892117D01*
X143270050Y-161886934D01*
X143197319Y-161866269D01*
X143131602Y-161822702D01*
X143123439Y-161815929D01*
X143066048Y-161762095D01*
X143023293Y-161704616D01*
X142993081Y-161634417D01*
X142973320Y-161542424D01*
X142961918Y-161419562D01*
X142956781Y-161256757D01*
X142955778Y-161088795D01*
X142955778Y-160622222D01*
X143266222Y-160622222D01*
G36*
X144051105Y-160507955D02*
G01*
X144174806Y-160558299D01*
X144276740Y-160648863D01*
X144314308Y-160706449D01*
X144332893Y-160747240D01*
X144346576Y-160795917D01*
X144356081Y-160861314D01*
X144362131Y-160952266D01*
X144365449Y-161077606D01*
X144366760Y-161246169D01*
X144366889Y-161348504D01*
X144366889Y-161892222D01*
X144056444Y-161892222D01*
X144056444Y-161375756D01*
X144055604Y-161179372D01*
X144052143Y-161032376D01*
X144044651Y-160927722D01*
X144031719Y-160858364D01*
X144011936Y-160817260D01*
X143983891Y-160797363D01*
X143946176Y-160791630D01*
X143939511Y-160791556D01*
X143886981Y-160803989D01*
X143848860Y-160845487D01*
X143823326Y-160922345D01*
X143808555Y-161040860D01*
X143802723Y-161207329D01*
X143802444Y-161264903D01*
X143799364Y-161445128D01*
X143788055Y-161579117D01*
X143765418Y-161676847D01*
X143728353Y-161748293D01*
X143673759Y-161803433D01*
X143624685Y-161836920D01*
X143510557Y-161879978D01*
X143374221Y-161892117D01*
X143270050Y-161886934D01*
X143197319Y-161866269D01*
X143131602Y-161822702D01*
X143123439Y-161815929D01*
X143066048Y-161762095D01*
X143023293Y-161704616D01*
X142993081Y-161634417D01*
X142973320Y-161542424D01*
X142961918Y-161419562D01*
X142956781Y-161256757D01*
X142955778Y-161088795D01*
X142955778Y-160622222D01*
X143266222Y-160622222D01*
X143266222Y-161082244D01*
X143267297Y-161267998D01*
X143271606Y-161404687D01*
X143280772Y-161499669D01*
X143296421Y-161560300D01*
X143320176Y-161593938D01*
X143353661Y-161607941D01*
X143382739Y-161610000D01*
X143435562Y-161602091D01*
X143473261Y-161573300D01*
X143498195Y-161516029D01*
X143512723Y-161422684D01*
X143519205Y-161285666D01*
X143520222Y-161167327D01*
X143521387Y-161013435D01*
X143525945Y-160903573D01*
X143535490Y-160825358D01*
X143551617Y-160766404D01*
X143575919Y-160714327D01*
X143579326Y-160708190D01*
X143669749Y-160597946D01*
X143786542Y-160527806D01*
X143917672Y-160497800D01*
X144051105Y-160507955D01*
G37*
X143264889Y-162033333D02*
X143272611Y-162520167D01*
X143280333Y-163007000D01*
X143667719Y-163014848D01*
X144055104Y-163022695D01*
X144062830Y-162535070D01*
X144070555Y-162047444D01*
X144366889Y-162030384D01*
X144366783Y-162546914D01*
X144366239Y-162732664D01*
X144364124Y-162871085D01*
X144359586Y-162971287D01*
X144351774Y-163042380D01*
X144339834Y-163093477D01*
X144322915Y-163133686D01*
X144309721Y-163156865D01*
X144263406Y-163219351D01*
X144205813Y-163265379D01*
X144128208Y-163297278D01*
X144021855Y-163317379D01*
X143878021Y-163328011D01*
X143687971Y-163331504D01*
X143654744Y-163331556D01*
X143486701Y-163330420D01*
X143364250Y-163326267D01*
X143276573Y-163317981D01*
X143212848Y-163304447D01*
X143162255Y-163284546D01*
X143152893Y-163279773D01*
X143088385Y-163240333D01*
X143039508Y-163193606D01*
X143004156Y-163131623D01*
X142980222Y-163046414D01*
X142965599Y-162930011D01*
X142958181Y-162774445D01*
X142955860Y-162571744D01*
X142955821Y-162534278D01*
X142955778Y-162033333D01*
X143264889Y-162033333D01*
G36*
X144366783Y-162546914D02*
G01*
X144366239Y-162732664D01*
X144364124Y-162871085D01*
X144359586Y-162971287D01*
X144351774Y-163042380D01*
X144339834Y-163093477D01*
X144322915Y-163133686D01*
X144309721Y-163156865D01*
X144263406Y-163219351D01*
X144205813Y-163265379D01*
X144128208Y-163297278D01*
X144021855Y-163317379D01*
X143878021Y-163328011D01*
X143687971Y-163331504D01*
X143654744Y-163331556D01*
X143486701Y-163330420D01*
X143364250Y-163326267D01*
X143276573Y-163317981D01*
X143212848Y-163304447D01*
X143162255Y-163284546D01*
X143152893Y-163279773D01*
X143088385Y-163240333D01*
X143039508Y-163193606D01*
X143004156Y-163131623D01*
X142980222Y-163046414D01*
X142965599Y-162930011D01*
X142958181Y-162774445D01*
X142955860Y-162571744D01*
X142955821Y-162534278D01*
X142955778Y-162033333D01*
X143264889Y-162033333D01*
X143272611Y-162520167D01*
X143280333Y-163007000D01*
X143667719Y-163014848D01*
X144055104Y-163022695D01*
X144062830Y-162535070D01*
X144070555Y-162047444D01*
X144366889Y-162030384D01*
X144366783Y-162546914D01*
G37*
X144366889Y-163529111D02*
X144366889Y-163839556D01*
X142955778Y-163839556D01*
X142955778Y-163529111D01*
X144366889Y-163529111D01*
G36*
X144366889Y-163839556D02*
G01*
X142955778Y-163839556D01*
X142955778Y-163529111D01*
X144366889Y-163529111D01*
X144366889Y-163839556D01*
G37*
X142957959Y-168347502D02*
X142960058Y-168173346D01*
X142961203Y-168097108D01*
X142969889Y-167531921D01*
X143062056Y-167449627D01*
X143113972Y-167407506D01*
X143163983Y-167382851D01*
X143229514Y-167371049D01*
X143327993Y-167367487D01*
X143372941Y-167367333D01*
X143541004Y-167376887D01*
X143666766Y-167409239D01*
X143761666Y-167469922D01*
X143837142Y-167564473D01*
X143858889Y-167602465D01*
X143901282Y-167676153D01*
X143934311Y-167723945D01*
X143946201Y-167734141D01*
X143970193Y-167713937D01*
X144021872Y-167659273D01*
X144092944Y-167579180D01*
X144153487Y-167508444D01*
X144233037Y-167415390D01*
X144298598Y-167340975D01*
X144342122Y-167294198D01*
X144355453Y-167282667D01*
X144360807Y-167308641D01*
X144364819Y-167377579D01*
X144366794Y-167476004D01*
X144366889Y-167504457D01*
X144366889Y-167726248D01*
X144157205Y-167965442D01*
X144060863Y-168078460D01*
X143997456Y-168162218D01*
X143960201Y-168227560D01*
X143942314Y-168285331D01*
X143938483Y-168315151D01*
X143929444Y-168425667D01*
X143781278Y-168434197D01*
X143633111Y-168442728D01*
X143633111Y-168115414D01*
X143632408Y-167973886D01*
X143628932Y-167877042D01*
X143620627Y-167813128D01*
X143605443Y-167770388D01*
X143581324Y-167737067D01*
X143563838Y-167718828D01*
X143486128Y-167665818D01*
X143385214Y-167649577D01*
X143380394Y-167649556D01*
X143266222Y-167649556D01*
X143266222Y-168468000D01*
X144366889Y-168468000D01*
X144366889Y-168778444D01*
X143717778Y-168778444D01*
X143509458Y-168778206D01*
X143350156Y-168777085D01*
X143232448Y-168774471D01*
X143148907Y-168769754D01*
X143092108Y-168762325D01*
X143054626Y-168751574D01*
X143029035Y-168736891D01*
X143010592Y-168720370D01*
X142990861Y-168697929D01*
X142976366Y-168670354D01*
X142966467Y-168629585D01*
X142960525Y-168567560D01*
X142957902Y-168476220D01*
X142957959Y-168347502D01*
G36*
X144360807Y-167308641D02*
G01*
X144364819Y-167377579D01*
X144366794Y-167476004D01*
X144366889Y-167504457D01*
X144366889Y-167726248D01*
X144157205Y-167965442D01*
X144060863Y-168078460D01*
X143997456Y-168162218D01*
X143960201Y-168227560D01*
X143942314Y-168285331D01*
X143938483Y-168315151D01*
X143929444Y-168425667D01*
X143781278Y-168434197D01*
X143633111Y-168442728D01*
X143633111Y-168115414D01*
X143632408Y-167973886D01*
X143628932Y-167877042D01*
X143620627Y-167813128D01*
X143605443Y-167770388D01*
X143581324Y-167737067D01*
X143563838Y-167718828D01*
X143486128Y-167665818D01*
X143385214Y-167649577D01*
X143380394Y-167649556D01*
X143266222Y-167649556D01*
X143266222Y-168468000D01*
X144366889Y-168468000D01*
X144366889Y-168778444D01*
X143717778Y-168778444D01*
X143509458Y-168778206D01*
X143350156Y-168777085D01*
X143232448Y-168774471D01*
X143148907Y-168769754D01*
X143092108Y-168762325D01*
X143054626Y-168751574D01*
X143029035Y-168736891D01*
X143010592Y-168720370D01*
X142990861Y-168697929D01*
X142976366Y-168670354D01*
X142966467Y-168629585D01*
X142960525Y-168567560D01*
X142957902Y-168476220D01*
X142957959Y-168347502D01*
X142960058Y-168173346D01*
X142961203Y-168097108D01*
X142969889Y-167531921D01*
X143062056Y-167449627D01*
X143113972Y-167407506D01*
X143163983Y-167382851D01*
X143229514Y-167371049D01*
X143327993Y-167367487D01*
X143372941Y-167367333D01*
X143541004Y-167376887D01*
X143666766Y-167409239D01*
X143761666Y-167469922D01*
X143837142Y-167564473D01*
X143858889Y-167602465D01*
X143901282Y-167676153D01*
X143934311Y-167723945D01*
X143946201Y-167734141D01*
X143970193Y-167713937D01*
X144021872Y-167659273D01*
X144092944Y-167579180D01*
X144153487Y-167508444D01*
X144233037Y-167415390D01*
X144298598Y-167340975D01*
X144342122Y-167294198D01*
X144355453Y-167282667D01*
X144360807Y-167308641D01*
G37*
X143266222Y-168891333D02*
X143266222Y-169427556D01*
X144366889Y-169427556D01*
X144366889Y-169738000D01*
X143268266Y-169738000D01*
X143260188Y-170013167D01*
X143252111Y-170288333D01*
X143147356Y-170302444D01*
X143042601Y-170316556D01*
X143349758Y-170641111D01*
X143656915Y-170965667D01*
X144011902Y-170613312D01*
X144366889Y-170260958D01*
X144366889Y-170684503D01*
X144084666Y-170965667D01*
X143966050Y-171086272D01*
X143884047Y-171176285D01*
X143833161Y-171242702D01*
X143807899Y-171292517D01*
X143802444Y-171324971D01*
X143798770Y-171371261D01*
X143778066Y-171394348D01*
X143725805Y-171402275D01*
X143661333Y-171403111D01*
X143577821Y-171401450D01*
X143536181Y-171390114D01*
X143521837Y-171359576D01*
X143520222Y-171310859D01*
X143515170Y-171268439D01*
X143495937Y-171223385D01*
X143456405Y-171167606D01*
X143390459Y-171093007D01*
X143291982Y-170991495D01*
X143238000Y-170937444D01*
X142955778Y-170656281D01*
X142955778Y-168891333D01*
X143266222Y-168891333D01*
G36*
X143266222Y-169427556D02*
G01*
X144366889Y-169427556D01*
X144366889Y-169738000D01*
X143268266Y-169738000D01*
X143260188Y-170013167D01*
X143252111Y-170288333D01*
X143147356Y-170302444D01*
X143042601Y-170316556D01*
X143349758Y-170641111D01*
X143656915Y-170965667D01*
X144011902Y-170613312D01*
X144366889Y-170260958D01*
X144366889Y-170684503D01*
X144084666Y-170965667D01*
X143966050Y-171086272D01*
X143884047Y-171176285D01*
X143833161Y-171242702D01*
X143807899Y-171292517D01*
X143802444Y-171324971D01*
X143798770Y-171371261D01*
X143778066Y-171394348D01*
X143725805Y-171402275D01*
X143661333Y-171403111D01*
X143577821Y-171401450D01*
X143536181Y-171390114D01*
X143521837Y-171359576D01*
X143520222Y-171310859D01*
X143515170Y-171268439D01*
X143495937Y-171223385D01*
X143456405Y-171167606D01*
X143390459Y-171093007D01*
X143291982Y-170991495D01*
X143238000Y-170937444D01*
X142955778Y-170656281D01*
X142955778Y-168891333D01*
X143266222Y-168891333D01*
X143266222Y-169427556D01*
G37*
X144366889Y-171459556D02*
X144366889Y-171770000D01*
X142955778Y-171770000D01*
X142955778Y-171459556D01*
X144366889Y-171459556D01*
G36*
X144366889Y-171770000D02*
G01*
X142955778Y-171770000D01*
X142955778Y-171459556D01*
X144366889Y-171459556D01*
X144366889Y-171770000D01*
G37*
X143103944Y-173581803D02*
X143252111Y-173590333D01*
X143267531Y-174593807D01*
X144042333Y-174578111D01*
X144070555Y-173590333D01*
X144366889Y-173573273D01*
X144366246Y-174089803D01*
X144365095Y-174284117D01*
X144361753Y-174430645D01*
X144355560Y-174538026D01*
X144345857Y-174614898D01*
X144331983Y-174669898D01*
X144319678Y-174699521D01*
X144287837Y-174755836D01*
X144249932Y-174798659D01*
X144198261Y-174829812D01*
X144125118Y-174851118D01*
X144022801Y-174864398D01*
X143883605Y-174871475D01*
X143699826Y-174874170D01*
X143580084Y-174874444D01*
X143387873Y-174873779D01*
X143244371Y-174871390D01*
X143141853Y-174866685D01*
X143072596Y-174859075D01*
X143028875Y-174847969D01*
X143002966Y-174832776D01*
X143000127Y-174830095D01*
X142985155Y-174807679D01*
X142973887Y-174769581D01*
X142965829Y-174708568D01*
X142960488Y-174617406D01*
X142957371Y-174488862D01*
X142955984Y-174315701D01*
X142955778Y-174179509D01*
X142955778Y-173573273D01*
X143103944Y-173581803D01*
G36*
X144366246Y-174089803D02*
G01*
X144365095Y-174284117D01*
X144361753Y-174430645D01*
X144355560Y-174538026D01*
X144345857Y-174614898D01*
X144331983Y-174669898D01*
X144319678Y-174699521D01*
X144287837Y-174755836D01*
X144249932Y-174798659D01*
X144198261Y-174829812D01*
X144125118Y-174851118D01*
X144022801Y-174864398D01*
X143883605Y-174871475D01*
X143699826Y-174874170D01*
X143580084Y-174874444D01*
X143387873Y-174873779D01*
X143244371Y-174871390D01*
X143141853Y-174866685D01*
X143072596Y-174859075D01*
X143028875Y-174847969D01*
X143002966Y-174832776D01*
X143000127Y-174830095D01*
X142985155Y-174807679D01*
X142973887Y-174769581D01*
X142965829Y-174708568D01*
X142960488Y-174617406D01*
X142957371Y-174488862D01*
X142955984Y-174315701D01*
X142955778Y-174179509D01*
X142955778Y-173573273D01*
X143103944Y-173581803D01*
X143252111Y-173590333D01*
X143267531Y-174593807D01*
X144042333Y-174578111D01*
X144070555Y-173590333D01*
X144366889Y-173573273D01*
X144366246Y-174089803D01*
G37*
X143520222Y-176229111D02*
X143520222Y-175410667D01*
X142955778Y-175410667D01*
X142955778Y-175128444D01*
X144366889Y-175128444D01*
X144366889Y-175408623D01*
X144091722Y-175416700D01*
X143816555Y-175424778D01*
X143816555Y-176215000D01*
X144091722Y-176223078D01*
X144366889Y-176231155D01*
X144366889Y-176539556D01*
X142955778Y-176539556D01*
X142955778Y-176229111D01*
X143520222Y-176229111D01*
G36*
X144366889Y-175408623D02*
G01*
X144091722Y-175416700D01*
X143816555Y-175424778D01*
X143816555Y-176215000D01*
X144091722Y-176223078D01*
X144366889Y-176231155D01*
X144366889Y-176539556D01*
X142955778Y-176539556D01*
X142955778Y-176229111D01*
X143520222Y-176229111D01*
X143520222Y-175410667D01*
X142955778Y-175410667D01*
X142955778Y-175128444D01*
X144366889Y-175128444D01*
X144366889Y-175408623D01*
G37*
X143264889Y-176708889D02*
X143272611Y-177195722D01*
X143280333Y-177682556D01*
X143668389Y-177690408D01*
X144056444Y-177698260D01*
X144056444Y-176708889D01*
X144366889Y-176708889D01*
X144366889Y-177226826D01*
X144366537Y-177410865D01*
X144364844Y-177547574D01*
X144360853Y-177646067D01*
X144353605Y-177715457D01*
X144342144Y-177764859D01*
X144325513Y-177803385D01*
X144302754Y-177840150D01*
X144302411Y-177840660D01*
X144253389Y-177900172D01*
X144192104Y-177943800D01*
X144109615Y-177973848D01*
X143996983Y-177992624D01*
X143845266Y-178002432D01*
X143663188Y-178005518D01*
X143502071Y-178005067D01*
X143385178Y-178001224D01*
X143300328Y-177992618D01*
X143235336Y-177977878D01*
X143178020Y-177955633D01*
X143164867Y-177949419D01*
X143096856Y-177912021D01*
X143045299Y-177869051D01*
X143007957Y-177812544D01*
X142982590Y-177734534D01*
X142966961Y-177627057D01*
X142958829Y-177482147D01*
X142955956Y-177291840D01*
X142955778Y-177205568D01*
X142955778Y-176708889D01*
X143264889Y-176708889D01*
G36*
X143272611Y-177195722D02*
G01*
X143280333Y-177682556D01*
X143668389Y-177690408D01*
X144056444Y-177698260D01*
X144056444Y-176708889D01*
X144366889Y-176708889D01*
X144366889Y-177226826D01*
X144366537Y-177410865D01*
X144364844Y-177547574D01*
X144360853Y-177646067D01*
X144353605Y-177715457D01*
X144342144Y-177764859D01*
X144325513Y-177803385D01*
X144302754Y-177840150D01*
X144302411Y-177840660D01*
X144253389Y-177900172D01*
X144192104Y-177943800D01*
X144109615Y-177973848D01*
X143996983Y-177992624D01*
X143845266Y-178002432D01*
X143663188Y-178005518D01*
X143502071Y-178005067D01*
X143385178Y-178001224D01*
X143300328Y-177992618D01*
X143235336Y-177977878D01*
X143178020Y-177955633D01*
X143164867Y-177949419D01*
X143096856Y-177912021D01*
X143045299Y-177869051D01*
X143007957Y-177812544D01*
X142982590Y-177734534D01*
X142966961Y-177627057D01*
X142958829Y-177482147D01*
X142955956Y-177291840D01*
X142955778Y-177205568D01*
X142955778Y-176708889D01*
X143264889Y-176708889D01*
X143272611Y-177195722D01*
G37*
X142946084Y-165300316D02*
X143000595Y-165238125D01*
X143084653Y-165148935D01*
X143192579Y-165038693D01*
X143318695Y-164913345D01*
X143399523Y-164834532D01*
X143873000Y-164376064D01*
X142955778Y-164375778D01*
X142955778Y-164065333D01*
X143612720Y-164065333D01*
X143829073Y-164065879D01*
X143996053Y-164067802D01*
X144120725Y-164071536D01*
X144210153Y-164077510D01*
X144271400Y-164086155D01*
X144311531Y-164097905D01*
X144332387Y-164109267D01*
X144372503Y-164142967D01*
X144393185Y-164179185D01*
X144391180Y-164223028D01*
X144363234Y-164279604D01*
X144306091Y-164354019D01*
X144216499Y-164451382D01*
X144091202Y-164576801D01*
X143943670Y-164719370D01*
X143812625Y-164845832D01*
X143696519Y-164959621D01*
X143601194Y-165054864D01*
X143532496Y-165125691D01*
X143496267Y-165166230D01*
X143492114Y-165173056D01*
X143518695Y-165180309D01*
X143592123Y-165186492D01*
X143702807Y-165191139D01*
X143841153Y-165193786D01*
X143929444Y-165194222D01*
X144366889Y-165194222D01*
X144366889Y-165504667D01*
X143066101Y-165504667D01*
X142996828Y-165435394D01*
X142949544Y-165378510D01*
X142927073Y-165332645D01*
X142926801Y-165329561D01*
X142946084Y-165300316D01*
G36*
X143829073Y-164065879D02*
G01*
X143996053Y-164067802D01*
X144120725Y-164071536D01*
X144210153Y-164077510D01*
X144271400Y-164086155D01*
X144311531Y-164097905D01*
X144332387Y-164109267D01*
X144372503Y-164142967D01*
X144393185Y-164179185D01*
X144391180Y-164223028D01*
X144363234Y-164279604D01*
X144306091Y-164354019D01*
X144216499Y-164451382D01*
X144091202Y-164576801D01*
X143943670Y-164719370D01*
X143812625Y-164845832D01*
X143696519Y-164959621D01*
X143601194Y-165054864D01*
X143532496Y-165125691D01*
X143496267Y-165166230D01*
X143492114Y-165173056D01*
X143518695Y-165180309D01*
X143592123Y-165186492D01*
X143702807Y-165191139D01*
X143841153Y-165193786D01*
X143929444Y-165194222D01*
X144366889Y-165194222D01*
X144366889Y-165504667D01*
X143066101Y-165504667D01*
X142996828Y-165435394D01*
X142949544Y-165378510D01*
X142927073Y-165332645D01*
X142926801Y-165329561D01*
X142946084Y-165300316D01*
X143000595Y-165238125D01*
X143084653Y-165148935D01*
X143192579Y-165038693D01*
X143318695Y-164913345D01*
X143399523Y-164834532D01*
X143873000Y-164376064D01*
X142955778Y-164375778D01*
X142955778Y-164065333D01*
X143612720Y-164065333D01*
X143829073Y-164065879D01*
G37*
X142947278Y-166193532D02*
X142956790Y-166121878D01*
X142974597Y-166064574D01*
X143003033Y-166007594D01*
X143020028Y-165978139D01*
X143118747Y-165848606D01*
X143243243Y-165758390D01*
X143401614Y-165703255D01*
X143590757Y-165679514D01*
X143811482Y-165681790D01*
X143990347Y-165715434D01*
X144133602Y-165782286D01*
X144234523Y-165869333D01*
X144300137Y-165956703D01*
X144351052Y-166050387D01*
X144364853Y-166088280D01*
X144381804Y-166186502D01*
X144390943Y-166318202D01*
X144392485Y-166465017D01*
X144386643Y-166608587D01*
X144373630Y-166730549D01*
X144356528Y-166805107D01*
X144287229Y-166952348D01*
X144194652Y-167061398D01*
X144072022Y-167136058D01*
X143912562Y-167180130D01*
X143709496Y-167197414D01*
X143674509Y-167197798D01*
X143674509Y-166887556D01*
X143798409Y-166886828D01*
X143879548Y-166882297D01*
X143931609Y-166870436D01*
X143968276Y-166847721D01*
X144003233Y-166810629D01*
X144011602Y-166800724D01*
X144045208Y-166756660D01*
X144066573Y-166711827D01*
X144078441Y-166652363D01*
X144083558Y-166564406D01*
X144084666Y-166434094D01*
X144084666Y-166431664D01*
X144083911Y-166302320D01*
X144079613Y-166215944D01*
X144068724Y-166159061D01*
X144048197Y-166118196D01*
X144014984Y-166079875D01*
X144002171Y-166066940D01*
X143957147Y-166025805D01*
X143913056Y-166001230D01*
X143853888Y-165988980D01*
X143763634Y-165984820D01*
X143690325Y-165984444D01*
X143523484Y-165991856D01*
X143401436Y-166018641D01*
X143318170Y-166071629D01*
X143267675Y-166157648D01*
X143243941Y-166283525D01*
X143240958Y-166456088D01*
X143242196Y-166493543D01*
X143248100Y-166617117D01*
X143256852Y-166698172D01*
X143272257Y-166750626D01*
X143298120Y-166788397D01*
X143331296Y-166819463D01*
X143374362Y-166851884D01*
X143421256Y-166872053D01*
X143486308Y-166882812D01*
X143583845Y-166887005D01*
X143674509Y-166887556D01*
X143674509Y-167197798D01*
X143656215Y-167198000D01*
X143472468Y-167189713D01*
X143329811Y-167162172D01*
X143214985Y-167111361D01*
X143115744Y-167034225D01*
X143046789Y-166958168D01*
X142998555Y-166875324D01*
X142967632Y-166773833D01*
X142950612Y-166641833D01*
X142944085Y-166467464D01*
X142943794Y-166436000D01*
X142943724Y-166293565D01*
X142947278Y-166193532D01*
G36*
X143811482Y-165681790D02*
G01*
X143990347Y-165715434D01*
X144133602Y-165782286D01*
X144234523Y-165869333D01*
X144300137Y-165956703D01*
X144351052Y-166050387D01*
X144364853Y-166088280D01*
X144381804Y-166186502D01*
X144390943Y-166318202D01*
X144392485Y-166465017D01*
X144386643Y-166608587D01*
X144373630Y-166730549D01*
X144356528Y-166805107D01*
X144287229Y-166952348D01*
X144194652Y-167061398D01*
X144072022Y-167136058D01*
X143912562Y-167180130D01*
X143709496Y-167197414D01*
X143674509Y-167197798D01*
X143656215Y-167198000D01*
X143472468Y-167189713D01*
X143329811Y-167162172D01*
X143214985Y-167111361D01*
X143115744Y-167034225D01*
X143046789Y-166958168D01*
X142998555Y-166875324D01*
X142967632Y-166773833D01*
X142950612Y-166641833D01*
X142944085Y-166467464D01*
X142943980Y-166456088D01*
X143240958Y-166456088D01*
X143242196Y-166493543D01*
X143248100Y-166617117D01*
X143256852Y-166698172D01*
X143272257Y-166750626D01*
X143298120Y-166788397D01*
X143331296Y-166819463D01*
X143374362Y-166851884D01*
X143421256Y-166872053D01*
X143486308Y-166882812D01*
X143583845Y-166887005D01*
X143674509Y-166887556D01*
X143798409Y-166886828D01*
X143879548Y-166882297D01*
X143931609Y-166870436D01*
X143968276Y-166847721D01*
X144003233Y-166810629D01*
X144011602Y-166800724D01*
X144045208Y-166756660D01*
X144066573Y-166711827D01*
X144078441Y-166652363D01*
X144083558Y-166564406D01*
X144084666Y-166434094D01*
X144084666Y-166431664D01*
X144083911Y-166302320D01*
X144079613Y-166215944D01*
X144068724Y-166159061D01*
X144048197Y-166118196D01*
X144014984Y-166079875D01*
X144002171Y-166066940D01*
X143957147Y-166025805D01*
X143913056Y-166001230D01*
X143853888Y-165988980D01*
X143763634Y-165984820D01*
X143690325Y-165984444D01*
X143523484Y-165991856D01*
X143401436Y-166018641D01*
X143318170Y-166071629D01*
X143267675Y-166157648D01*
X143243941Y-166283525D01*
X143240958Y-166456088D01*
X142943980Y-166456088D01*
X142943794Y-166436000D01*
X142943724Y-166293565D01*
X142947278Y-166193532D01*
X142956790Y-166121878D01*
X142974597Y-166064574D01*
X143003033Y-166007594D01*
X143020028Y-165978139D01*
X143118747Y-165848606D01*
X143243243Y-165758390D01*
X143401614Y-165703255D01*
X143590757Y-165679514D01*
X143811482Y-165681790D01*
G37*
X142952814Y-173214870D02*
X142981186Y-173179675D01*
X143044018Y-173112107D01*
X143134897Y-173018720D01*
X143247408Y-172906067D01*
X143375140Y-172780704D01*
X143424156Y-172733200D01*
X143866228Y-172306222D01*
X142955778Y-172306222D01*
X142955778Y-171995778D01*
X143628737Y-171995778D01*
X143842268Y-171996084D01*
X144006464Y-171997344D01*
X144128434Y-172000066D01*
X144215283Y-172004760D01*
X144274121Y-172011937D01*
X144312054Y-172022105D01*
X144336191Y-172035775D01*
X144348403Y-172047389D01*
X144385424Y-172109950D01*
X144395111Y-172154232D01*
X144374465Y-172193262D01*
X144314491Y-172266503D01*
X144218133Y-172370762D01*
X144088335Y-172502849D01*
X143936500Y-172651424D01*
X143477889Y-173093385D01*
X143922389Y-173094915D01*
X144366889Y-173096444D01*
X144366889Y-173406889D01*
X143013523Y-173406889D01*
X142968533Y-173338226D01*
X142939685Y-173271297D01*
X142952814Y-173214870D01*
G36*
X143842268Y-171996084D02*
G01*
X144006464Y-171997344D01*
X144128434Y-172000066D01*
X144215283Y-172004760D01*
X144274121Y-172011937D01*
X144312054Y-172022105D01*
X144336191Y-172035775D01*
X144348403Y-172047389D01*
X144385424Y-172109950D01*
X144395111Y-172154232D01*
X144374465Y-172193262D01*
X144314491Y-172266503D01*
X144218133Y-172370762D01*
X144088335Y-172502849D01*
X143936500Y-172651424D01*
X143477889Y-173093385D01*
X143922389Y-173094915D01*
X144366889Y-173096444D01*
X144366889Y-173406889D01*
X143013523Y-173406889D01*
X142968533Y-173338226D01*
X142939685Y-173271297D01*
X142952814Y-173214870D01*
X142981186Y-173179675D01*
X143044018Y-173112107D01*
X143134897Y-173018720D01*
X143247408Y-172906067D01*
X143375140Y-172780704D01*
X143424156Y-172733200D01*
X143866228Y-172306222D01*
X142955778Y-172306222D01*
X142955778Y-171995778D01*
X143628737Y-171995778D01*
X143842268Y-171996084D01*
G37*
X145016000Y-160594000D02*
X145016000Y-177922444D01*
X144620889Y-177922444D01*
X144620889Y-160594000D01*
X145016000Y-160594000D01*
G36*
X145016000Y-177922444D02*
G01*
X144620889Y-177922444D01*
X144620889Y-160594000D01*
X145016000Y-160594000D01*
X145016000Y-177922444D01*
G37*
X142709285Y-178356869D02*
X142739357Y-178292574D01*
X142803876Y-178221117D01*
X142804885Y-178220136D01*
X142879891Y-178156423D01*
X142947873Y-178126908D01*
X143029722Y-178120000D01*
X143115085Y-178127638D01*
X143181644Y-178158444D01*
X143251170Y-178219719D01*
X143315089Y-178293193D01*
X143344343Y-178360520D01*
X143350783Y-178438441D01*
X143334199Y-178552182D01*
X143294339Y-178649849D01*
X143274403Y-178687158D01*
X143259777Y-178730051D01*
X143249653Y-178787455D01*
X143243223Y-178868297D01*
X143239680Y-178981502D01*
X143238218Y-179135999D01*
X143238000Y-179272874D01*
X143238240Y-179458375D01*
X143239581Y-179595844D01*
X143242950Y-179693696D01*
X143249275Y-179760343D01*
X143259485Y-179804199D01*
X143274509Y-179833675D01*
X143295273Y-179857186D01*
X143303319Y-179864858D01*
X143391667Y-179915317D01*
X143497807Y-179930723D01*
X143601223Y-179911768D01*
X143681399Y-179859148D01*
X143687507Y-179851861D01*
X143707576Y-179823001D01*
X143722457Y-179789131D01*
X143732919Y-179741904D01*
X143739734Y-179672971D01*
X143743671Y-179573983D01*
X143745501Y-179436591D01*
X143745993Y-179252447D01*
X143746000Y-179217919D01*
X143746587Y-179020302D01*
X143748868Y-178869479D01*
X143753626Y-178755806D01*
X143761640Y-178669639D01*
X143773691Y-178601336D01*
X143790562Y-178541252D01*
X143803835Y-178503761D01*
X143894020Y-178336471D01*
X144021578Y-178209758D01*
X144181200Y-178127268D01*
X144367573Y-178092645D01*
X144404104Y-178091778D01*
X144605369Y-178113407D01*
X144772430Y-178179309D01*
X144907940Y-178291008D01*
X145008986Y-178439250D01*
X145034406Y-178489326D01*
X145053641Y-178535463D01*
X145067711Y-178586471D01*
X145077635Y-178651165D01*
X145084434Y-178738356D01*
X145089126Y-178856858D01*
X145092732Y-179015482D01*
X145095710Y-179188767D01*
X145099533Y-179392406D01*
X145103935Y-179547698D01*
X145109662Y-179662739D01*
X145117463Y-179745624D01*
X145128083Y-179804451D01*
X145142269Y-179847316D01*
X145159474Y-179880211D01*
X145209671Y-180011640D01*
X145207377Y-180145920D01*
X145153563Y-180270715D01*
X145125965Y-180306240D01*
X145065462Y-180367470D01*
X145008755Y-180396844D01*
X144929889Y-180405669D01*
X144900716Y-180405962D01*
X144900716Y-180228143D01*
X144925275Y-180224478D01*
X144991015Y-180178098D01*
X145020573Y-180102984D01*
X145010340Y-180016498D01*
X144979941Y-179961500D01*
X144925450Y-179927984D01*
X144861108Y-179936033D01*
X144802893Y-179977025D01*
X144766787Y-180042337D01*
X144762000Y-180079086D01*
X144783411Y-180151061D01*
X144835648Y-180206088D01*
X144900716Y-180228143D01*
X144900716Y-180405962D01*
X144896938Y-180406000D01*
X144805565Y-180401112D01*
X144743255Y-180378501D01*
X144682929Y-180326250D01*
X144659973Y-180301707D01*
X144586459Y-180187736D01*
X144561128Y-180066248D01*
X144585141Y-179949475D01*
X144620889Y-179890299D01*
X144639758Y-179862732D01*
X144653896Y-179829268D01*
X144663981Y-179781913D01*
X144670688Y-179712675D01*
X144674693Y-179613563D01*
X144676674Y-179476585D01*
X144677305Y-179293748D01*
X144677333Y-179223271D01*
X144677014Y-179024283D01*
X144675615Y-178873961D01*
X144672468Y-178764527D01*
X144666908Y-178688205D01*
X144658270Y-178637216D01*
X144645888Y-178603783D01*
X144629096Y-178580130D01*
X144621606Y-178572273D01*
X144520137Y-178507313D01*
X144403446Y-178491662D01*
X144284906Y-178525966D01*
X144239889Y-178553876D01*
X144221446Y-178570646D01*
X144207178Y-178595481D01*
X144196291Y-178635718D01*
X144187992Y-178698693D01*
X144181490Y-178791743D01*
X144175992Y-178922205D01*
X144170704Y-179097417D01*
X144167347Y-179225379D01*
X144160705Y-179453159D01*
X144152644Y-179632516D01*
X144141450Y-179771470D01*
X144125406Y-179878044D01*
X144102799Y-179960257D01*
X144071912Y-180026130D01*
X144031030Y-180083685D01*
X143978440Y-180140942D01*
X143969690Y-180149746D01*
X143863113Y-180242667D01*
X143757447Y-180299537D01*
X143633518Y-180327789D01*
X143492000Y-180334884D01*
X143371111Y-180331905D01*
X143284145Y-180318864D01*
X143208807Y-180290759D01*
X143148122Y-180257725D01*
X143071983Y-180206923D01*
X143071983Y-178590785D01*
X143127744Y-178550531D01*
X143152473Y-178465793D01*
X143153333Y-178441638D01*
X143144934Y-178372337D01*
X143111828Y-178338615D01*
X143084814Y-178329656D01*
X143005703Y-178323565D01*
X142956254Y-178331516D01*
X142916016Y-178355373D01*
X142902870Y-178403607D01*
X142904828Y-178453494D01*
X142920219Y-178529046D01*
X142958699Y-178569718D01*
X142989369Y-178582952D01*
X143071983Y-178590785D01*
X143071983Y-180206923D01*
X143048072Y-180190968D01*
X142969611Y-180116981D01*
X142910288Y-180028271D01*
X142867654Y-179917345D01*
X142839259Y-179776712D01*
X142822652Y-179598878D01*
X142815384Y-179376351D01*
X142814480Y-179237348D01*
X142813901Y-179052937D01*
X142811748Y-178915945D01*
X142807168Y-178817349D01*
X142799309Y-178748128D01*
X142787319Y-178699262D01*
X142770344Y-178661727D01*
X142758222Y-178642111D01*
X142715672Y-178540977D01*
X142701963Y-178438859D01*
X142709285Y-178356869D01*
G36*
X144605369Y-178113407D02*
G01*
X144772430Y-178179309D01*
X144907940Y-178291008D01*
X145008986Y-178439250D01*
X145034406Y-178489326D01*
X145053641Y-178535463D01*
X145067711Y-178586471D01*
X145077635Y-178651165D01*
X145084434Y-178738356D01*
X145089126Y-178856858D01*
X145092732Y-179015482D01*
X145095710Y-179188767D01*
X145099533Y-179392406D01*
X145103935Y-179547698D01*
X145109662Y-179662739D01*
X145117463Y-179745624D01*
X145128083Y-179804451D01*
X145142269Y-179847316D01*
X145159474Y-179880211D01*
X145209671Y-180011640D01*
X145207377Y-180145920D01*
X145153563Y-180270715D01*
X145125965Y-180306240D01*
X145065462Y-180367470D01*
X145008755Y-180396844D01*
X144929889Y-180405669D01*
X144900716Y-180405962D01*
X144896938Y-180406000D01*
X144805565Y-180401112D01*
X144743255Y-180378501D01*
X144682929Y-180326250D01*
X144659973Y-180301707D01*
X144586459Y-180187736D01*
X144563805Y-180079086D01*
X144762000Y-180079086D01*
X144783411Y-180151061D01*
X144835648Y-180206088D01*
X144900716Y-180228143D01*
X144925275Y-180224478D01*
X144991015Y-180178098D01*
X145020573Y-180102984D01*
X145010340Y-180016498D01*
X144979941Y-179961500D01*
X144925450Y-179927984D01*
X144861108Y-179936033D01*
X144802893Y-179977025D01*
X144766787Y-180042337D01*
X144762000Y-180079086D01*
X144563805Y-180079086D01*
X144561128Y-180066248D01*
X144585141Y-179949475D01*
X144620889Y-179890299D01*
X144639758Y-179862732D01*
X144653896Y-179829268D01*
X144663981Y-179781913D01*
X144670688Y-179712675D01*
X144674693Y-179613563D01*
X144676674Y-179476585D01*
X144677305Y-179293748D01*
X144677333Y-179223271D01*
X144677014Y-179024283D01*
X144675615Y-178873961D01*
X144672468Y-178764527D01*
X144666908Y-178688205D01*
X144658270Y-178637216D01*
X144645888Y-178603783D01*
X144629096Y-178580130D01*
X144621606Y-178572273D01*
X144520137Y-178507313D01*
X144403446Y-178491662D01*
X144284906Y-178525966D01*
X144239889Y-178553876D01*
X144221446Y-178570646D01*
X144207178Y-178595481D01*
X144196291Y-178635718D01*
X144187992Y-178698693D01*
X144181490Y-178791743D01*
X144175992Y-178922205D01*
X144170704Y-179097417D01*
X144167347Y-179225379D01*
X144160705Y-179453159D01*
X144152644Y-179632516D01*
X144141450Y-179771470D01*
X144125406Y-179878044D01*
X144102799Y-179960257D01*
X144071912Y-180026130D01*
X144031030Y-180083685D01*
X143978440Y-180140942D01*
X143969690Y-180149746D01*
X143863113Y-180242667D01*
X143757447Y-180299537D01*
X143633518Y-180327789D01*
X143492000Y-180334884D01*
X143371111Y-180331905D01*
X143284145Y-180318864D01*
X143208807Y-180290759D01*
X143148122Y-180257725D01*
X143071983Y-180206923D01*
X143048072Y-180190968D01*
X142969611Y-180116981D01*
X142910288Y-180028271D01*
X142867654Y-179917345D01*
X142839259Y-179776712D01*
X142822652Y-179598878D01*
X142815384Y-179376351D01*
X142814480Y-179237348D01*
X142813901Y-179052937D01*
X142811748Y-178915945D01*
X142807168Y-178817349D01*
X142799309Y-178748128D01*
X142787319Y-178699262D01*
X142770344Y-178661727D01*
X142758222Y-178642111D01*
X142715672Y-178540977D01*
X142701963Y-178438859D01*
X142705111Y-178403607D01*
X142902870Y-178403607D01*
X142904828Y-178453494D01*
X142920219Y-178529046D01*
X142958699Y-178569718D01*
X142989369Y-178582952D01*
X143071983Y-178590785D01*
X143127744Y-178550531D01*
X143152473Y-178465793D01*
X143153333Y-178441638D01*
X143144934Y-178372337D01*
X143111828Y-178338615D01*
X143084814Y-178329656D01*
X143005703Y-178323565D01*
X142956254Y-178331516D01*
X142916016Y-178355373D01*
X142902870Y-178403607D01*
X142705111Y-178403607D01*
X142709285Y-178356869D01*
X142739357Y-178292574D01*
X142803876Y-178221117D01*
X142804885Y-178220136D01*
X142879891Y-178156423D01*
X142947873Y-178126908D01*
X143029722Y-178120000D01*
X143115085Y-178127638D01*
X143181644Y-178158444D01*
X143251170Y-178219719D01*
X143315089Y-178293193D01*
X143344343Y-178360520D01*
X143350783Y-178438441D01*
X143334199Y-178552182D01*
X143294339Y-178649849D01*
X143274403Y-178687158D01*
X143259777Y-178730051D01*
X143249653Y-178787455D01*
X143243223Y-178868297D01*
X143239680Y-178981502D01*
X143238218Y-179135999D01*
X143238000Y-179272874D01*
X143238240Y-179458375D01*
X143239581Y-179595844D01*
X143242950Y-179693696D01*
X143249275Y-179760343D01*
X143259485Y-179804199D01*
X143274509Y-179833675D01*
X143295273Y-179857186D01*
X143303319Y-179864858D01*
X143391667Y-179915317D01*
X143497807Y-179930723D01*
X143601223Y-179911768D01*
X143681399Y-179859148D01*
X143687507Y-179851861D01*
X143707576Y-179823001D01*
X143722457Y-179789131D01*
X143732919Y-179741904D01*
X143739734Y-179672971D01*
X143743671Y-179573983D01*
X143745501Y-179436591D01*
X143745993Y-179252447D01*
X143746000Y-179217919D01*
X143746587Y-179020302D01*
X143748868Y-178869479D01*
X143753626Y-178755806D01*
X143761640Y-178669639D01*
X143773691Y-178601336D01*
X143790562Y-178541252D01*
X143803835Y-178503761D01*
X143894020Y-178336471D01*
X144021578Y-178209758D01*
X144181200Y-178127268D01*
X144367573Y-178092645D01*
X144404104Y-178091778D01*
X144605369Y-178113407D01*
G37*
M02*
