G04 #@! TF.GenerationSoftware,KiCad,Pcbnew,10.0.6*
G04 #@! TF.CreationDate,2026-10-07T19:39:11-07:00*
G04 #@! TF.ProjectId,PassiveMultiplesFaceplate,50617373-6976-4654-9d75-6c7469706c65,1.1*
G04 #@! TF.SameCoordinates,Original*
G04 #@! TF.FileFunction,Legend,Top*
G04 #@! TF.FilePolarity,Positive*
%FSLAX46Y46*%
G04 Gerber Fmt 4.6, Leading zero omitted, Abs format (unit mm)*
G04 Created by KiCad (PCBNEW 10.0.6) date 2026-10-07 19:39:11*
%MOMM*%
%LPD*%
G01*
G04 APERTURE LIST*
%ADD10C,0.500000*%
%ADD11C,0.700000*%
%ADD12C,0.300000*%
%ADD13C,0.400000*%
%ADD14C,0.010000*%
G04 APERTURE END LIST*
D10*
X145000000Y-108000000D02*
X145000000Y-113750000D01*
D11*
X145250000Y-114000000D02*
G75*
G02*
X144750000Y-114000000I-250000J0D01*
G01*
X144750000Y-114000000D02*
G75*
G02*
X145250000Y-114000000I250000J0D01*
G01*
D10*
X145000000Y-120000000D02*
X143250000Y-114000000D01*
D11*
X145250000Y-120000000D02*
G75*
G02*
X144750000Y-120000000I-250000J0D01*
G01*
X144750000Y-120000000D02*
G75*
G02*
X145250000Y-120000000I250000J0D01*
G01*
D10*
X145000000Y-126000000D02*
X145000000Y-120000000D01*
X150000000Y-72000000D02*
X150000000Y-108000000D01*
X150000000Y-108000000D02*
X145000000Y-108000000D01*
X150000000Y-126000000D02*
X145000000Y-126000000D01*
X150000000Y-126000000D02*
X150000000Y-162000000D01*
D12*
G36*
X145455501Y-179054348D02*
G01*
X145445839Y-179130058D01*
X145417197Y-179198531D01*
X145372020Y-179257073D01*
X145312979Y-179302022D01*
X145244035Y-179330510D01*
X145167966Y-179340118D01*
X145100805Y-179340118D01*
X145100805Y-179144968D01*
X145167447Y-179144968D01*
X145202716Y-179138175D01*
X145232843Y-179117668D01*
X145253346Y-179087627D01*
X145260143Y-179052376D01*
X145260143Y-177913758D01*
X145253343Y-177878525D01*
X145232843Y-177848570D01*
X145202716Y-177828063D01*
X145167447Y-177821270D01*
X144784517Y-177821270D01*
X144749463Y-177828103D01*
X144720366Y-177848570D01*
X144700760Y-177878537D01*
X144694208Y-177913966D01*
X144694208Y-179054867D01*
X144684353Y-179130332D01*
X144655074Y-179198738D01*
X144609476Y-179257363D01*
X144551686Y-179302126D01*
X144484419Y-179330503D01*
X144409164Y-179340118D01*
X144026649Y-179340118D01*
X143951138Y-179330506D01*
X143882882Y-179302022D01*
X143824418Y-179257105D01*
X143779598Y-179198531D01*
X143751115Y-179130070D01*
X143741502Y-179054348D01*
X143741502Y-177911786D01*
X143751166Y-177836092D01*
X143779805Y-177767707D01*
X143824875Y-177709091D01*
X143883712Y-177664215D01*
X143952275Y-177635733D01*
X144028103Y-177626120D01*
X144094952Y-177626120D01*
X144094952Y-177821270D01*
X144028933Y-177821270D01*
X143993807Y-177828068D01*
X143963952Y-177848570D01*
X143943615Y-177878509D01*
X143936860Y-177913758D01*
X143936860Y-179052376D01*
X143943611Y-179087643D01*
X143963952Y-179117668D01*
X143993807Y-179138170D01*
X144028933Y-179144968D01*
X144409164Y-179144968D01*
X144443932Y-179138146D01*
X144472899Y-179117668D01*
X144492347Y-179087630D01*
X144498850Y-179052168D01*
X144498850Y-177911267D01*
X144508781Y-177835836D01*
X144538295Y-177767500D01*
X144584043Y-177708829D01*
X144642099Y-177664112D01*
X144709583Y-177635739D01*
X144785139Y-177626120D01*
X145169211Y-177626120D01*
X145244964Y-177635727D01*
X145313602Y-177664215D01*
X145372353Y-177709083D01*
X145417405Y-177767707D01*
X145445885Y-177836080D01*
X145455501Y-177911786D01*
X145455501Y-179054348D01*
G37*
G36*
X145455501Y-176696873D02*
G01*
X143936860Y-176696873D01*
X143936860Y-177458374D01*
X143741502Y-177458374D01*
X143741502Y-175744375D01*
X143936860Y-175744375D01*
X143936860Y-176501723D01*
X145455501Y-176501723D01*
X145455501Y-176696873D01*
G37*
G36*
X144850951Y-175560021D02*
G01*
X144655593Y-175560021D01*
X144655593Y-174629944D01*
X144850951Y-174629944D01*
X144850951Y-175560021D01*
G37*
G36*
X145243005Y-172617761D02*
G01*
X145311525Y-172647199D01*
X145370467Y-172692983D01*
X145416263Y-172751832D01*
X145445619Y-172820258D01*
X145455501Y-172895807D01*
X145455501Y-174049788D01*
X145445549Y-174127313D01*
X145416263Y-174196046D01*
X145370418Y-174254658D01*
X145311525Y-174299538D01*
X145243079Y-174328024D01*
X145167447Y-174337634D01*
X144032047Y-174337634D01*
X143954273Y-174327947D01*
X143885581Y-174299538D01*
X143826688Y-174254658D01*
X143780843Y-174196046D01*
X143751479Y-174127307D01*
X143741502Y-174049788D01*
X143741502Y-174049684D01*
X143936860Y-174049684D01*
X143943680Y-174085034D01*
X143964264Y-174115184D01*
X143994434Y-174135676D01*
X144029971Y-174142484D01*
X145024094Y-174142484D01*
X143936860Y-172829166D01*
X143936860Y-174049684D01*
X143741502Y-174049684D01*
X143741502Y-172895807D01*
X143751408Y-172820264D01*
X143758831Y-172803007D01*
X144172908Y-172803007D01*
X145260143Y-174118713D01*
X145260143Y-172895807D01*
X145253319Y-172860475D01*
X145232739Y-172830411D01*
X145202575Y-172809833D01*
X145167135Y-172803007D01*
X144172908Y-172803007D01*
X143758831Y-172803007D01*
X143780843Y-172751832D01*
X143826639Y-172692983D01*
X143885581Y-172647199D01*
X143954348Y-172617840D01*
X144032047Y-172607857D01*
X145167447Y-172607857D01*
X145243005Y-172617761D01*
G37*
G36*
X145455501Y-171967599D02*
G01*
X143960527Y-171967599D01*
X144277230Y-172231778D01*
X144277230Y-172486407D01*
X143741502Y-172036628D01*
X143741502Y-171772449D01*
X145455501Y-171772449D01*
X145455501Y-171967599D01*
G37*
D13*
G36*
X142910852Y-62037500D02*
G01*
X142910852Y-59516913D01*
X143302556Y-59516913D01*
X144347000Y-60763162D01*
X145391443Y-59516913D01*
X145783148Y-59516913D01*
X145783148Y-62037500D01*
X145496162Y-62037500D01*
X145496162Y-59839009D01*
X144347000Y-61207837D01*
X143197837Y-59839009D01*
X143197837Y-62037500D01*
X142910852Y-62037500D01*
G37*
G36*
X146570983Y-62037500D02*
G01*
X146459968Y-62022980D01*
X146359103Y-61979797D01*
X146272397Y-61912325D01*
X146204925Y-61825619D01*
X146161629Y-61724724D01*
X146147070Y-61613586D01*
X146147070Y-60005399D01*
X146434055Y-60005399D01*
X146434055Y-61613586D01*
X146444085Y-61665571D01*
X146474355Y-61709909D01*
X146518819Y-61740183D01*
X146570831Y-61750209D01*
X147790824Y-61750209D01*
X147843254Y-61740230D01*
X147889132Y-61709909D01*
X147920839Y-61665429D01*
X147931264Y-61613586D01*
X147931264Y-60005399D01*
X148218249Y-60005399D01*
X148218249Y-61613586D01*
X148203689Y-61724724D01*
X148160394Y-61825619D01*
X148092895Y-61912314D01*
X148006063Y-61979797D01*
X147904814Y-62022859D01*
X147790519Y-62037500D01*
X146570983Y-62037500D01*
G37*
G36*
X149001200Y-62037500D02*
G01*
X148889943Y-62022967D01*
X148789167Y-61979797D01*
X148702460Y-61912325D01*
X148634988Y-61825619D01*
X148591814Y-61724863D01*
X148577286Y-61613738D01*
X148577286Y-59341058D01*
X148864271Y-59341058D01*
X148864271Y-61613738D01*
X148874295Y-61665593D01*
X148904571Y-61709909D01*
X148949035Y-61740183D01*
X149001047Y-61750209D01*
X149344208Y-61750209D01*
X149344208Y-62037500D01*
X149001200Y-62037500D01*
G37*
G36*
X150056634Y-62037500D02*
G01*
X149942316Y-62022863D01*
X149840937Y-61979797D01*
X149754579Y-61912253D01*
X149688438Y-61825619D01*
X149646547Y-61724962D01*
X149632415Y-61613738D01*
X149632415Y-59341058D01*
X149919400Y-59341058D01*
X149919400Y-60005399D01*
X150799896Y-60005399D01*
X150799896Y-60292690D01*
X149919400Y-60292690D01*
X149919400Y-61613586D01*
X149929431Y-61665571D01*
X149959700Y-61709909D01*
X150004164Y-61740183D01*
X150056176Y-61750209D01*
X150799896Y-61750209D01*
X150799896Y-62037500D01*
X150056634Y-62037500D01*
G37*
G36*
X151083217Y-62037500D02*
G01*
X151083217Y-60005399D01*
X151370203Y-60005399D01*
X151370203Y-62037500D01*
X151083217Y-62037500D01*
G37*
G36*
X151083217Y-59628349D02*
G01*
X151083217Y-59341058D01*
X151370203Y-59341058D01*
X151370203Y-59628349D01*
X151083217Y-59628349D01*
G37*
G36*
X153481341Y-60019968D02*
G01*
X153582127Y-60063254D01*
X153668941Y-60130643D01*
X153736458Y-60217432D01*
X153779749Y-60318197D01*
X153794313Y-60429313D01*
X153794313Y-61613586D01*
X153779753Y-61724724D01*
X153736458Y-61825619D01*
X153668959Y-61912314D01*
X153582127Y-61979797D01*
X153481350Y-62022967D01*
X153370094Y-62037500D01*
X152010119Y-62037500D01*
X152010119Y-62838616D01*
X151723134Y-62838616D01*
X151723134Y-60429313D01*
X152010119Y-60429313D01*
X152010119Y-61613586D01*
X152020511Y-61665441D01*
X152052098Y-61709909D01*
X152097976Y-61740230D01*
X152150406Y-61750209D01*
X153370552Y-61750209D01*
X153422669Y-61740171D01*
X153467028Y-61709909D01*
X153497297Y-61665571D01*
X153507328Y-61613586D01*
X153507328Y-60429313D01*
X153497297Y-60377327D01*
X153467028Y-60332990D01*
X153422669Y-60302727D01*
X153370552Y-60292690D01*
X152150406Y-60292690D01*
X152097976Y-60302669D01*
X152052098Y-60332990D01*
X152020511Y-60377458D01*
X152010119Y-60429313D01*
X151723134Y-60429313D01*
X151723134Y-60005399D01*
X153370094Y-60005399D01*
X153481341Y-60019968D01*
G37*
G36*
X154469797Y-62037500D02*
G01*
X154358540Y-62022967D01*
X154257764Y-61979797D01*
X154171058Y-61912325D01*
X154103586Y-61825619D01*
X154060411Y-61724863D01*
X154045883Y-61613738D01*
X154045883Y-59341058D01*
X154332869Y-59341058D01*
X154332869Y-61613738D01*
X154342892Y-61665593D01*
X154373169Y-61709909D01*
X154417632Y-61740183D01*
X154469645Y-61750209D01*
X154812806Y-61750209D01*
X154812806Y-62037500D01*
X154469797Y-62037500D01*
G37*
G36*
X156792542Y-60020029D02*
G01*
X156893449Y-60063101D01*
X156979996Y-60130300D01*
X157047322Y-60216822D01*
X157090502Y-60317407D01*
X157105025Y-60428244D01*
X157105025Y-61162194D01*
X155326937Y-61162194D01*
X155326937Y-61612975D01*
X155336932Y-61665156D01*
X155367084Y-61709756D01*
X155411412Y-61740152D01*
X155463255Y-61750209D01*
X157105025Y-61750209D01*
X157105025Y-62037500D01*
X155462797Y-62037500D01*
X155351960Y-62022977D01*
X155251374Y-61979797D01*
X155164951Y-61912340D01*
X155097654Y-61825619D01*
X155054476Y-61724733D01*
X155039952Y-61613586D01*
X155039952Y-60429313D01*
X155040032Y-60428702D01*
X155326937Y-60428702D01*
X155326937Y-60874904D01*
X156818039Y-60874904D01*
X156818039Y-60428702D01*
X156808006Y-60376900D01*
X156777739Y-60332837D01*
X156733435Y-60302680D01*
X156681569Y-60292690D01*
X155463560Y-60292690D01*
X155411563Y-60302687D01*
X155367237Y-60332837D01*
X155336970Y-60376900D01*
X155326937Y-60428702D01*
X155040032Y-60428702D01*
X155054480Y-60318188D01*
X155097654Y-60217432D01*
X155164968Y-60130617D01*
X155251374Y-60063254D01*
X155351969Y-60019958D01*
X155462797Y-60005399D01*
X156678821Y-60005399D01*
X156792542Y-60020029D01*
G37*
D14*
X156142039Y-176959285D02*
X156206334Y-176989357D01*
X156277791Y-177053876D01*
X156278772Y-177054885D01*
X156342485Y-177129891D01*
X156372000Y-177197873D01*
X156378908Y-177279722D01*
X156371270Y-177365085D01*
X156340464Y-177431644D01*
X156279189Y-177501170D01*
X156205715Y-177565089D01*
X156138388Y-177594343D01*
X156060467Y-177600783D01*
X155946726Y-177584199D01*
X155849059Y-177544339D01*
X155811750Y-177524403D01*
X155768857Y-177509777D01*
X155711453Y-177499653D01*
X155630611Y-177493223D01*
X155517406Y-177489680D01*
X155362909Y-177488218D01*
X155226034Y-177488000D01*
X155040533Y-177488240D01*
X154903064Y-177489581D01*
X154805212Y-177492950D01*
X154738565Y-177499275D01*
X154694709Y-177509485D01*
X154665233Y-177524509D01*
X154641722Y-177545273D01*
X154634050Y-177553319D01*
X154583591Y-177641667D01*
X154568185Y-177747807D01*
X154587140Y-177851223D01*
X154639760Y-177931399D01*
X154647047Y-177937507D01*
X154675907Y-177957576D01*
X154709777Y-177972457D01*
X154757004Y-177982919D01*
X154825937Y-177989734D01*
X154924925Y-177993671D01*
X155062317Y-177995501D01*
X155246461Y-177995993D01*
X155280989Y-177996000D01*
X155478606Y-177996587D01*
X155629429Y-177998868D01*
X155743102Y-178003626D01*
X155829269Y-178011640D01*
X155897572Y-178023691D01*
X155957656Y-178040562D01*
X155995147Y-178053835D01*
X156162437Y-178144020D01*
X156289150Y-178271578D01*
X156371640Y-178431200D01*
X156406263Y-178617573D01*
X156407130Y-178654104D01*
X156385501Y-178855369D01*
X156319599Y-179022430D01*
X156207900Y-179157940D01*
X156059658Y-179258986D01*
X156009582Y-179284406D01*
X155963445Y-179303641D01*
X155912437Y-179317711D01*
X155847743Y-179327635D01*
X155760552Y-179334434D01*
X155642050Y-179339126D01*
X155483426Y-179342732D01*
X155310141Y-179345710D01*
X155106502Y-179349533D01*
X154951210Y-179353935D01*
X154836169Y-179359662D01*
X154753284Y-179367463D01*
X154694457Y-179378083D01*
X154651592Y-179392269D01*
X154618697Y-179409474D01*
X154487268Y-179459671D01*
X154352988Y-179457377D01*
X154228193Y-179403563D01*
X154192668Y-179375965D01*
X154131438Y-179315462D01*
X154102064Y-179258755D01*
X154093239Y-179179889D01*
X154092946Y-179150716D01*
X154270765Y-179150716D01*
X154274430Y-179175275D01*
X154320810Y-179241015D01*
X154395924Y-179270573D01*
X154482410Y-179260340D01*
X154537408Y-179229941D01*
X154570924Y-179175450D01*
X154562875Y-179111108D01*
X154521883Y-179052893D01*
X154456571Y-179016787D01*
X154419822Y-179012000D01*
X154347847Y-179033411D01*
X154292820Y-179085648D01*
X154270765Y-179150716D01*
X154092946Y-179150716D01*
X154092908Y-179146938D01*
X154097796Y-179055565D01*
X154120407Y-178993255D01*
X154172658Y-178932929D01*
X154197201Y-178909973D01*
X154311172Y-178836459D01*
X154432660Y-178811128D01*
X154549433Y-178835141D01*
X154608609Y-178870889D01*
X154636176Y-178889758D01*
X154669640Y-178903896D01*
X154716995Y-178913981D01*
X154786233Y-178920688D01*
X154885345Y-178924693D01*
X155022323Y-178926674D01*
X155205160Y-178927305D01*
X155275637Y-178927333D01*
X155474625Y-178927014D01*
X155624947Y-178925615D01*
X155734381Y-178922468D01*
X155810703Y-178916908D01*
X155861692Y-178908270D01*
X155895125Y-178895888D01*
X155918778Y-178879096D01*
X155926635Y-178871606D01*
X155991595Y-178770137D01*
X156007246Y-178653446D01*
X155972942Y-178534906D01*
X155945032Y-178489889D01*
X155928262Y-178471446D01*
X155903427Y-178457178D01*
X155863190Y-178446291D01*
X155800215Y-178437992D01*
X155707165Y-178431490D01*
X155576703Y-178425992D01*
X155401491Y-178420704D01*
X155273529Y-178417347D01*
X155045749Y-178410705D01*
X154866392Y-178402644D01*
X154727438Y-178391450D01*
X154620864Y-178375406D01*
X154538651Y-178352799D01*
X154472778Y-178321912D01*
X154415223Y-178281030D01*
X154357966Y-178228440D01*
X154349162Y-178219690D01*
X154256241Y-178113113D01*
X154199371Y-178007447D01*
X154171119Y-177883518D01*
X154164024Y-177742000D01*
X154167003Y-177621111D01*
X154180044Y-177534145D01*
X154208149Y-177458807D01*
X154241183Y-177398122D01*
X154291985Y-177321983D01*
X155908123Y-177321983D01*
X155948377Y-177377744D01*
X156033115Y-177402473D01*
X156057270Y-177403333D01*
X156126571Y-177394934D01*
X156160293Y-177361828D01*
X156169252Y-177334814D01*
X156175343Y-177255703D01*
X156167392Y-177206254D01*
X156143535Y-177166016D01*
X156095301Y-177152870D01*
X156045414Y-177154828D01*
X155969862Y-177170219D01*
X155929190Y-177208699D01*
X155915956Y-177239369D01*
X155908123Y-177321983D01*
X154291985Y-177321983D01*
X154307940Y-177298072D01*
X154381927Y-177219611D01*
X154470637Y-177160288D01*
X154581563Y-177117654D01*
X154722196Y-177089259D01*
X154900030Y-177072652D01*
X155122557Y-177065384D01*
X155261560Y-177064480D01*
X155445971Y-177063901D01*
X155582963Y-177061748D01*
X155681559Y-177057168D01*
X155750780Y-177049309D01*
X155799646Y-177037319D01*
X155837181Y-177020344D01*
X155856797Y-177008222D01*
X155957931Y-176965672D01*
X156060049Y-176951963D01*
X156142039Y-176959285D01*
G36*
X156142039Y-176959285D02*
G01*
X156206334Y-176989357D01*
X156277791Y-177053876D01*
X156278772Y-177054885D01*
X156342485Y-177129891D01*
X156372000Y-177197873D01*
X156378908Y-177279722D01*
X156371270Y-177365085D01*
X156340464Y-177431644D01*
X156279189Y-177501170D01*
X156205715Y-177565089D01*
X156138388Y-177594343D01*
X156060467Y-177600783D01*
X155946726Y-177584199D01*
X155849059Y-177544339D01*
X155811750Y-177524403D01*
X155768857Y-177509777D01*
X155711453Y-177499653D01*
X155630611Y-177493223D01*
X155517406Y-177489680D01*
X155362909Y-177488218D01*
X155226034Y-177488000D01*
X155040533Y-177488240D01*
X154903064Y-177489581D01*
X154805212Y-177492950D01*
X154738565Y-177499275D01*
X154694709Y-177509485D01*
X154665233Y-177524509D01*
X154641722Y-177545273D01*
X154634050Y-177553319D01*
X154583591Y-177641667D01*
X154568185Y-177747807D01*
X154587140Y-177851223D01*
X154639760Y-177931399D01*
X154647047Y-177937507D01*
X154675907Y-177957576D01*
X154709777Y-177972457D01*
X154757004Y-177982919D01*
X154825937Y-177989734D01*
X154924925Y-177993671D01*
X155062317Y-177995501D01*
X155246461Y-177995993D01*
X155280989Y-177996000D01*
X155478606Y-177996587D01*
X155629429Y-177998868D01*
X155743102Y-178003626D01*
X155829269Y-178011640D01*
X155897572Y-178023691D01*
X155957656Y-178040562D01*
X155995147Y-178053835D01*
X156162437Y-178144020D01*
X156289150Y-178271578D01*
X156371640Y-178431200D01*
X156406263Y-178617573D01*
X156407130Y-178654104D01*
X156385501Y-178855369D01*
X156319599Y-179022430D01*
X156207900Y-179157940D01*
X156059658Y-179258986D01*
X156009582Y-179284406D01*
X155963445Y-179303641D01*
X155912437Y-179317711D01*
X155847743Y-179327635D01*
X155760552Y-179334434D01*
X155642050Y-179339126D01*
X155483426Y-179342732D01*
X155310141Y-179345710D01*
X155106502Y-179349533D01*
X154951210Y-179353935D01*
X154836169Y-179359662D01*
X154753284Y-179367463D01*
X154694457Y-179378083D01*
X154651592Y-179392269D01*
X154618697Y-179409474D01*
X154487268Y-179459671D01*
X154352988Y-179457377D01*
X154228193Y-179403563D01*
X154192668Y-179375965D01*
X154131438Y-179315462D01*
X154102064Y-179258755D01*
X154093239Y-179179889D01*
X154092946Y-179150716D01*
X154270765Y-179150716D01*
X154274430Y-179175275D01*
X154320810Y-179241015D01*
X154395924Y-179270573D01*
X154482410Y-179260340D01*
X154537408Y-179229941D01*
X154570924Y-179175450D01*
X154562875Y-179111108D01*
X154521883Y-179052893D01*
X154456571Y-179016787D01*
X154419822Y-179012000D01*
X154347847Y-179033411D01*
X154292820Y-179085648D01*
X154270765Y-179150716D01*
X154092946Y-179150716D01*
X154092908Y-179146938D01*
X154097796Y-179055565D01*
X154120407Y-178993255D01*
X154172658Y-178932929D01*
X154197201Y-178909973D01*
X154311172Y-178836459D01*
X154432660Y-178811128D01*
X154549433Y-178835141D01*
X154608609Y-178870889D01*
X154636176Y-178889758D01*
X154669640Y-178903896D01*
X154716995Y-178913981D01*
X154786233Y-178920688D01*
X154885345Y-178924693D01*
X155022323Y-178926674D01*
X155205160Y-178927305D01*
X155275637Y-178927333D01*
X155474625Y-178927014D01*
X155624947Y-178925615D01*
X155734381Y-178922468D01*
X155810703Y-178916908D01*
X155861692Y-178908270D01*
X155895125Y-178895888D01*
X155918778Y-178879096D01*
X155926635Y-178871606D01*
X155991595Y-178770137D01*
X156007246Y-178653446D01*
X155972942Y-178534906D01*
X155945032Y-178489889D01*
X155928262Y-178471446D01*
X155903427Y-178457178D01*
X155863190Y-178446291D01*
X155800215Y-178437992D01*
X155707165Y-178431490D01*
X155576703Y-178425992D01*
X155401491Y-178420704D01*
X155273529Y-178417347D01*
X155045749Y-178410705D01*
X154866392Y-178402644D01*
X154727438Y-178391450D01*
X154620864Y-178375406D01*
X154538651Y-178352799D01*
X154472778Y-178321912D01*
X154415223Y-178281030D01*
X154357966Y-178228440D01*
X154349162Y-178219690D01*
X154256241Y-178113113D01*
X154199371Y-178007447D01*
X154171119Y-177883518D01*
X154164024Y-177742000D01*
X154167003Y-177621111D01*
X154180044Y-177534145D01*
X154208149Y-177458807D01*
X154241183Y-177398122D01*
X154291985Y-177321983D01*
X155908123Y-177321983D01*
X155948377Y-177377744D01*
X156033115Y-177402473D01*
X156057270Y-177403333D01*
X156126571Y-177394934D01*
X156160293Y-177361828D01*
X156169252Y-177334814D01*
X156175343Y-177255703D01*
X156167392Y-177206254D01*
X156143535Y-177166016D01*
X156095301Y-177152870D01*
X156045414Y-177154828D01*
X155969862Y-177170219D01*
X155929190Y-177208699D01*
X155915956Y-177239369D01*
X155908123Y-177321983D01*
X154291985Y-177321983D01*
X154307940Y-177298072D01*
X154381927Y-177219611D01*
X154470637Y-177160288D01*
X154581563Y-177117654D01*
X154722196Y-177089259D01*
X154900030Y-177072652D01*
X155122557Y-177065384D01*
X155261560Y-177064480D01*
X155445971Y-177063901D01*
X155582963Y-177061748D01*
X155681559Y-177057168D01*
X155750780Y-177049309D01*
X155799646Y-177037319D01*
X155837181Y-177020344D01*
X155856797Y-177008222D01*
X155957931Y-176965672D01*
X156060049Y-176951963D01*
X156142039Y-176959285D01*
G37*
M02*
