G04 #@! TF.GenerationSoftware,KiCad,Pcbnew,10.0.6*
G04 #@! TF.CreationDate,2026-09-30T21:29:56-07:00*
G04 #@! TF.ProjectId,PassiveMultiplesFaceplate,50617373-6976-4654-9d75-6c7469706c65,rev?*
G04 #@! TF.SameCoordinates,Original*
G04 #@! TF.FileFunction,Soldermask,Bot*
G04 #@! TF.FilePolarity,Negative*
%FSLAX46Y46*%
G04 Gerber Fmt 4.6, Leading zero omitted, Abs format (unit mm)*
G04 Created by KiCad (PCBNEW 10.0.6) date 2026-09-30 21:29:56*
%MOMM*%
%LPD*%
G01*
G04 APERTURE LIST*
G04 APERTURE END LIST*
G36*
X150117730Y-176604089D02*
G01*
X150129536Y-176604089D01*
X150187663Y-176613295D01*
X150322042Y-176630986D01*
X150354837Y-176639773D01*
X150385418Y-176644617D01*
X150444229Y-176663726D01*
X150530611Y-176686872D01*
X150585724Y-176709700D01*
X150631810Y-176724675D01*
X150674987Y-176746674D01*
X150730099Y-176769503D01*
X150807539Y-176814213D01*
X150862645Y-176842291D01*
X150887697Y-176860492D01*
X150917096Y-176877466D01*
X151024651Y-176959995D01*
X151072239Y-176994570D01*
X151080579Y-177002910D01*
X151088401Y-177008912D01*
X151241087Y-177161598D01*
X151247088Y-177169419D01*
X151255430Y-177177761D01*
X151290008Y-177225354D01*
X151372533Y-177332903D01*
X151389505Y-177362299D01*
X151407709Y-177387355D01*
X151435789Y-177442466D01*
X151480496Y-177519900D01*
X151503321Y-177575006D01*
X151525325Y-177618190D01*
X151540301Y-177664282D01*
X151563127Y-177719388D01*
X151586269Y-177805757D01*
X151605383Y-177864582D01*
X151610227Y-177895169D01*
X151619013Y-177927957D01*
X151636703Y-178062327D01*
X151645911Y-178120464D01*
X151645911Y-178132269D01*
X151647197Y-178142038D01*
X151647197Y-178357961D01*
X151645911Y-178367729D01*
X151645911Y-178379536D01*
X151636702Y-178437677D01*
X151619013Y-178572042D01*
X151610228Y-178604827D01*
X151605383Y-178635418D01*
X151586268Y-178694246D01*
X151563127Y-178780611D01*
X151540302Y-178835713D01*
X151525325Y-178881810D01*
X151503319Y-178924997D01*
X151480496Y-178980099D01*
X151435793Y-179057525D01*
X151407709Y-179112645D01*
X151389502Y-179137704D01*
X151372533Y-179167096D01*
X151290022Y-179274627D01*
X151255430Y-179322239D01*
X151247085Y-179330583D01*
X151241087Y-179338401D01*
X151088401Y-179491087D01*
X151080583Y-179497085D01*
X151072239Y-179505430D01*
X151024627Y-179540022D01*
X150917096Y-179622533D01*
X150887704Y-179639502D01*
X150862645Y-179657709D01*
X150807525Y-179685793D01*
X150730099Y-179730496D01*
X150674997Y-179753319D01*
X150631810Y-179775325D01*
X150585713Y-179790302D01*
X150530611Y-179813127D01*
X150444246Y-179836268D01*
X150385418Y-179855383D01*
X150354827Y-179860228D01*
X150322042Y-179869013D01*
X150187677Y-179886702D01*
X150129536Y-179895911D01*
X150117729Y-179895911D01*
X150107961Y-179897197D01*
X149892039Y-179897197D01*
X149882271Y-179895911D01*
X149870464Y-179895911D01*
X149812324Y-179886702D01*
X149677957Y-179869013D01*
X149645169Y-179860227D01*
X149614582Y-179855383D01*
X149555757Y-179836269D01*
X149469388Y-179813127D01*
X149414282Y-179790301D01*
X149368190Y-179775325D01*
X149325006Y-179753321D01*
X149269900Y-179730496D01*
X149192466Y-179685789D01*
X149137355Y-179657709D01*
X149112299Y-179639505D01*
X149082903Y-179622533D01*
X148975354Y-179540008D01*
X148927761Y-179505430D01*
X148919419Y-179497088D01*
X148911598Y-179491087D01*
X148758912Y-179338401D01*
X148752910Y-179330579D01*
X148744570Y-179322239D01*
X148709995Y-179274651D01*
X148627466Y-179167096D01*
X148610492Y-179137697D01*
X148592291Y-179112645D01*
X148564213Y-179057539D01*
X148519503Y-178980099D01*
X148496674Y-178924987D01*
X148474675Y-178881810D01*
X148459700Y-178835724D01*
X148436872Y-178780611D01*
X148413726Y-178694229D01*
X148394617Y-178635418D01*
X148389773Y-178604837D01*
X148380986Y-178572042D01*
X148363295Y-178437663D01*
X148354089Y-178379536D01*
X148354089Y-178367729D01*
X148352803Y-178357961D01*
X148352803Y-178142038D01*
X148354089Y-178132269D01*
X148354089Y-178120464D01*
X148363294Y-178062341D01*
X148380986Y-177927957D01*
X148389773Y-177895160D01*
X148394617Y-177864582D01*
X148413724Y-177805775D01*
X148436872Y-177719388D01*
X148459702Y-177664271D01*
X148474675Y-177618190D01*
X148496672Y-177575016D01*
X148519503Y-177519900D01*
X148564217Y-177442451D01*
X148592291Y-177387355D01*
X148610489Y-177362306D01*
X148627466Y-177332903D01*
X148710009Y-177225329D01*
X148744570Y-177177761D01*
X148752906Y-177169424D01*
X148758912Y-177161598D01*
X148911598Y-177008912D01*
X148919424Y-177002906D01*
X148927761Y-176994570D01*
X148975329Y-176960009D01*
X149082903Y-176877466D01*
X149112306Y-176860489D01*
X149137355Y-176842291D01*
X149192451Y-176814217D01*
X149269900Y-176769503D01*
X149325016Y-176746672D01*
X149368190Y-176724675D01*
X149414271Y-176709702D01*
X149469388Y-176686872D01*
X149555775Y-176663724D01*
X149614582Y-176644617D01*
X149645160Y-176639773D01*
X149677957Y-176630986D01*
X149812338Y-176613295D01*
X149870464Y-176604089D01*
X149882270Y-176604089D01*
X149892039Y-176602803D01*
X150107961Y-176602803D01*
X150117730Y-176604089D01*
G37*
G36*
X150511061Y-158992108D02*
G01*
X150844625Y-159068241D01*
X151167567Y-159181244D01*
X151475826Y-159329693D01*
X151765526Y-159511724D01*
X152033023Y-159725046D01*
X152274954Y-159966977D01*
X152488276Y-160234474D01*
X152670307Y-160524174D01*
X152818756Y-160832433D01*
X152931759Y-161155375D01*
X153007892Y-161488939D01*
X153046200Y-161828929D01*
X153046200Y-162171071D01*
X153007892Y-162511061D01*
X152931759Y-162844625D01*
X152818756Y-163167567D01*
X152670307Y-163475826D01*
X152488276Y-163765526D01*
X152274954Y-164033023D01*
X152033023Y-164274954D01*
X151765526Y-164488276D01*
X151475826Y-164670307D01*
X151167567Y-164818756D01*
X150844625Y-164931759D01*
X150511061Y-165007892D01*
X150171071Y-165046200D01*
X149828929Y-165046200D01*
X149488939Y-165007892D01*
X149155375Y-164931759D01*
X148832433Y-164818756D01*
X148524174Y-164670307D01*
X148234474Y-164488276D01*
X147966977Y-164274954D01*
X147725046Y-164033023D01*
X147511724Y-163765526D01*
X147329693Y-163475826D01*
X147181244Y-163167567D01*
X147068241Y-162844625D01*
X146992108Y-162511061D01*
X146953800Y-162171071D01*
X146953800Y-161828929D01*
X146992108Y-161488939D01*
X147068241Y-161155375D01*
X147181244Y-160832433D01*
X147329693Y-160524174D01*
X147511724Y-160234474D01*
X147725046Y-159966977D01*
X147966977Y-159725046D01*
X148234474Y-159511724D01*
X148524174Y-159329693D01*
X148832433Y-159181244D01*
X149155375Y-159068241D01*
X149488939Y-158992108D01*
X149828929Y-158953800D01*
X150171071Y-158953800D01*
X150511061Y-158992108D01*
G37*
G36*
X150511061Y-146992108D02*
G01*
X150844625Y-147068241D01*
X151167567Y-147181244D01*
X151475826Y-147329693D01*
X151765526Y-147511724D01*
X152033023Y-147725046D01*
X152274954Y-147966977D01*
X152488276Y-148234474D01*
X152670307Y-148524174D01*
X152818756Y-148832433D01*
X152931759Y-149155375D01*
X153007892Y-149488939D01*
X153046200Y-149828929D01*
X153046200Y-150171071D01*
X153007892Y-150511061D01*
X152931759Y-150844625D01*
X152818756Y-151167567D01*
X152670307Y-151475826D01*
X152488276Y-151765526D01*
X152274954Y-152033023D01*
X152033023Y-152274954D01*
X151765526Y-152488276D01*
X151475826Y-152670307D01*
X151167567Y-152818756D01*
X150844625Y-152931759D01*
X150511061Y-153007892D01*
X150171071Y-153046200D01*
X149828929Y-153046200D01*
X149488939Y-153007892D01*
X149155375Y-152931759D01*
X148832433Y-152818756D01*
X148524174Y-152670307D01*
X148234474Y-152488276D01*
X147966977Y-152274954D01*
X147725046Y-152033023D01*
X147511724Y-151765526D01*
X147329693Y-151475826D01*
X147181244Y-151167567D01*
X147068241Y-150844625D01*
X146992108Y-150511061D01*
X146953800Y-150171071D01*
X146953800Y-149828929D01*
X146992108Y-149488939D01*
X147068241Y-149155375D01*
X147181244Y-148832433D01*
X147329693Y-148524174D01*
X147511724Y-148234474D01*
X147725046Y-147966977D01*
X147966977Y-147725046D01*
X148234474Y-147511724D01*
X148524174Y-147329693D01*
X148832433Y-147181244D01*
X149155375Y-147068241D01*
X149488939Y-146992108D01*
X149828929Y-146953800D01*
X150171071Y-146953800D01*
X150511061Y-146992108D01*
G37*
G36*
X150511061Y-134992108D02*
G01*
X150844625Y-135068241D01*
X151167567Y-135181244D01*
X151475826Y-135329693D01*
X151765526Y-135511724D01*
X152033023Y-135725046D01*
X152274954Y-135966977D01*
X152488276Y-136234474D01*
X152670307Y-136524174D01*
X152818756Y-136832433D01*
X152931759Y-137155375D01*
X153007892Y-137488939D01*
X153046200Y-137828929D01*
X153046200Y-138171071D01*
X153007892Y-138511061D01*
X152931759Y-138844625D01*
X152818756Y-139167567D01*
X152670307Y-139475826D01*
X152488276Y-139765526D01*
X152274954Y-140033023D01*
X152033023Y-140274954D01*
X151765526Y-140488276D01*
X151475826Y-140670307D01*
X151167567Y-140818756D01*
X150844625Y-140931759D01*
X150511061Y-141007892D01*
X150171071Y-141046200D01*
X149828929Y-141046200D01*
X149488939Y-141007892D01*
X149155375Y-140931759D01*
X148832433Y-140818756D01*
X148524174Y-140670307D01*
X148234474Y-140488276D01*
X147966977Y-140274954D01*
X147725046Y-140033023D01*
X147511724Y-139765526D01*
X147329693Y-139475826D01*
X147181244Y-139167567D01*
X147068241Y-138844625D01*
X146992108Y-138511061D01*
X146953800Y-138171071D01*
X146953800Y-137828929D01*
X146992108Y-137488939D01*
X147068241Y-137155375D01*
X147181244Y-136832433D01*
X147329693Y-136524174D01*
X147511724Y-136234474D01*
X147725046Y-135966977D01*
X147966977Y-135725046D01*
X148234474Y-135511724D01*
X148524174Y-135329693D01*
X148832433Y-135181244D01*
X149155375Y-135068241D01*
X149488939Y-134992108D01*
X149828929Y-134953800D01*
X150171071Y-134953800D01*
X150511061Y-134992108D01*
G37*
G36*
X150511061Y-122992108D02*
G01*
X150844625Y-123068241D01*
X151167567Y-123181244D01*
X151475826Y-123329693D01*
X151765526Y-123511724D01*
X152033023Y-123725046D01*
X152274954Y-123966977D01*
X152488276Y-124234474D01*
X152670307Y-124524174D01*
X152818756Y-124832433D01*
X152931759Y-125155375D01*
X153007892Y-125488939D01*
X153046200Y-125828929D01*
X153046200Y-126171071D01*
X153007892Y-126511061D01*
X152931759Y-126844625D01*
X152818756Y-127167567D01*
X152670307Y-127475826D01*
X152488276Y-127765526D01*
X152274954Y-128033023D01*
X152033023Y-128274954D01*
X151765526Y-128488276D01*
X151475826Y-128670307D01*
X151167567Y-128818756D01*
X150844625Y-128931759D01*
X150511061Y-129007892D01*
X150171071Y-129046200D01*
X149828929Y-129046200D01*
X149488939Y-129007892D01*
X149155375Y-128931759D01*
X148832433Y-128818756D01*
X148524174Y-128670307D01*
X148234474Y-128488276D01*
X147966977Y-128274954D01*
X147725046Y-128033023D01*
X147511724Y-127765526D01*
X147329693Y-127475826D01*
X147181244Y-127167567D01*
X147068241Y-126844625D01*
X146992108Y-126511061D01*
X146953800Y-126171071D01*
X146953800Y-125828929D01*
X146992108Y-125488939D01*
X147068241Y-125155375D01*
X147181244Y-124832433D01*
X147329693Y-124524174D01*
X147511724Y-124234474D01*
X147725046Y-123966977D01*
X147966977Y-123725046D01*
X148234474Y-123511724D01*
X148524174Y-123329693D01*
X148832433Y-123181244D01*
X149155375Y-123068241D01*
X149488939Y-122992108D01*
X149828929Y-122953800D01*
X150171071Y-122953800D01*
X150511061Y-122992108D01*
G37*
G36*
X150484357Y-113734728D02*
G01*
X150802078Y-113797927D01*
X151112073Y-113891963D01*
X151411359Y-114015931D01*
X151697053Y-114168638D01*
X151966403Y-114348612D01*
X152216816Y-114554120D01*
X152445880Y-114783184D01*
X152651388Y-115033597D01*
X152831362Y-115302947D01*
X152984069Y-115588641D01*
X153108037Y-115887927D01*
X153202073Y-116197922D01*
X153265272Y-116515643D01*
X153297024Y-116838028D01*
X153297024Y-117161972D01*
X153265272Y-117484357D01*
X153202073Y-117802078D01*
X153108037Y-118112073D01*
X152984069Y-118411359D01*
X152831362Y-118697053D01*
X152651388Y-118966403D01*
X152445880Y-119216816D01*
X152216816Y-119445880D01*
X151966403Y-119651388D01*
X151697053Y-119831362D01*
X151411359Y-119984069D01*
X151112073Y-120108037D01*
X150802078Y-120202073D01*
X150484357Y-120265272D01*
X150161972Y-120297024D01*
X149838028Y-120297024D01*
X149515643Y-120265272D01*
X149197922Y-120202073D01*
X148887927Y-120108037D01*
X148588641Y-119984069D01*
X148302947Y-119831362D01*
X148033597Y-119651388D01*
X147783184Y-119445880D01*
X147554120Y-119216816D01*
X147348612Y-118966403D01*
X147168638Y-118697053D01*
X147015931Y-118411359D01*
X146891963Y-118112073D01*
X146797927Y-117802078D01*
X146734728Y-117484357D01*
X146702976Y-117161972D01*
X146702976Y-116838028D01*
X146734728Y-116515643D01*
X146797927Y-116197922D01*
X146891963Y-115887927D01*
X147015931Y-115588641D01*
X147168638Y-115302947D01*
X147348612Y-115033597D01*
X147554120Y-114783184D01*
X147783184Y-114554120D01*
X148033597Y-114348612D01*
X148302947Y-114168638D01*
X148588641Y-114015931D01*
X148887927Y-113891963D01*
X149197922Y-113797927D01*
X149515643Y-113734728D01*
X149838028Y-113702976D01*
X150161972Y-113702976D01*
X150484357Y-113734728D01*
G37*
G36*
X150511061Y-104992108D02*
G01*
X150844625Y-105068241D01*
X151167567Y-105181244D01*
X151475826Y-105329693D01*
X151765526Y-105511724D01*
X152033023Y-105725046D01*
X152274954Y-105966977D01*
X152488276Y-106234474D01*
X152670307Y-106524174D01*
X152818756Y-106832433D01*
X152931759Y-107155375D01*
X153007892Y-107488939D01*
X153046200Y-107828929D01*
X153046200Y-108171071D01*
X153007892Y-108511061D01*
X152931759Y-108844625D01*
X152818756Y-109167567D01*
X152670307Y-109475826D01*
X152488276Y-109765526D01*
X152274954Y-110033023D01*
X152033023Y-110274954D01*
X151765526Y-110488276D01*
X151475826Y-110670307D01*
X151167567Y-110818756D01*
X150844625Y-110931759D01*
X150511061Y-111007892D01*
X150171071Y-111046200D01*
X149828929Y-111046200D01*
X149488939Y-111007892D01*
X149155375Y-110931759D01*
X148832433Y-110818756D01*
X148524174Y-110670307D01*
X148234474Y-110488276D01*
X147966977Y-110274954D01*
X147725046Y-110033023D01*
X147511724Y-109765526D01*
X147329693Y-109475826D01*
X147181244Y-109167567D01*
X147068241Y-108844625D01*
X146992108Y-108511061D01*
X146953800Y-108171071D01*
X146953800Y-107828929D01*
X146992108Y-107488939D01*
X147068241Y-107155375D01*
X147181244Y-106832433D01*
X147329693Y-106524174D01*
X147511724Y-106234474D01*
X147725046Y-105966977D01*
X147966977Y-105725046D01*
X148234474Y-105511724D01*
X148524174Y-105329693D01*
X148832433Y-105181244D01*
X149155375Y-105068241D01*
X149488939Y-104992108D01*
X149828929Y-104953800D01*
X150171071Y-104953800D01*
X150511061Y-104992108D01*
G37*
G36*
X150511061Y-92992108D02*
G01*
X150844625Y-93068241D01*
X151167567Y-93181244D01*
X151475826Y-93329693D01*
X151765526Y-93511724D01*
X152033023Y-93725046D01*
X152274954Y-93966977D01*
X152488276Y-94234474D01*
X152670307Y-94524174D01*
X152818756Y-94832433D01*
X152931759Y-95155375D01*
X153007892Y-95488939D01*
X153046200Y-95828929D01*
X153046200Y-96171071D01*
X153007892Y-96511061D01*
X152931759Y-96844625D01*
X152818756Y-97167567D01*
X152670307Y-97475826D01*
X152488276Y-97765526D01*
X152274954Y-98033023D01*
X152033023Y-98274954D01*
X151765526Y-98488276D01*
X151475826Y-98670307D01*
X151167567Y-98818756D01*
X150844625Y-98931759D01*
X150511061Y-99007892D01*
X150171071Y-99046200D01*
X149828929Y-99046200D01*
X149488939Y-99007892D01*
X149155375Y-98931759D01*
X148832433Y-98818756D01*
X148524174Y-98670307D01*
X148234474Y-98488276D01*
X147966977Y-98274954D01*
X147725046Y-98033023D01*
X147511724Y-97765526D01*
X147329693Y-97475826D01*
X147181244Y-97167567D01*
X147068241Y-96844625D01*
X146992108Y-96511061D01*
X146953800Y-96171071D01*
X146953800Y-95828929D01*
X146992108Y-95488939D01*
X147068241Y-95155375D01*
X147181244Y-94832433D01*
X147329693Y-94524174D01*
X147511724Y-94234474D01*
X147725046Y-93966977D01*
X147966977Y-93725046D01*
X148234474Y-93511724D01*
X148524174Y-93329693D01*
X148832433Y-93181244D01*
X149155375Y-93068241D01*
X149488939Y-92992108D01*
X149828929Y-92953800D01*
X150171071Y-92953800D01*
X150511061Y-92992108D01*
G37*
G36*
X150511061Y-80992108D02*
G01*
X150844625Y-81068241D01*
X151167567Y-81181244D01*
X151475826Y-81329693D01*
X151765526Y-81511724D01*
X152033023Y-81725046D01*
X152274954Y-81966977D01*
X152488276Y-82234474D01*
X152670307Y-82524174D01*
X152818756Y-82832433D01*
X152931759Y-83155375D01*
X153007892Y-83488939D01*
X153046200Y-83828929D01*
X153046200Y-84171071D01*
X153007892Y-84511061D01*
X152931759Y-84844625D01*
X152818756Y-85167567D01*
X152670307Y-85475826D01*
X152488276Y-85765526D01*
X152274954Y-86033023D01*
X152033023Y-86274954D01*
X151765526Y-86488276D01*
X151475826Y-86670307D01*
X151167567Y-86818756D01*
X150844625Y-86931759D01*
X150511061Y-87007892D01*
X150171071Y-87046200D01*
X149828929Y-87046200D01*
X149488939Y-87007892D01*
X149155375Y-86931759D01*
X148832433Y-86818756D01*
X148524174Y-86670307D01*
X148234474Y-86488276D01*
X147966977Y-86274954D01*
X147725046Y-86033023D01*
X147511724Y-85765526D01*
X147329693Y-85475826D01*
X147181244Y-85167567D01*
X147068241Y-84844625D01*
X146992108Y-84511061D01*
X146953800Y-84171071D01*
X146953800Y-83828929D01*
X146992108Y-83488939D01*
X147068241Y-83155375D01*
X147181244Y-82832433D01*
X147329693Y-82524174D01*
X147511724Y-82234474D01*
X147725046Y-81966977D01*
X147966977Y-81725046D01*
X148234474Y-81511724D01*
X148524174Y-81329693D01*
X148832433Y-81181244D01*
X149155375Y-81068241D01*
X149488939Y-80992108D01*
X149828929Y-80953800D01*
X150171071Y-80953800D01*
X150511061Y-80992108D01*
G37*
G36*
X150511061Y-68992108D02*
G01*
X150844625Y-69068241D01*
X151167567Y-69181244D01*
X151475826Y-69329693D01*
X151765526Y-69511724D01*
X152033023Y-69725046D01*
X152274954Y-69966977D01*
X152488276Y-70234474D01*
X152670307Y-70524174D01*
X152818756Y-70832433D01*
X152931759Y-71155375D01*
X153007892Y-71488939D01*
X153046200Y-71828929D01*
X153046200Y-72171071D01*
X153007892Y-72511061D01*
X152931759Y-72844625D01*
X152818756Y-73167567D01*
X152670307Y-73475826D01*
X152488276Y-73765526D01*
X152274954Y-74033023D01*
X152033023Y-74274954D01*
X151765526Y-74488276D01*
X151475826Y-74670307D01*
X151167567Y-74818756D01*
X150844625Y-74931759D01*
X150511061Y-75007892D01*
X150171071Y-75046200D01*
X149828929Y-75046200D01*
X149488939Y-75007892D01*
X149155375Y-74931759D01*
X148832433Y-74818756D01*
X148524174Y-74670307D01*
X148234474Y-74488276D01*
X147966977Y-74274954D01*
X147725046Y-74033023D01*
X147511724Y-73765526D01*
X147329693Y-73475826D01*
X147181244Y-73167567D01*
X147068241Y-72844625D01*
X146992108Y-72511061D01*
X146953800Y-72171071D01*
X146953800Y-71828929D01*
X146992108Y-71488939D01*
X147068241Y-71155375D01*
X147181244Y-70832433D01*
X147329693Y-70524174D01*
X147511724Y-70234474D01*
X147725046Y-69966977D01*
X147966977Y-69725046D01*
X148234474Y-69511724D01*
X148524174Y-69329693D01*
X148832433Y-69181244D01*
X149155375Y-69068241D01*
X149488939Y-68992108D01*
X149828929Y-68953800D01*
X150171071Y-68953800D01*
X150511061Y-68992108D01*
G37*
G36*
X150117730Y-54104089D02*
G01*
X150129536Y-54104089D01*
X150187663Y-54113295D01*
X150322042Y-54130986D01*
X150354837Y-54139773D01*
X150385418Y-54144617D01*
X150444229Y-54163726D01*
X150530611Y-54186872D01*
X150585724Y-54209700D01*
X150631810Y-54224675D01*
X150674987Y-54246674D01*
X150730099Y-54269503D01*
X150807539Y-54314213D01*
X150862645Y-54342291D01*
X150887697Y-54360492D01*
X150917096Y-54377466D01*
X151024651Y-54459995D01*
X151072239Y-54494570D01*
X151080579Y-54502910D01*
X151088401Y-54508912D01*
X151241087Y-54661598D01*
X151247088Y-54669419D01*
X151255430Y-54677761D01*
X151290008Y-54725354D01*
X151372533Y-54832903D01*
X151389505Y-54862299D01*
X151407709Y-54887355D01*
X151435789Y-54942466D01*
X151480496Y-55019900D01*
X151503321Y-55075006D01*
X151525325Y-55118190D01*
X151540301Y-55164282D01*
X151563127Y-55219388D01*
X151586269Y-55305757D01*
X151605383Y-55364582D01*
X151610227Y-55395169D01*
X151619013Y-55427957D01*
X151636703Y-55562327D01*
X151645911Y-55620464D01*
X151645911Y-55632269D01*
X151647197Y-55642038D01*
X151647197Y-55857961D01*
X151645911Y-55867729D01*
X151645911Y-55879536D01*
X151636702Y-55937677D01*
X151619013Y-56072042D01*
X151610228Y-56104827D01*
X151605383Y-56135418D01*
X151586268Y-56194246D01*
X151563127Y-56280611D01*
X151540302Y-56335713D01*
X151525325Y-56381810D01*
X151503319Y-56424997D01*
X151480496Y-56480099D01*
X151435793Y-56557525D01*
X151407709Y-56612645D01*
X151389502Y-56637704D01*
X151372533Y-56667096D01*
X151290022Y-56774627D01*
X151255430Y-56822239D01*
X151247085Y-56830583D01*
X151241087Y-56838401D01*
X151088401Y-56991087D01*
X151080583Y-56997085D01*
X151072239Y-57005430D01*
X151024627Y-57040022D01*
X150917096Y-57122533D01*
X150887704Y-57139502D01*
X150862645Y-57157709D01*
X150807525Y-57185793D01*
X150730099Y-57230496D01*
X150674997Y-57253319D01*
X150631810Y-57275325D01*
X150585713Y-57290302D01*
X150530611Y-57313127D01*
X150444246Y-57336268D01*
X150385418Y-57355383D01*
X150354827Y-57360228D01*
X150322042Y-57369013D01*
X150187677Y-57386702D01*
X150129536Y-57395911D01*
X150117729Y-57395911D01*
X150107961Y-57397197D01*
X149892039Y-57397197D01*
X149882271Y-57395911D01*
X149870464Y-57395911D01*
X149812324Y-57386702D01*
X149677957Y-57369013D01*
X149645169Y-57360227D01*
X149614582Y-57355383D01*
X149555757Y-57336269D01*
X149469388Y-57313127D01*
X149414282Y-57290301D01*
X149368190Y-57275325D01*
X149325006Y-57253321D01*
X149269900Y-57230496D01*
X149192466Y-57185789D01*
X149137355Y-57157709D01*
X149112299Y-57139505D01*
X149082903Y-57122533D01*
X148975354Y-57040008D01*
X148927761Y-57005430D01*
X148919419Y-56997088D01*
X148911598Y-56991087D01*
X148758912Y-56838401D01*
X148752910Y-56830579D01*
X148744570Y-56822239D01*
X148709995Y-56774651D01*
X148627466Y-56667096D01*
X148610492Y-56637697D01*
X148592291Y-56612645D01*
X148564213Y-56557539D01*
X148519503Y-56480099D01*
X148496674Y-56424987D01*
X148474675Y-56381810D01*
X148459700Y-56335724D01*
X148436872Y-56280611D01*
X148413726Y-56194229D01*
X148394617Y-56135418D01*
X148389773Y-56104837D01*
X148380986Y-56072042D01*
X148363295Y-55937663D01*
X148354089Y-55879536D01*
X148354089Y-55867729D01*
X148352803Y-55857961D01*
X148352803Y-55642038D01*
X148354089Y-55632269D01*
X148354089Y-55620464D01*
X148363294Y-55562341D01*
X148380986Y-55427957D01*
X148389773Y-55395160D01*
X148394617Y-55364582D01*
X148413724Y-55305775D01*
X148436872Y-55219388D01*
X148459702Y-55164271D01*
X148474675Y-55118190D01*
X148496672Y-55075016D01*
X148519503Y-55019900D01*
X148564217Y-54942451D01*
X148592291Y-54887355D01*
X148610489Y-54862306D01*
X148627466Y-54832903D01*
X148710009Y-54725329D01*
X148744570Y-54677761D01*
X148752906Y-54669424D01*
X148758912Y-54661598D01*
X148911598Y-54508912D01*
X148919424Y-54502906D01*
X148927761Y-54494570D01*
X148975329Y-54460009D01*
X149082903Y-54377466D01*
X149112306Y-54360489D01*
X149137355Y-54342291D01*
X149192451Y-54314217D01*
X149269900Y-54269503D01*
X149325016Y-54246672D01*
X149368190Y-54224675D01*
X149414271Y-54209702D01*
X149469388Y-54186872D01*
X149555775Y-54163724D01*
X149614582Y-54144617D01*
X149645160Y-54139773D01*
X149677957Y-54130986D01*
X149812338Y-54113295D01*
X149870464Y-54104089D01*
X149882270Y-54104089D01*
X149892039Y-54102803D01*
X150107961Y-54102803D01*
X150117730Y-54104089D01*
G37*
M02*
