G04 #@! TF.GenerationSoftware,KiCad,Pcbnew,(5.1.4)-1*
G04 #@! TF.CreationDate,2019-11-26T23:32:36-08:00*
G04 #@! TF.ProjectId,PassiveMultiplesFaceplate,50617373-6976-4654-9d75-6c7469706c65,rev?*
G04 #@! TF.SameCoordinates,Original*
G04 #@! TF.FileFunction,Legend,Top*
G04 #@! TF.FilePolarity,Positive*
%FSLAX46Y46*%
G04 Gerber Fmt 4.6, Leading zero omitted, Abs format (unit mm)*
G04 Created by KiCad (PCBNEW (5.1.4)-1) date 2019-11-26 23:32:36*
%MOMM*%
%LPD*%
G04 APERTURE LIST*
%ADD10C,0.400000*%
%ADD11C,0.500000*%
%ADD12C,0.700000*%
G04 APERTURE END LIST*
D10*
X145511904Y-180484047D02*
X145630952Y-180141785D01*
X145630952Y-179546547D01*
X145511904Y-179293571D01*
X145392857Y-179159642D01*
X145154761Y-179010833D01*
X144916666Y-178981071D01*
X144678571Y-179070357D01*
X144559523Y-179174523D01*
X144440476Y-179397738D01*
X144321428Y-179859047D01*
X144202380Y-180082261D01*
X144083333Y-180186428D01*
X143845238Y-180275714D01*
X143607142Y-180245952D01*
X143369047Y-180097142D01*
X143250000Y-179963214D01*
X143130952Y-179710238D01*
X143130952Y-179115000D01*
X143250000Y-178772738D01*
X145511904Y-176912619D02*
X145630952Y-177165595D01*
X145630952Y-177641785D01*
X145511904Y-177865000D01*
X145392857Y-177969166D01*
X145154761Y-178058452D01*
X144440476Y-177969166D01*
X144202380Y-177820357D01*
X144083333Y-177686428D01*
X143964285Y-177433452D01*
X143964285Y-176957261D01*
X144083333Y-176734047D01*
X145630952Y-175856071D02*
X143130952Y-175543571D01*
X145630952Y-174784642D02*
X144321428Y-174620952D01*
X144083333Y-174710238D01*
X143964285Y-174933452D01*
X143964285Y-175290595D01*
X144083333Y-175543571D01*
X144202380Y-175677500D01*
X145511904Y-172626904D02*
X145630952Y-172879880D01*
X145630952Y-173356071D01*
X145511904Y-173579285D01*
X145273809Y-173668571D01*
X144321428Y-173549523D01*
X144083333Y-173400714D01*
X143964285Y-173147738D01*
X143964285Y-172671547D01*
X144083333Y-172448333D01*
X144321428Y-172359047D01*
X144559523Y-172388809D01*
X144797619Y-173609047D01*
X143964285Y-171242976D02*
X145630952Y-171451309D01*
X144202380Y-171272738D02*
X144083333Y-171138809D01*
X143964285Y-170885833D01*
X143964285Y-170528690D01*
X144083333Y-170305476D01*
X144321428Y-170216190D01*
X145630952Y-170379880D01*
X145630952Y-169189404D02*
X143130952Y-168876904D01*
X144678571Y-168832261D02*
X145630952Y-168237023D01*
X143964285Y-168028690D02*
X144916666Y-169100119D01*
X142962291Y-62130952D02*
X143274791Y-59630952D01*
X143884910Y-61416666D01*
X144941458Y-59630952D01*
X144628958Y-62130952D01*
X147099196Y-60464285D02*
X146890863Y-62130952D01*
X146027767Y-60464285D02*
X145864077Y-61773809D01*
X145953363Y-62011904D01*
X146176577Y-62130952D01*
X146533720Y-62130952D01*
X146786696Y-62011904D01*
X146920625Y-61892857D01*
X148438482Y-62130952D02*
X148215267Y-62011904D01*
X148125982Y-61773809D01*
X148393839Y-59630952D01*
X149242053Y-60464285D02*
X150194434Y-60464285D01*
X149703363Y-59630952D02*
X149435505Y-61773809D01*
X149524791Y-62011904D01*
X149748005Y-62130952D01*
X149986101Y-62130952D01*
X150819434Y-62130952D02*
X151027767Y-60464285D01*
X151131934Y-59630952D02*
X150998005Y-59750000D01*
X151102172Y-59869047D01*
X151236101Y-59750000D01*
X151131934Y-59630952D01*
X151102172Y-59869047D01*
X152218244Y-60464285D02*
X151905744Y-62964285D01*
X152203363Y-60583333D02*
X152456339Y-60464285D01*
X152932529Y-60464285D01*
X153155744Y-60583333D01*
X153259910Y-60702380D01*
X153349196Y-60940476D01*
X153259910Y-61654761D01*
X153111101Y-61892857D01*
X152977172Y-62011904D01*
X152724196Y-62130952D01*
X152248005Y-62130952D01*
X152024791Y-62011904D01*
X154628958Y-62130952D02*
X154405744Y-62011904D01*
X154316458Y-61773809D01*
X154584315Y-59630952D01*
X156548601Y-62011904D02*
X156295625Y-62130952D01*
X155819434Y-62130952D01*
X155596220Y-62011904D01*
X155506934Y-61773809D01*
X155625982Y-60821428D01*
X155774791Y-60583333D01*
X156027767Y-60464285D01*
X156503958Y-60464285D01*
X156727172Y-60583333D01*
X156816458Y-60821428D01*
X156786696Y-61059523D01*
X155566458Y-61297619D01*
D11*
X145000000Y-126000000D02*
X145000000Y-120000000D01*
X145000000Y-108000000D02*
X145000000Y-113750000D01*
X145000000Y-120000000D02*
X143250000Y-114000000D01*
D12*
X145250000Y-114000000D02*
G75*
G03X145250000Y-114000000I-250000J0D01*
G01*
X145250000Y-120000000D02*
G75*
G03X145250000Y-120000000I-250000J0D01*
G01*
D11*
X150000000Y-126000000D02*
X145000000Y-126000000D01*
X150000000Y-108000000D02*
X145000000Y-108000000D01*
X150000000Y-126000000D02*
X150000000Y-162000000D01*
X150000000Y-72000000D02*
X150000000Y-108000000D01*
M02*
